<svg width="1100" height="303" viewBox="0 0 1100 303" fill="none" xmlns="http://www.w3.org/2000/svg">
<rect x="290.5" y="21.5" width="525.702" height="280.241" rx="24.4622" fill="#EDF9FF" stroke="#2D75F8"/>
<rect opacity="0.9" x="0.5" y="86.2031" width="350.967" height="178.728" rx="24.4622" fill="white" stroke="#2D75F8"/>
<rect opacity="0.9" x="748.535" y="86.2031" width="350.967" height="178.728" rx="24.4622" fill="white" stroke="#2D75F8"/>
<rect x="371.211" y="86.4023" width="350.967" height="178.728" rx="24.4622" fill="#E5FFD6" fill-opacity="0.45" stroke="#00593F"/>
<rect x="113.16" y="70.7256" width="127.201" height="41.9345" rx="20.9672" fill="#2F5BC1"/>
<path d="M137.429 98.6162H134.503V84.497H137.429V98.6162ZM142.636 98.6162H139.749V88.0268H142.499V89.8794H142.616C142.857 89.2619 143.253 88.7776 143.806 88.4266C144.358 88.069 145.021 87.8903 145.795 87.8903C146.529 87.8903 147.17 88.0528 147.716 88.3778C148.268 88.6963 148.694 89.1546 148.993 89.7527C149.292 90.3507 149.442 91.0561 149.442 91.8686V98.6162H146.575V92.3757C146.568 91.7191 146.396 91.2088 146.058 90.8448C145.727 90.4743 145.262 90.289 144.664 90.289C144.053 90.289 143.562 90.484 143.191 90.874C142.821 91.2641 142.636 91.8036 142.636 92.4927V98.6162ZM158.256 93.9553H151.821V91.6541H158.256V93.9553ZM160.714 84.497H166.33C167.344 84.497 168.202 84.6497 168.904 84.9553C169.606 85.2608 170.133 85.6866 170.484 86.2326C170.842 86.7787 171.017 87.4092 171.011 88.1243C171.017 88.9239 170.786 89.5869 170.318 90.1135C169.85 90.6335 169.236 90.978 168.475 91.1471V91.2836C169.015 91.3096 169.522 91.4656 169.996 91.7516C170.471 92.0376 170.851 92.4374 171.137 92.951C171.43 93.458 171.576 94.0463 171.576 94.7159C171.57 95.4764 171.378 96.1492 171.001 96.7343C170.63 97.3193 170.078 97.7809 169.343 98.1189C168.615 98.4504 167.734 98.6162 166.701 98.6162H160.714V84.497ZM166.116 96.198C166.935 96.2045 167.543 96.0517 167.939 95.7397C168.342 95.4277 168.54 94.9954 168.534 94.4428C168.534 94.0463 168.44 93.6953 168.251 93.3898C168.063 93.0842 167.79 92.847 167.432 92.6779C167.081 92.5024 166.668 92.4147 166.194 92.4147H163.639V96.198H166.116ZM165.901 90.406C166.311 90.4125 166.678 90.341 167.003 90.1915C167.334 90.042 167.591 89.8307 167.773 89.5577C167.955 89.2846 168.046 88.9629 168.046 88.5923C168.053 88.0723 167.871 87.6563 167.5 87.3442C167.13 87.0322 166.616 86.8762 165.96 86.8762H163.639V90.406H165.901ZM178.129 98.8307C177.076 98.8307 176.156 98.6032 175.369 98.1482C174.589 97.6866 173.988 97.0431 173.565 96.2175C173.149 95.3919 172.941 94.4363 172.941 93.3508C172.941 92.2652 173.149 91.3128 173.565 90.4938C173.988 89.6682 174.589 89.0279 175.369 88.5728C176.156 88.1178 177.076 87.8903 178.129 87.8903C179.182 87.8903 180.098 88.1178 180.878 88.5728C181.665 89.0279 182.27 89.6682 182.692 90.4938C183.121 91.3128 183.336 92.2652 183.336 93.3508C183.336 94.4363 183.121 95.3919 182.692 96.2175C182.27 97.0431 181.665 97.6866 180.878 98.1482C180.098 98.6032 179.182 98.8307 178.129 98.8307ZM175.866 93.3508C175.866 93.9813 175.951 94.5404 176.12 95.0279C176.296 95.5089 176.556 95.8892 176.9 96.1687C177.245 96.4483 177.661 96.588 178.148 96.588C178.623 96.588 179.029 96.4515 179.367 96.1785C179.705 95.899 179.959 95.5187 180.128 95.0376C180.303 94.5566 180.391 94.0073 180.391 93.3898C180.391 92.7527 180.306 92.1872 180.137 91.6931C179.968 91.1926 179.715 90.8025 179.377 90.523C179.039 90.237 178.629 90.094 178.148 90.094C177.661 90.094 177.245 90.2337 176.9 90.5133C176.556 90.7928 176.296 91.1796 176.12 91.6736C175.951 92.1611 175.866 92.7202 175.866 93.3508ZM191.936 88.0268H194.822V98.6162H192.053V96.705H191.936C191.689 97.3356 191.286 97.8361 190.727 98.2067C190.168 98.5707 189.498 98.7527 188.718 98.7527C188.016 98.7527 187.395 98.5935 186.856 98.2749C186.316 97.9499 185.897 97.4884 185.598 96.8903C185.299 96.2923 185.149 95.5869 185.149 94.7744V88.0268H188.036V94.2673C188.036 94.8914 188.201 95.3887 188.533 95.7592C188.871 96.1232 189.323 96.3085 189.888 96.315C190.252 96.3085 190.59 96.2208 190.902 96.0517C191.214 95.8827 191.465 95.6325 191.653 95.3009C191.842 94.9694 191.936 94.5729 191.936 94.1113V88.0268ZM199.951 98.6162H197.065V88.0268H199.815V89.8794H199.932C200.172 89.2619 200.569 88.7776 201.121 88.4266C201.674 88.069 202.337 87.8903 203.11 87.8903C203.845 87.8903 204.485 88.0528 205.031 88.3778C205.584 88.6963 206.01 89.1546 206.309 89.7527C206.608 90.3507 206.757 91.0561 206.757 91.8686V98.6162H203.89V92.3757C203.884 91.7191 203.712 91.2088 203.374 90.8448C203.042 90.4743 202.577 90.289 201.979 90.289C201.368 90.289 200.877 90.484 200.507 90.874C200.136 91.2641 199.951 91.8036 199.951 92.4927V98.6162ZM212.9 98.7917C212.081 98.7917 211.347 98.5805 210.697 98.1579C210.046 97.7289 209.533 97.1048 209.156 96.2858C208.779 95.4602 208.59 94.4753 208.59 93.3312C208.59 92.1611 208.782 91.1698 209.166 90.3572C209.549 89.5382 210.066 88.9239 210.716 88.5143C211.373 88.0983 212.101 87.8903 212.9 87.8903C213.7 87.8903 214.34 88.0755 214.821 88.4461C215.309 88.8166 215.669 89.2684 215.903 89.8014H216.001V84.497H218.887V98.6162H216.04V96.9196H215.903C215.663 97.4461 215.299 97.8914 214.811 98.2554C214.324 98.613 213.687 98.7917 212.9 98.7917ZM211.555 93.2825C211.555 94.2511 211.746 95.0279 212.13 95.6129C212.52 96.1915 213.076 96.484 213.797 96.4905C214.272 96.4905 214.678 96.3605 215.016 96.1005C215.354 95.834 215.611 95.4634 215.786 94.9889C215.968 94.5079 216.059 93.9488 216.059 93.3117C216.059 92.3497 215.861 91.5891 215.465 91.03C215.068 90.471 214.512 90.1915 213.797 90.1915C213.082 90.1915 212.53 90.4743 212.14 91.0398C211.75 91.5988 211.555 92.3464 211.555 93.2825Z" fill="white"/>
<rect x="445" width="206" height="42" rx="21" fill="#2D75F8"/>
<path d="M496.15 18.3153C495.75 16.9892 494.687 16.1799 493.147 16.1701C490.962 16.1799 489.48 17.8472 489.48 20.8115C489.48 23.7953 490.914 25.4822 493.166 25.4919C495.185 25.4822 496.384 24.3413 496.423 22.5667H493.361V20.363H499.251V22.1181C499.251 25.8234 496.706 28.0856 493.147 28.0856C489.188 28.0856 486.497 25.3164 486.497 20.8505C486.497 16.2676 489.363 13.5764 493.088 13.5764C496.277 13.5764 498.724 15.5363 499.114 18.3153H496.15ZM500.83 24.9264C500.84 22.5667 502.732 21.7963 504.77 21.6696C505.53 21.6208 506.954 21.5526 507.402 21.5331V20.675C507.393 19.7877 506.788 19.2806 505.706 19.2709C504.721 19.2806 504.107 19.7194 503.951 20.441H501.201C501.376 18.6078 502.976 17.1647 505.784 17.1647C508.095 17.1647 510.279 18.1983 510.269 20.753V27.8906H507.539V26.428H507.461C506.944 27.4031 505.93 28.0954 504.36 28.0856C502.332 28.0954 500.84 27.0228 500.83 24.9264ZM503.6 24.8484C503.6 25.6577 504.253 26.0867 505.179 26.0965C506.496 26.0867 507.412 25.2286 507.402 24.1073V23.337C506.964 23.3565 505.725 23.4247 505.238 23.4637C504.233 23.5515 503.6 24.0293 503.6 24.8484ZM512.473 27.8906V17.3012H515.262V19.1344H515.379C515.759 17.8375 516.744 17.1452 517.933 17.1452C518.226 17.1452 518.596 17.1842 518.85 17.2427V19.8169C518.577 19.7292 518.021 19.6609 517.621 19.6609C516.315 19.6609 515.349 20.5677 515.359 21.8646V27.8906H512.473ZM519.454 24.9264C519.464 22.5667 521.356 21.7963 523.394 21.6696C524.154 21.6208 525.578 21.5526 526.027 21.5331V20.675C526.017 19.7877 525.412 19.2806 524.33 19.2709C523.345 19.2806 522.731 19.7194 522.575 20.441H519.825C520 18.6078 521.6 17.1647 524.408 17.1647C526.719 17.1647 528.903 18.1983 528.893 20.753V27.8906H526.163V26.428H526.085C525.568 27.4031 524.554 28.0954 522.984 28.0856C520.956 28.0954 519.464 27.0228 519.454 24.9264ZM522.224 24.8484C522.224 25.6577 522.877 26.0867 523.803 26.0965C525.12 26.0867 526.036 25.2286 526.027 24.1073V23.337C525.588 23.3565 524.349 23.4247 523.862 23.4637C522.857 23.5515 522.224 24.0293 522.224 24.8484ZM531.097 27.8906V13.7714H533.983V21.3576H534.139L537.572 17.3012H540.887L536.938 21.8841L541.101 27.8906H537.708L534.793 23.5807L533.983 24.4973V27.8906H531.097ZM546.893 13.7714H550.521L554.441 23.3467H554.597L558.516 13.7714H562.144V27.8906H559.296V18.6468H559.179L555.494 27.8321H553.543L549.858 18.6078H549.741V27.8906H546.893V13.7714ZM563.957 24.9264C563.967 22.5667 565.859 21.7963 567.897 21.6696C568.657 21.6208 570.081 21.5526 570.529 21.5331V20.675C570.52 19.7877 569.915 19.2806 568.833 19.2709C567.848 19.2806 567.234 19.7194 567.078 20.441H564.328C564.503 18.6078 566.103 17.1647 568.911 17.1647C571.222 17.1647 573.406 18.1983 573.396 20.753V27.8906H570.666V26.428H570.588C570.071 27.4031 569.057 28.0954 567.487 28.0856C565.459 28.0954 563.967 27.0228 563.957 24.9264ZM566.727 24.8484C566.727 25.6577 567.38 26.0867 568.306 26.0965C569.623 26.0867 570.539 25.2286 570.529 24.1073V23.337C570.091 23.3565 568.852 23.4247 568.365 23.4637C567.36 23.5515 566.727 24.0293 566.727 24.8484ZM575.6 27.8906V17.3012H578.389V19.1344H578.506C578.886 17.8375 579.871 17.1452 581.06 17.1452C581.353 17.1452 581.723 17.1842 581.977 17.2427V19.8169C581.704 19.7292 581.148 19.6609 580.748 19.6609C579.442 19.6609 578.476 20.5677 578.486 21.8646V27.8906H575.6ZM583.381 27.8906V13.7714H586.267V21.3576H586.423L589.856 17.3012H593.171L589.222 21.8841L593.385 27.8906H589.992L587.077 23.5807L586.267 24.4973V27.8906H583.381ZM598.865 28.1051C595.618 28.0954 593.629 25.999 593.639 22.6447C593.629 19.3781 595.648 17.1647 598.748 17.1647C601.527 17.1647 603.721 18.9198 603.721 22.5277V23.3467H596.486C596.486 24.9459 597.432 25.9307 598.924 25.9405C599.909 25.9307 600.611 25.5017 600.894 24.8679H603.643C603.234 26.8278 601.479 28.0954 598.865 28.1051ZM596.486 21.5331H600.991C600.981 20.246 600.094 19.3196 598.807 19.3294C597.481 19.3196 596.545 20.3142 596.486 21.5331ZM611.112 17.3012V19.4659H609.123V24.6338C609.114 25.4822 609.533 25.6869 610.118 25.7064C610.41 25.7064 610.917 25.6772 611.268 25.6479V27.9296C610.956 27.9784 610.44 28.0369 609.728 28.0271C607.641 28.0369 606.218 27.1008 606.237 25.0434V19.4659H604.774V17.3012H606.237V14.766H609.123V17.3012H611.112Z" fill="white"/>
<rect x="850" y="71" width="146" height="42" rx="21" fill="#2F5BC1"/>
<path d="M885.067 91.831C885.067 93.3326 884.781 94.6295 884.209 95.7216C883.637 96.8137 882.85 97.649 881.849 98.2276C880.854 98.7996 879.73 99.0856 878.475 99.0856C877.214 99.0856 876.083 98.7996 875.082 98.2276C874.081 97.649 873.294 96.8137 872.722 95.7216C872.15 94.623 871.864 93.3261 871.864 91.831C871.864 90.3294 872.15 89.0325 872.722 87.9404C873.294 86.8483 874.081 86.0163 875.082 85.4442C876.083 84.8657 877.214 84.5764 878.475 84.5764C879.73 84.5764 880.854 84.8657 881.849 85.4442C882.85 86.0163 883.637 86.8483 884.209 87.9404C884.781 89.0325 885.067 90.3294 885.067 91.831ZM874.848 91.831C874.848 92.8191 874.994 93.6642 875.287 94.3662C875.586 95.0618 876.008 95.5883 876.554 95.9459C877.1 96.3034 877.741 96.4854 878.475 96.4919C879.203 96.4854 879.837 96.3034 880.377 95.9459C880.923 95.5818 881.342 95.052 881.635 94.3565C881.934 93.6609 882.083 92.8191 882.083 91.831C882.083 90.8429 881.934 90.0011 881.635 89.3055C881.342 88.6035 880.923 88.0737 880.377 87.7162C879.837 87.3586 879.203 87.1766 878.475 87.1701C877.741 87.1766 877.1 87.3586 876.554 87.7162C876.008 88.0737 875.586 88.6035 875.287 89.3055C874.994 90.0011 874.848 90.8429 874.848 91.831ZM893.901 88.3012H896.787V98.8906H894.018V96.9795H893.901C893.654 97.61 893.251 98.1106 892.692 98.4811C892.133 98.8451 891.463 99.0271 890.683 99.0271C889.981 99.0271 889.36 98.8679 888.821 98.5493C888.281 98.2243 887.862 97.7628 887.563 97.1647C887.264 96.5667 887.114 95.8614 887.114 95.0488V88.3012H890.001V94.5417C890.001 95.1658 890.167 95.6631 890.498 96.0336C890.836 96.3977 891.288 96.5829 891.853 96.5894C892.217 96.5829 892.555 96.4952 892.867 96.3262C893.18 96.1571 893.43 95.9069 893.618 95.5753C893.807 95.2438 893.901 94.8473 893.901 94.3857V88.3012ZM904.608 90.4659H902.618V95.6338C902.612 96.0304 902.693 96.3066 902.862 96.4627C903.038 96.6122 903.288 96.6934 903.613 96.7064C903.912 96.7064 904.295 96.6869 904.764 96.6479V98.9296C904.334 98.9946 903.811 99.0271 903.194 99.0271C902.115 99.0271 901.266 98.7801 900.649 98.2861C900.031 97.7855 899.726 97.038 899.732 96.0434V90.4659H898.269V88.3012H899.732V85.766H902.618V88.3012H904.608V90.4659ZM912.662 94.2297H906.226V91.9285H912.662V94.2297ZM915.119 84.7714H920.735C921.75 84.7714 922.608 84.9242 923.31 85.2297C924.012 85.5352 924.538 85.961 924.889 86.507C925.247 87.0531 925.422 87.6836 925.416 88.3987C925.422 89.1983 925.192 89.8613 924.724 90.3879C924.255 90.9079 923.641 91.2525 922.881 91.4215V91.558C923.42 91.584 923.927 91.74 924.402 92.026C924.876 92.3121 925.257 92.7118 925.543 93.2254C925.835 93.7324 925.981 94.3207 925.981 94.9903C925.975 95.7509 925.783 96.4237 925.406 97.0087C925.036 97.5938 924.483 98.0553 923.748 98.3933C923.02 98.7249 922.14 98.8906 921.106 98.8906H915.119V84.7714ZM920.521 96.4724C921.34 96.4789 921.948 96.3262 922.344 96.0141C922.747 95.7021 922.946 95.2698 922.939 94.7173C922.939 94.3207 922.845 93.9697 922.656 93.6642C922.468 93.3586 922.195 93.1214 921.837 92.9524C921.486 92.7768 921.073 92.6891 920.599 92.6891H918.044V96.4724H920.521ZM920.306 90.6804C920.716 90.6869 921.083 90.6154 921.408 90.4659C921.74 90.3164 921.997 90.1051 922.179 89.8321C922.361 89.5591 922.452 89.2373 922.452 88.8668C922.458 88.3467 922.276 87.9307 921.906 87.6186C921.535 87.3066 921.021 87.1506 920.365 87.1506H918.044V90.6804H920.306ZM932.534 99.1051C931.481 99.1051 930.561 98.8776 929.774 98.4226C928.994 97.961 928.393 97.3175 927.971 96.4919C927.555 95.6663 927.346 94.7108 927.346 93.6252C927.346 92.5396 927.555 91.5872 927.971 90.7682C928.393 89.9426 928.994 89.3023 929.774 88.8472C930.561 88.3922 931.481 88.1647 932.534 88.1647C933.587 88.1647 934.504 88.3922 935.284 88.8472C936.07 89.3023 936.675 89.9426 937.097 90.7682C937.526 91.5872 937.741 92.5396 937.741 93.6252C937.741 94.7108 937.526 95.6663 937.097 96.4919C936.675 97.3175 936.07 97.961 935.284 98.4226C934.504 98.8776 933.587 99.1051 932.534 99.1051ZM930.272 93.6252C930.272 94.2557 930.356 94.8148 930.525 95.3023C930.701 95.7834 930.961 96.1636 931.305 96.4432C931.65 96.7227 932.066 96.8624 932.553 96.8624C933.028 96.8624 933.434 96.7259 933.772 96.4529C934.11 96.1734 934.364 95.7931 934.533 95.3121C934.708 94.831 934.796 94.2817 934.796 93.6642C934.796 93.0271 934.712 92.4616 934.543 91.9675C934.374 91.467 934.12 91.0769 933.782 90.7974C933.444 90.5114 933.034 90.3684 932.553 90.3684C932.066 90.3684 931.65 90.5081 931.305 90.7877C930.961 91.0672 930.701 91.454 930.525 91.948C930.356 92.4356 930.272 92.9946 930.272 93.6252ZM946.341 88.3012H949.227V98.8906H946.458V96.9795H946.341C946.094 97.61 945.691 98.1106 945.132 98.4811C944.573 98.8451 943.903 99.0271 943.123 99.0271C942.421 99.0271 941.801 98.8679 941.261 98.5493C940.721 98.2243 940.302 97.7628 940.003 97.1647C939.704 96.5667 939.555 95.8614 939.555 95.0488V88.3012H942.441V94.5417C942.441 95.1658 942.607 95.6631 942.938 96.0336C943.276 96.3977 943.728 96.5829 944.293 96.5894C944.658 96.5829 944.996 96.4952 945.308 96.3262C945.62 96.1571 945.87 95.9069 946.058 95.5753C946.247 95.2438 946.341 94.8473 946.341 94.3857V88.3012ZM954.356 98.8906H951.47V88.3012H954.22V90.1539H954.337C954.577 89.5363 954.974 89.052 955.526 88.701C956.079 88.3435 956.742 88.1647 957.516 88.1647C958.25 88.1647 958.891 88.3272 959.437 88.6522C959.989 88.9708 960.415 89.429 960.714 90.0271C961.013 90.6252 961.162 91.3305 961.162 92.143V98.8906H958.296V92.6501C958.289 91.9935 958.117 91.4832 957.779 91.1192C957.447 90.7487 956.983 90.5634 956.385 90.5634C955.773 90.5634 955.283 90.7584 954.912 91.1484C954.542 91.5385 954.356 92.078 954.356 92.7671V98.8906ZM967.305 99.0661C966.486 99.0661 965.752 98.8549 965.102 98.4323C964.452 98.0033 963.938 97.3792 963.561 96.5602C963.184 95.7346 962.996 94.7498 962.996 93.6057C962.996 92.4356 963.187 91.4442 963.571 90.6317C963.954 89.8126 964.471 89.1983 965.121 88.7887C965.778 88.3727 966.506 88.1647 967.305 88.1647C968.105 88.1647 968.745 88.35 969.226 88.7205C969.714 89.091 970.075 89.5428 970.309 90.0759H970.406V84.7714H973.293V98.8906H970.445V97.194H970.309C970.068 97.7205 969.704 98.1658 969.217 98.5298C968.729 98.8874 968.092 99.0661 967.305 99.0661ZM965.96 93.5569C965.96 94.5255 966.152 95.3023 966.535 95.8874C966.925 96.4659 967.481 96.7584 968.203 96.7649C968.677 96.7649 969.083 96.6349 969.421 96.3749C969.759 96.1084 970.016 95.7379 970.192 95.2633C970.374 94.7823 970.465 94.2232 970.465 93.5862C970.465 92.6241 970.266 91.8635 969.87 91.3045C969.473 90.7454 968.918 90.4659 968.203 90.4659C967.488 90.4659 966.935 90.7487 966.545 91.3142C966.155 91.8733 965.96 92.6208 965.96 93.5569Z" fill="white"/>
<rect x="455" y="71" width="186" height="42" rx="21" fill="#00593F"/>
<path d="M489.39 84.7714H492.296V94.6198C492.296 97.3597 490.355 99.0856 487.518 99.0856C484.963 99.0856 482.964 97.74 482.974 94.9513H485.899C485.919 96.0726 486.601 96.7259 487.654 96.7259C488.776 96.7259 489.39 96.0044 489.39 94.6198V84.7714ZM499.375 99.1051C496.176 99.0954 494.178 96.9015 494.187 93.6252C494.178 90.3586 496.176 88.1647 499.375 88.1647C502.583 88.1647 504.572 90.3586 504.582 93.6252C504.572 96.9015 502.583 99.0954 499.375 99.1051ZM497.113 93.6252C497.113 95.4778 497.883 96.8527 499.394 96.8624C500.867 96.8527 501.647 95.4778 501.637 93.6252C501.647 91.7628 500.867 90.3684 499.394 90.3684C497.883 90.3684 497.113 91.7628 497.113 93.6252ZM506.395 98.8906V88.3012H509.282V98.8906H506.395ZM506.259 85.454C506.259 84.6349 506.971 83.9816 507.838 83.9718C508.697 83.9816 509.408 84.6349 509.399 85.454C509.408 86.2535 508.697 86.9166 507.838 86.9166C506.971 86.9166 506.259 86.2535 506.259 85.454ZM514.411 92.7671V98.8906H511.524V88.3012H514.274V90.1539H514.391C514.869 88.935 516 88.1647 517.57 88.1647C519.783 88.1647 521.226 89.6761 521.217 92.143V98.8906H518.35V92.6501C518.34 91.3435 517.638 90.5634 516.439 90.5634C515.239 90.5634 514.411 91.3727 514.411 92.7671ZM529.037 88.3012V90.4659H527.048V95.6338C527.038 96.4822 527.457 96.6869 528.042 96.7064C528.335 96.7064 528.842 96.6772 529.193 96.6479V98.9296C528.881 98.9784 528.364 99.0369 527.652 99.0271C525.566 99.0369 524.142 98.1008 524.161 96.0434V90.4659H522.699V88.3012H524.161V85.766H527.048V88.3012H529.037ZM538.339 84.7714V98.8906H535.453V84.7714H538.339ZM545.34 99.1051C542.142 99.0954 540.143 96.9015 540.153 93.6252C540.143 90.3586 542.142 88.1647 545.34 88.1647C548.548 88.1647 550.537 90.3586 550.547 93.6252C550.537 96.9015 548.548 99.0954 545.34 99.1051ZM543.078 93.6252C543.078 95.4778 543.848 96.8527 545.36 96.8624C546.832 96.8527 547.612 95.4778 547.602 93.6252C547.612 91.7628 546.832 90.3684 545.36 90.3684C543.848 90.3684 543.078 91.7628 543.078 93.6252ZM557.119 103.083C554.194 103.083 552.39 101.767 552.224 99.7682H555.072C555.228 100.617 556.027 100.997 557.178 100.997C558.514 100.997 559.411 100.422 559.42 98.9491V97.0185H559.284C558.904 97.8765 557.968 98.7444 556.261 98.7346C553.872 98.7444 551.951 97.0575 551.951 93.5277C551.951 89.9491 553.921 88.1647 556.261 88.1647C558.036 88.1647 558.894 89.2178 559.284 90.0759H559.401V88.3012H562.268V99.0076C562.258 101.709 560.132 103.083 557.119 103.083ZM554.916 93.5667C554.906 95.3998 555.696 96.5602 557.158 96.5699C558.601 96.5602 559.42 95.4486 559.42 93.5667C559.42 91.6847 558.611 90.4659 557.158 90.4659C555.686 90.4659 554.906 91.7433 554.916 93.5667ZM564.51 98.8906V88.3012H567.397V98.8906H564.51ZM564.374 85.454C564.374 84.6349 565.086 83.9816 565.954 83.9718C566.812 83.9816 567.523 84.6349 567.514 85.454C567.523 86.2535 566.812 86.9166 565.954 86.9166C565.086 86.9166 564.374 86.2535 564.374 85.454ZM575.685 91.441C575.558 90.6999 574.915 90.2221 573.949 90.2124C573.013 90.2221 572.301 90.6609 572.311 91.3045C572.301 91.7823 572.672 92.1528 573.676 92.3576L575.568 92.7476C577.625 93.1766 578.62 94.0932 578.63 95.6143C578.62 97.701 576.748 99.0954 573.93 99.1051C571.073 99.0954 569.396 97.818 569.152 95.7509H572.058C572.194 96.5797 572.867 97.0087 573.93 97.0185C574.983 97.0087 575.685 96.5894 575.685 95.9069C575.685 95.3608 575.236 95.0195 574.242 94.8148L572.487 94.4637C570.468 94.064 569.435 93.0304 569.444 91.4605C569.435 89.4323 571.18 88.1647 573.91 88.1647C576.582 88.1647 578.24 89.4323 578.396 91.441H575.685ZM585.982 88.3012V90.4659H583.993V95.6338C583.983 96.4822 584.402 96.6869 584.987 96.7064C585.28 96.7064 585.787 96.6772 586.138 96.6479V98.9296C585.826 98.9784 585.309 99.0369 584.597 99.0271C582.51 99.0369 581.087 98.1008 581.106 96.0434V90.4659H579.644V88.3012H581.106V85.766H583.993V88.3012H585.982ZM587.795 98.8906V88.3012H590.682V98.8906H587.795ZM587.659 85.454C587.659 84.6349 588.371 83.9816 589.239 83.9718C590.097 83.9816 590.808 84.6349 590.799 85.454C590.808 86.2535 590.097 86.9166 589.239 86.9166C588.371 86.9166 587.659 86.2535 587.659 85.454ZM597.683 99.1051C594.436 99.0954 592.486 96.8527 592.495 93.6252C592.486 90.3879 594.475 88.1647 597.683 88.1647C600.413 88.1647 602.266 89.7541 602.383 92.182H599.672C599.496 91.1387 598.814 90.4171 597.722 90.4074C596.337 90.4171 595.421 91.5775 595.421 93.5862C595.421 95.6338 596.318 96.8039 597.722 96.8039C598.736 96.8039 599.487 96.1701 599.672 95.0488H602.383C602.256 97.4475 600.491 99.0954 597.683 99.1051ZM610.222 91.441C610.096 90.6999 609.452 90.2221 608.487 90.2124C607.551 90.2221 606.839 90.6609 606.849 91.3045C606.839 91.7823 607.209 92.1528 608.214 92.3576L610.105 92.7476C612.163 93.1766 613.157 94.0932 613.167 95.6143C613.157 97.701 611.285 99.0954 608.467 99.1051C605.61 99.0954 603.933 97.818 603.689 95.7509H606.595C606.732 96.5797 607.404 97.0087 608.467 97.0185C609.52 97.0087 610.222 96.5894 610.222 95.9069C610.222 95.3608 609.774 95.0195 608.779 94.8148L607.024 94.4637C605.006 94.064 603.972 93.0304 603.982 91.4605C603.972 89.4323 605.718 88.1647 608.448 88.1647C611.119 88.1647 612.777 89.4323 612.933 91.441H610.222Z" fill="white"/>
<rect x="27.0411" y="166.83" width="117.322" height="47.4281" rx="5.40847" fill="#EDF4FF"/>
<rect x="27.0411" y="166.83" width="117.322" height="47.4281" rx="5.40847" stroke="#2F5BC1" stroke-width="2.49622"/>
<path d="M52.3555 196.23V184.918H56.793C59.3633 184.918 60.8398 186.504 60.8398 188.73C60.8398 190.988 59.3398 192.543 56.7305 192.543H54.6992V196.23H52.3555ZM54.6992 190.652H56.3555C57.7461 190.652 58.4258 189.871 58.418 188.73C58.4258 187.605 57.7461 186.848 56.3555 186.84H54.6992V190.652ZM62.2773 196.23V187.746H64.5117V189.215H64.6055C64.9102 188.176 65.6992 187.621 66.6523 187.621C66.8867 187.621 67.1836 187.652 67.3867 187.699V189.762C67.168 189.691 66.7227 189.637 66.4023 189.637C65.3555 189.637 64.582 190.363 64.5898 191.402V196.23H62.2773ZM72.0586 196.402C69.4961 196.395 67.8945 194.637 67.9023 192.012C67.8945 189.395 69.4961 187.637 72.0586 187.637C74.6289 187.637 76.2227 189.395 76.2305 192.012C76.2227 194.637 74.6289 196.395 72.0586 196.402ZM70.2461 192.012C70.2461 193.496 70.8633 194.598 72.0742 194.605C73.2539 194.598 73.8789 193.496 73.8711 192.012C73.8789 190.52 73.2539 189.402 72.0742 189.402C70.8633 189.402 70.2461 190.52 70.2461 192.012ZM80.8086 196.371C78.8711 196.371 77.3555 194.832 77.3555 191.996C77.3555 189.09 78.9336 187.637 80.8086 187.637C82.2305 187.637 82.9102 188.48 83.2148 189.168H83.293V184.918H85.6055V196.23H83.3242V194.871H83.2148C82.8945 195.574 82.1914 196.371 80.8086 196.371ZM79.7305 191.98C79.7227 193.48 80.3555 194.52 81.5273 194.527C82.6836 194.52 83.3398 193.512 83.3398 191.98C83.3398 190.457 82.6914 189.48 81.5273 189.48C80.3477 189.48 79.7227 190.504 79.7305 191.98ZM92.9023 192.621V187.746H95.2148V196.23H92.9961V194.699H92.9023C92.5195 195.684 91.6055 196.34 90.3242 196.34C88.6289 196.34 87.4648 195.137 87.4648 193.152V187.746H89.7773V192.746C89.7773 193.754 90.3555 194.379 91.2617 194.387C92.1055 194.379 92.9023 193.777 92.9023 192.621ZM100.824 196.402C98.2227 196.395 96.6602 194.598 96.668 192.012C96.6602 189.418 98.2539 187.637 100.824 187.637C103.012 187.637 104.496 188.91 104.59 190.855H102.418C102.277 190.02 101.73 189.441 100.855 189.434C99.7461 189.441 99.0117 190.371 99.0117 191.98C99.0117 193.621 99.7305 194.559 100.855 194.559C101.668 194.559 102.27 194.051 102.418 193.152H104.59C104.488 195.074 103.074 196.395 100.824 196.402ZM109.871 196.402C107.27 196.395 105.676 194.715 105.684 192.027C105.676 189.41 107.293 187.637 109.777 187.637C112.004 187.637 113.762 189.043 113.762 191.934V192.59H107.965C107.965 193.871 108.723 194.66 109.918 194.668C110.707 194.66 111.27 194.316 111.496 193.809H113.699C113.371 195.379 111.965 196.395 109.871 196.402ZM107.965 191.137H111.574C111.566 190.105 110.855 189.363 109.824 189.371C108.762 189.363 108.012 190.16 107.965 191.137ZM115.215 196.23V187.746H117.449V189.215H117.543C117.848 188.176 118.637 187.621 119.59 187.621C119.824 187.621 120.121 187.652 120.324 187.699V189.762C120.105 189.691 119.66 189.637 119.34 189.637C118.293 189.637 117.52 190.363 117.527 191.402V196.23H115.215Z" fill="#2F5BC1"/>
<rect x="799.205" y="146.86" width="246.294" height="67.3979" rx="5.40847" fill="#EDF4FF"/>
<rect x="799.205" y="146.86" width="246.294" height="67.3979" rx="5.40847" stroke="#2F5BC1" stroke-width="2.49622"/>
<path d="M837.594 175.933V164.62H842.031C844.602 164.62 846.078 166.065 846.078 168.308C846.078 169.854 845.367 170.979 844.078 171.534L846.484 175.933H843.891L841.727 171.917H839.938V175.933H837.594ZM839.938 170.011H841.594C842.984 170.011 843.664 169.44 843.656 168.308C843.664 167.167 842.984 166.55 841.594 166.542H839.938V170.011ZM851.359 176.104C848.758 176.097 847.164 174.417 847.172 171.729C847.164 169.112 848.781 167.339 851.266 167.339C853.492 167.339 855.25 168.745 855.25 171.636V172.292H849.453C849.453 173.573 850.211 174.362 851.406 174.37C852.195 174.362 852.758 174.019 852.984 173.511H855.188C854.859 175.081 853.453 176.097 851.359 176.104ZM849.453 170.839H853.062C853.055 169.808 852.344 169.065 851.312 169.073C850.25 169.065 849.5 169.862 849.453 170.839ZM861.172 167.448V169.183H859.578V173.323C859.57 174.003 859.906 174.167 860.375 174.183C860.609 174.183 861.016 174.159 861.297 174.136V175.964C861.047 176.003 860.633 176.05 860.062 176.042C858.391 176.05 857.25 175.3 857.266 173.651V169.183H856.094V167.448H857.266V165.417H859.578V167.448H861.172ZM862.219 173.558C862.227 171.667 863.742 171.05 865.375 170.948C865.984 170.909 867.125 170.854 867.484 170.839V170.151C867.477 169.44 866.992 169.034 866.125 169.026C865.336 169.034 864.844 169.386 864.719 169.964H862.516C862.656 168.495 863.938 167.339 866.188 167.339C868.039 167.339 869.789 168.167 869.781 170.214V175.933H867.594V174.761H867.531C867.117 175.542 866.305 176.097 865.047 176.089C863.422 176.097 862.227 175.237 862.219 173.558ZM864.438 173.495C864.438 174.144 864.961 174.487 865.703 174.495C866.758 174.487 867.492 173.8 867.484 172.901V172.284C867.133 172.3 866.141 172.354 865.75 172.386C864.945 172.456 864.438 172.839 864.438 173.495ZM871.547 175.933V167.448H873.859V175.933H871.547ZM871.438 165.167C871.438 164.511 872.008 163.987 872.703 163.979C873.391 163.987 873.961 164.511 873.953 165.167C873.961 165.808 873.391 166.339 872.703 166.339C872.008 166.339 871.438 165.808 871.438 165.167ZM877.969 164.62V175.933H875.656V164.62H877.969ZM889.641 167.854C889.547 166.956 888.836 166.433 887.688 166.433C886.5 166.433 885.836 166.979 885.828 167.729C885.82 168.55 886.664 168.917 887.641 169.136L888.656 169.386C890.594 169.831 892.039 170.815 892.047 172.698C892.039 174.769 890.43 176.097 887.672 176.089C884.938 176.097 883.195 174.831 883.125 172.401H885.406C885.484 173.542 886.391 174.12 887.641 174.12C888.875 174.12 889.672 173.542 889.672 172.698C889.672 171.925 888.969 171.565 887.734 171.261L886.5 170.964C884.594 170.495 883.422 169.542 883.422 167.886C883.414 165.831 885.227 164.464 887.703 164.464C890.211 164.464 891.859 165.854 891.891 167.854H889.641ZM898 167.448V169.183H896.406V173.323C896.398 174.003 896.734 174.167 897.203 174.183C897.438 174.183 897.844 174.159 898.125 174.136V175.964C897.875 176.003 897.461 176.05 896.891 176.042C895.219 176.05 894.078 175.3 894.094 173.651V169.183H892.922V167.448H894.094V165.417H896.406V167.448H898ZM903.172 176.104C900.609 176.097 899.008 174.339 899.016 171.714C899.008 169.097 900.609 167.339 903.172 167.339C905.742 167.339 907.336 169.097 907.344 171.714C907.336 174.339 905.742 176.097 903.172 176.104ZM901.359 171.714C901.359 173.198 901.977 174.3 903.188 174.308C904.367 174.3 904.992 173.198 904.984 171.714C904.992 170.222 904.367 169.104 903.188 169.104C901.977 169.104 901.359 170.222 901.359 171.714ZM908.797 175.933V167.448H911.031V168.917H911.125C911.43 167.878 912.219 167.323 913.172 167.323C913.406 167.323 913.703 167.354 913.906 167.401V169.464C913.688 169.394 913.242 169.339 912.922 169.339C911.875 169.339 911.102 170.065 911.109 171.104V175.933H908.797ZM918.609 176.104C916.008 176.097 914.414 174.417 914.422 171.729C914.414 169.112 916.031 167.339 918.516 167.339C920.742 167.339 922.5 168.745 922.5 171.636V172.292H916.703C916.703 173.573 917.461 174.362 918.656 174.37C919.445 174.362 920.008 174.019 920.234 173.511H922.438C922.109 175.081 920.703 176.097 918.609 176.104ZM916.703 170.839H920.312C920.305 169.808 919.594 169.065 918.562 169.073C917.5 169.065 916.75 169.862 916.703 170.839ZM928.844 164.089L925.188 177.636H923.203L926.844 164.089H928.844ZM929.5 166.558V164.62H938.766V166.558H935.297V175.933H932.969V166.558H929.5ZM939.281 175.933V167.448H941.516V168.917H941.609C941.914 167.878 942.703 167.323 943.656 167.323C943.891 167.323 944.188 167.354 944.391 167.401V169.464C944.172 169.394 943.727 169.339 943.406 169.339C942.359 169.339 941.586 170.065 941.594 171.104V175.933H939.281ZM944.875 173.558C944.883 171.667 946.398 171.05 948.031 170.948C948.641 170.909 949.781 170.854 950.141 170.839V170.151C950.133 169.44 949.648 169.034 948.781 169.026C947.992 169.034 947.5 169.386 947.375 169.964H945.172C945.312 168.495 946.594 167.339 948.844 167.339C950.695 167.339 952.445 168.167 952.438 170.214V175.933H950.25V174.761H950.188C949.773 175.542 948.961 176.097 947.703 176.089C946.078 176.097 944.883 175.237 944.875 173.558ZM947.094 173.495C947.094 174.144 947.617 174.487 948.359 174.495C949.414 174.487 950.148 173.8 950.141 172.901V172.284C949.789 172.3 948.797 172.354 948.406 172.386C947.602 172.456 947.094 172.839 947.094 173.495ZM957.328 176.073C955.391 176.073 953.875 174.534 953.875 171.698C953.875 168.792 955.453 167.339 957.328 167.339C958.75 167.339 959.43 168.183 959.734 168.87H959.812V164.62H962.125V175.933H959.844V174.573H959.734C959.414 175.276 958.711 176.073 957.328 176.073ZM956.25 171.683C956.242 173.183 956.875 174.222 958.047 174.229C959.203 174.222 959.859 173.214 959.859 171.683C959.859 170.159 959.211 169.183 958.047 169.183C956.867 169.183 956.242 170.206 956.25 171.683ZM963.984 175.933V167.448H966.297V175.933H963.984ZM963.875 165.167C963.875 164.511 964.445 163.987 965.141 163.979C965.828 163.987 966.398 164.511 966.391 165.167C966.398 165.808 965.828 166.339 965.141 166.339C964.445 166.339 963.875 165.808 963.875 165.167ZM972.562 167.448V169.183H970.969V173.323C970.961 174.003 971.297 174.167 971.766 174.183C972 174.183 972.406 174.159 972.688 174.136V175.964C972.438 176.003 972.023 176.05 971.453 176.042C969.781 176.05 968.641 175.3 968.656 173.651V169.183H967.484V167.448H968.656V165.417H970.969V167.448H972.562ZM974.016 175.933V167.448H976.328V175.933H974.016ZM973.906 165.167C973.906 164.511 974.477 163.987 975.172 163.979C975.859 163.987 976.43 164.511 976.422 165.167C976.43 165.808 975.859 166.339 975.172 166.339C974.477 166.339 973.906 165.808 973.906 165.167ZM981.938 176.104C979.375 176.097 977.773 174.339 977.781 171.714C977.773 169.097 979.375 167.339 981.938 167.339C984.508 167.339 986.102 169.097 986.109 171.714C986.102 174.339 984.508 176.097 981.938 176.104ZM980.125 171.714C980.125 173.198 980.742 174.3 981.953 174.308C983.133 174.3 983.758 173.198 983.75 171.714C983.758 170.222 983.133 169.104 981.953 169.104C980.742 169.104 980.125 170.222 980.125 171.714ZM989.875 171.026V175.933H987.562V167.448H989.766V168.933H989.859C990.242 167.956 991.148 167.339 992.406 167.339C994.18 167.339 995.336 168.55 995.328 170.526V175.933H993.031V170.933C993.023 169.886 992.461 169.261 991.5 169.261C990.539 169.261 989.875 169.909 989.875 171.026ZM996.719 173.558C996.727 171.667 998.242 171.05 999.875 170.948C1000.48 170.909 1001.62 170.854 1001.98 170.839V170.151C1001.98 169.44 1001.49 169.034 1000.62 169.026C999.836 169.034 999.344 169.386 999.219 169.964H997.016C997.156 168.495 998.438 167.339 1000.69 167.339C1002.54 167.339 1004.29 168.167 1004.28 170.214V175.933H1002.09V174.761H1002.03C1001.62 175.542 1000.8 176.097 999.547 176.089C997.922 176.097 996.727 175.237 996.719 173.558ZM998.938 173.495C998.938 174.144 999.461 174.487 1000.2 174.495C1001.26 174.487 1001.99 173.8 1001.98 172.901V172.284C1001.63 172.3 1000.64 172.354 1000.25 172.386C999.445 172.456 998.938 172.839 998.938 173.495ZM1008.36 164.62V175.933H1006.05V164.62H1008.36ZM876.641 185.62H879.547L882.688 193.292H882.812L885.953 185.62H888.859V196.933H886.578V189.526H886.484L883.531 196.886H881.969L879.016 189.495H878.922V196.933H876.641V185.62ZM890.312 194.558C890.32 192.667 891.836 192.05 893.469 191.948C894.078 191.909 895.219 191.854 895.578 191.839V191.151C895.57 190.44 895.086 190.034 894.219 190.026C893.43 190.034 892.938 190.386 892.812 190.964H890.609C890.75 189.495 892.031 188.339 894.281 188.339C896.133 188.339 897.883 189.167 897.875 191.214V196.933H895.688V195.761H895.625C895.211 196.542 894.398 197.097 893.141 197.089C891.516 197.097 890.32 196.237 890.312 194.558ZM892.531 194.495C892.531 195.144 893.055 195.487 893.797 195.495C894.852 195.487 895.586 194.8 895.578 193.901V193.284C895.227 193.3 894.234 193.354 893.844 193.386C893.039 193.456 892.531 193.839 892.531 194.495ZM899.641 196.933V188.448H901.875V189.917H901.969C902.273 188.878 903.062 188.323 904.016 188.323C904.25 188.323 904.547 188.354 904.75 188.401V190.464C904.531 190.394 904.086 190.339 903.766 190.339C902.719 190.339 901.945 191.065 901.953 192.104V196.933H899.641ZM905.875 196.933V185.62H908.188V191.698H908.312L911.062 188.448H913.719L910.555 192.12L913.891 196.933H911.172L908.836 193.479L908.188 194.214V196.933H905.875ZM918.281 197.104C915.68 197.097 914.086 195.417 914.094 192.729C914.086 190.112 915.703 188.339 918.188 188.339C920.414 188.339 922.172 189.745 922.172 192.636V193.292H916.375C916.375 194.573 917.133 195.362 918.328 195.37C919.117 195.362 919.68 195.019 919.906 194.511H922.109C921.781 196.081 920.375 197.097 918.281 197.104ZM916.375 191.839H919.984C919.977 190.808 919.266 190.065 918.234 190.073C917.172 190.065 916.422 190.862 916.375 191.839ZM928.094 188.448V190.183H926.5V194.323C926.492 195.003 926.828 195.167 927.297 195.183C927.531 195.183 927.938 195.159 928.219 195.136V196.964C927.969 197.003 927.555 197.05 926.984 197.042C925.312 197.05 924.172 196.3 924.188 194.651V190.183H923.016V188.448H924.188V186.417H926.5V188.448H928.094ZM934.438 185.089L930.781 198.636H928.797L932.438 185.089H934.438ZM935.531 185.62H938.438L941.578 193.292H941.703L944.844 185.62H947.75V196.933H945.469V189.526H945.375L942.422 196.886H940.859L937.906 189.495H937.812V196.933H935.531V185.62ZM949.203 194.558C949.211 192.667 950.727 192.05 952.359 191.948C952.969 191.909 954.109 191.854 954.469 191.839V191.151C954.461 190.44 953.977 190.034 953.109 190.026C952.32 190.034 951.828 190.386 951.703 190.964H949.5C949.641 189.495 950.922 188.339 953.172 188.339C955.023 188.339 956.773 189.167 956.766 191.214V196.933H954.578V195.761H954.516C954.102 196.542 953.289 197.097 952.031 197.089C950.406 197.097 949.211 196.237 949.203 194.558ZM951.422 194.495C951.422 195.144 951.945 195.487 952.688 195.495C953.742 195.487 954.477 194.8 954.469 193.901V193.284C954.117 193.3 953.125 193.354 952.734 193.386C951.93 193.456 951.422 193.839 951.422 194.495ZM958.531 196.933V188.448H960.766V189.917H960.859C961.164 188.878 961.953 188.323 962.906 188.323C963.141 188.323 963.438 188.354 963.641 188.401V190.464C963.422 190.394 962.977 190.339 962.656 190.339C961.609 190.339 960.836 191.065 960.844 192.104V196.933H958.531ZM969.656 188.448V190.183H968.062V194.323C968.055 195.003 968.391 195.167 968.859 195.183C969.094 195.183 969.5 195.159 969.781 195.136V196.964C969.531 197.003 969.117 197.05 968.547 197.042C966.875 197.05 965.734 196.3 965.75 194.651V190.183H964.578V188.448H965.75V186.417H968.062V188.448H969.656Z" fill="#2F5BC1"/>
<path d="M749.699 187.216C748.78 187.216 748.035 187.961 748.035 188.88C748.035 189.799 748.78 190.544 749.699 190.544L749.699 187.216ZM832.074 188.88L815.433 179.272L815.433 198.488L832.074 188.88ZM749.699 190.544L817.097 190.544L817.097 187.216L749.699 187.216L749.699 190.544Z" fill="#2F5BC1"/>
<path d="M150.993 175.848C150.917 175.115 150.301 174.693 149.387 174.699C148.421 174.693 147.846 175.162 147.841 175.801C147.835 176.516 148.591 176.809 149.294 176.973L150.091 177.184C151.356 177.477 152.575 178.145 152.575 179.621C152.575 181.109 151.397 182.129 149.364 182.129C147.389 182.129 146.135 181.18 146.071 179.504H147.571C147.641 180.389 148.385 180.822 149.352 180.828C150.354 180.822 151.046 180.336 151.051 179.609C151.046 178.941 150.436 178.66 149.516 178.426L148.555 178.18C147.161 177.816 146.294 177.113 146.294 175.895C146.294 174.395 147.624 173.398 149.411 173.398C151.21 173.398 152.434 174.412 152.458 175.848H150.993ZM155.395 178.273V182H153.895V173.516H155.36V176.715H155.442C155.729 175.994 156.35 175.555 157.329 175.555C158.647 175.555 159.52 176.41 159.52 177.945V182H158.032V178.18C158.026 177.312 157.563 176.814 156.778 176.82C155.969 176.814 155.395 177.348 155.395 178.273ZM161.063 182V175.637H162.563V182H161.063ZM160.957 173.914C160.957 173.469 161.35 173.105 161.825 173.105C162.299 173.105 162.692 173.469 162.692 173.914C162.692 174.365 162.299 174.729 161.825 174.734C161.35 174.729 160.957 174.365 160.957 173.914ZM164.117 184.391V175.637H165.582V176.68H165.676C165.904 176.229 166.373 175.555 167.504 175.555C168.969 175.555 170.123 176.703 170.129 178.824C170.123 180.916 169.004 182.111 167.504 182.117C166.408 182.111 165.91 181.461 165.676 180.992H165.617V184.391H164.117ZM165.582 178.812C165.588 180.055 166.127 180.887 167.094 180.887C168.084 180.887 168.606 180.014 168.606 178.812C168.606 177.629 168.096 176.779 167.094 176.773C166.115 176.779 165.588 177.576 165.582 178.812ZM171.426 182V175.637H172.855V176.715H172.937C173.201 175.988 173.84 175.555 174.683 175.555C175.545 175.555 176.166 175.994 176.406 176.715H176.476C176.752 176.012 177.461 175.555 178.387 175.555C179.553 175.555 180.373 176.305 180.367 177.723V182H178.879V177.957C178.879 177.166 178.398 176.809 177.789 176.809C177.057 176.809 176.629 177.307 176.629 178.027V182H175.176V177.898C175.17 177.236 174.736 176.809 174.098 176.809C173.453 176.809 172.926 177.342 172.926 178.133V182H171.426ZM184.746 182.129C182.83 182.129 181.652 180.852 181.652 178.859C181.652 176.891 182.847 175.555 184.664 175.555C186.222 175.555 187.57 176.533 187.57 178.766V179.234H183.129C183.152 180.318 183.791 180.963 184.758 180.957C185.414 180.963 185.853 180.682 186.047 180.301H187.511C187.242 181.402 186.222 182.129 184.746 182.129ZM183.134 178.215H186.14C186.134 177.348 185.549 176.715 184.687 176.715C183.791 176.715 183.187 177.406 183.134 178.215ZM190.355 178.273V182H188.855V175.637H190.285V176.715H190.367C190.654 176.006 191.304 175.555 192.253 175.555C193.572 175.555 194.439 176.422 194.433 177.945V182H192.945V178.18C192.945 177.324 192.482 176.814 191.703 176.82C190.912 176.814 190.355 177.348 190.355 178.273ZM199.163 175.637V176.785H197.909V180.09C197.909 180.699 198.214 180.822 198.589 180.828C198.765 180.834 199.058 180.816 199.245 180.805V182.023C199.07 182.053 198.783 182.088 198.402 182.082C197.277 182.088 196.409 181.531 196.421 180.336V176.785H195.507V175.637H196.421V174.113H197.909V175.637H199.163Z" fill="#0F172A"/>
<path d="M536.63 230.179H533.747V221.694H536.676C539.208 221.694 540.737 223.282 540.743 225.925C540.737 228.579 539.208 230.179 536.63 230.179ZM535.27 228.854H536.548C538.323 228.86 539.219 227.882 539.219 225.925C539.219 223.979 538.323 223.013 536.594 223.019H535.27V228.854ZM544.969 230.308C543.053 230.308 541.875 229.03 541.875 227.038C541.875 225.069 543.071 223.733 544.887 223.733C546.446 223.733 547.793 224.712 547.793 226.944V227.413H543.352C543.375 228.497 544.014 229.142 544.981 229.136C545.637 229.142 546.077 228.86 546.27 228.479H547.735C547.465 229.581 546.446 230.308 544.969 230.308ZM543.358 226.394H546.364C546.358 225.526 545.772 224.894 544.911 224.894C544.014 224.894 543.411 225.585 543.358 226.394ZM550.578 221.694V230.179H549.078V221.694H550.578ZM552.133 230.179V223.815H553.633V230.179H552.133ZM552.027 222.093C552.027 221.647 552.42 221.284 552.895 221.284C553.369 221.284 553.762 221.647 553.762 222.093C553.762 222.544 553.369 222.907 552.895 222.913C552.42 222.907 552.027 222.544 552.027 222.093ZM560.871 223.815L558.598 230.179H556.957L554.683 223.815H556.277L557.742 228.55H557.812L559.289 223.815H560.871ZM564.535 230.308C562.619 230.308 561.441 229.03 561.441 227.038C561.441 225.069 562.636 223.733 564.453 223.733C566.011 223.733 567.359 224.712 567.359 226.944V227.413H562.918C562.941 228.497 563.58 229.142 564.547 229.136C565.203 229.142 565.642 228.86 565.836 228.479H567.3C567.031 229.581 566.011 230.308 564.535 230.308ZM562.924 226.394H565.929C565.924 225.526 565.338 224.894 564.476 224.894C563.58 224.894 562.976 225.585 562.924 226.394ZM568.644 230.179V223.815H570.097V224.87H570.167C570.396 224.138 571.005 223.722 571.738 223.722C571.902 223.722 572.136 223.739 572.277 223.757V225.14C572.142 225.093 571.832 225.052 571.585 225.046C570.753 225.052 570.144 225.626 570.144 226.429V230.179H568.644ZM574.394 232.569C574.095 232.563 573.814 232.558 573.62 232.534V231.339C573.802 231.356 574.054 231.356 574.253 231.362C574.617 231.356 574.921 231.333 575.179 230.647L575.308 230.308L572.988 223.815H574.57L576.046 228.62H576.117L577.593 223.815H579.175L576.62 230.952C576.257 231.966 575.589 232.563 574.394 232.569Z" fill="#0F172A"/>
<path d="M445.821 143.092V141.814H452.583V143.092H449.969V150.299H448.446V143.092H445.821ZM453.165 150.299V143.936H454.618V144.99H454.688C454.916 144.258 455.526 143.842 456.258 143.842C456.422 143.842 456.657 143.859 456.797 143.877V145.26C456.663 145.213 456.352 145.172 456.106 145.166C455.274 145.172 454.665 145.746 454.665 146.549V150.299H453.165ZM457.403 148.506C457.403 147.076 458.592 146.66 459.77 146.584C460.215 146.549 461.123 146.508 461.405 146.496L461.399 145.986C461.399 145.354 460.994 144.99 460.25 144.99C459.582 144.99 459.172 145.295 459.055 145.752H457.614C457.719 144.668 458.692 143.854 460.285 143.854C461.492 143.854 462.887 144.352 462.887 146.045V150.299H461.457V149.42H461.41C461.129 149.959 460.537 150.428 459.535 150.428C458.323 150.428 457.403 149.766 457.403 148.506ZM458.844 148.494C458.844 149.045 459.295 149.326 459.922 149.326C460.83 149.326 461.41 148.729 461.41 148.014L461.405 147.492C461.135 147.504 460.303 147.557 460.004 147.58C459.295 147.639 458.844 147.938 458.844 148.494ZM465.918 146.572V150.299H464.418V143.936H465.848V145.014H465.93C466.217 144.305 466.867 143.854 467.817 143.854C469.135 143.854 470.002 144.721 469.996 146.244V150.299H468.508V146.479C468.508 145.623 468.045 145.113 467.266 145.119C466.475 145.113 465.918 145.646 465.918 146.572ZM475.16 145.752C475.066 145.271 474.668 144.961 474.035 144.967C473.396 144.961 472.928 145.283 472.933 145.717C472.928 146.045 473.191 146.291 473.836 146.443L474.914 146.666C476.115 146.93 476.701 147.486 476.707 148.4C476.701 149.596 475.652 150.428 473.988 150.428C472.371 150.428 471.416 149.701 471.258 148.482H472.781C472.869 149.027 473.291 149.297 473.988 149.291C474.709 149.297 475.178 149.004 475.183 148.529C475.178 148.16 474.891 147.926 474.258 147.791L473.238 147.568C472.055 147.328 471.439 146.707 471.445 145.799C471.439 144.621 472.459 143.854 474.012 143.854C475.529 143.854 476.467 144.598 476.578 145.752H475.16ZM481.191 143.936V145.084H479.879V150.299H478.379V145.084H477.429V143.936H478.379V143.326C478.379 142.09 479.146 141.416 480.371 141.416C480.717 141.416 481.039 141.451 481.32 141.51V142.693C481.074 142.658 480.892 142.652 480.781 142.646C480.177 142.652 479.873 142.887 479.879 143.467V143.936H481.191ZM484.96 150.428C483.044 150.428 481.867 149.15 481.867 147.158C481.867 145.189 483.062 143.854 484.878 143.854C486.437 143.854 487.785 144.832 487.785 147.064V147.533H483.343C483.367 148.617 484.005 149.262 484.972 149.256C485.628 149.262 486.068 148.98 486.261 148.6H487.726C487.457 149.701 486.437 150.428 484.96 150.428ZM483.349 146.514H486.355C486.349 145.646 485.763 145.014 484.902 145.014C484.005 145.014 483.402 145.705 483.349 146.514ZM489.07 150.299V143.936H490.523V144.99H490.593C490.822 144.258 491.431 143.842 492.163 143.842C492.327 143.842 492.562 143.859 492.702 143.877V145.26C492.568 145.213 492.257 145.172 492.011 145.166C491.179 145.172 490.57 145.746 490.57 146.549V150.299H489.07Z" fill="#0F172A"/>
<path d="M622.333 150.299H619.45V141.814H622.38C624.911 141.814 626.44 143.402 626.446 146.045C626.44 148.699 624.911 150.299 622.333 150.299ZM620.973 148.975H622.251C624.026 148.98 624.923 148.002 624.923 146.045C624.923 144.1 624.026 143.133 622.298 143.139H620.973V148.975ZM630.672 150.428C628.756 150.428 627.579 149.15 627.579 147.158C627.579 145.189 628.774 143.854 630.59 143.854C632.149 143.854 633.497 144.832 633.497 147.064V147.533H629.055C629.079 148.617 629.717 149.262 630.684 149.256C631.34 149.262 631.78 148.98 631.973 148.6H633.438C633.168 149.701 632.149 150.428 630.672 150.428ZM629.061 146.514H632.067C632.061 145.646 631.475 145.014 630.614 145.014C629.717 145.014 629.114 145.705 629.061 146.514ZM636.282 141.814V150.299H634.782V141.814H636.282ZM637.836 150.299V143.936H639.336V150.299H637.836ZM637.731 142.213C637.731 141.768 638.123 141.404 638.598 141.404C639.072 141.404 639.465 141.768 639.465 142.213C639.465 142.664 639.072 143.027 638.598 143.033C638.123 143.027 637.731 142.664 637.731 142.213ZM646.574 143.936L644.301 150.299H642.66L640.387 143.936H641.98L643.445 148.67H643.516L644.992 143.936H646.574ZM650.238 150.428C648.322 150.428 647.144 149.15 647.144 147.158C647.144 145.189 648.34 143.854 650.156 143.854C651.715 143.854 653.062 144.832 653.062 147.064V147.533H648.621C648.644 148.617 649.283 149.262 650.25 149.256C650.906 149.262 651.345 148.98 651.539 148.6H653.004C652.734 149.701 651.715 150.428 650.238 150.428ZM648.627 146.514H651.633C651.627 145.646 651.041 145.014 650.179 145.014C649.283 145.014 648.679 145.705 648.627 146.514ZM654.347 150.299V143.936H655.8V144.99H655.871C656.099 144.258 656.709 143.842 657.441 143.842C657.605 143.842 657.839 143.859 657.98 143.877V145.26C657.845 145.213 657.535 145.172 657.289 145.166C656.457 145.172 655.847 145.746 655.847 146.549V150.299H654.347ZM660.097 152.689C659.798 152.684 659.517 152.678 659.324 152.654V151.459C659.505 151.477 659.757 151.477 659.956 151.482C660.32 151.477 660.624 151.453 660.882 150.768L661.011 150.428L658.691 143.936H660.273L661.749 148.74H661.82L663.296 143.936H664.878L662.324 151.072C661.96 152.086 661.292 152.684 660.097 152.689Z" fill="#0F172A"/>
<path d="M202.535 155.292V146.808H204.058V154.003H207.808V155.292H202.535ZM211.859 155.421C210.001 155.421 208.812 154.103 208.812 152.14C208.812 150.159 210.001 148.847 211.859 148.847C213.722 148.847 214.911 150.159 214.906 152.14C214.911 154.103 213.722 155.421 211.859 155.421ZM210.324 152.128C210.324 153.294 210.833 154.226 211.87 154.226C212.89 154.226 213.4 153.294 213.394 152.128C213.4 150.962 212.89 150.024 211.87 150.03C210.833 150.024 210.324 150.962 210.324 152.128ZM215.898 153.499C215.898 152.069 217.087 151.653 218.265 151.577C218.71 151.542 219.618 151.501 219.9 151.489L219.894 150.979C219.894 150.347 219.489 149.983 218.745 149.983C218.077 149.983 217.667 150.288 217.55 150.745H216.109C216.214 149.661 217.187 148.847 218.78 148.847C219.987 148.847 221.382 149.345 221.382 151.038V155.292H219.952V154.413H219.905C219.624 154.952 219.032 155.421 218.03 155.421C216.818 155.421 215.898 154.759 215.898 153.499ZM217.339 153.487C217.339 154.038 217.79 154.319 218.417 154.319C219.325 154.319 219.905 153.722 219.905 153.007L219.9 152.485C219.63 152.497 218.798 152.55 218.499 152.573C217.79 152.632 217.339 152.931 217.339 153.487ZM225.28 155.409C223.786 155.403 222.655 154.208 222.655 152.116C222.655 149.995 223.815 148.847 225.292 148.847C226.411 148.847 226.88 149.521 227.108 149.972H227.167V146.808H228.655V155.292H227.19V154.284H227.108C226.868 154.753 226.382 155.403 225.28 155.409ZM224.179 152.104C224.179 153.306 224.706 154.179 225.69 154.179C226.657 154.179 227.202 153.347 227.202 152.104C227.202 150.868 226.663 150.071 225.69 150.065C224.694 150.071 224.179 150.921 224.179 152.104ZM230.292 155.292V148.929H231.792V155.292H230.292ZM230.186 147.206C230.186 146.761 230.579 146.397 231.053 146.397C231.528 146.397 231.921 146.761 231.921 147.206C231.921 147.657 231.528 148.021 231.053 148.026C230.579 148.021 230.186 147.657 230.186 147.206ZM234.846 151.565V155.292H233.346V148.929H234.776V150.007H234.858C235.145 149.298 235.795 148.847 236.745 148.847C238.063 148.847 238.93 149.714 238.924 151.237V155.292H237.436V151.472C237.436 150.616 236.973 150.106 236.194 150.112C235.403 150.106 234.846 150.64 234.846 151.565ZM243.256 157.812C241.569 157.812 240.496 157.062 240.397 155.866H241.885C241.991 156.423 242.512 156.681 243.28 156.687C244.176 156.681 244.756 156.294 244.756 155.362V154.144H244.686C244.452 154.612 243.942 155.198 242.846 155.198C241.375 155.198 240.221 154.132 240.221 152.058C240.221 149.966 241.381 148.847 242.858 148.847C243.977 148.847 244.452 149.521 244.686 149.972H244.756V148.929H246.233V155.397C246.233 157.026 244.973 157.812 243.256 157.812ZM241.745 152.081C241.745 153.253 242.272 154.026 243.256 154.026C244.223 154.026 244.768 153.3 244.768 152.081C244.768 150.868 244.229 150.071 243.256 150.065C242.26 150.071 241.745 150.921 241.745 152.081ZM251.244 146.409L248.514 156.569H247.201L249.944 146.409H251.244ZM257.639 146.808H259.174V152.351C259.168 154.173 257.797 155.421 255.729 155.421C253.648 155.421 252.289 154.173 252.283 152.351V146.808H253.807V152.222C253.812 153.294 254.557 154.056 255.729 154.062C256.9 154.056 257.639 153.294 257.639 152.222V146.808ZM262.299 151.565V155.292H260.799V148.929H262.228V150.007H262.31C262.597 149.298 263.248 148.847 264.197 148.847C265.515 148.847 266.383 149.714 266.377 151.237V155.292H264.888V151.472C264.888 150.616 264.426 150.106 263.646 150.112C262.855 150.106 262.299 150.64 262.299 151.565ZM269.431 146.808V155.292H267.931V146.808H269.431ZM273.763 155.421C271.906 155.421 270.716 154.103 270.716 152.14C270.716 150.159 271.906 148.847 273.763 148.847C275.626 148.847 276.816 150.159 276.81 152.14C276.816 154.103 275.626 155.421 273.763 155.421ZM272.228 152.128C272.228 153.294 272.738 154.226 273.775 154.226C274.794 154.226 275.304 153.294 275.298 152.128C275.304 150.962 274.794 150.024 273.775 150.03C272.738 150.024 272.228 150.962 272.228 152.128ZM277.802 153.499C277.802 152.069 278.991 151.653 280.169 151.577C280.614 151.542 281.523 151.501 281.804 151.489L281.798 150.979C281.798 150.347 281.394 149.983 280.65 149.983C279.982 149.983 279.572 150.288 279.454 150.745H278.013C278.118 149.661 279.091 148.847 280.685 148.847C281.892 148.847 283.286 149.345 283.286 151.038V155.292H281.857V154.413H281.81C281.529 154.952 280.937 155.421 279.935 155.421C278.722 155.421 277.802 154.759 277.802 153.499ZM279.243 153.487C279.243 154.038 279.695 154.319 280.322 154.319C281.23 154.319 281.81 153.722 281.81 153.007L281.804 152.485C281.534 152.497 280.702 152.55 280.404 152.573C279.695 152.632 279.243 152.931 279.243 153.487ZM287.185 155.409C285.69 155.403 284.56 154.208 284.56 152.116C284.56 149.995 285.72 148.847 287.196 148.847C288.315 148.847 288.784 149.521 289.013 149.972H289.071V146.808H290.56V155.292H289.095V154.284H289.013C288.772 154.753 288.286 155.403 287.185 155.409ZM286.083 152.104C286.083 153.306 286.61 154.179 287.595 154.179C288.562 154.179 289.106 153.347 289.106 152.104C289.106 150.868 288.567 150.071 287.595 150.065C286.599 150.071 286.083 150.921 286.083 152.104ZM292.196 155.292V148.929H293.696V155.292H292.196ZM292.091 147.206C292.091 146.761 292.483 146.397 292.958 146.397C293.432 146.397 293.825 146.761 293.825 147.206C293.825 147.657 293.432 148.021 292.958 148.026C292.483 148.021 292.091 147.657 292.091 147.206ZM296.751 151.565V155.292H295.251V148.929H296.68V150.007H296.762C297.049 149.298 297.7 148.847 298.649 148.847C299.967 148.847 300.835 149.714 300.829 151.237V155.292H299.34V151.472C299.34 150.616 298.878 150.106 298.098 150.112C297.307 150.106 296.751 150.64 296.751 151.565ZM305.161 157.812C303.473 157.812 302.401 157.062 302.301 155.866H303.79C303.895 156.423 304.416 156.681 305.184 156.687C306.081 156.681 306.661 156.294 306.661 155.362V154.144H306.59C306.356 154.612 305.846 155.198 304.75 155.198C303.28 155.198 302.125 154.132 302.125 152.058C302.125 149.966 303.286 148.847 304.762 148.847C305.881 148.847 306.356 149.521 306.59 149.972H306.661V148.929H308.137V155.397C308.137 157.026 306.877 157.812 305.161 157.812ZM303.649 152.081C303.649 153.253 304.176 154.026 305.161 154.026C306.127 154.026 306.672 153.3 306.672 152.081C306.672 150.868 306.133 150.071 305.161 150.065C304.165 150.071 303.649 150.921 303.649 152.081Z" fill="#0F172A"/>
<rect x="201.779" y="166.83" width="115.658" height="47.4281" rx="5.40847" fill="#EDF4FF"/>
<rect x="201.779" y="166.83" width="115.658" height="47.4281" rx="5.40847" stroke="#2F5BC1" stroke-width="2.49622"/>
<path d="M234.852 186.23H232.479L236.156 175.625H238.983L242.645 186.23H240.287L239.488 183.784H235.65L234.852 186.23ZM236.207 182.07H238.932L237.606 178.013H237.533L236.207 182.07ZM248.9 182.847V178.276H251.068V186.23H248.988V184.795H248.9C248.541 185.718 247.684 186.333 246.483 186.333C244.894 186.333 243.802 185.205 243.802 183.345V178.276H245.97V182.964C245.97 183.909 246.512 184.495 247.362 184.502C248.153 184.495 248.9 183.931 248.9 182.847ZM256.327 186.392C253.888 186.384 252.423 184.7 252.43 182.275C252.423 179.844 253.917 178.174 256.327 178.174C258.377 178.174 259.769 179.368 259.857 181.191H257.821C257.689 180.408 257.176 179.866 256.356 179.858C255.316 179.866 254.627 180.737 254.627 182.246C254.627 183.784 255.301 184.663 256.356 184.663C257.118 184.663 257.682 184.187 257.821 183.345H259.857C259.762 185.146 258.436 186.384 256.327 186.392ZM265.394 178.276V179.902H263.9V183.784C263.893 184.421 264.208 184.575 264.647 184.59C264.867 184.59 265.248 184.568 265.511 184.546V186.26C265.277 186.296 264.889 186.34 264.354 186.333C262.787 186.34 261.717 185.637 261.732 184.092V179.902H260.633V178.276H261.732V176.372H263.9V178.276H265.394ZM266.756 186.23V178.276H268.924V186.23H266.756ZM266.654 176.138C266.654 175.522 267.188 175.032 267.84 175.024C268.485 175.032 269.02 175.522 269.012 176.138C269.02 176.738 268.485 177.236 267.84 177.236C267.188 177.236 266.654 176.738 266.654 176.138ZM274.183 186.392C271.781 186.384 270.279 184.736 270.287 182.275C270.279 179.822 271.781 178.174 274.183 178.174C276.593 178.174 278.087 179.822 278.094 182.275C278.087 184.736 276.593 186.384 274.183 186.392ZM272.484 182.275C272.484 183.667 273.062 184.7 274.198 184.707C275.304 184.7 275.89 183.667 275.882 182.275C275.89 180.876 275.304 179.829 274.198 179.829C273.062 179.829 272.484 180.876 272.484 182.275ZM281.625 181.631V186.23H279.457V178.276H281.522V179.668H281.61C281.969 178.752 282.818 178.174 283.998 178.174C285.66 178.174 286.744 179.309 286.737 181.162V186.23H284.583V181.543C284.576 180.562 284.049 179.976 283.148 179.976C282.247 179.976 281.625 180.583 281.625 181.631ZM238.126 204.23V193.625H240.323V198.02H244.923V193.625H247.135V204.23H244.923V199.836H240.323V204.23H238.126ZM252.452 204.392C250.05 204.384 248.548 202.736 248.556 200.275C248.548 197.822 250.05 196.174 252.452 196.174C254.862 196.174 256.356 197.822 256.363 200.275C256.356 202.736 254.862 204.384 252.452 204.392ZM250.753 200.275C250.753 201.667 251.332 202.7 252.467 202.707C253.573 202.7 254.159 201.667 254.151 200.275C254.159 198.876 253.573 197.829 252.467 197.829C251.332 197.829 250.753 198.876 250.753 200.275ZM262.823 200.847V196.276H264.991V204.23H262.911V202.795H262.823C262.464 203.718 261.607 204.333 260.406 204.333C258.817 204.333 257.726 203.205 257.726 201.345V196.276H259.894V200.964C259.894 201.909 260.436 202.495 261.285 202.502C262.076 202.495 262.823 201.931 262.823 200.847ZM271.217 198.635C271.122 198.078 270.638 197.719 269.913 197.712C269.21 197.719 268.675 198.049 268.683 198.532C268.675 198.891 268.954 199.169 269.708 199.323L271.129 199.616C272.674 199.938 273.421 200.627 273.429 201.77C273.421 203.337 272.015 204.384 269.898 204.392C267.752 204.384 266.493 203.425 266.31 201.872H268.492C268.595 202.495 269.1 202.817 269.898 202.824C270.689 202.817 271.217 202.502 271.217 201.989C271.217 201.579 270.88 201.323 270.133 201.169L268.814 200.905C267.298 200.605 266.522 199.829 266.529 198.649C266.522 197.126 267.833 196.174 269.884 196.174C271.891 196.174 273.136 197.126 273.253 198.635H271.217ZM278.365 204.392C275.926 204.384 274.432 202.81 274.439 200.29C274.432 197.836 275.948 196.174 278.277 196.174C280.365 196.174 282.013 197.492 282.013 200.202V200.817H276.578C276.578 202.019 277.289 202.758 278.409 202.766C279.149 202.758 279.676 202.436 279.889 201.96H281.954C281.646 203.432 280.328 204.384 278.365 204.392ZM276.578 199.455H279.962C279.955 198.488 279.288 197.792 278.321 197.8C277.325 197.792 276.622 198.54 276.578 199.455Z" fill="#2F5BC1"/>
<rect x="388.248" y="167.248" width="79.5038" height="47.5038" rx="5.40847" fill="white"/>
<rect x="388.248" y="167.248" width="79.5038" height="47.5038" rx="5.40847" stroke="#33A118" stroke-width="2.49622"/>
<path d="M401.316 195.816H398.785L402.707 184.504H405.723L409.629 195.816H407.113L406.262 193.207H402.168L401.316 195.816ZM402.762 191.379H405.668L404.254 187.051H404.176L402.762 191.379ZM416.301 192.207V187.332H418.613V195.816H416.395V194.285H416.301C415.918 195.27 415.004 195.926 413.723 195.926C412.027 195.926 410.863 194.723 410.863 192.738V187.332H413.176V192.332C413.176 193.34 413.754 193.965 414.66 193.973C415.504 193.965 416.301 193.363 416.301 192.207ZM424.223 195.988C421.621 195.98 420.059 194.184 420.066 191.598C420.059 189.004 421.652 187.223 424.223 187.223C426.41 187.223 427.895 188.496 427.988 190.441H425.816C425.676 189.605 425.129 189.027 424.254 189.02C423.145 189.027 422.41 189.957 422.41 191.566C422.41 193.207 423.129 194.145 424.254 194.145C425.066 194.145 425.668 193.637 425.816 192.738H427.988C427.887 194.66 426.473 195.98 424.223 195.988ZM433.895 187.332V189.066H432.301V193.207C432.293 193.887 432.629 194.051 433.098 194.066C433.332 194.066 433.738 194.043 434.02 194.02V195.848C433.77 195.887 433.355 195.934 432.785 195.926C431.113 195.934 429.973 195.184 429.988 193.535V189.066H428.816V187.332H429.988V185.301H432.301V187.332H433.895ZM435.348 195.816V187.332H437.66V195.816H435.348ZM435.238 185.051C435.238 184.395 435.809 183.871 436.504 183.863C437.191 183.871 437.762 184.395 437.754 185.051C437.762 185.691 437.191 186.223 436.504 186.223C435.809 186.223 435.238 185.691 435.238 185.051ZM443.27 195.988C440.707 195.98 439.105 194.223 439.113 191.598C439.105 188.98 440.707 187.223 443.27 187.223C445.84 187.223 447.434 188.98 447.441 191.598C447.434 194.223 445.84 195.98 443.27 195.988ZM441.457 191.598C441.457 193.082 442.074 194.184 443.285 194.191C444.465 194.184 445.09 193.082 445.082 191.598C445.09 190.105 444.465 188.988 443.285 188.988C442.074 188.988 441.457 190.105 441.457 191.598ZM451.207 190.91V195.816H448.895V187.332H451.098V188.816H451.191C451.574 187.84 452.48 187.223 453.738 187.223C455.512 187.223 456.668 188.434 456.66 190.41V195.816H454.363V190.816C454.355 189.77 453.793 189.145 452.832 189.145C451.871 189.145 451.207 189.793 451.207 190.91Z" fill="#1E4200"/>
<rect x="504.65" y="136.044" width="102.345" height="47.4281" rx="5.40847" fill="white"/>
<rect x="504.65" y="136.044" width="102.345" height="47.4281" rx="5.40847" stroke="#33A118" stroke-width="2.49622"/>
<path d="M542.758 156.534C542.664 155.636 541.953 155.112 540.805 155.112C539.617 155.112 538.953 155.659 538.945 156.409C538.938 157.229 539.781 157.597 540.758 157.815L541.773 158.065C543.711 158.511 545.156 159.495 545.164 161.378C545.156 163.448 543.547 164.776 540.789 164.769C538.055 164.776 536.312 163.511 536.242 161.081H538.523C538.602 162.222 539.508 162.8 540.758 162.8C541.992 162.8 542.789 162.222 542.789 161.378C542.789 160.604 542.086 160.245 540.852 159.94L539.617 159.644C537.711 159.175 536.539 158.222 536.539 156.565C536.531 154.511 538.344 153.144 540.82 153.144C543.328 153.144 544.977 154.534 545.008 156.534H542.758ZM551.117 156.128V157.862H549.523V162.003C549.516 162.683 549.852 162.847 550.32 162.862C550.555 162.862 550.961 162.839 551.242 162.815V164.644C550.992 164.683 550.578 164.729 550.008 164.722C548.336 164.729 547.195 163.979 547.211 162.331V157.862H546.039V156.128H547.211V154.097H549.523V156.128H551.117ZM556.289 164.784C553.727 164.776 552.125 163.019 552.133 160.394C552.125 157.776 553.727 156.019 556.289 156.019C558.859 156.019 560.453 157.776 560.461 160.394C560.453 163.019 558.859 164.776 556.289 164.784ZM554.477 160.394C554.477 161.878 555.094 162.979 556.305 162.987C557.484 162.979 558.109 161.878 558.102 160.394C558.109 158.901 557.484 157.784 556.305 157.784C555.094 157.784 554.477 158.901 554.477 160.394ZM561.914 164.612V156.128H564.148V157.597H564.242C564.547 156.558 565.336 156.003 566.289 156.003C566.523 156.003 566.82 156.034 567.023 156.081V158.144C566.805 158.073 566.359 158.019 566.039 158.019C564.992 158.019 564.219 158.745 564.227 159.784V164.612H561.914ZM571.727 164.784C569.125 164.776 567.531 163.097 567.539 160.409C567.531 157.792 569.148 156.019 571.633 156.019C573.859 156.019 575.617 157.425 575.617 160.315V160.972H569.82C569.82 162.253 570.578 163.042 571.773 163.05C572.562 163.042 573.125 162.698 573.352 162.19H575.555C575.227 163.761 573.82 164.776 571.727 164.784ZM569.82 159.519H573.43C573.422 158.487 572.711 157.745 571.68 157.753C570.617 157.745 569.867 158.542 569.82 159.519Z" fill="#1E4200"/>
<rect x="672.248" y="165.998" width="102.345" height="47.4281" rx="5.40847" fill="white"/>
<rect x="672.248" y="165.998" width="102.345" height="47.4281" rx="5.40847" stroke="#33A118" stroke-width="2.49622"/>
<path d="M702.707 194.566V183.254H707.207C709.699 183.254 710.965 184.457 710.957 186.16C710.965 187.488 710.09 188.324 708.926 188.582V188.691C710.199 188.754 711.402 189.77 711.41 191.441C711.402 193.238 710.059 194.566 707.504 194.566H702.707ZM705.051 192.629H707.035C708.395 192.637 708.98 192.074 708.973 191.223C708.98 190.27 708.254 189.598 707.098 189.598H705.051V192.629ZM705.051 187.988H706.863C707.848 187.996 708.59 187.441 708.582 186.535C708.59 185.715 707.98 185.16 706.91 185.16H705.051V187.988ZM718.285 190.957V186.082H720.598V194.566H718.379V193.035H718.285C717.902 194.02 716.988 194.676 715.707 194.676C714.012 194.676 712.848 193.473 712.848 191.488V186.082H715.16V191.082C715.16 192.09 715.738 192.715 716.645 192.723C717.488 192.715 718.285 192.113 718.285 190.957ZM723.754 197.754C723.301 197.746 722.879 197.738 722.582 197.707V195.91C722.879 195.934 723.23 195.941 723.52 195.941C723.98 195.941 724.348 195.895 724.629 195.16L724.77 194.801L721.723 186.082H724.145L725.926 192.332H726.02L727.816 186.082H730.27L726.957 195.504C726.473 196.871 725.543 197.746 723.754 197.754ZM734.957 194.738C732.355 194.73 730.762 193.051 730.77 190.363C730.762 187.746 732.379 185.973 734.863 185.973C737.09 185.973 738.848 187.379 738.848 190.27V190.926H733.051C733.051 192.207 733.809 192.996 735.004 193.004C735.793 192.996 736.355 192.652 736.582 192.145H738.785C738.457 193.715 737.051 194.73 734.957 194.738ZM733.051 189.473H736.66C736.652 188.441 735.941 187.699 734.91 187.707C733.848 187.699 733.098 188.496 733.051 189.473ZM740.301 194.566V186.082H742.535V187.551H742.629C742.934 186.512 743.723 185.957 744.676 185.957C744.91 185.957 745.207 185.988 745.41 186.035V188.098C745.191 188.027 744.746 187.973 744.426 187.973C743.379 187.973 742.605 188.699 742.613 189.738V194.566H740.301Z" fill="#1E4200"/>
<path d="M144.777 189.713C143.858 189.713 143.113 190.458 143.113 191.377C143.113 192.296 143.858 193.041 144.777 193.041V189.713ZM223.824 191.377L207.183 181.769V200.985L223.824 191.377ZM144.777 193.041H208.847V189.713H144.777V193.041Z" fill="#2F5BC1"/>
<path d="M320 189.336C319.081 189.336 318.336 190.081 318.336 191C318.336 191.919 319.081 192.664 320 192.664V189.336ZM398 191L381.359 181.392V200.608L398 191ZM320 192.664H383.023V189.336H320V192.664Z" fill="#2F5BC1"/>
<path d="M470 201.752C469.311 201.752 468.752 202.311 468.752 203C468.752 203.689 469.311 204.248 470 204.248V201.752ZM671 203L658.519 195.794V210.206L671 203ZM470 204.248H659.767V201.752H470V204.248Z" fill="#33A118"/>
<path d="M459.613 175.265C458.986 175.552 458.711 176.293 458.998 176.919C459.285 177.546 460.026 177.821 460.653 177.534L459.613 175.265ZM500.072 158.094L485.724 156.743L491.729 169.845L500.072 158.094ZM460.653 177.534L490.381 163.909L489.341 161.639L459.613 175.265L460.653 177.534Z" fill="#33A118"/>
<path d="M612.522 156.866C611.895 156.578 611.154 156.852 610.866 157.478C610.578 158.105 610.852 158.846 611.478 159.134L612.522 156.866ZM662 181L653.672 169.238L647.65 182.331L662 181ZM611.478 159.134L651.273 177.44L652.317 175.172L612.522 156.866L611.478 159.134Z" fill="#33A118"/>
</svg>
