<svg width="473" height="97" viewBox="0 0 473 97" fill="none" xmlns="http://www.w3.org/2000/svg">
<path d="M10.88 33.414C11.5547 33.414 12.26 33.2913 12.996 33.046C13.7627 32.8007 14.4527 32.4327 15.066 31.942C15.6793 31.482 16.1853 30.9147 16.584 30.24C16.9827 29.5653 17.1973 28.814 17.228 27.986C17.228 26.974 16.998 26.0693 16.538 25.272C16.078 24.444 15.4953 23.6927 14.79 23.018C14.0847 22.374 13.272 21.8067 12.352 21.316C11.4627 20.7947 10.5733 20.304 9.684 19.844C8.45733 19.292 7.35333 18.74 6.372 18.188C5.42133 17.636 4.60867 17.038 3.934 16.394C3.29 15.7193 2.784 14.9527 2.416 14.094C2.07867 13.2047 1.91 12.1313 1.91 10.874C1.91 8.17533 2.784 5.93667 4.532 4.158C6.28 2.37933 8.81 1.49 12.122 1.49C13.3487 1.55133 14.4833 1.72 15.526 1.996C16.5993 2.272 17.6727 2.62467 18.746 3.054C18.8687 3.11533 18.976 3.192 19.068 3.284C19.16 3.34533 19.2213 3.45266 19.252 3.606C19.436 4.74066 19.5587 5.768 19.62 6.688C19.712 7.57733 19.7887 8.574 19.85 9.678C19.85 9.954 19.804 10.138 19.712 10.23C19.6507 10.2913 19.4973 10.3373 19.252 10.368C18.976 10.4293 18.792 10.4293 18.7 10.368C18.6387 10.276 18.5927 10.1073 18.562 9.862C18.4087 9.18733 18.148 8.436 17.78 7.608C17.4427 6.74933 17.044 6.02866 16.584 5.446C16.032 4.802 15.296 4.35733 14.376 4.112C13.4867 3.86667 12.536 3.744 11.524 3.744C9.408 3.744 7.844 4.21933 6.832 5.17C5.85067 6.12067 5.36 7.194 5.36 8.39C5.36 9.37133 5.544 10.2147 5.912 10.92C6.31067 11.6253 6.84733 12.254 7.522 12.806C8.19667 13.358 8.97867 13.864 9.868 14.324C10.788 14.7533 11.7847 15.2133 12.858 15.704C13.778 16.164 14.7133 16.67 15.664 17.222C16.6147 17.774 17.458 18.4027 18.194 19.108C18.9607 19.844 19.574 20.7027 20.034 21.684C20.5247 22.6347 20.77 23.7387 20.77 24.996C20.77 28.308 19.804 30.9453 17.872 32.908C15.9707 34.8707 13.3793 35.852 10.098 35.852C9.39267 35.852 8.65667 35.7753 7.89 35.622C7.154 35.4687 6.418 35.2693 5.682 35.024C4.91533 34.7787 4.19467 34.518 3.52 34.242C2.876 33.966 2.30867 33.69 1.818 33.414C1.69533 33.3527 1.588 33.2607 1.496 33.138C1.404 33.046 1.358 32.9387 1.358 32.816C1.174 31.7427 1.02067 30.608 0.898 29.412C0.775333 28.216 0.714 27.0507 0.714 25.916C0.714 25.6707 0.729333 25.4867 0.76 25.364C0.821333 25.2413 0.974667 25.1647 1.22 25.134C1.46533 25.134 1.634 25.1493 1.726 25.18C1.84867 25.2107 1.94067 25.3487 2.002 25.594C2.186 26.4833 2.43133 27.3727 2.738 28.262C3.04467 29.1513 3.39733 29.9793 3.796 30.746C4.13333 31.4207 4.946 32.034 6.234 32.586C7.522 33.138 9.07067 33.414 10.88 33.414ZM40.1484 1.72C40.2711 1.72 40.4091 1.75067 40.5624 1.812C40.7158 1.87333 40.8231 1.996 40.8844 2.18C41.0684 3.31467 41.2371 4.434 41.3904 5.538C41.5744 6.61133 41.7584 7.7 41.9424 8.804C41.9731 9.08 41.9731 9.264 41.9424 9.356C41.9118 9.448 41.7891 9.52467 41.5744 9.586C41.4518 9.64733 41.3598 9.678 41.2984 9.678C41.2371 9.678 41.1758 9.66267 41.1144 9.632C41.0838 9.60133 41.0531 9.55533 41.0224 9.494C40.9918 9.402 40.9611 9.27933 40.9304 9.126C40.7464 8.60467 40.5318 8.08333 40.2864 7.562C40.0411 7.01 39.7958 6.47333 39.5504 5.952C39.2438 5.4 38.7991 4.97067 38.2164 4.664C37.6644 4.35733 36.9284 4.18866 36.0084 4.158H32.1904C31.8224 4.158 31.4238 4.17333 30.9944 4.204C30.5651 4.204 30.1818 4.25 29.8444 4.342C29.3844 4.46467 29.0778 4.71 28.9244 5.078C28.8018 5.446 28.7404 5.952 28.7404 6.596V15.658C28.7404 16.026 28.7864 16.256 28.8784 16.348C28.9704 16.44 29.2004 16.486 29.5684 16.486H34.8124C35.9471 16.486 36.6524 16.394 36.9284 16.21C37.2351 16.026 37.4804 15.704 37.6644 15.244C37.7258 15.0293 37.7871 14.8147 37.8484 14.6C37.9098 14.3853 37.9711 14.1707 38.0324 13.956C38.0938 13.7107 38.1551 13.4653 38.2164 13.22C38.2778 12.944 38.3544 12.6527 38.4464 12.346C38.4464 12.254 38.4464 12.1773 38.4464 12.116C38.4771 12.024 38.5231 11.9627 38.5844 11.932C38.6151 11.8707 38.6611 11.84 38.7224 11.84C38.7838 11.8093 38.8758 11.794 38.9984 11.794C39.2438 11.8247 39.3818 11.886 39.4124 11.978C39.4431 12.07 39.4584 12.2387 39.4584 12.484C39.3971 12.944 39.3511 13.4653 39.3204 14.048C39.3204 14.6307 39.3051 15.198 39.2744 15.75C39.2438 16.2713 39.2284 16.7313 39.2284 17.13C39.2284 17.5287 39.2284 17.7587 39.2284 17.82C39.2284 17.912 39.2284 18.1573 39.2284 18.556C39.2284 18.9547 39.2438 19.43 39.2744 19.982C39.3051 20.534 39.3204 21.1167 39.3204 21.73C39.3511 22.3127 39.3971 22.834 39.4584 23.294C39.4584 23.57 39.4431 23.754 39.4124 23.846C39.3818 23.9073 39.2438 23.938 38.9984 23.938C38.8758 23.9687 38.7838 23.984 38.7224 23.984C38.6611 23.9533 38.6151 23.9227 38.5844 23.892C38.5231 23.8307 38.4771 23.7693 38.4464 23.708C38.4464 23.6467 38.4464 23.5547 38.4464 23.432C38.3238 22.8493 38.1858 22.2513 38.0324 21.638C37.9098 21.0247 37.7564 20.442 37.5724 19.89C37.3884 19.4913 37.1431 19.2 36.8364 19.016C36.5604 18.8013 35.8551 18.694 34.7204 18.694H29.5684C29.2004 18.694 28.9704 18.7553 28.8784 18.878C28.7864 18.97 28.7404 19.1693 28.7404 19.476V30.792C28.7404 31.4973 28.8018 32.034 28.9244 32.402C29.0778 32.7393 29.3844 32.954 29.8444 33.046C30.1818 33.138 30.5651 33.184 30.9944 33.184C31.4238 33.2147 31.8224 33.23 32.1904 33.23H37.8944C38.8144 33.23 39.5504 33.092 40.1024 32.816C40.6851 32.5093 41.1451 32.0493 41.4824 31.436C41.8504 30.7307 42.1724 30.01 42.4484 29.274C42.7551 28.5073 43.0464 27.756 43.3224 27.02C43.3531 26.8973 43.3838 26.8053 43.4144 26.744C43.4451 26.652 43.4758 26.5907 43.5064 26.56C43.5678 26.5293 43.6291 26.514 43.6904 26.514C43.7518 26.514 43.8591 26.5293 44.0124 26.56C44.2271 26.652 44.3498 26.744 44.3804 26.836C44.4111 26.928 44.4111 27.0967 44.3804 27.342C44.1658 28.6607 43.9204 29.9793 43.6444 31.298C43.3684 32.6167 43.0771 33.92 42.7704 35.208C42.7091 35.4227 42.6018 35.5453 42.4484 35.576C42.2951 35.6373 42.1724 35.668 42.0804 35.668C41.9271 35.668 41.3444 35.668 40.3324 35.668C39.3204 35.668 38.2164 35.6527 37.0204 35.622C35.8551 35.5913 34.7664 35.5607 33.7544 35.53C32.7424 35.53 32.1598 35.53 32.0064 35.53C31.8224 35.53 31.1938 35.53 30.1204 35.53C29.0778 35.5607 27.9278 35.5913 26.6704 35.622C25.4131 35.6527 24.2171 35.668 23.0824 35.668C21.9784 35.668 21.2884 35.668 21.0124 35.668C20.7671 35.668 20.5678 35.6373 20.4144 35.576C20.2918 35.5453 20.2304 35.346 20.2304 34.978C20.2304 34.6407 20.2764 34.426 20.3684 34.334C20.4604 34.2727 20.6444 34.2267 20.9204 34.196C21.4418 34.1653 21.9478 34.104 22.4384 34.012C22.9291 33.9507 23.3738 33.8433 23.7724 33.69C24.2018 33.5673 24.5084 33.3373 24.6924 33C24.8764 32.632 24.9684 32.126 24.9684 31.482V5.906C24.9684 5.32333 24.8764 4.848 24.6924 4.48C24.5084 4.112 24.2018 3.85133 23.7724 3.698C23.3738 3.57533 22.9291 3.48333 22.4384 3.422C21.9478 3.33 21.4418 3.25333 20.9204 3.192C20.6444 3.192 20.4604 3.16133 20.3684 3.1C20.2764 3.008 20.2304 2.778 20.2304 2.41C20.2304 2.07266 20.2918 1.87333 20.4144 1.812C20.5678 1.75067 20.7671 1.72 21.0124 1.72C21.2884 1.72 21.9631 1.73533 23.0364 1.766C24.1098 1.766 25.2444 1.78133 26.4404 1.812C27.6364 1.84266 28.7404 1.858 29.7524 1.858C30.7644 1.858 31.3624 1.858 31.5464 1.858C31.6998 1.858 32.2058 1.858 33.0644 1.858C33.9231 1.858 34.8431 1.84266 35.8244 1.812C36.8364 1.78133 37.7718 1.766 38.6304 1.766C39.4891 1.73533 39.9951 1.72 40.1484 1.72ZM59.3928 3.698C57.4915 3.698 55.8201 4.08133 54.3788 4.848C52.9375 5.61467 51.7261 6.642 50.7448 7.93C49.7635 9.24867 49.0275 10.8127 48.5368 12.622C48.0461 14.4007 47.8008 16.3173 47.8008 18.372C47.7701 20.488 48.0308 22.4507 48.5828 24.26C49.1655 26.0693 49.9781 27.6487 51.0208 28.998C52.0328 30.3473 53.2441 31.4053 54.6548 32.172C56.0961 32.9387 57.6755 33.322 59.3928 33.322C61.0795 33.322 62.6281 32.9387 64.0388 32.172C65.4495 31.4053 66.6761 30.3473 67.7188 28.998C68.7615 27.6487 69.5588 26.0693 70.1108 24.26C70.6935 22.4507 70.9848 20.488 70.9848 18.372C70.9848 16.3173 70.6935 14.4007 70.1108 12.622C69.5281 10.8127 68.7155 9.24867 67.6728 7.93C66.6608 6.642 65.4341 5.61467 63.9928 4.848C62.5821 4.08133 61.0488 3.698 59.3928 3.698ZM59.3468 35.668C57.1388 35.668 55.0688 35.2847 53.1368 34.518C51.2048 33.782 49.5181 32.678 48.0768 31.206C46.6355 29.734 45.5008 27.94 44.6728 25.824C43.8755 23.6773 43.4768 21.224 43.4768 18.464C43.4768 15.796 43.8755 13.404 44.6728 11.288C45.5008 9.172 46.6201 7.378 48.0308 5.906C49.4721 4.434 51.1588 3.31466 53.0908 2.548C55.0228 1.75067 57.1235 1.352 59.3928 1.352C61.6315 1.352 63.7168 1.75067 65.6488 2.548C67.6115 3.31466 69.2981 4.434 70.7088 5.906C72.1501 7.378 73.2695 9.172 74.0668 11.288C74.8948 13.404 75.3088 15.796 75.3088 18.464C75.3088 21.224 74.8795 23.6773 74.0208 25.824C73.1928 27.94 72.0581 29.734 70.6168 31.206C69.1755 32.678 67.4888 33.782 65.5568 34.518C63.6248 35.2847 61.5548 35.668 59.3468 35.668ZM102.153 24.076C102.153 25.7933 101.938 27.3727 101.509 28.814C101.11 30.2553 100.482 31.4973 99.6229 32.54C98.7642 33.5827 97.6449 34.3953 96.2649 34.978C94.9155 35.5607 93.2902 35.852 91.3889 35.852C87.5862 35.852 84.6575 34.9473 82.6029 33.138C80.5789 31.3593 79.5669 28.2927 79.5669 23.938V5.86C79.5669 5.27733 79.4749 4.802 79.2909 4.434C79.1375 4.03533 78.8462 3.75933 78.4169 3.606C77.9875 3.48333 77.6195 3.39133 77.3129 3.33C77.0369 3.26867 76.6995 3.22267 76.3009 3.192C76.0249 3.192 75.8409 3.16133 75.7489 3.1C75.6569 3.008 75.6109 2.778 75.6109 2.41C75.6109 2.07266 75.6722 1.87333 75.7949 1.812C75.9482 1.75067 76.1475 1.72 76.3929 1.72C76.5462 1.72 76.8682 1.73533 77.3589 1.766C77.8802 1.766 78.4169 1.766 78.9689 1.766C79.5209 1.79667 80.0422 1.812 80.5329 1.812C81.0542 1.812 81.4069 1.812 81.5909 1.812C81.7749 1.812 82.1275 1.812 82.6489 1.812C83.1702 1.812 83.7375 1.79667 84.3509 1.766C84.9335 1.766 85.4702 1.766 85.9609 1.766C86.4822 1.73533 86.8195 1.72 86.9729 1.72C87.1875 1.72 87.3715 1.75067 87.5249 1.812C87.6782 1.87333 87.7549 2.07266 87.7549 2.41C87.7549 2.594 87.7395 2.732 87.7089 2.824C87.6782 2.916 87.6322 2.99266 87.5709 3.054C87.5095 3.08467 87.4329 3.11533 87.3409 3.146C87.2795 3.146 87.1875 3.146 87.0649 3.146C86.6049 3.17667 86.1909 3.238 85.8229 3.33C85.4855 3.39133 85.1175 3.48333 84.7189 3.606C84.2589 3.75933 83.9522 4.02 83.7989 4.388C83.6455 4.756 83.5689 5.23133 83.5689 5.814V23.11C83.5689 26.6367 84.1822 29.1667 85.4089 30.7C86.6662 32.2333 88.8129 33 91.8489 33C94.5169 33 96.4949 32.218 97.7829 30.654C99.1015 29.09 99.7609 26.698 99.7609 23.478V12.944C99.7609 12.5453 99.7455 11.9933 99.7149 11.288C99.6842 10.5827 99.6535 9.84666 99.6229 9.08C99.5922 8.344 99.5615 7.654 99.5309 7.01C99.5002 6.366 99.4695 5.89067 99.4389 5.584C99.3469 5.00133 99.2089 4.55667 99.0249 4.25C98.8715 3.91267 98.5802 3.68266 98.1509 3.56C97.7522 3.468 97.3842 3.39133 97.0469 3.33C96.7402 3.238 96.3722 3.17667 95.9429 3.146C95.7895 3.146 95.6669 3.146 95.5749 3.146C95.5135 3.11533 95.4522 3.08467 95.3909 3.054C95.3295 2.99266 95.2835 2.916 95.2529 2.824C95.2529 2.732 95.2529 2.594 95.2529 2.41C95.2529 2.07266 95.3142 1.87333 95.4369 1.812C95.5902 1.75067 95.7895 1.72 96.0349 1.72C96.1575 1.72 96.4489 1.73533 96.9089 1.766C97.3689 1.766 97.8749 1.766 98.4269 1.766C98.9482 1.79667 99.4389 1.812 99.8989 1.812C100.39 1.812 100.742 1.812 100.957 1.812C101.11 1.812 101.402 1.812 101.831 1.812C102.26 1.812 102.72 1.79667 103.211 1.766C103.702 1.766 104.162 1.766 104.591 1.766C105.02 1.73533 105.327 1.72 105.511 1.72C105.726 1.72 105.91 1.75067 106.063 1.812C106.216 1.87333 106.293 2.07266 106.293 2.41C106.293 2.778 106.232 3.008 106.109 3.1C106.017 3.16133 105.848 3.192 105.603 3.192C105.419 3.22267 105.25 3.25333 105.097 3.284C104.944 3.284 104.806 3.29933 104.683 3.33C104.53 3.36066 104.376 3.39133 104.223 3.422C104.07 3.45267 103.901 3.48333 103.717 3.514C103.257 3.606 102.935 3.82067 102.751 4.158C102.598 4.49533 102.49 4.95533 102.429 5.538C102.368 5.84467 102.322 6.33533 102.291 7.01C102.26 7.654 102.23 8.35933 102.199 9.126C102.199 9.862 102.184 10.5827 102.153 11.288C102.153 11.9627 102.153 12.4533 102.153 12.76V24.076ZM114.126 30.792C114.126 31.4973 114.187 32.034 114.31 32.402C114.463 32.7393 114.77 32.954 115.23 33.046C115.567 33.138 115.95 33.184 116.38 33.184C116.809 33.2147 117.208 33.23 117.576 33.23H122.13C123.05 33.23 123.77 33.092 124.292 32.816C124.813 32.54 125.212 32.08 125.488 31.436C125.825 30.7307 126.116 30.01 126.362 29.274C126.638 28.5073 126.898 27.756 127.144 27.02C127.205 26.744 127.282 26.5753 127.374 26.514C127.466 26.4527 127.619 26.4527 127.834 26.514C128.079 26.5753 128.232 26.652 128.294 26.744C128.355 26.836 128.37 27.0047 128.34 27.25C128.186 28.5687 128.002 29.9027 127.788 31.252C127.604 32.6013 127.404 33.92 127.19 35.208C127.159 35.4227 127.052 35.5453 126.868 35.576C126.714 35.6373 126.576 35.668 126.454 35.668C126.3 35.668 125.718 35.668 124.706 35.668C123.724 35.668 122.636 35.6527 121.44 35.622C120.274 35.5913 119.186 35.5607 118.174 35.53C117.192 35.53 116.625 35.53 116.472 35.53C116.288 35.53 115.705 35.53 114.724 35.53C113.773 35.5607 112.73 35.5913 111.596 35.622C110.43 35.6527 109.342 35.668 108.33 35.668C107.318 35.668 106.674 35.668 106.398 35.668C106.152 35.668 105.953 35.6373 105.8 35.576C105.677 35.5147 105.616 35.3 105.616 34.932C105.616 34.5947 105.662 34.38 105.754 34.288C105.846 34.196 106.03 34.1347 106.306 34.104C106.827 34.0733 107.333 34.012 107.824 33.92C108.314 33.8587 108.774 33.7513 109.204 33.598C109.602 33.4753 109.894 33.2453 110.078 32.908C110.262 32.54 110.354 32.034 110.354 31.39V5.86C110.354 5.27733 110.262 4.802 110.078 4.434C109.894 4.066 109.602 3.80533 109.204 3.652C108.774 3.52933 108.345 3.43733 107.916 3.376C107.517 3.284 107.118 3.22267 106.72 3.192C106.444 3.192 106.26 3.16133 106.168 3.1C106.076 3.008 106.03 2.778 106.03 2.41C106.03 2.07266 106.091 1.87333 106.214 1.812C106.367 1.75067 106.566 1.72 106.812 1.72C106.965 1.72 107.302 1.73533 107.824 1.766C108.376 1.766 108.943 1.766 109.526 1.766C110.139 1.79667 110.706 1.812 111.228 1.812C111.749 1.812 112.102 1.812 112.286 1.812C112.47 1.812 112.822 1.812 113.344 1.812C113.896 1.812 114.463 1.79667 115.046 1.766C115.628 1.766 116.18 1.766 116.702 1.766C117.223 1.73533 117.56 1.72 117.714 1.72C117.928 1.72 118.097 1.75067 118.22 1.812C118.373 1.87333 118.45 2.07266 118.45 2.41C118.45 2.778 118.404 3.008 118.312 3.1C118.22 3.16133 118.051 3.192 117.806 3.192C117.346 3.22267 116.916 3.284 116.518 3.376C116.119 3.43733 115.72 3.52933 115.322 3.652C114.862 3.80533 114.54 4.066 114.356 4.434C114.202 4.802 114.126 5.27733 114.126 5.86V30.792ZM154.025 21.086C154.209 21.086 154.331 21.0553 154.393 20.994C154.485 20.9327 154.515 20.7947 154.485 20.58C154.117 19.4147 153.749 18.2493 153.381 17.084C153.013 15.9187 152.645 14.7533 152.277 13.588C151.939 12.4227 151.587 11.2573 151.219 10.092C150.851 8.92667 150.483 7.746 150.115 6.55C149.747 7.746 149.363 8.988 148.965 10.276C148.566 11.5333 148.183 12.7753 147.815 14.002C147.416 15.2287 147.033 16.4093 146.665 17.544C146.327 18.6787 146.036 19.706 145.791 20.626C145.76 20.81 145.791 20.9327 145.883 20.994C146.005 21.0553 146.174 21.086 146.389 21.086H154.025ZM162.259 31.206C162.443 31.758 162.657 32.264 162.903 32.724C163.148 33.1533 163.409 33.414 163.685 33.506C163.869 33.598 164.037 33.6747 164.191 33.736C164.375 33.7973 164.543 33.8433 164.697 33.874C164.881 33.9353 165.065 33.9813 165.249 34.012C165.463 34.0733 165.709 34.104 165.985 34.104C166.107 34.1347 166.199 34.15 166.261 34.15C166.353 34.1807 166.429 34.2113 166.491 34.242C166.552 34.3033 166.598 34.38 166.629 34.472C166.659 34.564 166.675 34.6867 166.675 34.84C166.675 35.208 166.598 35.4073 166.445 35.438C166.291 35.4993 166.107 35.53 165.893 35.53C165.709 35.53 165.341 35.53 164.789 35.53C164.237 35.53 163.654 35.5147 163.041 35.484C162.427 35.4533 161.845 35.4227 161.293 35.392C160.741 35.392 160.388 35.392 160.235 35.392C160.051 35.392 159.683 35.392 159.131 35.392C158.579 35.4227 157.996 35.4533 157.383 35.484C156.769 35.5147 156.202 35.53 155.681 35.53C155.159 35.53 154.837 35.53 154.715 35.53C154.469 35.53 154.27 35.4993 154.117 35.438C153.994 35.4073 153.933 35.208 153.933 34.84C153.933 34.5027 153.979 34.288 154.071 34.196C154.163 34.1347 154.347 34.0887 154.623 34.058C154.991 34.058 155.405 34.012 155.865 33.92C156.325 33.8587 156.739 33.782 157.107 33.69C157.536 33.598 157.766 33.3987 157.797 33.092C157.858 32.816 157.843 32.4327 157.751 31.942C157.567 31.3287 157.367 30.6847 157.153 30.01C156.969 29.3353 156.769 28.6607 156.555 27.986C156.34 27.3113 156.141 26.6367 155.957 25.962C155.773 25.2873 155.589 24.628 155.405 23.984C155.343 23.8307 155.267 23.708 155.175 23.616C155.083 23.524 154.975 23.478 154.853 23.478H145.607C145.423 23.478 145.269 23.524 145.147 23.616C145.024 23.708 144.947 23.8307 144.917 23.984C144.702 24.628 144.472 25.2873 144.227 25.962C144.012 26.6367 143.813 27.3267 143.629 28.032C143.414 28.7067 143.215 29.3967 143.031 30.102C142.847 30.7767 142.709 31.4053 142.617 31.988C142.525 32.4173 142.494 32.7853 142.525 33.092C142.555 33.3987 142.739 33.598 143.077 33.69C143.475 33.8433 143.843 33.9507 144.181 34.012C144.549 34.104 145.009 34.1653 145.561 34.196C145.775 34.2267 145.929 34.2727 146.021 34.334C146.143 34.426 146.205 34.61 146.205 34.886C146.205 35.07 146.174 35.208 146.113 35.3C146.082 35.392 146.036 35.4533 145.975 35.484C145.913 35.5147 145.837 35.53 145.745 35.53C145.653 35.53 145.561 35.53 145.469 35.53C145.315 35.53 145.024 35.53 144.595 35.53C144.165 35.53 143.705 35.5147 143.215 35.484C142.724 35.4533 142.264 35.4227 141.835 35.392C141.405 35.392 141.099 35.392 140.915 35.392C140.731 35.392 140.424 35.392 139.995 35.392C139.596 35.4227 139.167 35.4533 138.707 35.484C138.216 35.5147 137.756 35.53 137.327 35.53C136.928 35.53 136.652 35.53 136.499 35.53C136.315 35.53 136.146 35.4993 135.993 35.438C135.87 35.4073 135.809 35.208 135.809 34.84C135.809 34.5027 135.855 34.288 135.947 34.196C136.039 34.1347 136.223 34.0887 136.499 34.058C136.836 34.058 137.143 34.012 137.419 33.92C137.725 33.828 138.017 33.736 138.293 33.644C138.722 33.4907 139.044 33.184 139.259 32.724C139.504 32.264 139.719 31.758 139.903 31.206C141.497 26.6673 143.107 21.9447 144.733 17.038C146.389 12.1007 147.953 7.31667 149.425 2.686C149.425 2.65533 149.425 2.60933 149.425 2.548C149.455 2.48666 149.471 2.44067 149.471 2.41C149.501 2.34866 149.532 2.30266 149.563 2.272C149.593 2.21067 149.639 2.16467 149.701 2.134L152.369 0.845997C152.461 0.815331 152.537 0.830665 152.599 0.891999C152.691 0.922666 152.767 1.01467 152.829 1.168C153.565 3.62133 154.316 6.12066 155.083 8.666C155.849 11.1807 156.631 13.6953 157.429 16.21C158.195 18.7553 158.977 21.2853 159.775 23.8C160.603 26.3147 161.431 28.7833 162.259 31.206ZM191.496 32.08C191.496 32.2333 191.496 32.3713 191.496 32.494C191.527 32.6167 191.527 32.724 191.496 32.816C191.496 32.908 191.465 32.9847 191.404 33.046C191.343 33.1073 191.251 33.1687 191.128 33.23C189.809 34.0887 188.092 34.7327 185.976 35.162C183.891 35.622 181.775 35.852 179.628 35.852C177.481 35.852 175.457 35.484 173.556 34.748C171.655 34.012 169.999 32.908 168.588 31.436C167.147 29.9947 166.012 28.216 165.184 26.1C164.356 23.9533 163.942 21.5 163.942 18.74C163.942 15.98 164.356 13.5267 165.184 11.38C166.012 9.23333 167.162 7.43933 168.634 5.998C170.075 4.526 171.762 3.40666 173.694 2.64C175.626 1.87333 177.681 1.49 179.858 1.49C182.097 1.49 184.013 1.64333 185.608 1.95C187.233 2.25667 188.751 2.64 190.162 3.1C190.285 3.16133 190.392 3.238 190.484 3.33C190.576 3.39133 190.637 3.49867 190.668 3.652C190.76 4.756 190.837 5.79866 190.898 6.78C190.99 7.76133 191.082 8.804 191.174 9.908C191.174 10.1533 191.143 10.322 191.082 10.414C191.021 10.506 190.867 10.5673 190.622 10.598C190.346 10.6593 190.162 10.6593 190.07 10.598C190.009 10.506 189.963 10.3373 189.932 10.092C189.809 9.54 189.579 8.88067 189.242 8.114C188.935 7.34733 188.552 6.70333 188.092 6.182C187.264 5.354 186.16 4.71 184.78 4.25C183.431 3.79 181.897 3.56 180.18 3.56C178.524 3.56 176.975 3.91266 175.534 4.618C174.123 5.32333 172.897 6.33533 171.854 7.654C170.781 8.942 169.953 10.5367 169.37 12.438C168.787 14.3087 168.496 16.4093 168.496 18.74C168.496 21.1013 168.772 23.2173 169.324 25.088C169.876 26.928 170.658 28.4767 171.67 29.734C172.651 30.9913 173.832 31.9573 175.212 32.632C176.623 33.276 178.156 33.598 179.812 33.598C181.284 33.598 182.633 33.46 183.86 33.184C185.117 32.9387 186.175 32.586 187.034 32.126C187.187 32.034 187.295 31.942 187.356 31.85C187.448 31.7273 187.494 31.574 187.494 31.39V24.858C187.494 23.754 187.387 23.0487 187.172 22.742C186.988 22.4047 186.681 22.1593 186.252 22.006C185.7 21.8527 185.056 21.6993 184.32 21.546C183.615 21.3927 182.971 21.2547 182.388 21.132C182.173 21.1013 182.02 21.0553 181.928 20.994C181.836 20.902 181.805 20.7333 181.836 20.488C181.836 20.2427 181.882 20.0893 181.974 20.028C182.066 19.9667 182.25 19.936 182.526 19.936C182.986 19.9973 183.584 20.0433 184.32 20.074C185.056 20.074 185.792 20.0893 186.528 20.12C187.233 20.1507 187.862 20.166 188.414 20.166C188.966 20.166 189.273 20.166 189.334 20.166C189.395 20.166 189.625 20.166 190.024 20.166C190.453 20.166 190.944 20.166 191.496 20.166C192.048 20.1353 192.615 20.12 193.198 20.12C193.781 20.0893 194.302 20.0433 194.762 19.982C195.007 19.982 195.176 20.0127 195.268 20.074C195.36 20.1353 195.421 20.2887 195.452 20.534C195.452 20.7793 195.406 20.948 195.314 21.04C195.222 21.1013 195.084 21.1473 194.9 21.178C194.532 21.27 194.149 21.362 193.75 21.454C193.382 21.546 193.045 21.638 192.738 21.73C192.278 21.914 191.956 22.1593 191.772 22.466C191.588 22.742 191.496 23.4473 191.496 24.582V32.08ZM203.393 17.314C206.889 17.314 209.541 16.854 211.351 15.934C213.16 14.9833 214.065 13.174 214.065 10.506C214.065 9.64733 213.942 8.81933 213.697 8.022C213.451 7.22467 213.022 6.504 212.409 5.86C211.826 5.24667 211.029 4.756 210.017 4.388C209.005 3.98933 207.747 3.79 206.245 3.79C205.877 3.79 205.447 3.80533 204.957 3.836C204.466 3.836 204.052 3.882 203.715 3.974C203.255 4.09666 202.948 4.342 202.795 4.71C202.641 5.078 202.565 5.584 202.565 6.228V16.532C202.565 16.8693 202.611 17.084 202.703 17.176C202.795 17.268 203.025 17.314 203.393 17.314ZM210.339 18.142C210.185 18.1727 210.078 18.2187 210.017 18.28C209.986 18.3413 210.093 18.4333 210.339 18.556C210.799 18.832 211.243 19.3073 211.673 19.982C212.102 20.626 212.501 21.3313 212.869 22.098L216.503 29.642C217.3 31.298 218.205 32.4787 219.217 33.184C220.229 33.92 221.271 34.242 222.345 34.15C222.713 34.15 222.958 34.1653 223.081 34.196C223.234 34.2267 223.341 34.3647 223.403 34.61C223.433 34.8553 223.403 35.0547 223.311 35.208C223.249 35.3613 223.081 35.4687 222.805 35.53C220.321 35.898 218.174 35.622 216.365 34.702C214.586 33.8127 213.129 32.126 211.995 29.642L208.867 22.742C208.223 21.3313 207.563 20.4113 206.889 19.982C206.214 19.5527 205.141 19.338 203.669 19.338H203.393C203.025 19.338 202.795 19.3993 202.703 19.522C202.611 19.614 202.565 19.8287 202.565 20.166V31.436C202.565 32.08 202.641 32.586 202.795 32.954C202.979 33.2913 203.301 33.5213 203.761 33.644C204.159 33.7973 204.589 33.92 205.049 34.012C205.539 34.104 206.061 34.1653 206.613 34.196C206.827 34.2267 206.981 34.2727 207.073 34.334C207.195 34.426 207.257 34.6407 207.257 34.978C207.257 35.346 207.18 35.5453 207.027 35.576C206.904 35.6373 206.735 35.668 206.521 35.668C206.367 35.668 206.015 35.668 205.463 35.668C204.911 35.668 204.313 35.6527 203.669 35.622C203.025 35.5913 202.411 35.5607 201.829 35.53C201.277 35.53 200.909 35.53 200.725 35.53C200.541 35.53 200.173 35.53 199.621 35.53C199.069 35.5607 198.486 35.5913 197.873 35.622C197.259 35.6527 196.677 35.668 196.125 35.668C195.573 35.668 195.22 35.668 195.067 35.668C194.821 35.668 194.622 35.6373 194.469 35.576C194.346 35.5453 194.285 35.346 194.285 34.978C194.285 34.6407 194.331 34.426 194.423 34.334C194.515 34.2727 194.699 34.2267 194.975 34.196C195.496 34.1653 195.956 34.104 196.355 34.012C196.784 33.92 197.213 33.7973 197.643 33.644C198.041 33.5213 198.333 33.2913 198.517 32.954C198.701 32.586 198.793 32.08 198.793 31.436V6.09C198.793 5.50733 198.701 5.032 198.517 4.664C198.333 4.26533 198.041 4.00467 197.643 3.882C197.305 3.79 196.922 3.72867 196.493 3.698C196.094 3.63666 195.665 3.606 195.205 3.606C194.959 3.606 194.775 3.57533 194.653 3.514C194.561 3.422 194.515 3.192 194.515 2.824C194.515 2.67067 194.53 2.548 194.561 2.456C194.591 2.364 194.637 2.28733 194.699 2.226C194.791 2.19533 194.883 2.18 194.975 2.18C195.067 2.14933 195.174 2.11867 195.297 2.088H195.619C197.459 1.996 199.191 1.91933 200.817 1.858C202.442 1.79667 204.205 1.766 206.107 1.766C209.971 1.766 212.915 2.502 214.939 3.974C216.963 5.446 217.975 7.59267 217.975 10.414C217.975 11.334 217.775 12.2387 217.377 13.128C217.009 14.0173 216.487 14.8147 215.813 15.52C215.107 16.2253 214.295 16.8233 213.375 17.314C212.455 17.774 211.443 18.05 210.339 18.142ZM237.405 3.698C235.503 3.698 233.832 4.08133 232.391 4.848C230.949 5.61467 229.738 6.642 228.757 7.93C227.775 9.24867 227.039 10.8127 226.549 12.622C226.058 14.4007 225.813 16.3173 225.813 18.372C225.782 20.488 226.043 22.4507 226.595 24.26C227.177 26.0693 227.99 27.6487 229.033 28.998C230.045 30.3473 231.256 31.4053 232.667 32.172C234.108 32.9387 235.687 33.322 237.405 33.322C239.091 33.322 240.64 32.9387 242.051 32.172C243.461 31.4053 244.688 30.3473 245.731 28.998C246.773 27.6487 247.571 26.0693 248.123 24.26C248.705 22.4507 248.997 20.488 248.997 18.372C248.997 16.3173 248.705 14.4007 248.123 12.622C247.54 10.8127 246.727 9.24867 245.685 7.93C244.673 6.642 243.446 5.61467 242.005 4.848C240.594 4.08133 239.061 3.698 237.405 3.698ZM237.359 35.668C235.151 35.668 233.081 35.2847 231.149 34.518C229.217 33.782 227.53 32.678 226.089 31.206C224.647 29.734 223.513 27.94 222.685 25.824C221.887 23.6773 221.489 21.224 221.489 18.464C221.489 15.796 221.887 13.404 222.685 11.288C223.513 9.172 224.632 7.378 226.043 5.906C227.484 4.434 229.171 3.31466 231.103 2.548C233.035 1.75067 235.135 1.352 237.405 1.352C239.643 1.352 241.729 1.75067 243.661 2.548C245.623 3.31466 247.31 4.434 248.721 5.906C250.162 7.378 251.281 9.172 252.079 11.288C252.907 13.404 253.321 15.796 253.321 18.464C253.321 21.224 252.891 23.6773 252.033 25.824C251.205 27.94 250.07 29.734 248.629 31.206C247.187 32.678 245.501 33.782 243.569 34.518C241.637 35.2847 239.567 35.668 237.359 35.668ZM255.141 17.314H272.069V21.178H255.141V17.314ZM273.861 35.668C273.616 35.668 273.417 35.6373 273.263 35.576C273.141 35.5453 273.079 35.346 273.079 34.978C273.079 34.6407 273.125 34.426 273.217 34.334C273.309 34.2727 273.493 34.2267 273.769 34.196C274.291 34.1653 274.751 34.104 275.149 34.012C275.579 33.9507 276.008 33.8433 276.437 33.69C276.836 33.5673 277.127 33.3373 277.311 33C277.495 32.632 277.587 32.126 277.587 31.482V5.86C277.587 5.27733 277.495 4.802 277.311 4.434C277.127 4.066 276.836 3.80533 276.437 3.652C276.008 3.52933 275.563 3.43733 275.103 3.376C274.643 3.31466 274.153 3.25333 273.631 3.192C273.355 3.192 273.171 3.16133 273.079 3.1C272.987 3.008 272.941 2.778 272.941 2.41C272.941 2.07266 273.003 1.87333 273.125 1.812C273.279 1.75067 273.478 1.72 273.723 1.72C273.999 1.72 274.643 1.73533 275.655 1.766C276.667 1.766 277.741 1.78133 278.875 1.812C280.01 1.84266 281.053 1.858 282.003 1.858C282.954 1.858 283.521 1.858 283.705 1.858C283.859 1.858 284.411 1.858 285.361 1.858C286.343 1.858 287.401 1.84266 288.535 1.812C289.67 1.78133 290.713 1.766 291.663 1.766C292.645 1.73533 293.212 1.72 293.365 1.72C293.488 1.72 293.626 1.75067 293.779 1.812C293.933 1.87333 294.04 1.996 294.101 2.18C294.285 3.31467 294.469 4.434 294.653 5.538C294.837 6.61133 295.006 7.7 295.159 8.804C295.19 9.08 295.19 9.264 295.159 9.356C295.129 9.448 295.021 9.52467 294.837 9.586C294.561 9.678 294.393 9.69333 294.331 9.632C294.27 9.57066 294.193 9.402 294.101 9.126C293.917 8.60467 293.703 8.08333 293.457 7.562C293.243 7.01 293.013 6.47333 292.767 5.952C292.461 5.4 292.016 4.97067 291.433 4.664C290.881 4.35733 290.145 4.18866 289.225 4.158H284.763C284.395 4.158 283.997 4.17333 283.567 4.204C283.138 4.204 282.755 4.25 282.417 4.342C281.957 4.46467 281.651 4.71 281.497 5.078C281.375 5.446 281.313 5.952 281.313 6.596V15.612C281.313 15.98 281.359 16.21 281.451 16.302C281.543 16.394 281.773 16.44 282.141 16.44H287.845C289.011 16.44 289.731 16.348 290.007 16.164C290.314 15.98 290.544 15.658 290.697 15.198C290.759 14.9833 290.82 14.7687 290.881 14.554C290.943 14.3393 291.004 14.1247 291.065 13.91C291.127 13.6647 291.188 13.4193 291.249 13.174C291.311 12.898 291.387 12.6067 291.479 12.3C291.51 12.116 291.556 11.978 291.617 11.886C291.679 11.794 291.832 11.748 292.077 11.748C292.323 11.7787 292.461 11.84 292.491 11.932C292.553 12.024 292.583 12.1927 292.583 12.438C292.522 12.898 292.476 13.4193 292.445 14.002C292.445 14.5847 292.43 15.152 292.399 15.704C292.369 16.2253 292.353 16.6853 292.353 17.084C292.353 17.4827 292.353 17.7127 292.353 17.774C292.353 17.866 292.353 18.1113 292.353 18.51C292.353 18.9087 292.369 19.384 292.399 19.936C292.43 20.488 292.445 21.0707 292.445 21.684C292.476 22.2667 292.522 22.788 292.583 23.248C292.583 23.524 292.553 23.708 292.491 23.8C292.461 23.8613 292.323 23.892 292.077 23.892C291.832 23.9227 291.679 23.9073 291.617 23.846C291.556 23.754 291.51 23.6007 291.479 23.386C291.357 22.8033 291.219 22.2053 291.065 21.592C290.943 20.9787 290.789 20.396 290.605 19.844C290.452 19.4453 290.222 19.154 289.915 18.97C289.609 18.7553 288.888 18.648 287.753 18.648H282.187C281.819 18.648 281.589 18.7093 281.497 18.832C281.405 18.924 281.359 19.1233 281.359 19.43V31.482C281.359 32.126 281.436 32.632 281.589 33C281.773 33.3373 282.095 33.5673 282.555 33.69C282.954 33.8433 283.383 33.9507 283.843 34.012C284.334 34.104 284.855 34.1653 285.407 34.196C285.622 34.2267 285.775 34.2727 285.867 34.334C285.99 34.426 286.051 34.6407 286.051 34.978C286.051 35.346 285.975 35.5453 285.821 35.576C285.699 35.6373 285.53 35.668 285.315 35.668C285.162 35.668 284.809 35.668 284.257 35.668C283.705 35.668 283.107 35.6527 282.463 35.622C281.819 35.5913 281.206 35.5607 280.623 35.53C280.071 35.53 279.703 35.53 279.519 35.53C279.335 35.53 278.967 35.53 278.415 35.53C277.863 35.5607 277.281 35.5913 276.667 35.622C276.054 35.6527 275.471 35.668 274.919 35.668C274.367 35.668 274.015 35.668 273.861 35.668ZM300.944 35.484C300.76 35.484 300.407 35.484 299.886 35.484C299.365 35.5147 298.797 35.53 298.184 35.53C297.601 35.5607 297.034 35.576 296.482 35.576C295.961 35.576 295.623 35.576 295.47 35.576C295.225 35.576 295.025 35.5453 294.872 35.484C294.749 35.4533 294.688 35.254 294.688 34.886C294.688 34.5487 294.734 34.334 294.826 34.242C294.918 34.1807 295.102 34.1347 295.378 34.104C295.777 34.104 296.175 34.058 296.574 33.966C297.003 33.9047 297.433 33.7973 297.862 33.644C298.261 33.5213 298.552 33.2913 298.736 32.954C298.92 32.586 299.012 32.08 299.012 31.436V5.86C299.012 5.27733 298.92 4.802 298.736 4.434C298.552 4.066 298.261 3.80533 297.862 3.652C297.433 3.52933 297.003 3.43733 296.574 3.376C296.175 3.284 295.777 3.22267 295.378 3.192C295.102 3.192 294.918 3.16133 294.826 3.1C294.734 3.008 294.688 2.778 294.688 2.41C294.688 2.07266 294.749 1.87333 294.872 1.812C295.025 1.75067 295.225 1.72 295.47 1.72C295.623 1.72 295.961 1.73533 296.482 1.766C297.034 1.766 297.601 1.766 298.184 1.766C298.797 1.79667 299.365 1.812 299.886 1.812C300.407 1.812 300.76 1.812 300.944 1.812C301.097 1.812 301.435 1.812 301.956 1.812C302.508 1.812 303.075 1.79667 303.658 1.766C304.271 1.766 304.839 1.766 305.36 1.766C305.881 1.73533 306.234 1.72 306.418 1.72C306.633 1.72 306.817 1.75067 306.97 1.812C307.123 1.87333 307.2 2.07266 307.2 2.41C307.2 2.778 307.139 3.008 307.016 3.1C306.924 3.16133 306.755 3.192 306.51 3.192C306.081 3.22267 305.651 3.284 305.222 3.376C304.823 3.43733 304.425 3.52933 304.026 3.652C303.566 3.80533 303.244 4.066 303.06 4.434C302.907 4.802 302.83 5.27733 302.83 5.86V31.436C302.83 32.08 302.907 32.586 303.06 32.954C303.244 33.2913 303.566 33.5213 304.026 33.644C304.425 33.7973 304.823 33.9047 305.222 33.966C305.651 34.058 306.081 34.104 306.51 34.104C306.755 34.1347 306.924 34.1807 307.016 34.242C307.139 34.334 307.2 34.5487 307.2 34.886C307.2 35.254 307.123 35.4533 306.97 35.484C306.817 35.5453 306.633 35.576 306.418 35.576C306.234 35.576 305.881 35.576 305.36 35.576C304.839 35.576 304.271 35.5607 303.658 35.53C303.075 35.53 302.508 35.5147 301.956 35.484C301.435 35.484 301.097 35.484 300.944 35.484ZM317.716 33.414C318.391 33.414 319.096 33.2913 319.832 33.046C320.599 32.8007 321.289 32.4327 321.902 31.942C322.515 31.482 323.021 30.9147 323.42 30.24C323.819 29.5653 324.033 28.814 324.064 27.986C324.064 26.974 323.834 26.0693 323.374 25.272C322.914 24.444 322.331 23.6927 321.626 23.018C320.921 22.374 320.108 21.8067 319.188 21.316C318.299 20.7947 317.409 20.304 316.52 19.844C315.293 19.292 314.189 18.74 313.208 18.188C312.257 17.636 311.445 17.038 310.77 16.394C310.126 15.7193 309.62 14.9527 309.252 14.094C308.915 13.2047 308.746 12.1313 308.746 10.874C308.746 8.17533 309.62 5.93667 311.368 4.158C313.116 2.37933 315.646 1.49 318.958 1.49C320.185 1.55133 321.319 1.72 322.362 1.996C323.435 2.272 324.509 2.62467 325.582 3.054C325.705 3.11533 325.812 3.192 325.904 3.284C325.996 3.34533 326.057 3.45266 326.088 3.606C326.272 4.74066 326.395 5.768 326.456 6.688C326.548 7.57733 326.625 8.574 326.686 9.678C326.686 9.954 326.64 10.138 326.548 10.23C326.487 10.2913 326.333 10.3373 326.088 10.368C325.812 10.4293 325.628 10.4293 325.536 10.368C325.475 10.276 325.429 10.1073 325.398 9.862C325.245 9.18733 324.984 8.436 324.616 7.608C324.279 6.74933 323.88 6.02866 323.42 5.446C322.868 4.802 322.132 4.35733 321.212 4.112C320.323 3.86667 319.372 3.744 318.36 3.744C316.244 3.744 314.68 4.21933 313.668 5.17C312.687 6.12067 312.196 7.194 312.196 8.39C312.196 9.37133 312.38 10.2147 312.748 10.92C313.147 11.6253 313.683 12.254 314.358 12.806C315.033 13.358 315.815 13.864 316.704 14.324C317.624 14.7533 318.621 15.2133 319.694 15.704C320.614 16.164 321.549 16.67 322.5 17.222C323.451 17.774 324.294 18.4027 325.03 19.108C325.797 19.844 326.41 20.7027 326.87 21.684C327.361 22.6347 327.606 23.7387 327.606 24.996C327.606 28.308 326.64 30.9453 324.708 32.908C322.807 34.8707 320.215 35.852 316.934 35.852C316.229 35.852 315.493 35.7753 314.726 35.622C313.99 35.4687 313.254 35.2693 312.518 35.024C311.751 34.7787 311.031 34.518 310.356 34.242C309.712 33.966 309.145 33.69 308.654 33.414C308.531 33.3527 308.424 33.2607 308.332 33.138C308.24 33.046 308.194 32.9387 308.194 32.816C308.01 31.7427 307.857 30.608 307.734 29.412C307.611 28.216 307.55 27.0507 307.55 25.916C307.55 25.6707 307.565 25.4867 307.596 25.364C307.657 25.2413 307.811 25.1647 308.056 25.134C308.301 25.134 308.47 25.1493 308.562 25.18C308.685 25.2107 308.777 25.3487 308.838 25.594C309.022 26.4833 309.267 27.3727 309.574 28.262C309.881 29.1513 310.233 29.9793 310.632 30.746C310.969 31.4207 311.782 32.034 313.07 32.586C314.358 33.138 315.907 33.414 317.716 33.414ZM351.446 15.382V5.676C351.446 5.09333 351.354 4.618 351.17 4.25C350.986 3.882 350.68 3.62133 350.25 3.468C349.821 3.34533 349.438 3.25333 349.1 3.192C348.794 3.1 348.441 3.03867 348.042 3.008C347.889 3.008 347.766 3.008 347.674 3.008C347.613 2.97733 347.552 2.94666 347.49 2.916C347.429 2.85467 347.383 2.778 347.352 2.686C347.352 2.594 347.352 2.456 347.352 2.272C347.352 1.93467 347.414 1.73533 347.536 1.674C347.69 1.61266 347.889 1.582 348.134 1.582C348.257 1.582 348.564 1.59733 349.054 1.628C349.545 1.628 350.082 1.628 350.664 1.628C351.216 1.65866 351.753 1.674 352.274 1.674C352.796 1.674 353.148 1.674 353.332 1.674C353.486 1.674 353.823 1.674 354.344 1.674C354.896 1.674 355.464 1.65866 356.046 1.628C356.66 1.628 357.227 1.628 357.748 1.628C358.27 1.59733 358.622 1.582 358.806 1.582C359.021 1.582 359.205 1.61266 359.358 1.674C359.512 1.73533 359.588 1.93467 359.588 2.272C359.588 2.64 359.527 2.87 359.404 2.962C359.312 3.02333 359.144 3.054 358.898 3.054C358.469 3.08467 358.055 3.146 357.656 3.238C357.258 3.29933 356.859 3.39133 356.46 3.514C356 3.66733 355.678 3.928 355.494 4.296C355.341 4.664 355.264 5.13933 355.264 5.722V31.298C355.264 31.942 355.341 32.448 355.494 32.816C355.678 33.1533 356 33.3833 356.46 33.506C356.859 33.6593 357.258 33.7667 357.656 33.828C358.055 33.92 358.469 33.966 358.898 33.966C359.144 33.9967 359.312 34.0427 359.404 34.104C359.527 34.196 359.588 34.4107 359.588 34.748C359.588 35.116 359.512 35.3153 359.358 35.346C359.205 35.4073 359.021 35.438 358.806 35.438C358.622 35.438 358.27 35.438 357.748 35.438C357.227 35.438 356.66 35.4227 356.046 35.392C355.464 35.392 354.896 35.3767 354.344 35.346C353.823 35.346 353.486 35.346 353.332 35.346C353.148 35.346 352.796 35.346 352.274 35.346C351.753 35.3767 351.216 35.392 350.664 35.392C350.082 35.4227 349.545 35.438 349.054 35.438C348.564 35.438 348.257 35.438 348.134 35.438C347.889 35.438 347.69 35.4073 347.536 35.346C347.414 35.3153 347.352 35.116 347.352 34.748C347.352 34.5947 347.352 34.472 347.352 34.38C347.383 34.288 347.429 34.2113 347.49 34.15C347.552 34.1193 347.613 34.0887 347.674 34.058C347.766 34.058 347.889 34.0427 348.042 34.012C348.441 34.012 348.794 33.966 349.1 33.874C349.438 33.8127 349.821 33.7053 350.25 33.552C350.68 33.4293 350.986 33.1993 351.17 32.862C351.354 32.494 351.446 31.988 351.446 31.344V19.292C351.446 18.9853 351.385 18.786 351.262 18.694C351.17 18.5713 350.956 18.51 350.618 18.51H335.852C335.484 18.51 335.254 18.5713 335.162 18.694C335.07 18.786 335.024 18.9853 335.024 19.292V31.344C335.024 31.988 335.101 32.494 335.254 32.862C335.438 33.1993 335.76 33.4293 336.22 33.552C336.619 33.7053 336.972 33.8127 337.278 33.874C337.616 33.966 338.014 34.012 338.474 34.012C338.597 34.0427 338.689 34.058 338.75 34.058C338.842 34.0887 338.919 34.1193 338.98 34.15C339.042 34.2113 339.088 34.288 339.118 34.38C339.149 34.472 339.164 34.5947 339.164 34.748C339.164 35.116 339.088 35.3153 338.934 35.346C338.781 35.4073 338.597 35.438 338.382 35.438C338.229 35.438 337.907 35.438 337.416 35.438C336.926 35.438 336.389 35.4227 335.806 35.392C335.224 35.392 334.672 35.3767 334.15 35.346C333.66 35.346 333.322 35.346 333.138 35.346C332.954 35.346 332.602 35.346 332.08 35.346C331.559 35.3767 330.992 35.392 330.378 35.392C329.796 35.4227 329.228 35.438 328.676 35.438C328.155 35.438 327.818 35.438 327.664 35.438C327.419 35.438 327.22 35.4073 327.066 35.346C326.944 35.3153 326.882 35.116 326.882 34.748C326.882 34.4107 326.928 34.196 327.02 34.104C327.112 34.0427 327.296 33.9967 327.572 33.966C327.971 33.966 328.37 33.92 328.768 33.828C329.198 33.7667 329.627 33.6593 330.056 33.506C330.455 33.3833 330.746 33.1533 330.93 32.816C331.114 32.448 331.206 31.942 331.206 31.298V5.722C331.206 5.13933 331.114 4.664 330.93 4.296C330.746 3.928 330.455 3.66733 330.056 3.514C329.627 3.39133 329.198 3.29933 328.768 3.238C328.37 3.146 327.971 3.08467 327.572 3.054C327.296 3.054 327.112 3.02333 327.02 2.962C326.928 2.87 326.882 2.64 326.882 2.272C326.882 1.93467 326.944 1.73533 327.066 1.674C327.22 1.61266 327.419 1.582 327.664 1.582C327.818 1.582 328.155 1.59733 328.676 1.628C329.228 1.628 329.796 1.628 330.378 1.628C330.992 1.65866 331.559 1.674 332.08 1.674C332.602 1.674 332.954 1.674 333.138 1.674C333.322 1.674 333.66 1.674 334.15 1.674C334.672 1.674 335.224 1.65866 335.806 1.628C336.389 1.628 336.926 1.628 337.416 1.628C337.907 1.59733 338.229 1.582 338.382 1.582C338.597 1.582 338.781 1.61266 338.934 1.674C339.088 1.73533 339.164 1.93467 339.164 2.272C339.164 2.456 339.149 2.594 339.118 2.686C339.088 2.778 339.042 2.85467 338.98 2.916C338.919 2.94666 338.842 2.97733 338.75 3.008C338.689 3.008 338.597 3.008 338.474 3.008C338.014 3.03867 337.616 3.1 337.278 3.192C336.972 3.25333 336.619 3.34533 336.22 3.468C335.76 3.62133 335.438 3.882 335.254 4.25C335.101 4.618 335.024 5.09333 335.024 5.676V15.382C335.024 15.75 335.07 15.98 335.162 16.072C335.254 16.164 335.484 16.21 335.852 16.21H350.618C350.956 16.21 351.17 16.164 351.262 16.072C351.385 15.98 351.446 15.75 351.446 15.382ZM378.383 1.72C378.505 1.72 378.643 1.75067 378.797 1.812C378.95 1.87333 379.057 1.996 379.119 2.18C379.303 3.31467 379.471 4.434 379.625 5.538C379.809 6.61133 379.993 7.7 380.177 8.804C380.207 9.08 380.207 9.264 380.177 9.356C380.146 9.448 380.023 9.52467 379.809 9.586C379.686 9.64733 379.594 9.678 379.533 9.678C379.471 9.678 379.41 9.66267 379.349 9.632C379.318 9.60133 379.287 9.55533 379.257 9.494C379.226 9.402 379.195 9.27933 379.165 9.126C378.981 8.60467 378.766 8.08333 378.521 7.562C378.275 7.01 378.03 6.47333 377.785 5.952C377.478 5.4 377.033 4.97067 376.451 4.664C375.899 4.35733 375.163 4.18866 374.243 4.158H370.425C370.057 4.158 369.658 4.17333 369.229 4.204C368.799 4.204 368.416 4.25 368.079 4.342C367.619 4.46467 367.312 4.71 367.159 5.078C367.036 5.446 366.975 5.952 366.975 6.596V15.658C366.975 16.026 367.021 16.256 367.113 16.348C367.205 16.44 367.435 16.486 367.803 16.486H373.047C374.181 16.486 374.887 16.394 375.163 16.21C375.469 16.026 375.715 15.704 375.899 15.244C375.96 15.0293 376.021 14.8147 376.083 14.6C376.144 14.3853 376.205 14.1707 376.267 13.956C376.328 13.7107 376.389 13.4653 376.451 13.22C376.512 12.944 376.589 12.6527 376.681 12.346C376.681 12.254 376.681 12.1773 376.681 12.116C376.711 12.024 376.757 11.9627 376.819 11.932C376.849 11.8707 376.895 11.84 376.957 11.84C377.018 11.8093 377.11 11.794 377.233 11.794C377.478 11.8247 377.616 11.886 377.647 11.978C377.677 12.07 377.693 12.2387 377.693 12.484C377.631 12.944 377.585 13.4653 377.555 14.048C377.555 14.6307 377.539 15.198 377.509 15.75C377.478 16.2713 377.463 16.7313 377.463 17.13C377.463 17.5287 377.463 17.7587 377.463 17.82C377.463 17.912 377.463 18.1573 377.463 18.556C377.463 18.9547 377.478 19.43 377.509 19.982C377.539 20.534 377.555 21.1167 377.555 21.73C377.585 22.3127 377.631 22.834 377.693 23.294C377.693 23.57 377.677 23.754 377.647 23.846C377.616 23.9073 377.478 23.938 377.233 23.938C377.11 23.9687 377.018 23.984 376.957 23.984C376.895 23.9533 376.849 23.9227 376.819 23.892C376.757 23.8307 376.711 23.7693 376.681 23.708C376.681 23.6467 376.681 23.5547 376.681 23.432C376.558 22.8493 376.42 22.2513 376.267 21.638C376.144 21.0247 375.991 20.442 375.807 19.89C375.623 19.4913 375.377 19.2 375.071 19.016C374.795 18.8013 374.089 18.694 372.955 18.694H367.803C367.435 18.694 367.205 18.7553 367.113 18.878C367.021 18.97 366.975 19.1693 366.975 19.476V30.792C366.975 31.4973 367.036 32.034 367.159 32.402C367.312 32.7393 367.619 32.954 368.079 33.046C368.416 33.138 368.799 33.184 369.229 33.184C369.658 33.2147 370.057 33.23 370.425 33.23H376.129C377.049 33.23 377.785 33.092 378.337 32.816C378.919 32.5093 379.379 32.0493 379.717 31.436C380.085 30.7307 380.407 30.01 380.683 29.274C380.989 28.5073 381.281 27.756 381.557 27.02C381.587 26.8973 381.618 26.8053 381.649 26.744C381.679 26.652 381.71 26.5907 381.741 26.56C381.802 26.5293 381.863 26.514 381.925 26.514C381.986 26.514 382.093 26.5293 382.247 26.56C382.461 26.652 382.584 26.744 382.615 26.836C382.645 26.928 382.645 27.0967 382.615 27.342C382.4 28.6607 382.155 29.9793 381.879 31.298C381.603 32.6167 381.311 33.92 381.005 35.208C380.943 35.4227 380.836 35.5453 380.683 35.576C380.529 35.6373 380.407 35.668 380.315 35.668C380.161 35.668 379.579 35.668 378.567 35.668C377.555 35.668 376.451 35.6527 375.255 35.622C374.089 35.5913 373.001 35.5607 371.989 35.53C370.977 35.53 370.394 35.53 370.241 35.53C370.057 35.53 369.428 35.53 368.355 35.53C367.312 35.5607 366.162 35.5913 364.905 35.622C363.647 35.6527 362.451 35.668 361.317 35.668C360.213 35.668 359.523 35.668 359.247 35.668C359.001 35.668 358.802 35.6373 358.649 35.576C358.526 35.5453 358.465 35.346 358.465 34.978C358.465 34.6407 358.511 34.426 358.603 34.334C358.695 34.2727 358.879 34.2267 359.155 34.196C359.676 34.1653 360.182 34.104 360.673 34.012C361.163 33.9507 361.608 33.8433 362.007 33.69C362.436 33.5673 362.743 33.3373 362.927 33C363.111 32.632 363.203 32.126 363.203 31.482V5.906C363.203 5.32333 363.111 4.848 362.927 4.48C362.743 4.112 362.436 3.85133 362.007 3.698C361.608 3.57533 361.163 3.48333 360.673 3.422C360.182 3.33 359.676 3.25333 359.155 3.192C358.879 3.192 358.695 3.16133 358.603 3.1C358.511 3.008 358.465 2.778 358.465 2.41C358.465 2.07266 358.526 1.87333 358.649 1.812C358.802 1.75067 359.001 1.72 359.247 1.72C359.523 1.72 360.197 1.73533 361.271 1.766C362.344 1.766 363.479 1.78133 364.675 1.812C365.871 1.84266 366.975 1.858 367.987 1.858C368.999 1.858 369.597 1.858 369.781 1.858C369.934 1.858 370.44 1.858 371.299 1.858C372.157 1.858 373.077 1.84266 374.059 1.812C375.071 1.78133 376.006 1.766 376.865 1.766C377.723 1.73533 378.229 1.72 378.383 1.72ZM390.522 17.314C394.018 17.314 396.67 16.854 398.48 15.934C400.289 14.9833 401.194 13.174 401.194 10.506C401.194 9.64733 401.071 8.81933 400.826 8.022C400.58 7.22467 400.151 6.504 399.538 5.86C398.955 5.24667 398.158 4.756 397.146 4.388C396.134 3.98933 394.876 3.79 393.374 3.79C393.006 3.79 392.576 3.80533 392.086 3.836C391.595 3.836 391.181 3.882 390.844 3.974C390.384 4.09666 390.077 4.342 389.924 4.71C389.77 5.078 389.694 5.584 389.694 6.228V16.532C389.694 16.8693 389.74 17.084 389.832 17.176C389.924 17.268 390.154 17.314 390.522 17.314ZM397.468 18.142C397.314 18.1727 397.207 18.2187 397.146 18.28C397.115 18.3413 397.222 18.4333 397.468 18.556C397.928 18.832 398.372 19.3073 398.802 19.982C399.231 20.626 399.63 21.3313 399.998 22.098L403.632 29.642C404.429 31.298 405.334 32.4787 406.346 33.184C407.358 33.92 408.4 34.242 409.474 34.15C409.842 34.15 410.087 34.1653 410.21 34.196C410.363 34.2267 410.47 34.3647 410.532 34.61C410.562 34.8553 410.532 35.0547 410.44 35.208C410.378 35.3613 410.21 35.4687 409.934 35.53C407.45 35.898 405.303 35.622 403.494 34.702C401.715 33.8127 400.258 32.126 399.124 29.642L395.996 22.742C395.352 21.3313 394.692 20.4113 394.018 19.982C393.343 19.5527 392.27 19.338 390.798 19.338H390.522C390.154 19.338 389.924 19.3993 389.832 19.522C389.74 19.614 389.694 19.8287 389.694 20.166V31.436C389.694 32.08 389.77 32.586 389.924 32.954C390.108 33.2913 390.43 33.5213 390.89 33.644C391.288 33.7973 391.718 33.92 392.178 34.012C392.668 34.104 393.19 34.1653 393.742 34.196C393.956 34.2267 394.11 34.2727 394.202 34.334C394.324 34.426 394.386 34.6407 394.386 34.978C394.386 35.346 394.309 35.5453 394.156 35.576C394.033 35.6373 393.864 35.668 393.65 35.668C393.496 35.668 393.144 35.668 392.592 35.668C392.04 35.668 391.442 35.6527 390.798 35.622C390.154 35.5913 389.54 35.5607 388.958 35.53C388.406 35.53 388.038 35.53 387.854 35.53C387.67 35.53 387.302 35.53 386.75 35.53C386.198 35.5607 385.615 35.5913 385.002 35.622C384.388 35.6527 383.806 35.668 383.254 35.668C382.702 35.668 382.349 35.668 382.196 35.668C381.95 35.668 381.751 35.6373 381.598 35.576C381.475 35.5453 381.414 35.346 381.414 34.978C381.414 34.6407 381.46 34.426 381.552 34.334C381.644 34.2727 381.828 34.2267 382.104 34.196C382.625 34.1653 383.085 34.104 383.484 34.012C383.913 33.92 384.342 33.7973 384.772 33.644C385.17 33.5213 385.462 33.2913 385.646 32.954C385.83 32.586 385.922 32.08 385.922 31.436V6.09C385.922 5.50733 385.83 5.032 385.646 4.664C385.462 4.26533 385.17 4.00467 384.772 3.882C384.434 3.79 384.051 3.72867 383.622 3.698C383.223 3.63666 382.794 3.606 382.334 3.606C382.088 3.606 381.904 3.57533 381.782 3.514C381.69 3.422 381.644 3.192 381.644 2.824C381.644 2.67067 381.659 2.548 381.69 2.456C381.72 2.364 381.766 2.28733 381.828 2.226C381.92 2.19533 382.012 2.18 382.104 2.18C382.196 2.14933 382.303 2.11867 382.426 2.088H382.748C384.588 1.996 386.32 1.91933 387.946 1.858C389.571 1.79667 391.334 1.766 393.236 1.766C397.1 1.766 400.044 2.502 402.068 3.974C404.092 5.446 405.104 7.59267 405.104 10.414C405.104 11.334 404.904 12.2387 404.506 13.128C404.138 14.0173 403.616 14.8147 402.942 15.52C402.236 16.2253 401.424 16.8233 400.504 17.314C399.584 17.774 398.572 18.05 397.468 18.142ZM415.036 35.484C414.852 35.484 414.499 35.484 413.978 35.484C413.457 35.5147 412.889 35.53 412.276 35.53C411.693 35.5607 411.126 35.576 410.574 35.576C410.053 35.576 409.715 35.576 409.562 35.576C409.317 35.576 409.117 35.5453 408.964 35.484C408.841 35.4533 408.78 35.254 408.78 34.886C408.78 34.5487 408.826 34.334 408.918 34.242C409.01 34.1807 409.194 34.1347 409.47 34.104C409.869 34.104 410.267 34.058 410.666 33.966C411.095 33.9047 411.525 33.7973 411.954 33.644C412.353 33.5213 412.644 33.2913 412.828 32.954C413.012 32.586 413.104 32.08 413.104 31.436V5.86C413.104 5.27733 413.012 4.802 412.828 4.434C412.644 4.066 412.353 3.80533 411.954 3.652C411.525 3.52933 411.095 3.43733 410.666 3.376C410.267 3.284 409.869 3.22267 409.47 3.192C409.194 3.192 409.01 3.16133 408.918 3.1C408.826 3.008 408.78 2.778 408.78 2.41C408.78 2.07266 408.841 1.87333 408.964 1.812C409.117 1.75067 409.317 1.72 409.562 1.72C409.715 1.72 410.053 1.73533 410.574 1.766C411.126 1.766 411.693 1.766 412.276 1.766C412.889 1.79667 413.457 1.812 413.978 1.812C414.499 1.812 414.852 1.812 415.036 1.812C415.189 1.812 415.527 1.812 416.048 1.812C416.6 1.812 417.167 1.79667 417.75 1.766C418.363 1.766 418.931 1.766 419.452 1.766C419.973 1.73533 420.326 1.72 420.51 1.72C420.725 1.72 420.909 1.75067 421.062 1.812C421.215 1.87333 421.292 2.07266 421.292 2.41C421.292 2.778 421.231 3.008 421.108 3.1C421.016 3.16133 420.847 3.192 420.602 3.192C420.173 3.22267 419.743 3.284 419.314 3.376C418.915 3.43733 418.517 3.52933 418.118 3.652C417.658 3.80533 417.336 4.066 417.152 4.434C416.999 4.802 416.922 5.27733 416.922 5.86V31.436C416.922 32.08 416.999 32.586 417.152 32.954C417.336 33.2913 417.658 33.5213 418.118 33.644C418.517 33.7973 418.915 33.9047 419.314 33.966C419.743 34.058 420.173 34.104 420.602 34.104C420.847 34.1347 421.016 34.1807 421.108 34.242C421.231 34.334 421.292 34.5487 421.292 34.886C421.292 35.254 421.215 35.4533 421.062 35.484C420.909 35.5453 420.725 35.576 420.51 35.576C420.326 35.576 419.973 35.576 419.452 35.576C418.931 35.576 418.363 35.5607 417.75 35.53C417.167 35.53 416.6 35.5147 416.048 35.484C415.527 35.484 415.189 35.484 415.036 35.484ZM440.594 1.72C440.716 1.72 440.854 1.75067 441.008 1.812C441.161 1.87333 441.268 1.996 441.33 2.18C441.514 3.31467 441.682 4.434 441.836 5.538C442.02 6.61133 442.204 7.7 442.388 8.804C442.418 9.08 442.418 9.264 442.388 9.356C442.357 9.448 442.234 9.52467 442.02 9.586C441.897 9.64733 441.805 9.678 441.744 9.678C441.682 9.678 441.621 9.66267 441.56 9.632C441.529 9.60133 441.498 9.55533 441.468 9.494C441.437 9.402 441.406 9.27933 441.376 9.126C441.192 8.60467 440.977 8.08333 440.732 7.562C440.486 7.01 440.241 6.47333 439.996 5.952C439.689 5.4 439.244 4.97067 438.662 4.664C438.11 4.35733 437.374 4.18866 436.454 4.158H432.636C432.268 4.158 431.869 4.17333 431.44 4.204C431.01 4.204 430.627 4.25 430.29 4.342C429.83 4.46467 429.523 4.71 429.37 5.078C429.247 5.446 429.186 5.952 429.186 6.596V15.658C429.186 16.026 429.232 16.256 429.324 16.348C429.416 16.44 429.646 16.486 430.014 16.486H435.258C436.392 16.486 437.098 16.394 437.374 16.21C437.68 16.026 437.926 15.704 438.11 15.244C438.171 15.0293 438.232 14.8147 438.294 14.6C438.355 14.3853 438.416 14.1707 438.478 13.956C438.539 13.7107 438.6 13.4653 438.662 13.22C438.723 12.944 438.8 12.6527 438.892 12.346C438.892 12.254 438.892 12.1773 438.892 12.116C438.922 12.024 438.968 11.9627 439.03 11.932C439.06 11.8707 439.106 11.84 439.168 11.84C439.229 11.8093 439.321 11.794 439.444 11.794C439.689 11.8247 439.827 11.886 439.858 11.978C439.888 12.07 439.904 12.2387 439.904 12.484C439.842 12.944 439.796 13.4653 439.766 14.048C439.766 14.6307 439.75 15.198 439.72 15.75C439.689 16.2713 439.674 16.7313 439.674 17.13C439.674 17.5287 439.674 17.7587 439.674 17.82C439.674 17.912 439.674 18.1573 439.674 18.556C439.674 18.9547 439.689 19.43 439.72 19.982C439.75 20.534 439.766 21.1167 439.766 21.73C439.796 22.3127 439.842 22.834 439.904 23.294C439.904 23.57 439.888 23.754 439.858 23.846C439.827 23.9073 439.689 23.938 439.444 23.938C439.321 23.9687 439.229 23.984 439.168 23.984C439.106 23.9533 439.06 23.9227 439.03 23.892C438.968 23.8307 438.922 23.7693 438.892 23.708C438.892 23.6467 438.892 23.5547 438.892 23.432C438.769 22.8493 438.631 22.2513 438.478 21.638C438.355 21.0247 438.202 20.442 438.018 19.89C437.834 19.4913 437.588 19.2 437.282 19.016C437.006 18.8013 436.3 18.694 435.166 18.694H430.014C429.646 18.694 429.416 18.7553 429.324 18.878C429.232 18.97 429.186 19.1693 429.186 19.476V30.792C429.186 31.4973 429.247 32.034 429.37 32.402C429.523 32.7393 429.83 32.954 430.29 33.046C430.627 33.138 431.01 33.184 431.44 33.184C431.869 33.2147 432.268 33.23 432.636 33.23H438.34C439.26 33.23 439.996 33.092 440.548 32.816C441.13 32.5093 441.59 32.0493 441.928 31.436C442.296 30.7307 442.618 30.01 442.894 29.274C443.2 28.5073 443.492 27.756 443.768 27.02C443.798 26.8973 443.829 26.8053 443.86 26.744C443.89 26.652 443.921 26.5907 443.952 26.56C444.013 26.5293 444.074 26.514 444.136 26.514C444.197 26.514 444.304 26.5293 444.458 26.56C444.672 26.652 444.795 26.744 444.826 26.836C444.856 26.928 444.856 27.0967 444.826 27.342C444.611 28.6607 444.366 29.9793 444.09 31.298C443.814 32.6167 443.522 33.92 443.216 35.208C443.154 35.4227 443.047 35.5453 442.894 35.576C442.74 35.6373 442.618 35.668 442.526 35.668C442.372 35.668 441.79 35.668 440.778 35.668C439.766 35.668 438.662 35.6527 437.466 35.622C436.3 35.5913 435.212 35.5607 434.2 35.53C433.188 35.53 432.605 35.53 432.452 35.53C432.268 35.53 431.639 35.53 430.566 35.53C429.523 35.5607 428.373 35.5913 427.116 35.622C425.858 35.6527 424.662 35.668 423.528 35.668C422.424 35.668 421.734 35.668 421.458 35.668C421.212 35.668 421.013 35.6373 420.86 35.576C420.737 35.5453 420.676 35.346 420.676 34.978C420.676 34.6407 420.722 34.426 420.814 34.334C420.906 34.2727 421.09 34.2267 421.366 34.196C421.887 34.1653 422.393 34.104 422.884 34.012C423.374 33.9507 423.819 33.8433 424.218 33.69C424.647 33.5673 424.954 33.3373 425.138 33C425.322 32.632 425.414 32.126 425.414 31.482V5.906C425.414 5.32333 425.322 4.848 425.138 4.48C424.954 4.112 424.647 3.85133 424.218 3.698C423.819 3.57533 423.374 3.48333 422.884 3.422C422.393 3.33 421.887 3.25333 421.366 3.192C421.09 3.192 420.906 3.16133 420.814 3.1C420.722 3.008 420.676 2.778 420.676 2.41C420.676 2.07266 420.737 1.87333 420.86 1.812C421.013 1.75067 421.212 1.72 421.458 1.72C421.734 1.72 422.408 1.73533 423.482 1.766C424.555 1.766 425.69 1.78133 426.886 1.812C428.082 1.84266 429.186 1.858 430.198 1.858C431.21 1.858 431.808 1.858 431.992 1.858C432.145 1.858 432.651 1.858 433.51 1.858C434.368 1.858 435.288 1.84266 436.27 1.812C437.282 1.78133 438.217 1.766 439.076 1.766C439.934 1.73533 440.44 1.72 440.594 1.72ZM454.941 33.414C455.615 33.414 456.321 33.2913 457.057 33.046C457.823 32.8007 458.513 32.4327 459.127 31.942C459.74 31.482 460.246 30.9147 460.645 30.24C461.043 29.5653 461.258 28.814 461.289 27.986C461.289 26.974 461.059 26.0693 460.599 25.272C460.139 24.444 459.556 23.6927 458.851 23.018C458.145 22.374 457.333 21.8067 456.413 21.316C455.523 20.7947 454.634 20.304 453.745 19.844C452.518 19.292 451.414 18.74 450.433 18.188C449.482 17.636 448.669 17.038 447.995 16.394C447.351 15.7193 446.845 14.9527 446.477 14.094C446.139 13.2047 445.971 12.1313 445.971 10.874C445.971 8.17533 446.845 5.93667 448.593 4.158C450.341 2.37933 452.871 1.49 456.183 1.49C457.409 1.55133 458.544 1.72 459.587 1.996C460.66 2.272 461.733 2.62467 462.807 3.054C462.929 3.11533 463.037 3.192 463.129 3.284C463.221 3.34533 463.282 3.45266 463.313 3.606C463.497 4.74066 463.619 5.768 463.681 6.688C463.773 7.57733 463.849 8.574 463.911 9.678C463.911 9.954 463.865 10.138 463.773 10.23C463.711 10.2913 463.558 10.3373 463.313 10.368C463.037 10.4293 462.853 10.4293 462.761 10.368C462.699 10.276 462.653 10.1073 462.623 9.862C462.469 9.18733 462.209 8.436 461.841 7.608C461.503 6.74933 461.105 6.02866 460.645 5.446C460.093 4.802 459.357 4.35733 458.437 4.112C457.547 3.86667 456.597 3.744 455.585 3.744C453.469 3.744 451.905 4.21933 450.893 5.17C449.911 6.12067 449.421 7.194 449.421 8.39C449.421 9.37133 449.605 10.2147 449.973 10.92C450.371 11.6253 450.908 12.254 451.583 12.806C452.257 13.358 453.039 13.864 453.929 14.324C454.849 14.7533 455.845 15.2133 456.919 15.704C457.839 16.164 458.774 16.67 459.725 17.222C460.675 17.774 461.519 18.4027 462.255 19.108C463.021 19.844 463.635 20.7027 464.095 21.684C464.585 22.6347 464.831 23.7387 464.831 24.996C464.831 28.308 463.865 30.9453 461.933 32.908C460.031 34.8707 457.44 35.852 454.159 35.852C453.453 35.852 452.717 35.7753 451.951 35.622C451.215 35.4687 450.479 35.2693 449.743 35.024C448.976 34.7787 448.255 34.518 447.581 34.242C446.937 33.966 446.369 33.69 445.879 33.414C445.756 33.3527 445.649 33.2607 445.557 33.138C445.465 33.046 445.419 32.9387 445.419 32.816C445.235 31.7427 445.081 30.608 444.959 29.412C444.836 28.216 444.775 27.0507 444.775 25.916C444.775 25.6707 444.79 25.4867 444.821 25.364C444.882 25.2413 445.035 25.1647 445.281 25.134C445.526 25.134 445.695 25.1493 445.787 25.18C445.909 25.2107 446.001 25.3487 446.063 25.594C446.247 26.4833 446.492 27.3727 446.799 28.262C447.105 29.1513 447.458 29.9793 447.857 30.746C448.194 31.4207 449.007 32.034 450.295 32.586C451.583 33.138 453.131 33.414 454.941 33.414ZM13.364 73.818C14.652 73.2967 15.664 72.576 16.4 71.656C17.136 70.7053 17.504 69.4787 17.504 67.976C17.504 66.5653 17.0593 65.4613 16.17 64.664C15.3113 63.836 14.2687 63.422 13.042 63.422C11.7847 63.422 10.834 63.7747 10.19 64.48C9.57667 65.1853 9.27 66.0287 9.27 67.01C9.27 67.5313 9.362 68.0527 9.546 68.574C9.73 69.0647 9.99067 69.632 10.328 70.276C10.4813 70.6133 10.6347 70.9353 10.788 71.242C10.972 71.5487 11.156 71.84 11.34 72.116C11.4933 72.4227 11.6467 72.6987 11.8 72.944C11.9533 73.1587 12.0913 73.358 12.214 73.542C12.4287 73.818 12.5973 73.9713 12.72 74.002C12.8733 74.0327 13.088 73.9713 13.364 73.818ZM9.684 91.896C11.248 91.896 12.536 91.5587 13.548 90.884C14.5907 90.1787 15.5413 89.4273 16.4 88.63C16.5533 88.5073 16.6147 88.3847 16.584 88.262C16.5533 88.1393 16.4767 87.986 16.354 87.802L10.19 78.556C10.006 78.3107 9.80667 78.1727 9.592 78.142C9.408 78.0807 9.178 78.096 8.902 78.188C7.27667 78.74 5.912 79.6447 4.808 80.902C3.704 82.1287 3.152 83.708 3.152 85.64C3.152 87.48 3.73467 88.9827 4.9 90.148C6.06533 91.3133 7.66 91.896 9.684 91.896ZM20.264 83.938C21.3067 82.7727 22.15 81.6687 22.794 80.626C23.438 79.5833 24.0207 78.51 24.542 77.406C24.6953 77.0687 24.68 76.8233 24.496 76.67C24.3427 76.5167 24.128 76.3787 23.852 76.256C23.6067 76.164 23.3307 76.1027 23.024 76.072C22.748 76.0107 22.4873 75.9647 22.242 75.934C21.9967 75.934 21.828 75.9033 21.736 75.842C21.6747 75.75 21.644 75.5507 21.644 75.244C21.644 74.968 21.7053 74.7993 21.828 74.738C21.9507 74.646 22.1193 74.6 22.334 74.6C22.4567 74.6 22.748 74.6153 23.208 74.646C23.668 74.646 24.1587 74.646 24.68 74.646C25.232 74.6767 25.738 74.692 26.198 74.692C26.6887 74.692 27.026 74.692 27.21 74.692C27.3633 74.692 27.624 74.692 27.992 74.692C28.36 74.692 28.7587 74.6767 29.188 74.646C29.5867 74.646 29.97 74.646 30.338 74.646C30.706 74.6153 30.982 74.6 31.166 74.6C31.35 74.6 31.5033 74.646 31.626 74.738C31.7793 74.7993 31.856 74.968 31.856 75.244C31.856 75.5507 31.7947 75.75 31.672 75.842C31.58 75.934 31.4267 75.98 31.212 75.98C30.8133 76.0107 30.43 76.072 30.062 76.164C29.7247 76.2253 29.3873 76.302 29.05 76.394C28.774 76.5167 28.4827 76.6853 28.176 76.9C27.8693 77.084 27.486 77.4213 27.026 77.912C26.474 78.5253 25.9373 79.154 25.416 79.798C24.9253 80.442 24.4193 81.1013 23.898 81.776C23.4073 82.4507 22.9167 83.11 22.426 83.754C21.9353 84.398 21.46 84.996 21 85.548C20.816 85.7627 20.7087 85.9313 20.678 86.054C20.678 86.1767 20.8007 86.376 21.046 86.652L23.254 89.504C23.898 90.332 24.5573 90.976 25.232 91.436C25.9067 91.896 26.7347 92.126 27.716 92.126C28.2987 92.126 28.958 91.85 29.694 91.298C30.43 90.7153 30.982 89.9333 31.35 88.952C31.4113 88.768 31.5033 88.6453 31.626 88.584C31.7487 88.5227 31.902 88.5073 32.086 88.538C32.2393 88.5993 32.3313 88.7067 32.362 88.86C32.3927 89.0133 32.3927 89.228 32.362 89.504C32.0553 91.344 31.2427 92.8313 29.924 93.966C28.636 95.1007 27.164 95.668 25.508 95.668C24.036 95.668 22.7173 95.1927 21.552 94.242C20.4173 93.322 19.298 92.0953 18.194 90.562C18.102 90.4393 17.9793 90.3473 17.826 90.286C17.6727 90.2247 17.4887 90.286 17.274 90.47C15.894 91.9113 14.4987 93.138 13.088 94.15C11.708 95.162 10.006 95.668 7.982 95.668C6.66333 95.668 5.51333 95.4227 4.532 94.932C3.55067 94.472 2.72267 93.828 2.048 93C1.404 92.2027 0.913333 91.2827 0.576 90.24C0.269333 89.1973 0.116 88.1087 0.116 86.974C0.116 85.4713 0.330667 84.122 0.76 82.926C1.22 81.73 1.818 80.672 2.554 79.752C3.32067 78.8627 4.17933 78.1267 5.13 77.544C6.08067 76.9307 7.062 76.44 8.074 76.072C8.35 75.98 8.488 75.888 8.488 75.796C8.51867 75.704 8.45733 75.5507 8.304 75.336C8.212 75.1827 8.10467 75.014 7.982 74.83C7.85933 74.6153 7.72133 74.37 7.568 74.094C7.44533 73.8487 7.30733 73.588 7.154 73.312C7.03133 73.036 6.924 72.7447 6.832 72.438C6.556 71.8553 6.34133 71.242 6.188 70.598C6.03467 69.9233 5.958 69.2947 5.958 68.712C5.958 66.1973 6.694 64.342 8.166 63.146C9.66867 61.95 11.524 61.352 13.732 61.352C14.652 61.352 15.5413 61.49 16.4 61.766C17.2587 62.0113 18.01 62.41 18.654 62.962C19.298 63.514 19.8193 64.2193 20.218 65.078C20.6167 65.906 20.816 66.9027 20.816 68.068C20.816 69.0493 20.632 69.954 20.264 70.782C19.896 71.61 19.4207 72.346 18.838 72.99C18.2553 73.634 17.5807 74.186 16.814 74.646C16.0473 75.0753 15.25 75.3973 14.422 75.612C14.0847 75.704 13.8853 75.8113 13.824 75.934C13.7933 76.026 13.87 76.164 14.054 76.348L19.298 83.846C19.4207 84.03 19.5587 84.1373 19.712 84.168C19.896 84.1987 20.08 84.122 20.264 83.938ZM43.295 95.668C43.0496 95.668 42.8503 95.6373 42.697 95.576C42.5743 95.5453 42.513 95.346 42.513 94.978C42.513 94.6407 42.559 94.426 42.651 94.334C42.743 94.2727 42.927 94.2267 43.203 94.196C43.7243 94.1653 44.1843 94.104 44.583 94.012C45.0123 93.9507 45.4416 93.8433 45.871 93.69C46.2696 93.5673 46.561 93.3373 46.745 93C46.929 92.632 47.021 92.126 47.021 91.482V65.86C47.021 65.2773 46.929 64.802 46.745 64.434C46.561 64.066 46.2696 63.8053 45.871 63.652C45.4416 63.5293 44.997 63.4373 44.537 63.376C44.077 63.3147 43.5863 63.2533 43.065 63.192C42.789 63.192 42.605 63.1613 42.513 63.1C42.421 63.008 42.375 62.778 42.375 62.41C42.375 62.0727 42.4363 61.8733 42.559 61.812C42.7123 61.7507 42.9116 61.72 43.157 61.72C43.433 61.72 44.077 61.7353 45.089 61.766C46.101 61.766 47.1743 61.7813 48.309 61.812C49.4436 61.8427 50.4863 61.858 51.437 61.858C52.3876 61.858 52.955 61.858 53.139 61.858C53.2923 61.858 53.8443 61.858 54.795 61.858C55.7763 61.858 56.8343 61.8427 57.969 61.812C59.1036 61.7813 60.1463 61.766 61.097 61.766C62.0783 61.7353 62.6456 61.72 62.799 61.72C62.9216 61.72 63.0596 61.7507 63.213 61.812C63.3663 61.8733 63.4736 61.996 63.535 62.18C63.719 63.3147 63.903 64.434 64.087 65.538C64.271 66.6113 64.4396 67.7 64.593 68.804C64.6236 69.08 64.6236 69.264 64.593 69.356C64.5623 69.448 64.455 69.5247 64.271 69.586C63.995 69.678 63.8263 69.6933 63.765 69.632C63.7036 69.5707 63.627 69.402 63.535 69.126C63.351 68.6047 63.1363 68.0833 62.891 67.562C62.6763 67.01 62.4463 66.4733 62.201 65.952C61.8943 65.4 61.4496 64.9707 60.867 64.664C60.315 64.3573 59.579 64.1887 58.659 64.158H54.197C53.829 64.158 53.4303 64.1733 53.001 64.204C52.5716 64.204 52.1883 64.25 51.851 64.342C51.391 64.4647 51.0843 64.71 50.931 65.078C50.8083 65.446 50.747 65.952 50.747 66.596V75.612C50.747 75.98 50.793 76.21 50.885 76.302C50.977 76.394 51.207 76.44 51.575 76.44H57.279C58.4443 76.44 59.165 76.348 59.441 76.164C59.7476 75.98 59.9776 75.658 60.131 75.198C60.1923 74.9833 60.2536 74.7687 60.315 74.554C60.3763 74.3393 60.4376 74.1247 60.499 73.91C60.5603 73.6647 60.6216 73.4193 60.683 73.174C60.7443 72.898 60.821 72.6067 60.913 72.3C60.9436 72.116 60.9896 71.978 61.051 71.886C61.1123 71.794 61.2656 71.748 61.511 71.748C61.7563 71.7787 61.8943 71.84 61.925 71.932C61.9863 72.024 62.017 72.1927 62.017 72.438C61.9556 72.898 61.9096 73.4193 61.879 74.002C61.879 74.5847 61.8636 75.152 61.833 75.704C61.8023 76.2253 61.787 76.6853 61.787 77.084C61.787 77.4827 61.787 77.7127 61.787 77.774C61.787 77.866 61.787 78.1113 61.787 78.51C61.787 78.9087 61.8023 79.384 61.833 79.936C61.8636 80.488 61.879 81.0707 61.879 81.684C61.9096 82.2667 61.9556 82.788 62.017 83.248C62.017 83.524 61.9863 83.708 61.925 83.8C61.8943 83.8613 61.7563 83.892 61.511 83.892C61.2656 83.9227 61.1123 83.9073 61.051 83.846C60.9896 83.754 60.9436 83.6007 60.913 83.386C60.7903 82.8033 60.6523 82.2053 60.499 81.592C60.3763 80.9787 60.223 80.396 60.039 79.844C59.8856 79.4453 59.6556 79.154 59.349 78.97C59.0423 78.7553 58.3216 78.648 57.187 78.648H51.621C51.253 78.648 51.023 78.7093 50.931 78.832C50.839 78.924 50.793 79.1233 50.793 79.43V91.482C50.793 92.126 50.8696 92.632 51.023 93C51.207 93.3373 51.529 93.5673 51.989 93.69C52.3876 93.8433 52.817 93.9507 53.277 94.012C53.7676 94.104 54.289 94.1653 54.841 94.196C55.0556 94.2267 55.209 94.2727 55.301 94.334C55.4236 94.426 55.485 94.6407 55.485 94.978C55.485 95.346 55.4083 95.5453 55.255 95.576C55.1323 95.6373 54.9636 95.668 54.749 95.668C54.5956 95.668 54.243 95.668 53.691 95.668C53.139 95.668 52.541 95.6527 51.897 95.622C51.253 95.5913 50.6396 95.5607 50.057 95.53C49.505 95.53 49.137 95.53 48.953 95.53C48.769 95.53 48.401 95.53 47.849 95.53C47.297 95.5607 46.7143 95.5913 46.101 95.622C45.4876 95.6527 44.905 95.668 44.353 95.668C43.801 95.668 43.4483 95.668 43.295 95.668ZM80.7737 63.698C78.8723 63.698 77.201 64.0813 75.7597 64.848C74.3183 65.6147 73.107 66.642 72.1257 67.93C71.1443 69.2487 70.4083 70.8127 69.9177 72.622C69.427 74.4007 69.1817 76.3173 69.1817 78.372C69.151 80.488 69.4117 82.4507 69.9637 84.26C70.5463 86.0693 71.359 87.6487 72.4017 88.998C73.4137 90.3473 74.625 91.4053 76.0357 92.172C77.477 92.9387 79.0563 93.322 80.7737 93.322C82.4603 93.322 84.009 92.9387 85.4197 92.172C86.8303 91.4053 88.057 90.3473 89.0997 88.998C90.1423 87.6487 90.9397 86.0693 91.4917 84.26C92.0743 82.4507 92.3657 80.488 92.3657 78.372C92.3657 76.3173 92.0743 74.4007 91.4917 72.622C90.909 70.8127 90.0963 69.2487 89.0537 67.93C88.0417 66.642 86.815 65.6147 85.3737 64.848C83.963 64.0813 82.4297 63.698 80.7737 63.698ZM80.7277 95.668C78.5197 95.668 76.4497 95.2847 74.5177 94.518C72.5857 93.782 70.899 92.678 69.4577 91.206C68.0163 89.734 66.8817 87.94 66.0537 85.824C65.2563 83.6773 64.8577 81.224 64.8577 78.464C64.8577 75.796 65.2563 73.404 66.0537 71.288C66.8817 69.172 68.001 67.378 69.4117 65.906C70.853 64.434 72.5397 63.3147 74.4717 62.548C76.4037 61.7507 78.5043 61.352 80.7737 61.352C83.0123 61.352 85.0977 61.7507 87.0297 62.548C88.9923 63.3147 90.679 64.434 92.0897 65.906C93.531 67.378 94.6503 69.172 95.4477 71.288C96.2757 73.404 96.6897 75.796 96.6897 78.464C96.6897 81.224 96.2603 83.6773 95.4017 85.824C94.5737 87.94 93.439 89.734 91.9977 91.206C90.5563 92.678 88.8697 93.782 86.9377 94.518C85.0057 95.2847 82.9357 95.668 80.7277 95.668ZM114.104 63.698C112.202 63.698 110.531 64.0813 109.09 64.848C107.648 65.6147 106.437 66.642 105.456 67.93C104.474 69.2487 103.738 70.8127 103.248 72.622C102.757 74.4007 102.512 76.3173 102.512 78.372C102.481 80.488 102.742 82.4507 103.294 84.26C103.876 86.0693 104.689 87.6487 105.732 88.998C106.744 90.3473 107.955 91.4053 109.366 92.172C110.807 92.9387 112.386 93.322 114.104 93.322C115.79 93.322 117.339 92.9387 118.75 92.172C120.16 91.4053 121.387 90.3473 122.43 88.998C123.472 87.6487 124.27 86.0693 124.822 84.26C125.404 82.4507 125.696 80.488 125.696 78.372C125.696 76.3173 125.404 74.4007 124.822 72.622C124.239 70.8127 123.426 69.2487 122.384 67.93C121.372 66.642 120.145 65.6147 118.704 64.848C117.293 64.0813 115.76 63.698 114.104 63.698ZM114.058 95.668C111.85 95.668 109.78 95.2847 107.848 94.518C105.916 93.782 104.229 92.678 102.788 91.206C101.346 89.734 100.212 87.94 99.3837 85.824C98.5864 83.6773 98.1877 81.224 98.1877 78.464C98.1877 75.796 98.5864 73.404 99.3837 71.288C100.212 69.172 101.331 67.378 102.742 65.906C104.183 64.434 105.87 63.3147 107.802 62.548C109.734 61.7507 111.834 61.352 114.104 61.352C116.342 61.352 118.428 61.7507 120.36 62.548C122.322 63.3147 124.009 64.434 125.42 65.906C126.861 67.378 127.98 69.172 128.778 71.288C129.606 73.404 130.02 75.796 130.02 78.464C130.02 81.224 129.59 83.6773 128.732 85.824C127.904 87.94 126.769 89.734 125.328 91.206C123.886 92.678 122.2 93.782 120.268 94.518C118.336 95.2847 116.266 95.668 114.058 95.668ZM136.624 95.346C136.47 95.346 136.133 95.3613 135.612 95.392C135.121 95.4227 134.569 95.438 133.956 95.438C133.373 95.4687 132.806 95.484 132.254 95.484C131.702 95.5147 131.318 95.53 131.104 95.53C130.858 95.53 130.659 95.4993 130.506 95.438C130.383 95.4073 130.322 95.208 130.322 94.84C130.322 94.5027 130.368 94.288 130.46 94.196C130.552 94.1347 130.736 94.0887 131.012 94.058C131.533 94.0273 131.993 93.9813 132.392 93.92C132.79 93.8587 133.204 93.7513 133.634 93.598C134.032 93.4753 134.324 93.2453 134.508 92.908C134.692 92.54 134.784 92.034 134.784 91.39V65.86C134.784 65.2773 134.692 64.802 134.508 64.434C134.324 64.0353 134.032 63.7747 133.634 63.652C133.296 63.56 132.928 63.4987 132.53 63.468C132.162 63.4373 131.748 63.422 131.288 63.422C131.042 63.422 130.858 63.3913 130.736 63.33C130.644 63.2687 130.598 63.054 130.598 62.686C130.598 62.5327 130.613 62.41 130.644 62.318C130.674 62.226 130.72 62.1647 130.782 62.134C130.874 62.0727 130.966 62.042 131.058 62.042C131.15 62.042 131.257 62.0267 131.38 61.996C132.269 61.9653 133.128 61.9347 133.956 61.904C134.814 61.8427 135.658 61.7967 136.486 61.766C137.314 61.7353 138.157 61.7047 139.016 61.674C139.905 61.6433 140.825 61.628 141.776 61.628C145.088 61.628 147.924 62.042 150.286 62.87C152.678 63.6673 154.64 64.802 156.174 66.274C157.707 67.7767 158.842 69.586 159.578 71.702C160.314 73.7873 160.682 76.118 160.682 78.694C160.682 81.3007 160.283 83.6467 159.486 85.732C158.688 87.7867 157.554 89.55 156.082 91.022C154.579 92.4633 152.754 93.5673 150.608 94.334C148.461 95.1313 146.038 95.53 143.34 95.53C142.604 95.53 141.975 95.53 141.454 95.53C140.932 95.53 140.426 95.5147 139.936 95.484C139.476 95.4533 138.985 95.4227 138.464 95.392C137.942 95.392 137.329 95.3767 136.624 95.346ZM143.156 93.322C145.64 93.322 147.725 92.9233 149.412 92.126C151.098 91.298 152.448 90.2247 153.46 88.906C154.472 87.5567 155.192 86.0233 155.622 84.306C156.082 82.558 156.312 80.764 156.312 78.924C156.312 74.14 155.192 70.4293 152.954 67.792C150.715 65.124 147.296 63.79 142.696 63.79H141.96C141.592 63.79 141.193 63.8053 140.764 63.836C140.334 63.836 139.951 63.882 139.614 63.974C139.154 64.0967 138.847 64.342 138.694 64.71C138.571 65.078 138.51 65.584 138.51 66.228V90.792C138.51 91.4973 138.571 92.034 138.694 92.402C138.847 92.7393 139.154 92.954 139.614 93.046C139.951 93.138 140.334 93.1993 140.764 93.23C141.193 93.2913 141.592 93.322 141.96 93.322H143.156ZM198.454 94.196C197.044 94.748 195.633 95.162 194.222 95.438C192.812 95.714 191.094 95.852 189.07 95.852C186.954 95.852 184.93 95.4993 182.998 94.794C181.066 94.0887 179.364 93.0307 177.892 91.62C176.42 90.2093 175.24 88.4767 174.35 86.422C173.492 84.3673 173.062 81.9907 173.062 79.292C173.062 76.072 173.538 73.3427 174.488 71.104C175.47 68.8347 176.727 66.9947 178.26 65.584C179.794 64.1733 181.511 63.146 183.412 62.502C185.314 61.8273 187.2 61.49 189.07 61.49C191.309 61.49 193.18 61.6433 194.682 61.95C196.185 62.2567 197.642 62.64 199.052 63.1C199.175 63.1613 199.282 63.238 199.374 63.33C199.466 63.3913 199.528 63.4987 199.558 63.652C199.65 64.756 199.727 65.7987 199.788 66.78C199.88 67.7613 199.972 68.804 200.064 69.908C200.064 70.1533 200.034 70.322 199.972 70.414C199.942 70.506 199.804 70.5673 199.558 70.598C199.282 70.6593 199.114 70.6593 199.052 70.598C198.991 70.506 198.945 70.3373 198.914 70.092C198.822 69.54 198.608 68.8807 198.27 68.114C197.933 67.3473 197.534 66.7033 197.074 66.182C196.246 65.354 195.188 64.71 193.9 64.25C192.612 63.79 191.094 63.56 189.346 63.56C187.966 63.56 186.586 63.8973 185.206 64.572C183.826 65.2467 182.584 66.2127 181.48 67.47C180.376 68.758 179.472 70.3373 178.766 72.208C178.092 74.048 177.754 76.164 177.754 78.556C177.754 80.856 178.015 82.9413 178.536 84.812C179.058 86.652 179.824 88.2313 180.836 89.55C181.818 90.8687 183.029 91.896 184.47 92.632C185.912 93.3373 187.537 93.69 189.346 93.69C191.125 93.69 192.704 93.4753 194.084 93.046C195.495 92.6167 196.461 92.08 196.982 91.436C197.473 90.8227 197.887 90.1173 198.224 89.32C198.562 88.5227 198.853 87.756 199.098 87.02C199.19 86.7747 199.267 86.6213 199.328 86.56C199.39 86.4987 199.558 86.4987 199.834 86.56C200.049 86.652 200.172 86.744 200.202 86.836C200.264 86.928 200.279 87.0967 200.248 87.342C200.064 88.446 199.85 89.55 199.604 90.654C199.39 91.7273 199.144 92.77 198.868 93.782C198.807 93.9047 198.746 93.9967 198.684 94.058C198.623 94.1193 198.546 94.1653 198.454 94.196ZM216.338 63.698C214.437 63.698 212.765 64.0813 211.324 64.848C209.883 65.6147 208.671 66.642 207.69 67.93C206.709 69.2487 205.973 70.8127 205.482 72.622C204.991 74.4007 204.746 76.3173 204.746 78.372C204.715 80.488 204.976 82.4507 205.528 84.26C206.111 86.0693 206.923 87.6487 207.966 88.998C208.978 90.3473 210.189 91.4053 211.6 92.172C213.041 92.9387 214.621 93.322 216.338 93.322C218.025 93.322 219.573 92.9387 220.984 92.172C222.395 91.4053 223.621 90.3473 224.664 88.998C225.707 87.6487 226.504 86.0693 227.056 84.26C227.639 82.4507 227.93 80.488 227.93 78.372C227.93 76.3173 227.639 74.4007 227.056 72.622C226.473 70.8127 225.661 69.2487 224.618 67.93C223.606 66.642 222.379 65.6147 220.938 64.848C219.527 64.0813 217.994 63.698 216.338 63.698ZM216.292 95.668C214.084 95.668 212.014 95.2847 210.082 94.518C208.15 93.782 206.463 92.678 205.022 91.206C203.581 89.734 202.446 87.94 201.618 85.824C200.821 83.6773 200.422 81.224 200.422 78.464C200.422 75.796 200.821 73.404 201.618 71.288C202.446 69.172 203.565 67.378 204.976 65.906C206.417 64.434 208.104 63.3147 210.036 62.548C211.968 61.7507 214.069 61.352 216.338 61.352C218.577 61.352 220.662 61.7507 222.594 62.548C224.557 63.3147 226.243 64.434 227.654 65.906C229.095 67.378 230.215 69.172 231.012 71.288C231.84 73.404 232.254 75.796 232.254 78.464C232.254 81.224 231.825 83.6773 230.966 85.824C230.138 87.94 229.003 89.734 227.562 91.206C226.121 92.678 224.434 93.782 222.502 94.518C220.57 95.2847 218.5 95.668 216.292 95.668ZM241.664 77.314C245.16 77.314 247.813 76.854 249.622 75.934C251.432 74.9833 252.336 73.174 252.336 70.506C252.336 69.6473 252.214 68.8193 251.968 68.022C251.723 67.2247 251.294 66.504 250.68 65.86C250.098 65.2467 249.3 64.756 248.288 64.388C247.276 63.9893 246.019 63.79 244.516 63.79C244.148 63.79 243.719 63.8053 243.228 63.836C242.738 63.836 242.324 63.882 241.986 63.974C241.526 64.0967 241.22 64.342 241.066 64.71C240.913 65.078 240.836 65.584 240.836 66.228V76.532C240.836 76.8693 240.882 77.084 240.974 77.176C241.066 77.268 241.296 77.314 241.664 77.314ZM248.61 78.142C248.457 78.1727 248.35 78.2187 248.288 78.28C248.258 78.3413 248.365 78.4333 248.61 78.556C249.07 78.832 249.515 79.3073 249.944 79.982C250.374 80.626 250.772 81.3313 251.14 82.098L254.774 89.642C255.572 91.298 256.476 92.4787 257.488 93.184C258.5 93.92 259.543 94.242 260.616 94.15C260.984 94.15 261.23 94.1653 261.352 94.196C261.506 94.2267 261.613 94.3647 261.674 94.61C261.705 94.8553 261.674 95.0547 261.582 95.208C261.521 95.3613 261.352 95.4687 261.076 95.53C258.592 95.898 256.446 95.622 254.636 94.702C252.858 93.8127 251.401 92.126 250.266 89.642L247.138 82.742C246.494 81.3313 245.835 80.4113 245.16 79.982C244.486 79.5527 243.412 79.338 241.94 79.338H241.664C241.296 79.338 241.066 79.3993 240.974 79.522C240.882 79.614 240.836 79.8287 240.836 80.166V91.436C240.836 92.08 240.913 92.586 241.066 92.954C241.25 93.2913 241.572 93.5213 242.032 93.644C242.431 93.7973 242.86 93.92 243.32 94.012C243.811 94.104 244.332 94.1653 244.884 94.196C245.099 94.2267 245.252 94.2727 245.344 94.334C245.467 94.426 245.528 94.6407 245.528 94.978C245.528 95.346 245.452 95.5453 245.298 95.576C245.176 95.6373 245.007 95.668 244.792 95.668C244.639 95.668 244.286 95.668 243.734 95.668C243.182 95.668 242.584 95.6527 241.94 95.622C241.296 95.5913 240.683 95.5607 240.1 95.53C239.548 95.53 239.18 95.53 238.996 95.53C238.812 95.53 238.444 95.53 237.892 95.53C237.34 95.5607 236.758 95.5913 236.144 95.622C235.531 95.6527 234.948 95.668 234.396 95.668C233.844 95.668 233.492 95.668 233.338 95.668C233.093 95.668 232.894 95.6373 232.74 95.576C232.618 95.5453 232.556 95.346 232.556 94.978C232.556 94.6407 232.602 94.426 232.694 94.334C232.786 94.2727 232.97 94.2267 233.246 94.196C233.768 94.1653 234.228 94.104 234.626 94.012C235.056 93.92 235.485 93.7973 235.914 93.644C236.313 93.5213 236.604 93.2913 236.788 92.954C236.972 92.586 237.064 92.08 237.064 91.436V66.09C237.064 65.5073 236.972 65.032 236.788 64.664C236.604 64.2653 236.313 64.0047 235.914 63.882C235.577 63.79 235.194 63.7287 234.764 63.698C234.366 63.6367 233.936 63.606 233.476 63.606C233.231 63.606 233.047 63.5753 232.924 63.514C232.832 63.422 232.786 63.192 232.786 62.824C232.786 62.6707 232.802 62.548 232.832 62.456C232.863 62.364 232.909 62.2873 232.97 62.226C233.062 62.1953 233.154 62.18 233.246 62.18C233.338 62.1493 233.446 62.1187 233.568 62.088H233.89C235.73 61.996 237.463 61.9193 239.088 61.858C240.714 61.7967 242.477 61.766 244.378 61.766C248.242 61.766 251.186 62.502 253.21 63.974C255.234 65.446 256.246 67.5927 256.246 70.414C256.246 71.334 256.047 72.2387 255.648 73.128C255.28 74.0173 254.759 74.8147 254.084 75.52C253.379 76.2253 252.566 76.8233 251.646 77.314C250.726 77.774 249.714 78.05 248.61 78.142ZM267.788 66.228V91.39C267.788 92.034 267.865 92.5247 268.018 92.862C268.202 93.1687 268.524 93.3987 268.984 93.552C269.383 93.736 269.812 93.8587 270.272 93.92C270.763 94.012 271.284 94.0733 271.836 94.104C272.051 94.1347 272.204 94.196 272.296 94.288C272.419 94.38 272.48 94.5947 272.48 94.932C272.48 95.3 272.404 95.5147 272.25 95.576C272.128 95.6373 271.959 95.668 271.744 95.668C271.591 95.668 271.238 95.668 270.686 95.668C270.134 95.668 269.536 95.6527 268.892 95.622C268.248 95.5913 267.635 95.5607 267.052 95.53C266.5 95.53 266.132 95.53 265.948 95.53C265.764 95.53 265.396 95.53 264.844 95.53C264.292 95.5607 263.71 95.5913 263.096 95.622C262.483 95.6527 261.9 95.668 261.348 95.668C260.796 95.668 260.444 95.668 260.29 95.668C260.045 95.668 259.846 95.6373 259.692 95.576C259.57 95.5147 259.508 95.3 259.508 94.932C259.508 94.5947 259.554 94.38 259.646 94.288C259.738 94.196 259.922 94.1347 260.198 94.104C260.72 94.0733 261.18 94.012 261.578 93.92C262.008 93.8587 262.437 93.7513 262.866 93.598C263.265 93.4753 263.556 93.2453 263.74 92.908C263.924 92.54 264.016 92.034 264.016 91.39V66.09C264.016 65.5073 263.924 65.032 263.74 64.664C263.556 64.2653 263.265 64.0047 262.866 63.882C262.529 63.79 262.146 63.7287 261.716 63.698C261.318 63.6367 260.888 63.606 260.428 63.606C260.183 63.606 259.999 63.5753 259.876 63.514C259.784 63.422 259.738 63.192 259.738 62.824C259.738 62.6707 259.754 62.548 259.784 62.456C259.815 62.364 259.861 62.2873 259.922 62.226C260.014 62.1953 260.106 62.18 260.198 62.18C260.29 62.1493 260.398 62.1187 260.52 62.088C262.36 61.996 264.078 61.9193 265.672 61.858C267.267 61.7967 269.015 61.766 270.916 61.766C273.37 61.766 275.44 62.0113 277.126 62.502C278.813 62.962 280.178 63.606 281.22 64.434C282.263 65.262 283.014 66.2587 283.474 67.424C283.934 68.5587 284.164 69.816 284.164 71.196C284.164 73.864 283.152 76.0873 281.128 77.866C279.104 79.614 276.022 80.5187 271.882 80.58C271.545 80.58 271.284 80.534 271.1 80.442C270.947 80.35 270.87 80.166 270.87 79.89C270.84 79.614 270.886 79.43 271.008 79.338C271.162 79.2153 271.407 79.1387 271.744 79.108C274.32 78.832 276.344 78.096 277.816 76.9C279.319 75.704 280.07 73.818 280.07 71.242C280.07 69.034 279.35 67.24 277.908 65.86C276.498 64.48 274.274 63.79 271.238 63.79C270.87 63.79 270.472 63.8053 270.042 63.836C269.613 63.836 269.23 63.882 268.892 63.974C268.432 64.0967 268.126 64.342 267.972 64.71C267.85 65.078 267.788 65.584 267.788 66.228ZM300.74 63.698C298.839 63.698 297.168 64.0813 295.726 64.848C294.285 65.6147 293.074 66.642 292.092 67.93C291.111 69.2487 290.375 70.8127 289.884 72.622C289.394 74.4007 289.148 76.3173 289.148 78.372C289.118 80.488 289.378 82.4507 289.93 84.26C290.513 86.0693 291.326 87.6487 292.368 88.998C293.38 90.3473 294.592 91.4053 296.002 92.172C297.444 92.9387 299.023 93.322 300.74 93.322C302.427 93.322 303.976 92.9387 305.386 92.172C306.797 91.4053 308.024 90.3473 309.066 88.998C310.109 87.6487 310.906 86.0693 311.458 84.26C312.041 82.4507 312.332 80.488 312.332 78.372C312.332 76.3173 312.041 74.4007 311.458 72.622C310.876 70.8127 310.063 69.2487 309.02 67.93C308.008 66.642 306.782 65.6147 305.34 64.848C303.93 64.0813 302.396 63.698 300.74 63.698ZM300.694 95.668C298.486 95.668 296.416 95.2847 294.484 94.518C292.552 93.782 290.866 92.678 289.424 91.206C287.983 89.734 286.848 87.94 286.02 85.824C285.223 83.6773 284.824 81.224 284.824 78.464C284.824 75.796 285.223 73.404 286.02 71.288C286.848 69.172 287.968 67.378 289.378 65.906C290.82 64.434 292.506 63.3147 294.438 62.548C296.37 61.7507 298.471 61.352 300.74 61.352C302.979 61.352 305.064 61.7507 306.996 62.548C308.959 63.3147 310.646 64.434 312.056 65.906C313.498 67.378 314.617 69.172 315.414 71.288C316.242 73.404 316.656 75.796 316.656 78.464C316.656 81.224 316.227 83.6773 315.368 85.824C314.54 87.94 313.406 89.734 311.964 91.206C310.523 92.678 308.836 93.782 306.904 94.518C304.972 95.2847 302.902 95.668 300.694 95.668ZM326.067 77.314C329.563 77.314 332.215 76.854 334.025 75.934C335.834 74.9833 336.739 73.174 336.739 70.506C336.739 69.6473 336.616 68.8193 336.371 68.022C336.125 67.2247 335.696 66.504 335.083 65.86C334.5 65.2467 333.703 64.756 332.691 64.388C331.679 63.9893 330.421 63.79 328.919 63.79C328.551 63.79 328.121 63.8053 327.631 63.836C327.14 63.836 326.726 63.882 326.389 63.974C325.929 64.0967 325.622 64.342 325.469 64.71C325.315 65.078 325.239 65.584 325.239 66.228V76.532C325.239 76.8693 325.285 77.084 325.377 77.176C325.469 77.268 325.699 77.314 326.067 77.314ZM333.013 78.142C332.859 78.1727 332.752 78.2187 332.691 78.28C332.66 78.3413 332.767 78.4333 333.013 78.556C333.473 78.832 333.917 79.3073 334.347 79.982C334.776 80.626 335.175 81.3313 335.543 82.098L339.177 89.642C339.974 91.298 340.879 92.4787 341.891 93.184C342.903 93.92 343.945 94.242 345.019 94.15C345.387 94.15 345.632 94.1653 345.755 94.196C345.908 94.2267 346.015 94.3647 346.077 94.61C346.107 94.8553 346.077 95.0547 345.985 95.208C345.923 95.3613 345.755 95.4687 345.479 95.53C342.995 95.898 340.848 95.622 339.039 94.702C337.26 93.8127 335.803 92.126 334.669 89.642L331.541 82.742C330.897 81.3313 330.237 80.4113 329.563 79.982C328.888 79.5527 327.815 79.338 326.343 79.338H326.067C325.699 79.338 325.469 79.3993 325.377 79.522C325.285 79.614 325.239 79.8287 325.239 80.166V91.436C325.239 92.08 325.315 92.586 325.469 92.954C325.653 93.2913 325.975 93.5213 326.435 93.644C326.833 93.7973 327.263 93.92 327.723 94.012C328.213 94.104 328.735 94.1653 329.287 94.196C329.501 94.2267 329.655 94.2727 329.747 94.334C329.869 94.426 329.931 94.6407 329.931 94.978C329.931 95.346 329.854 95.5453 329.701 95.576C329.578 95.6373 329.409 95.668 329.195 95.668C329.041 95.668 328.689 95.668 328.137 95.668C327.585 95.668 326.987 95.6527 326.343 95.622C325.699 95.5913 325.085 95.5607 324.503 95.53C323.951 95.53 323.583 95.53 323.399 95.53C323.215 95.53 322.847 95.53 322.295 95.53C321.743 95.5607 321.16 95.5913 320.547 95.622C319.933 95.6527 319.351 95.668 318.799 95.668C318.247 95.668 317.894 95.668 317.741 95.668C317.495 95.668 317.296 95.6373 317.143 95.576C317.02 95.5453 316.959 95.346 316.959 94.978C316.959 94.6407 317.005 94.426 317.097 94.334C317.189 94.2727 317.373 94.2267 317.649 94.196C318.17 94.1653 318.63 94.104 319.029 94.012C319.458 93.92 319.887 93.7973 320.317 93.644C320.715 93.5213 321.007 93.2913 321.191 92.954C321.375 92.586 321.467 92.08 321.467 91.436V66.09C321.467 65.5073 321.375 65.032 321.191 64.664C321.007 64.2653 320.715 64.0047 320.317 63.882C319.979 63.79 319.596 63.7287 319.167 63.698C318.768 63.6367 318.339 63.606 317.879 63.606C317.633 63.606 317.449 63.5753 317.327 63.514C317.235 63.422 317.189 63.192 317.189 62.824C317.189 62.6707 317.204 62.548 317.235 62.456C317.265 62.364 317.311 62.2873 317.373 62.226C317.465 62.1953 317.557 62.18 317.649 62.18C317.741 62.1493 317.848 62.1187 317.971 62.088H318.293C320.133 61.996 321.865 61.9193 323.491 61.858C325.116 61.7967 326.879 61.766 328.781 61.766C332.645 61.766 335.589 62.502 337.613 63.974C339.637 65.446 340.649 67.5927 340.649 70.414C340.649 71.334 340.449 72.2387 340.051 73.128C339.683 74.0173 339.161 74.8147 338.487 75.52C337.781 76.2253 336.969 76.8233 336.049 77.314C335.129 77.774 334.117 78.05 333.013 78.142ZM360.517 81.086C360.701 81.086 360.823 81.0553 360.885 80.994C360.977 80.9327 361.007 80.7947 360.977 80.58C360.609 79.4147 360.241 78.2493 359.873 77.084C359.505 75.9187 359.137 74.7533 358.769 73.588C358.431 72.4227 358.079 71.2573 357.711 70.092C357.343 68.9267 356.975 67.746 356.607 66.55C356.239 67.746 355.855 68.988 355.457 70.276C355.058 71.5333 354.675 72.7753 354.307 74.002C353.908 75.2287 353.525 76.4093 353.157 77.544C352.819 78.6787 352.528 79.706 352.283 80.626C352.252 80.81 352.283 80.9327 352.375 80.994C352.497 81.0553 352.666 81.086 352.881 81.086H360.517ZM368.751 91.206C368.935 91.758 369.149 92.264 369.395 92.724C369.64 93.1533 369.901 93.414 370.177 93.506C370.361 93.598 370.529 93.6747 370.683 93.736C370.867 93.7973 371.035 93.8433 371.189 93.874C371.373 93.9353 371.557 93.9813 371.741 94.012C371.955 94.0733 372.201 94.104 372.477 94.104C372.599 94.1347 372.691 94.15 372.753 94.15C372.845 94.1807 372.921 94.2113 372.983 94.242C373.044 94.3033 373.09 94.38 373.121 94.472C373.151 94.564 373.167 94.6867 373.167 94.84C373.167 95.208 373.09 95.4073 372.937 95.438C372.783 95.4993 372.599 95.53 372.385 95.53C372.201 95.53 371.833 95.53 371.281 95.53C370.729 95.53 370.146 95.5147 369.533 95.484C368.919 95.4533 368.337 95.4227 367.785 95.392C367.233 95.392 366.88 95.392 366.727 95.392C366.543 95.392 366.175 95.392 365.623 95.392C365.071 95.4227 364.488 95.4533 363.875 95.484C363.261 95.5147 362.694 95.53 362.173 95.53C361.651 95.53 361.329 95.53 361.207 95.53C360.961 95.53 360.762 95.4993 360.609 95.438C360.486 95.4073 360.425 95.208 360.425 94.84C360.425 94.5027 360.471 94.288 360.563 94.196C360.655 94.1347 360.839 94.0887 361.115 94.058C361.483 94.058 361.897 94.012 362.357 93.92C362.817 93.8587 363.231 93.782 363.599 93.69C364.028 93.598 364.258 93.3987 364.289 93.092C364.35 92.816 364.335 92.4327 364.243 91.942C364.059 91.3287 363.859 90.6847 363.645 90.01C363.461 89.3353 363.261 88.6607 363.047 87.986C362.832 87.3113 362.633 86.6367 362.449 85.962C362.265 85.2873 362.081 84.628 361.897 83.984C361.835 83.8307 361.759 83.708 361.667 83.616C361.575 83.524 361.467 83.478 361.345 83.478H352.099C351.915 83.478 351.761 83.524 351.639 83.616C351.516 83.708 351.439 83.8307 351.409 83.984C351.194 84.628 350.964 85.2873 350.719 85.962C350.504 86.6367 350.305 87.3267 350.121 88.032C349.906 88.7067 349.707 89.3967 349.523 90.102C349.339 90.7767 349.201 91.4053 349.109 91.988C349.017 92.4173 348.986 92.7853 349.017 93.092C349.047 93.3987 349.231 93.598 349.569 93.69C349.967 93.8433 350.335 93.9507 350.673 94.012C351.041 94.104 351.501 94.1653 352.053 94.196C352.267 94.2267 352.421 94.2727 352.513 94.334C352.635 94.426 352.697 94.61 352.697 94.886C352.697 95.07 352.666 95.208 352.605 95.3C352.574 95.392 352.528 95.4533 352.467 95.484C352.405 95.5147 352.329 95.53 352.237 95.53C352.145 95.53 352.053 95.53 351.961 95.53C351.807 95.53 351.516 95.53 351.087 95.53C350.657 95.53 350.197 95.5147 349.707 95.484C349.216 95.4533 348.756 95.4227 348.327 95.392C347.897 95.392 347.591 95.392 347.407 95.392C347.223 95.392 346.916 95.392 346.487 95.392C346.088 95.4227 345.659 95.4533 345.199 95.484C344.708 95.5147 344.248 95.53 343.819 95.53C343.42 95.53 343.144 95.53 342.991 95.53C342.807 95.53 342.638 95.4993 342.485 95.438C342.362 95.4073 342.301 95.208 342.301 94.84C342.301 94.5027 342.347 94.288 342.439 94.196C342.531 94.1347 342.715 94.0887 342.991 94.058C343.328 94.058 343.635 94.012 343.911 93.92C344.217 93.828 344.509 93.736 344.785 93.644C345.214 93.4907 345.536 93.184 345.751 92.724C345.996 92.264 346.211 91.758 346.395 91.206C347.989 86.6673 349.599 81.9447 351.225 77.038C352.881 72.1007 354.445 67.3167 355.917 62.686C355.917 62.6553 355.917 62.6093 355.917 62.548C355.947 62.4867 355.963 62.4407 355.963 62.41C355.993 62.3487 356.024 62.3027 356.055 62.272C356.085 62.2107 356.131 62.1647 356.193 62.134L358.861 60.846C358.953 60.8153 359.029 60.8307 359.091 60.892C359.183 60.9227 359.259 61.0147 359.321 61.168C360.057 63.6213 360.808 66.1207 361.575 68.666C362.341 71.1807 363.123 73.6953 363.921 76.21C364.687 78.7553 365.469 81.2853 366.267 83.8C367.095 86.3147 367.923 88.7833 368.751 91.206ZM373.739 62.088H389.793C391.05 62.088 391.955 62.0113 392.507 61.858C393.09 61.7047 393.519 61.3367 393.795 60.754C393.795 60.478 393.841 60.294 393.933 60.202C394.056 60.0793 394.255 60.018 394.531 60.018C394.807 60.018 394.976 60.0793 395.037 60.202C395.129 60.294 395.175 60.4933 395.175 60.8C395.083 62.364 395.037 63.9433 395.037 65.538C395.037 67.1327 395.083 68.6967 395.175 70.23C395.175 70.4753 395.144 70.6593 395.083 70.782C395.022 70.874 394.868 70.92 394.623 70.92C394.408 70.9507 394.24 70.92 394.117 70.828C394.025 70.7053 393.964 70.5367 393.933 70.322C393.749 69.77 393.504 69.0647 393.197 68.206C392.921 67.3473 392.676 66.642 392.461 66.09C392.185 65.538 391.817 65.124 391.357 64.848C390.928 64.572 390.33 64.434 389.563 64.434H384.319C383.951 64.434 383.721 64.4953 383.629 64.618C383.537 64.71 383.491 64.9247 383.491 65.262V91.436C383.491 92.08 383.568 92.586 383.721 92.954C383.905 93.322 384.227 93.552 384.687 93.644C385.055 93.7973 385.438 93.9047 385.837 93.966C386.266 94.058 386.696 94.104 387.125 94.104C387.37 94.1347 387.539 94.1807 387.631 94.242C387.754 94.334 387.815 94.5487 387.815 94.886C387.815 95.254 387.738 95.4533 387.585 95.484C387.432 95.5453 387.248 95.576 387.033 95.576C386.849 95.576 386.496 95.576 385.975 95.576C385.454 95.576 384.886 95.5607 384.273 95.53C383.69 95.53 383.123 95.5147 382.571 95.484C382.05 95.484 381.712 95.484 381.559 95.484C381.375 95.484 381.022 95.484 380.501 95.484C379.98 95.5147 379.412 95.53 378.799 95.53C378.216 95.5607 377.664 95.576 377.143 95.576C376.622 95.576 376.284 95.576 376.131 95.576C375.886 95.576 375.686 95.5453 375.533 95.484C375.41 95.4533 375.349 95.254 375.349 94.886C375.349 94.5487 375.395 94.334 375.487 94.242C375.579 94.1807 375.763 94.1347 376.039 94.104C376.407 94.104 376.79 94.058 377.189 93.966C377.618 93.9047 378.048 93.7973 378.477 93.644C378.906 93.5213 379.213 93.2913 379.397 92.954C379.581 92.586 379.673 92.08 379.673 91.436V65.262C379.673 64.9247 379.612 64.71 379.489 64.618C379.397 64.4953 379.182 64.434 378.845 64.434H373.877C373.049 64.434 372.405 64.572 371.945 64.848C371.516 65.124 371.194 65.538 370.979 66.09C370.734 66.642 370.458 67.3473 370.151 68.206C369.875 69.0647 369.66 69.77 369.507 70.322C369.446 70.5367 369.354 70.7053 369.231 70.828C369.139 70.92 368.986 70.9507 368.771 70.92C368.495 70.92 368.326 70.874 368.265 70.782C368.204 70.6593 368.188 70.4753 368.219 70.23C368.28 68.6967 368.311 67.1327 368.311 65.538C368.342 63.9433 368.311 62.364 368.219 60.8C368.188 60.4933 368.204 60.294 368.265 60.202C368.357 60.0793 368.572 60.018 368.909 60.018C369.185 60.018 369.384 60.0793 369.507 60.202C369.63 60.294 369.706 60.478 369.737 60.754C369.982 61.3367 370.381 61.7047 370.933 61.858C371.516 62.0113 372.451 62.088 373.739 62.088ZM400.575 95.484C400.391 95.484 400.038 95.484 399.517 95.484C398.996 95.5147 398.428 95.53 397.815 95.53C397.232 95.5607 396.665 95.576 396.113 95.576C395.592 95.576 395.254 95.576 395.101 95.576C394.856 95.576 394.656 95.5453 394.503 95.484C394.38 95.4533 394.319 95.254 394.319 94.886C394.319 94.5487 394.365 94.334 394.457 94.242C394.549 94.1807 394.733 94.1347 395.009 94.104C395.408 94.104 395.806 94.058 396.205 93.966C396.634 93.9047 397.064 93.7973 397.493 93.644C397.892 93.5213 398.183 93.2913 398.367 92.954C398.551 92.586 398.643 92.08 398.643 91.436V65.86C398.643 65.2773 398.551 64.802 398.367 64.434C398.183 64.066 397.892 63.8053 397.493 63.652C397.064 63.5293 396.634 63.4373 396.205 63.376C395.806 63.284 395.408 63.2227 395.009 63.192C394.733 63.192 394.549 63.1613 394.457 63.1C394.365 63.008 394.319 62.778 394.319 62.41C394.319 62.0727 394.38 61.8733 394.503 61.812C394.656 61.7507 394.856 61.72 395.101 61.72C395.254 61.72 395.592 61.7353 396.113 61.766C396.665 61.766 397.232 61.766 397.815 61.766C398.428 61.7967 398.996 61.812 399.517 61.812C400.038 61.812 400.391 61.812 400.575 61.812C400.728 61.812 401.066 61.812 401.587 61.812C402.139 61.812 402.706 61.7967 403.289 61.766C403.902 61.766 404.47 61.766 404.991 61.766C405.512 61.7353 405.865 61.72 406.049 61.72C406.264 61.72 406.448 61.7507 406.601 61.812C406.754 61.8733 406.831 62.0727 406.831 62.41C406.831 62.778 406.77 63.008 406.647 63.1C406.555 63.1613 406.386 63.192 406.141 63.192C405.712 63.2227 405.282 63.284 404.853 63.376C404.454 63.4373 404.056 63.5293 403.657 63.652C403.197 63.8053 402.875 64.066 402.691 64.434C402.538 64.802 402.461 65.2773 402.461 65.86V91.436C402.461 92.08 402.538 92.586 402.691 92.954C402.875 93.2913 403.197 93.5213 403.657 93.644C404.056 93.7973 404.454 93.9047 404.853 93.966C405.282 94.058 405.712 94.104 406.141 94.104C406.386 94.1347 406.555 94.1807 406.647 94.242C406.77 94.334 406.831 94.5487 406.831 94.886C406.831 95.254 406.754 95.4533 406.601 95.484C406.448 95.5453 406.264 95.576 406.049 95.576C405.865 95.576 405.512 95.576 404.991 95.576C404.47 95.576 403.902 95.5607 403.289 95.53C402.706 95.53 402.139 95.5147 401.587 95.484C401.066 95.484 400.728 95.484 400.575 95.484ZM423.143 63.698C421.241 63.698 419.57 64.0813 418.129 64.848C416.687 65.6147 415.476 66.642 414.495 67.93C413.513 69.2487 412.777 70.8127 412.287 72.622C411.796 74.4007 411.551 76.3173 411.551 78.372C411.52 80.488 411.781 82.4507 412.333 84.26C412.915 86.0693 413.728 87.6487 414.771 88.998C415.783 90.3473 416.994 91.4053 418.405 92.172C419.846 92.9387 421.425 93.322 423.143 93.322C424.829 93.322 426.378 92.9387 427.789 92.172C429.199 91.4053 430.426 90.3473 431.469 88.998C432.511 87.6487 433.309 86.0693 433.861 84.26C434.443 82.4507 434.735 80.488 434.735 78.372C434.735 76.3173 434.443 74.4007 433.861 72.622C433.278 70.8127 432.465 69.2487 431.423 67.93C430.411 66.642 429.184 65.6147 427.743 64.848C426.332 64.0813 424.799 63.698 423.143 63.698ZM423.097 95.668C420.889 95.668 418.819 95.2847 416.887 94.518C414.955 93.782 413.268 92.678 411.827 91.206C410.385 89.734 409.251 87.94 408.423 85.824C407.625 83.6773 407.227 81.224 407.227 78.464C407.227 75.796 407.625 73.404 408.423 71.288C409.251 69.172 410.37 67.378 411.781 65.906C413.222 64.434 414.909 63.3147 416.841 62.548C418.773 61.7507 420.873 61.352 423.143 61.352C425.381 61.352 427.467 61.7507 429.399 62.548C431.361 63.3147 433.048 64.434 434.459 65.906C435.9 67.378 437.019 69.172 437.817 71.288C438.645 73.404 439.059 75.796 439.059 78.464C439.059 81.224 438.629 83.6773 437.771 85.824C436.943 87.94 435.808 89.734 434.367 91.206C432.925 92.678 431.239 93.782 429.307 94.518C427.375 95.2847 425.305 95.668 423.097 95.668ZM444.191 84.214V65.906C444.191 65.3233 444.099 64.848 443.915 64.48C443.731 64.0813 443.44 63.8207 443.041 63.698C442.612 63.606 442.228 63.5293 441.891 63.468C441.584 63.4067 441.17 63.3453 440.649 63.284C440.373 63.284 440.189 63.2533 440.097 63.192C440.005 63.1 439.959 62.87 439.959 62.502C439.959 62.1647 440.02 61.9653 440.143 61.904C440.296 61.812 440.496 61.766 440.741 61.766C440.864 61.766 441.155 61.7813 441.615 61.812C442.106 61.812 442.627 61.812 443.179 61.812C443.7 61.8427 444.176 61.858 444.605 61.858C445.065 61.858 445.356 61.858 445.479 61.858C445.663 61.858 446.077 61.858 446.721 61.858C447.365 61.858 447.779 61.858 447.963 61.858C448.055 61.858 448.132 61.8733 448.193 61.904C448.254 61.9347 448.3 61.996 448.331 62.088L465.857 86.284V72.806C465.857 72.4073 465.842 71.8707 465.811 71.196C465.78 70.4907 465.75 69.7853 465.719 69.08C465.688 68.3747 465.658 67.7153 465.627 67.102C465.596 66.458 465.566 65.9827 465.535 65.676C465.443 65.0933 465.305 64.6487 465.121 64.342C464.968 64.0353 464.676 63.8053 464.247 63.652C463.818 63.5293 463.434 63.4373 463.097 63.376C462.79 63.284 462.422 63.2227 461.993 63.192C461.717 63.192 461.533 63.1613 461.441 63.1C461.349 63.008 461.303 62.778 461.303 62.41C461.303 62.0727 461.364 61.8733 461.487 61.812C461.64 61.7507 461.84 61.72 462.085 61.72C462.208 61.72 462.499 61.7353 462.959 61.766C463.419 61.766 463.91 61.766 464.431 61.766C464.952 61.7967 465.443 61.812 465.903 61.812C466.394 61.812 466.746 61.812 466.961 61.812C467.114 61.812 467.406 61.812 467.835 61.812C468.264 61.812 468.724 61.7967 469.215 61.766C469.675 61.766 470.12 61.766 470.549 61.766C470.978 61.7353 471.285 61.72 471.469 61.72C471.684 61.72 471.868 61.7507 472.021 61.812C472.174 61.8733 472.251 62.0727 472.251 62.41C472.251 62.778 472.19 63.008 472.067 63.1C471.975 63.192 471.806 63.238 471.561 63.238C471.193 63.2687 470.84 63.3147 470.503 63.376C470.166 63.4373 469.844 63.514 469.537 63.606C469.077 63.7287 468.755 63.9587 468.571 64.296C468.418 64.6027 468.31 65.0473 468.249 65.63C468.188 65.9367 468.142 66.412 468.111 67.056C468.08 67.6693 468.05 68.3287 468.019 69.034C468.019 69.7393 468.004 70.4447 467.973 71.15C467.973 71.8553 467.973 72.4073 467.973 72.806V95.898C467.973 96.266 467.881 96.4653 467.697 96.496C467.544 96.5573 467.375 96.45 467.191 96.174L446.353 67.424V84.168C446.353 84.628 446.353 85.226 446.353 85.962C446.384 86.698 446.414 87.4493 446.445 88.216C446.476 88.952 446.506 89.6573 446.537 90.332C446.568 90.976 446.614 91.436 446.675 91.712C446.736 92.356 446.859 92.8007 447.043 93.046C447.227 93.322 447.518 93.5367 447.917 93.69C448.316 93.874 448.638 93.9967 448.883 94.058C449.159 94.1193 449.527 94.1653 449.987 94.196C450.11 94.2267 450.202 94.242 450.263 94.242C450.355 94.2727 450.432 94.3033 450.493 94.334C450.554 94.3953 450.6 94.472 450.631 94.564C450.662 94.656 450.677 94.7787 450.677 94.932C450.677 95.3 450.6 95.4993 450.447 95.53C450.294 95.5913 450.11 95.622 449.895 95.622C449.742 95.622 449.435 95.622 448.975 95.622C448.546 95.622 448.086 95.6067 447.595 95.576C447.104 95.576 446.629 95.5607 446.169 95.53C445.709 95.53 445.387 95.53 445.203 95.53C445.019 95.53 444.682 95.53 444.191 95.53C443.7 95.5607 443.179 95.576 442.627 95.576C442.075 95.6067 441.554 95.622 441.063 95.622C440.572 95.622 440.25 95.622 440.097 95.622C439.852 95.622 439.652 95.5913 439.499 95.53C439.376 95.4993 439.315 95.3 439.315 94.932C439.315 94.5947 439.361 94.38 439.453 94.288C439.545 94.196 439.729 94.1347 440.005 94.104C440.373 94.104 440.802 94.0733 441.293 94.012C441.784 93.9507 442.244 93.874 442.673 93.782C443.072 93.69 443.348 93.4907 443.501 93.184C443.685 92.8773 443.823 92.402 443.915 91.758C443.946 91.482 443.976 91.022 444.007 90.378C444.038 89.7033 444.068 88.9827 444.099 88.216C444.099 87.48 444.114 86.744 444.145 86.008C444.176 85.272 444.191 84.674 444.191 84.214Z" fill="#535353"/>
</svg>
