<svg width="1200" height="339" viewBox="0 0 1200 339" fill="none" xmlns="http://www.w3.org/2000/svg">
<rect x="279" y="23" width="596" height="316" fill="#F4F4F4"/>
<rect x="471.5" y="0.5" width="256" height="55" fill="#E0E0E0"/>
<rect x="471.5" y="0.5" width="256" height="55" stroke="#D9D9D9"/>
<path d="M518.777 35L514.793 20.8594H517.527L520.086 31.2695H520.223L522.938 20.8594H525.438L528.172 31.2891H528.289L530.848 20.8594H533.582L529.598 35H527.078L524.246 25.0586H524.148L521.297 35H518.777ZM537.836 28.7891V35H535.336V20.8594H537.777V26.1914H537.914C538.393 24.9902 539.428 24.2578 541.059 24.2578C543.256 24.2578 544.711 25.6836 544.711 28.2422V35H542.23V28.6328C542.221 27.1875 541.449 26.3574 540.141 26.3672C538.793 26.3574 537.836 27.2461 537.836 28.7891ZM551.953 35.2148C548.857 35.2148 546.875 33.0176 546.875 29.7461C546.875 26.4453 548.857 24.2578 551.953 24.2578C555.059 24.2578 557.041 26.4453 557.031 29.7461C557.041 33.0176 555.059 35.2148 551.953 35.2148ZM549.395 29.7266C549.395 31.6699 550.244 33.2227 551.973 33.2227C553.672 33.2227 554.521 31.6699 554.512 29.7266C554.521 27.7832 553.672 26.2207 551.973 26.2305C550.244 26.2207 549.395 27.7832 549.395 29.7266ZM561.715 20.8594V35H559.215V20.8594H561.715ZM569.055 35.2148C565.861 35.2148 563.898 33.0859 563.898 29.7656C563.898 26.4844 565.891 24.2578 568.918 24.2578C571.516 24.2578 573.762 25.8887 573.762 29.6094V30.3906H566.359C566.398 32.1973 567.463 33.2715 569.074 33.2617C570.168 33.2715 570.9 32.8027 571.223 32.168H573.664C573.215 34.0039 571.516 35.2148 569.055 35.2148ZM566.369 28.6914H571.379C571.369 27.2461 570.393 26.1914 568.957 26.1914C567.463 26.1914 566.457 27.3438 566.369 28.6914ZM581.961 27.4219C581.805 26.6211 581.141 26.1035 580.086 26.1133C579.021 26.1035 578.24 26.6406 578.25 27.3633C578.24 27.9102 578.68 28.3203 579.754 28.5742L581.551 28.9453C583.553 29.3848 584.529 30.3125 584.539 31.8359C584.529 33.8281 582.781 35.2148 580.008 35.2148C577.312 35.2148 575.721 34.0039 575.457 31.9727H577.996C578.143 32.8809 578.846 33.3301 580.008 33.3203C581.209 33.3301 581.99 32.8418 582 32.0508C581.99 31.4355 581.512 31.0449 580.457 30.8203L578.758 30.4492C576.785 30.0488 575.76 29.0137 575.77 27.5C575.76 25.5371 577.459 24.2578 580.047 24.2578C582.576 24.2578 584.139 25.498 584.324 27.4219H581.961ZM586.195 32.0117C586.195 29.6289 588.178 28.9355 590.141 28.8086C590.883 28.75 592.396 28.6816 592.865 28.6621L592.855 27.8125C592.855 26.7578 592.182 26.1523 590.941 26.1523C589.828 26.1523 589.145 26.6602 588.949 27.4219H586.547C586.723 25.6152 588.344 24.2578 591 24.2578C593.012 24.2578 595.336 25.0879 595.336 27.9102V35H592.953V33.5352H592.875C592.406 34.4336 591.42 35.2148 589.75 35.2148C587.729 35.2148 586.195 34.1113 586.195 32.0117ZM588.598 31.9922C588.598 32.9102 589.35 33.3789 590.395 33.3789C591.908 33.3789 592.875 32.3828 592.875 31.1914L592.865 30.3223C592.416 30.3418 591.029 30.4297 590.531 30.4688C589.35 30.5664 588.598 31.0645 588.598 31.9922ZM600.43 20.8594V35H597.93V20.8594H600.43ZM607.77 35.2148C604.576 35.2148 602.613 33.0859 602.613 29.7656C602.613 26.4844 604.605 24.2578 607.633 24.2578C610.23 24.2578 612.477 25.8887 612.477 29.6094V30.3906H605.074C605.113 32.1973 606.178 33.2715 607.789 33.2617C608.883 33.2715 609.615 32.8027 609.938 32.168H612.379C611.93 34.0039 610.23 35.2148 607.77 35.2148ZM605.084 28.6914H610.094C610.084 27.2461 609.107 26.1914 607.672 26.1914C606.178 26.1914 605.172 27.3438 605.084 28.6914ZM619.656 35V24.3945H622.039V26.1914H622.176C622.615 24.9805 623.68 24.2578 625.086 24.2578C626.521 24.2578 627.557 24.9902 627.957 26.1914H628.074C628.533 25.0195 629.715 24.2578 631.258 24.2578C633.201 24.2578 634.568 25.5078 634.559 27.8711V35H632.078V28.2617C632.078 26.9434 631.277 26.3477 630.262 26.3477C629.041 26.3477 628.328 27.1777 628.328 28.3789V35H625.906V28.1641C625.896 27.0605 625.174 26.3477 624.109 26.3477C623.035 26.3477 622.156 27.2363 622.156 28.5547V35H619.656ZM636.703 32.0117C636.703 29.6289 638.686 28.9355 640.648 28.8086C641.391 28.75 642.904 28.6816 643.373 28.6621L643.363 27.8125C643.363 26.7578 642.689 26.1523 641.449 26.1523C640.336 26.1523 639.652 26.6602 639.457 27.4219H637.055C637.23 25.6152 638.852 24.2578 641.508 24.2578C643.52 24.2578 645.844 25.0879 645.844 27.9102V35H643.461V33.5352H643.383C642.914 34.4336 641.928 35.2148 640.258 35.2148C638.236 35.2148 636.703 34.1113 636.703 32.0117ZM639.105 31.9922C639.105 32.9102 639.857 33.3789 640.902 33.3789C642.416 33.3789 643.383 32.3828 643.383 31.1914L643.373 30.3223C642.924 30.3418 641.537 30.4297 641.039 30.4688C639.857 30.5664 639.105 31.0645 639.105 31.9922ZM648.438 35V24.3945H650.859V26.1523H650.977C651.357 24.9316 652.373 24.2383 653.594 24.2383C653.867 24.2383 654.258 24.2676 654.492 24.2969V26.6016C654.268 26.5234 653.75 26.4551 653.34 26.4453C651.953 26.4551 650.938 27.4121 650.938 28.75V35H648.438ZM656.227 35V20.8594H658.727V28.6523H658.902L662.711 24.3945H665.621L661.51 28.9648L665.875 35H662.906L659.645 30.4492L658.727 31.4258V35H656.227ZM671.613 35.2148C668.42 35.2148 666.457 33.0859 666.457 29.7656C666.457 26.4844 668.449 24.2578 671.477 24.2578C674.074 24.2578 676.32 25.8887 676.32 29.6094V30.3906H668.918C668.957 32.1973 670.021 33.2715 671.633 33.2617C672.727 33.2715 673.459 32.8027 673.781 32.168H676.223C675.773 34.0039 674.074 35.2148 671.613 35.2148ZM668.928 28.6914H673.938C673.928 27.2461 672.951 26.1914 671.516 26.1914C670.021 26.1914 669.016 27.3438 668.928 28.6914ZM683.797 24.3945V26.3086H681.707V31.8164C681.707 32.832 682.215 33.0371 682.84 33.0469C683.133 33.0566 683.621 33.0273 683.934 33.0078V35.0391C683.641 35.0879 683.162 35.1465 682.527 35.1367C680.652 35.1465 679.207 34.2188 679.227 32.2266V26.3086H677.703V24.3945H679.227V21.8555H681.707V24.3945H683.797Z" fill="black"/>
<rect y="126" width="180" height="180" rx="90" fill="#EEEEEE"/>
<path d="M39.5 199V184.859H44.8125C48.0547 184.859 49.7832 186.832 49.793 189.547C49.7832 192.252 48.0352 194.215 44.7734 194.215H42.0391V199H39.5ZM42.0391 192.125H44.4219C46.3359 192.115 47.1953 191.041 47.1953 189.547C47.1953 188.033 46.3359 186.988 44.4219 186.988H42.0391V192.125ZM51.9766 199V188.395H54.3984V190.152H54.5156C54.8965 188.932 55.9121 188.238 57.1328 188.238C57.4062 188.238 57.7969 188.268 58.0312 188.297V190.602C57.8066 190.523 57.2891 190.455 56.8789 190.445C55.4922 190.455 54.4766 191.412 54.4766 192.75V199H51.9766ZM64.043 199.215C60.9473 199.215 58.9648 197.018 58.9648 193.746C58.9648 190.445 60.9473 188.258 64.043 188.258C67.1484 188.258 69.1309 190.445 69.1211 193.746C69.1309 197.018 67.1484 199.215 64.043 199.215ZM61.4844 193.727C61.4844 195.67 62.334 197.223 64.0625 197.223C65.7617 197.223 66.6113 195.67 66.6016 193.727C66.6113 191.783 65.7617 190.221 64.0625 190.23C62.334 190.221 61.4844 191.783 61.4844 193.727ZM75.25 199.195C72.7598 199.186 70.875 197.193 70.875 193.707C70.875 190.172 72.8086 188.258 75.2695 188.258C77.1348 188.258 77.916 189.381 78.2969 190.133H78.3945V184.859H80.875V199H78.4336V197.32H78.2969C77.8965 198.102 77.0859 199.186 75.25 199.195ZM73.4141 193.688C73.4141 195.689 74.293 197.145 75.9336 197.145C77.5449 197.145 78.4531 195.758 78.4531 193.688C78.4531 191.627 77.5547 190.299 75.9336 190.289C74.2734 190.299 73.4141 191.715 73.4141 193.688ZM90.4219 194.547V188.395H92.9023V199H90.5V197.125H90.3828C89.8945 198.307 88.7812 199.137 87.1992 199.137C85.0996 199.137 83.6543 197.691 83.6445 195.152V188.395H86.1445V194.762C86.1445 196.109 86.9453 196.969 88.1562 196.969C89.25 196.969 90.4219 196.168 90.4219 194.547ZM100.164 199.215C97 199.215 95.0859 196.949 95.0859 193.746C95.0859 190.494 97.0586 188.258 100.164 188.258C102.732 188.258 104.539 189.762 104.715 192.047H102.332C102.137 191.031 101.395 190.26 100.184 190.25C98.6406 190.26 97.6055 191.549 97.6055 193.688C97.6055 195.875 98.6211 197.174 100.184 197.184C101.287 197.174 102.107 196.529 102.332 195.387H104.715C104.529 197.623 102.83 199.215 100.164 199.215ZM112.133 188.395V190.309H110.043V195.816C110.043 196.832 110.551 197.037 111.176 197.047C111.469 197.057 111.957 197.027 112.27 197.008V199.039C111.977 199.088 111.498 199.146 110.863 199.137C108.988 199.146 107.543 198.219 107.562 196.227V190.309H106.039V188.395H107.562V185.855H110.043V188.395H112.133ZM114.297 199V188.395H116.797V199H114.297ZM114.121 185.523C114.121 184.781 114.775 184.176 115.566 184.176C116.357 184.176 117.012 184.781 117.012 185.523C117.012 186.275 116.357 186.881 115.566 186.891C114.775 186.881 114.121 186.275 114.121 185.523ZM124.059 199.215C120.963 199.215 118.98 197.018 118.98 193.746C118.98 190.445 120.963 188.258 124.059 188.258C127.164 188.258 129.146 190.445 129.137 193.746C129.146 197.018 127.164 199.215 124.059 199.215ZM121.5 193.727C121.5 195.67 122.35 197.223 124.078 197.223C125.777 197.223 126.627 195.67 126.617 193.727C126.627 191.783 125.777 190.221 124.078 190.23C122.35 190.221 121.5 191.783 121.5 193.727ZM133.82 192.789V199H131.32V188.395H133.703V190.191H133.84C134.318 189.01 135.402 188.258 136.984 188.258C139.182 188.258 140.627 189.703 140.617 192.242V199H138.137V192.633C138.137 191.207 137.365 190.357 136.066 190.367C134.748 190.357 133.82 191.246 133.82 192.789ZM73.0703 220.012C73.0703 217.629 75.0527 216.936 77.0156 216.809C77.7578 216.75 79.2715 216.682 79.7402 216.662L79.7305 215.812C79.7305 214.758 79.0566 214.152 77.8164 214.152C76.7031 214.152 76.0195 214.66 75.8242 215.422H73.4219C73.5977 213.615 75.2188 212.258 77.875 212.258C79.8867 212.258 82.2109 213.088 82.2109 215.91V223H79.8281V221.535H79.75C79.2812 222.434 78.2949 223.215 76.625 223.215C74.6035 223.215 73.0703 222.111 73.0703 220.012ZM75.4727 219.992C75.4727 220.91 76.2246 221.379 77.2695 221.379C78.7832 221.379 79.75 220.383 79.75 219.191L79.7402 218.322C79.291 218.342 77.9043 218.43 77.4062 218.469C76.2246 218.566 75.4727 219.064 75.4727 219.992ZM87.3047 216.789V223H84.8047V212.395H87.1875V214.191H87.3242C87.8027 213.01 88.8867 212.258 90.4688 212.258C92.666 212.258 94.1113 213.703 94.1016 216.242V223H91.6211V216.633C91.6211 215.207 90.8496 214.357 89.5508 214.367C88.2324 214.357 87.3047 215.246 87.3047 216.789ZM100.68 223.195C98.1895 223.186 96.3047 221.193 96.3047 217.707C96.3047 214.172 98.2383 212.258 100.699 212.258C102.564 212.258 103.346 213.381 103.727 214.133H103.824V208.859H106.305V223H103.863V221.32H103.727C103.326 222.102 102.516 223.186 100.68 223.195ZM98.8438 217.688C98.8438 219.689 99.7227 221.145 101.363 221.145C102.975 221.145 103.883 219.758 103.883 217.688C103.883 215.627 102.984 214.299 101.363 214.289C99.7031 214.299 98.8438 215.715 98.8438 217.688ZM64.8535 247.215C61.6602 247.215 59.6973 245.086 59.6973 241.766C59.6973 238.484 61.6895 236.258 64.7168 236.258C67.3145 236.258 69.5605 237.889 69.5605 241.609V242.391H62.1582C62.1973 244.197 63.2617 245.271 64.873 245.262C65.9668 245.271 66.6992 244.803 67.0215 244.168H69.4629C69.0137 246.004 67.3145 247.215 64.8535 247.215ZM62.168 240.691H67.1777C67.168 239.246 66.1914 238.191 64.7559 238.191C63.2617 238.191 62.2559 239.344 62.168 240.691ZM73.5605 236.395L75.709 240.32L77.8965 236.395H80.5332L77.3301 241.688L80.5918 247H77.9746L75.709 243.172L73.502 247H70.8457L74.0879 241.688L70.9238 236.395H73.5605ZM82.541 250.984V236.395H84.9824V238.133H85.1387C85.5195 237.381 86.3008 236.258 88.1855 236.258C90.627 236.258 92.5508 238.172 92.5605 241.707C92.5508 245.193 90.6855 247.186 88.1855 247.195C86.3594 247.186 85.5293 246.102 85.1387 245.32H85.041V250.984H82.541ZM84.9824 241.688C84.9922 243.758 85.8906 245.145 87.502 245.145C89.1523 245.145 90.0215 243.689 90.0215 241.688C90.0215 239.715 89.1719 238.299 87.502 238.289C85.8711 238.299 84.9922 239.627 84.9824 241.688ZM99.3926 247.215C96.2969 247.215 94.3145 245.018 94.3145 241.746C94.3145 238.445 96.2969 236.258 99.3926 236.258C102.498 236.258 104.48 238.445 104.471 241.746C104.48 245.018 102.498 247.215 99.3926 247.215ZM96.834 241.727C96.834 243.67 97.6836 245.223 99.4121 245.223C101.111 245.223 101.961 243.67 101.951 241.727C101.961 239.783 101.111 238.221 99.4121 238.23C97.6836 238.221 96.834 239.783 96.834 241.727ZM106.654 247V236.395H109.076V238.152H109.193C109.574 236.932 110.59 236.238 111.811 236.238C112.084 236.238 112.475 236.268 112.709 236.297V238.602C112.484 238.523 111.967 238.455 111.557 238.445C110.17 238.455 109.154 239.412 109.154 240.75V247H106.654ZM120.322 236.395V238.309H118.232V243.816C118.232 244.832 118.74 245.037 119.365 245.047C119.658 245.057 120.146 245.027 120.459 245.008V247.039C120.166 247.088 119.688 247.146 119.053 247.137C117.178 247.146 115.732 246.219 115.752 244.227V238.309H114.229V236.395H115.752V233.855H118.232V236.395H120.322Z" fill="black"/>
<rect x="312.5" y="126.5" width="221" height="69" rx="34.5" fill="white"/>
<rect x="312.5" y="126.5" width="221" height="69" rx="34.5" stroke="#ABBBC5"/>
<path d="M357.984 157L354.797 145.688H356.984L359.031 154.016H359.141L361.312 145.688H363.312L365.5 154.031H365.594L367.641 145.688H369.828L366.641 157H364.625L362.359 149.047H362.281L360 157H357.984ZM373.281 152.031V157H371.281V145.688H373.234V149.953H373.344C373.727 148.992 374.555 148.406 375.859 148.406C377.617 148.406 378.781 149.547 378.781 151.594V157H376.797V151.906C376.789 150.75 376.172 150.086 375.125 150.094C374.047 150.086 373.281 150.797 373.281 152.031ZM384.625 157.172C382.148 157.172 380.562 155.414 380.562 152.797C380.562 150.156 382.148 148.406 384.625 148.406C387.109 148.406 388.695 150.156 388.688 152.797C388.695 155.414 387.109 157.172 384.625 157.172ZM382.578 152.781C382.578 154.336 383.258 155.578 384.641 155.578C386 155.578 386.68 154.336 386.672 152.781C386.68 151.227 386 149.977 384.641 149.984C383.258 149.977 382.578 151.227 382.578 152.781ZM392.484 145.688V157H390.484V145.688H392.484ZM398.406 157.172C395.852 157.172 394.281 155.469 394.281 152.812C394.281 150.188 395.875 148.406 398.297 148.406C400.375 148.406 402.172 149.711 402.172 152.688V153.312H396.25C396.281 154.758 397.133 155.617 398.422 155.609C399.297 155.617 399.883 155.242 400.141 154.734H402.094C401.734 156.203 400.375 157.172 398.406 157.172ZM396.258 151.953H400.266C400.258 150.797 399.477 149.953 398.328 149.953C397.133 149.953 396.328 150.875 396.258 151.953ZM408.781 150.938C408.656 150.297 408.125 149.883 407.281 149.891C406.43 149.883 405.805 150.312 405.812 150.891C405.805 151.328 406.156 151.656 407.016 151.859L408.453 152.156C410.055 152.508 410.836 153.25 410.844 154.469C410.836 156.062 409.438 157.172 407.219 157.172C405.062 157.172 403.789 156.203 403.578 154.578H405.609C405.727 155.305 406.289 155.664 407.219 155.656C408.18 155.664 408.805 155.273 408.812 154.641C408.805 154.148 408.422 153.836 407.578 153.656L406.219 153.359C404.641 153.039 403.82 152.211 403.828 151C403.82 149.43 405.18 148.406 407.25 148.406C409.273 148.406 410.523 149.398 410.672 150.938H408.781ZM412.219 154.609C412.219 152.703 413.805 152.148 415.375 152.047C415.969 152 417.18 151.945 417.555 151.93L417.547 151.25C417.547 150.406 417.008 149.922 416.016 149.922C415.125 149.922 414.578 150.328 414.422 150.938H412.5C412.641 149.492 413.938 148.406 416.062 148.406C417.672 148.406 419.531 149.07 419.531 151.328V157H417.625V155.828H417.562C417.188 156.547 416.398 157.172 415.062 157.172C413.445 157.172 412.219 156.289 412.219 154.609ZM414.141 154.594C414.141 155.328 414.742 155.703 415.578 155.703C416.789 155.703 417.562 154.906 417.562 153.953L417.555 153.258C417.195 153.273 416.086 153.344 415.688 153.375C414.742 153.453 414.141 153.852 414.141 154.594ZM423.656 145.688V157H421.656V145.688H423.656ZM429.578 157.172C427.023 157.172 425.453 155.469 425.453 152.812C425.453 150.188 427.047 148.406 429.469 148.406C431.547 148.406 433.344 149.711 433.344 152.688V153.312H427.422C427.453 154.758 428.305 155.617 429.594 155.609C430.469 155.617 431.055 155.242 431.312 154.734H433.266C432.906 156.203 431.547 157.172 429.578 157.172ZM427.43 151.953H431.438C431.43 150.797 430.648 149.953 429.5 149.953C428.305 149.953 427.5 150.875 427.43 151.953ZM439.281 145.688H441.781L445.141 153.906H445.281L448.641 145.688H451.141V157H449.188V149.219H449.078L445.938 156.969H444.484L441.344 149.188H441.25V157H439.281V145.688ZM453 154.609C453 152.703 454.586 152.148 456.156 152.047C456.75 152 457.961 151.945 458.336 151.93L458.328 151.25C458.328 150.406 457.789 149.922 456.797 149.922C455.906 149.922 455.359 150.328 455.203 150.938H453.281C453.422 149.492 454.719 148.406 456.844 148.406C458.453 148.406 460.312 149.07 460.312 151.328V157H458.406V155.828H458.344C457.969 156.547 457.18 157.172 455.844 157.172C454.227 157.172 453 156.289 453 154.609ZM454.922 154.594C454.922 155.328 455.523 155.703 456.359 155.703C457.57 155.703 458.344 154.906 458.344 153.953L458.336 153.258C457.977 153.273 456.867 153.344 456.469 153.375C455.523 153.453 454.922 153.852 454.922 154.594ZM462.438 157V148.516H464.375V149.922H464.469C464.773 148.945 465.586 148.391 466.562 148.391C466.781 148.391 467.094 148.414 467.281 148.438V150.281C467.102 150.219 466.688 150.164 466.359 150.156C465.25 150.164 464.438 150.93 464.438 152V157H462.438ZM468.719 157V145.688H470.719V151.922H470.859L473.906 148.516H476.234L472.945 152.172L476.438 157H474.062L471.453 153.359L470.719 154.141V157H468.719ZM481.078 157.172C478.523 157.172 476.953 155.469 476.953 152.812C476.953 150.188 478.547 148.406 480.969 148.406C483.047 148.406 484.844 149.711 484.844 152.688V153.312H478.922C478.953 154.758 479.805 155.617 481.094 155.609C481.969 155.617 482.555 155.242 482.812 154.734H484.766C484.406 156.203 483.047 157.172 481.078 157.172ZM478.93 151.953H482.938C482.93 150.797 482.148 149.953 481 149.953C479.805 149.953 479 150.875 478.93 151.953ZM490.875 148.516V150.047H489.203V154.453C489.203 155.266 489.609 155.43 490.109 155.438C490.344 155.445 490.734 155.422 490.984 155.406V157.031C490.75 157.07 490.367 157.117 489.859 157.109C488.359 157.117 487.203 156.375 487.219 154.781V150.047H486V148.516H487.219V146.484H489.203V148.516H490.875ZM381.773 169.5C381.531 168.141 380.445 167.359 379.07 167.359C377.219 167.359 375.906 168.781 375.914 171.344C375.906 173.945 377.227 175.328 379.07 175.328C380.414 175.328 381.5 174.578 381.773 173.25H383.82C383.508 175.422 381.719 177.156 379.039 177.156C376.055 177.156 373.859 174.992 373.867 171.344C373.859 167.688 376.078 165.531 379.039 165.531C381.539 165.531 383.469 166.984 383.82 169.5H381.773ZM389.43 177.172C386.953 177.172 385.367 175.414 385.367 172.797C385.367 170.156 386.953 168.406 389.43 168.406C391.914 168.406 393.5 170.156 393.492 172.797C393.5 175.414 391.914 177.172 389.43 177.172ZM387.383 172.781C387.383 174.336 388.062 175.578 389.445 175.578C390.805 175.578 391.484 174.336 391.477 172.781C391.484 171.227 390.805 169.977 389.445 169.984C388.062 169.977 387.383 171.227 387.383 172.781ZM395.289 177V168.516H397.227V169.922H397.32C397.625 168.945 398.438 168.391 399.414 168.391C399.633 168.391 399.945 168.414 400.133 168.438V170.281C399.953 170.219 399.539 170.164 399.211 170.156C398.102 170.164 397.289 170.93 397.289 172V177H395.289ZM401.57 180.188V168.516H403.523V169.906H403.648C403.953 169.305 404.578 168.406 406.086 168.406C408.039 168.406 409.578 169.938 409.586 172.766C409.578 175.555 408.086 177.148 406.086 177.156C404.625 177.148 403.961 176.281 403.648 175.656H403.57V180.188H401.57ZM403.523 172.75C403.531 174.406 404.25 175.516 405.539 175.516C406.859 175.516 407.555 174.352 407.555 172.75C407.555 171.172 406.875 170.039 405.539 170.031C404.234 170.039 403.531 171.102 403.523 172.75ZM415.102 177.172C412.625 177.172 411.039 175.414 411.039 172.797C411.039 170.156 412.625 168.406 415.102 168.406C417.586 168.406 419.172 170.156 419.164 172.797C419.172 175.414 417.586 177.172 415.102 177.172ZM413.055 172.781C413.055 174.336 413.734 175.578 415.117 175.578C416.477 175.578 417.156 174.336 417.148 172.781C417.156 171.227 416.477 169.977 415.117 169.984C413.734 169.977 413.055 171.227 413.055 172.781ZM420.961 177V168.516H422.898V169.922H422.992C423.297 168.945 424.109 168.391 425.086 168.391C425.305 168.391 425.617 168.414 425.805 168.438V170.281C425.625 170.219 425.211 170.164 424.883 170.156C423.773 170.164 422.961 170.93 422.961 172V177H420.961ZM426.695 174.609C426.695 172.703 428.281 172.148 429.852 172.047C430.445 172 431.656 171.945 432.031 171.93L432.023 171.25C432.023 170.406 431.484 169.922 430.492 169.922C429.602 169.922 429.055 170.328 428.898 170.938H426.977C427.117 169.492 428.414 168.406 430.539 168.406C432.148 168.406 434.008 169.07 434.008 171.328V177H432.102V175.828H432.039C431.664 176.547 430.875 177.172 429.539 177.172C427.922 177.172 426.695 176.289 426.695 174.609ZM428.617 174.594C428.617 175.328 429.219 175.703 430.055 175.703C431.266 175.703 432.039 174.906 432.039 173.953L432.031 173.258C431.672 173.273 430.562 173.344 430.164 173.375C429.219 173.453 428.617 173.852 428.617 174.594ZM440.367 168.516V170.047H438.695V174.453C438.695 175.266 439.102 175.43 439.602 175.438C439.836 175.445 440.227 175.422 440.477 175.406V177.031C440.242 177.07 439.859 177.117 439.352 177.109C437.852 177.117 436.695 176.375 436.711 174.781V170.047H435.492V168.516H436.711V166.484H438.695V168.516H440.367ZM442.148 177V168.516H444.148V177H442.148ZM442.008 166.219C442.008 165.625 442.531 165.141 443.164 165.141C443.797 165.141 444.32 165.625 444.32 166.219C444.32 166.82 443.797 167.305 443.164 167.312C442.531 167.305 442.008 166.82 442.008 166.219ZM450.008 177.172C447.531 177.172 445.945 175.414 445.945 172.797C445.945 170.156 447.531 168.406 450.008 168.406C452.492 168.406 454.078 170.156 454.07 172.797C454.078 175.414 452.492 177.172 450.008 177.172ZM447.961 172.781C447.961 174.336 448.641 175.578 450.023 175.578C451.383 175.578 452.062 174.336 452.055 172.781C452.062 171.227 451.383 169.977 450.023 169.984C448.641 169.977 447.961 171.227 447.961 172.781ZM457.867 172.031V177H455.867V168.516H457.773V169.953H457.883C458.266 169.008 459.133 168.406 460.398 168.406C462.156 168.406 463.312 169.562 463.305 171.594V177H461.32V171.906C461.32 170.766 460.703 170.086 459.664 170.094C458.609 170.086 457.867 170.797 457.867 172.031ZM470.273 170.938C470.148 170.297 469.617 169.883 468.773 169.891C467.922 169.883 467.297 170.312 467.305 170.891C467.297 171.328 467.648 171.656 468.508 171.859L469.945 172.156C471.547 172.508 472.328 173.25 472.336 174.469C472.328 176.062 470.93 177.172 468.711 177.172C466.555 177.172 465.281 176.203 465.07 174.578H467.102C467.219 175.305 467.781 175.664 468.711 175.656C469.672 175.664 470.297 175.273 470.305 174.641C470.297 174.148 469.914 173.836 469.07 173.656L467.711 173.359C466.133 173.039 465.312 172.211 465.32 171C465.312 169.43 466.672 168.406 468.742 168.406C470.766 168.406 472.016 169.398 472.164 170.938H470.273Z" fill="black"/>
<rect x="312.5" y="236.5" width="221" height="69" rx="34.5" fill="white"/>
<rect x="312.5" y="236.5" width="221" height="69" rx="34.5" stroke="#ABBBC5"/>
<path d="M367.453 277V265.688H374.812V267.391H369.484V270.484H374.422V272.188H369.484V275.281H374.844V277H367.453ZM378.547 268.516L380.266 271.656L382.016 268.516H384.125L381.562 272.75L384.172 277H382.078L380.266 273.938L378.5 277H376.375L378.969 272.75L376.438 268.516H378.547ZM389.156 277.172C386.625 277.172 385.094 275.359 385.094 272.797C385.094 270.195 386.672 268.406 389.156 268.406C391.211 268.406 392.656 269.609 392.797 271.438H390.891C390.734 270.625 390.141 270.008 389.172 270C387.938 270.008 387.109 271.039 387.109 272.75C387.109 274.5 387.922 275.539 389.172 275.547C390.055 275.539 390.711 275.023 390.891 274.109H392.797C392.648 275.898 391.289 277.172 389.156 277.172ZM398.312 277.172C395.758 277.172 394.188 275.469 394.188 272.812C394.188 270.188 395.781 268.406 398.203 268.406C400.281 268.406 402.078 269.711 402.078 272.688V273.312H396.156C396.188 274.758 397.039 275.617 398.328 275.609C399.203 275.617 399.789 275.242 400.047 274.734H402C401.641 276.203 400.281 277.172 398.312 277.172ZM396.164 271.953H400.172C400.164 270.797 399.383 269.953 398.234 269.953C397.039 269.953 396.234 270.875 396.164 271.953ZM403.875 280.188V268.516H405.828V269.906H405.953C406.258 269.305 406.883 268.406 408.391 268.406C410.344 268.406 411.883 269.938 411.891 272.766C411.883 275.555 410.391 277.148 408.391 277.156C406.93 277.148 406.266 276.281 405.953 275.656H405.875V280.188H403.875ZM405.828 272.75C405.836 274.406 406.555 275.516 407.844 275.516C409.164 275.516 409.859 274.352 409.859 272.75C409.859 271.172 409.18 270.039 407.844 270.031C406.539 270.039 405.836 271.102 405.828 272.75ZM417.938 268.516V270.047H416.266V274.453C416.266 275.266 416.672 275.43 417.172 275.438C417.406 275.445 417.797 275.422 418.047 275.406V277.031C417.812 277.07 417.43 277.117 416.922 277.109C415.422 277.117 414.266 276.375 414.281 274.781V270.047H413.062V268.516H414.281V266.484H416.266V268.516H417.938ZM419.719 277V268.516H421.719V277H419.719ZM419.578 266.219C419.578 265.625 420.102 265.141 420.734 265.141C421.367 265.141 421.891 265.625 421.891 266.219C421.891 266.82 421.367 267.305 420.734 267.312C420.102 267.305 419.578 266.82 419.578 266.219ZM427.578 277.172C425.102 277.172 423.516 275.414 423.516 272.797C423.516 270.156 425.102 268.406 427.578 268.406C430.062 268.406 431.648 270.156 431.641 272.797C431.648 275.414 430.062 277.172 427.578 277.172ZM425.531 272.781C425.531 274.336 426.211 275.578 427.594 275.578C428.953 275.578 429.633 274.336 429.625 272.781C429.633 271.227 428.953 269.977 427.594 269.984C426.211 269.977 425.531 271.227 425.531 272.781ZM435.438 272.031V277H433.438V268.516H435.344V269.953H435.453C435.836 269.008 436.703 268.406 437.969 268.406C439.727 268.406 440.883 269.562 440.875 271.594V277H438.891V271.906C438.891 270.766 438.273 270.086 437.234 270.094C436.18 270.086 435.438 270.797 435.438 272.031ZM449.203 265.688V277H447.172V265.688H449.203ZM455.703 268.516V270.047H454.031V274.453C454.031 275.266 454.438 275.43 454.938 275.438C455.172 275.445 455.562 275.422 455.812 275.406V277.031C455.578 277.07 455.195 277.117 454.688 277.109C453.188 277.117 452.031 276.375 452.047 274.781V270.047H450.828V268.516H452.047V266.484H454.031V268.516H455.703ZM461.156 277.172C458.602 277.172 457.031 275.469 457.031 272.812C457.031 270.188 458.625 268.406 461.047 268.406C463.125 268.406 464.922 269.711 464.922 272.688V273.312H459C459.031 274.758 459.883 275.617 461.172 275.609C462.047 275.617 462.633 275.242 462.891 274.734H464.844C464.484 276.203 463.125 277.172 461.156 277.172ZM459.008 271.953H463.016C463.008 270.797 462.227 269.953 461.078 269.953C459.883 269.953 459.078 270.875 459.008 271.953ZM466.719 277V268.516H468.625V269.953H468.734C469.086 268.984 469.938 268.406 471.062 268.406C472.211 268.406 473.039 268.992 473.359 269.953H473.453C473.82 269.016 474.766 268.406 476 268.406C477.555 268.406 478.648 269.406 478.641 271.297V277H476.656V271.609C476.656 270.555 476.016 270.078 475.203 270.078C474.227 270.078 473.656 270.742 473.656 271.703V277H471.719V271.531C471.711 270.648 471.133 270.078 470.281 270.078C469.422 270.078 468.719 270.789 468.719 271.844V277H466.719Z" fill="black"/>
<rect x="666" y="126" width="180" height="180" rx="90" fill="#FFB724"/>
<path d="M704.785 182.859H707.91L712.109 193.133H712.285L716.484 182.859H719.609V197H717.168V187.273H717.031L713.105 196.961H711.289L707.363 187.234H707.246V197H704.785V182.859ZM722.359 197V186.395H724.859V197H722.359ZM722.184 183.523C722.184 182.781 722.838 182.176 723.629 182.176C724.42 182.176 725.074 182.781 725.074 183.523C725.074 184.275 724.42 184.881 723.629 184.891C722.838 184.881 722.184 184.275 722.184 183.523ZM731.438 197.195C728.947 197.186 727.062 195.193 727.062 191.707C727.062 188.172 728.996 186.258 731.457 186.258C733.322 186.258 734.104 187.381 734.484 188.133H734.582V182.859H737.062V197H734.621V195.32H734.484C734.084 196.102 733.273 197.186 731.438 197.195ZM729.602 191.688C729.602 193.689 730.48 195.145 732.121 195.145C733.732 195.145 734.641 193.758 734.641 191.688C734.641 189.627 733.742 188.299 732.121 188.289C730.461 188.299 729.602 189.715 729.602 191.688ZM743.777 197.195C741.287 197.186 739.402 195.193 739.402 191.707C739.402 188.172 741.336 186.258 743.797 186.258C745.662 186.258 746.443 187.381 746.824 188.133H746.922V182.859H749.402V197H746.961V195.32H746.824C746.424 196.102 745.613 197.186 743.777 197.195ZM741.941 191.688C741.941 193.689 742.82 195.145 744.461 195.145C746.072 195.145 746.98 193.758 746.98 191.688C746.98 189.627 746.082 188.299 744.461 188.289C742.801 188.299 741.941 189.715 741.941 191.688ZM754.672 182.859V197H752.172V182.859H754.672ZM762.012 197.215C758.818 197.215 756.855 195.086 756.855 191.766C756.855 188.484 758.848 186.258 761.875 186.258C764.473 186.258 766.719 187.889 766.719 191.609V192.391H759.316C759.355 194.197 760.42 195.271 762.031 195.262C763.125 195.271 763.857 194.803 764.18 194.168H766.621C766.172 196.004 764.473 197.215 762.012 197.215ZM759.326 190.691H764.336C764.326 189.246 763.35 188.191 761.914 188.191C760.42 188.191 759.414 189.344 759.326 190.691ZM768.902 197V186.395H771.285V188.191H771.422C771.861 186.98 772.926 186.258 774.332 186.258C775.768 186.258 776.803 186.99 777.203 188.191H777.32C777.779 187.02 778.961 186.258 780.504 186.258C782.447 186.258 783.814 187.508 783.805 189.871V197H781.324V190.262C781.324 188.943 780.523 188.348 779.508 188.348C778.287 188.348 777.574 189.178 777.574 190.379V197H775.152V190.164C775.143 189.061 774.42 188.348 773.355 188.348C772.281 188.348 771.402 189.236 771.402 190.555V197H768.902ZM791.145 197.215C787.951 197.215 785.988 195.086 785.988 191.766C785.988 188.484 787.98 186.258 791.008 186.258C793.605 186.258 795.852 187.889 795.852 191.609V192.391H788.449C788.488 194.197 789.553 195.271 791.164 195.262C792.258 195.271 792.99 194.803 793.312 194.168H795.754C795.305 196.004 793.605 197.215 791.145 197.215ZM788.459 190.691H793.469C793.459 189.246 792.482 188.191 791.047 188.191C789.553 188.191 788.547 189.344 788.459 190.691ZM800.535 190.789V197H798.035V186.395H800.418V188.191H800.555C801.033 187.01 802.117 186.258 803.699 186.258C805.896 186.258 807.342 187.703 807.332 190.242V197H804.852V190.633C804.852 189.207 804.08 188.357 802.781 188.367C801.463 188.357 800.535 189.246 800.535 190.789Z" fill="white"/>
<path d="M726.75 219.688C726.766 216.742 727.562 214.289 729 212.203H730.188C729.133 213.742 728.148 216.906 728.141 219.688C728.148 222.477 729.133 225.633 730.188 227.188H729C727.562 225.094 726.766 222.641 726.75 219.688ZM731.656 213.938V212.688H740.188V213.938H736.641V224H735.219V213.938H731.656ZM741.25 224V215.516H742.547V216.812H742.641C742.945 215.953 743.828 215.383 744.828 215.375C745.031 215.383 745.375 215.391 745.531 215.406V216.766C745.43 216.742 745.07 216.672 744.719 216.672C743.5 216.672 742.594 217.516 742.594 218.656V224H741.25ZM746.672 221.594C746.672 219.648 748.391 219.203 749.859 219.094C750.406 219.055 751.773 218.977 752.156 218.969V218.281C752.156 217.203 751.516 216.578 750.234 216.578C749.164 216.578 748.516 217.07 748.328 217.719H746.922C747.094 216.352 748.422 215.406 750.297 215.406C751.406 215.406 753.492 215.734 753.484 218.406V224H752.156V222.844H752.094C751.812 223.414 751.039 224.195 749.562 224.203C747.953 224.195 746.672 223.25 746.672 221.594ZM748.016 221.656C748.023 222.555 748.766 223.008 749.797 223C751.312 223.008 752.156 221.992 752.156 220.922V220.07C751.758 220.094 750.422 220.195 750.016 220.219C748.797 220.297 748.023 220.727 748.016 221.656ZM759.094 224.172C756.977 224.18 755.484 222.477 755.484 219.781C755.484 217.094 756.977 215.406 759.109 215.406C760.758 215.406 761.273 216.406 761.562 216.859H761.656V212.688H763.016V224H761.703V222.703H761.562C761.266 223.172 760.711 224.18 759.094 224.172ZM756.844 219.75C756.844 221.555 757.672 222.969 759.281 222.969C760.836 222.969 761.695 221.656 761.703 219.75C761.695 217.867 760.859 216.609 759.281 216.609C757.648 216.609 756.844 217.977 756.844 219.75ZM765.594 224V215.516H766.938V224H765.594ZM765.328 213.219C765.32 212.719 765.75 212.32 766.266 212.328C766.781 212.32 767.211 212.719 767.219 213.219C767.211 213.711 766.781 214.109 766.266 214.109C765.75 214.109 765.32 213.711 765.328 213.219ZM770.672 218.906V224H769.328V215.516H770.625V216.844H770.734C771.133 215.977 771.93 215.406 773.219 215.406C774.938 215.406 776.086 216.453 776.078 218.609V224H774.734V218.703C774.734 217.391 774.016 216.609 772.812 216.609C771.578 216.609 770.672 217.438 770.672 218.906ZM781.922 227.359C779.867 227.359 778.477 226.461 778.328 224.891H779.734C779.914 225.758 780.719 226.188 781.922 226.188C783.375 226.188 784.266 225.555 784.266 224.156V222.438H784.156C783.867 222.906 783.328 223.867 781.688 223.875C779.625 223.867 778.078 222.312 778.078 219.641C778.078 217.031 779.57 215.406 781.703 215.406C783.352 215.406 783.883 216.406 784.188 216.859H784.297V215.516H785.609V224.234C785.602 226.422 783.992 227.359 781.922 227.359ZM779.438 219.688C779.438 221.445 780.266 222.672 781.875 222.672C783.43 222.672 784.289 221.555 784.297 219.688C784.289 217.867 783.453 216.609 781.875 216.609C780.242 216.609 779.438 217.977 779.438 219.688ZM710.438 248V236.688H714.281C716.93 236.688 718.141 238.266 718.141 240.281C718.141 242.289 716.93 243.891 714.297 243.891H711.844V248H710.438ZM711.844 242.641H714.234C716.039 242.641 716.742 241.625 716.75 240.281C716.742 238.93 716.039 237.938 714.219 237.938H711.844V242.641ZM719.766 245.594C719.766 243.648 721.484 243.203 722.953 243.094C723.5 243.055 724.867 242.977 725.25 242.969V242.281C725.25 241.203 724.609 240.578 723.328 240.578C722.258 240.578 721.609 241.07 721.422 241.719H720.016C720.188 240.352 721.516 239.406 723.391 239.406C724.5 239.406 726.586 239.734 726.578 242.406V248H725.25V246.844H725.188C724.906 247.414 724.133 248.195 722.656 248.203C721.047 248.195 719.766 247.25 719.766 245.594ZM721.109 245.656C721.117 246.555 721.859 247.008 722.891 247C724.406 247.008 725.25 245.992 725.25 244.922V244.07C724.852 244.094 723.516 244.195 723.109 244.219C721.891 244.297 721.117 244.727 721.109 245.656ZM728.984 248V239.516H730.281V240.812H730.375C730.68 239.953 731.562 239.383 732.562 239.375C732.766 239.383 733.109 239.391 733.266 239.406V240.766C733.164 240.742 732.805 240.672 732.453 240.672C731.234 240.672 730.328 241.516 730.328 242.656V248H728.984ZM739.062 239.516V240.641H737.281V245.562C737.273 246.648 737.82 246.828 738.391 246.828C738.633 246.828 738.992 246.805 739.188 246.797V248.047C738.977 248.078 738.648 248.109 738.25 248.109C737.117 248.109 735.93 247.406 735.922 245.906V240.641H734.641V239.516H735.922V237.484H737.281V239.516H739.062ZM741.047 248V239.516H742.391V248H741.047ZM740.781 237.219C740.773 236.719 741.203 236.32 741.719 236.328C742.234 236.32 742.664 236.719 742.672 237.219C742.664 237.711 742.234 238.109 741.719 238.109C741.203 238.109 740.773 237.711 740.781 237.219ZM748.25 248.172C745.844 248.18 744.375 246.344 744.375 243.797C744.375 241.219 745.914 239.406 748.219 239.406C750.023 239.406 751.383 240.477 751.594 242.078H750.25C750.055 241.305 749.383 240.594 748.25 240.594C746.734 240.594 745.727 241.844 745.719 243.75C745.727 245.711 746.711 246.969 748.25 246.969C749.25 246.969 750.016 246.43 750.25 245.5H751.594C751.383 247.016 750.133 248.18 748.25 248.172ZM753.5 248V239.516H754.844V248H753.5ZM753.234 237.219C753.227 236.719 753.656 236.32 754.172 236.328C754.688 236.32 755.117 236.719 755.125 237.219C755.117 237.711 754.688 238.109 754.172 238.109C753.656 238.109 753.227 237.711 753.234 237.219ZM757.234 251.188V239.516H758.531V240.859H758.688C758.977 240.406 759.492 239.406 761.141 239.406C763.273 239.406 764.75 241.094 764.75 243.781C764.75 246.477 763.273 248.18 761.156 248.172C759.539 248.18 758.977 247.172 758.688 246.703H758.578V251.188H757.234ZM758.547 243.75C758.555 245.656 759.406 246.969 760.969 246.969C762.578 246.969 763.406 245.555 763.406 243.75C763.406 241.977 762.602 240.609 760.969 240.609C759.383 240.609 758.555 241.867 758.547 243.75ZM766.344 245.594C766.344 243.648 768.062 243.203 769.531 243.094C770.078 243.055 771.445 242.977 771.828 242.969V242.281C771.828 241.203 771.188 240.578 769.906 240.578C768.836 240.578 768.188 241.07 768 241.719H766.594C766.766 240.352 768.094 239.406 769.969 239.406C771.078 239.406 773.164 239.734 773.156 242.406V248H771.828V246.844H771.766C771.484 247.414 770.711 248.195 769.234 248.203C767.625 248.195 766.344 247.25 766.344 245.594ZM767.688 245.656C767.695 246.555 768.438 247.008 769.469 247C770.984 247.008 771.828 245.992 771.828 244.922V244.07C771.43 244.094 770.094 244.195 769.688 244.219C768.469 244.297 767.695 244.727 767.688 245.656ZM776.906 242.906V248H775.562V239.516H776.859V240.844H776.969C777.367 239.977 778.164 239.406 779.453 239.406C781.172 239.406 782.32 240.453 782.312 242.609V248H780.969V242.703C780.969 241.391 780.25 240.609 779.047 240.609C777.812 240.609 776.906 241.438 776.906 242.906ZM788.422 239.516V240.641H786.641V245.562C786.633 246.648 787.18 246.828 787.75 246.828C787.992 246.828 788.352 246.805 788.547 246.797V248.047C788.336 248.078 788.008 248.109 787.609 248.109C786.477 248.109 785.289 247.406 785.281 245.906V240.641H784V239.516H785.281V237.484H786.641V239.516H788.422ZM794.969 241.719C794.781 241.016 794.242 240.555 793.25 240.547C792.203 240.555 791.461 241.117 791.453 241.828C791.461 242.391 791.914 242.773 792.906 243.016L794.172 243.328C795.688 243.688 796.43 244.445 796.438 245.625C796.43 247.094 795.234 248.18 793.109 248.172C791.203 248.18 790.07 247.328 789.844 245.781H791.25C791.406 246.609 792.008 247.008 793.078 247C794.289 247.008 795.047 246.5 795.047 245.703C795.047 245.102 794.617 244.711 793.656 244.484L792.375 244.188C790.898 243.844 790.109 243.039 790.109 241.906C790.109 240.453 791.383 239.406 793.25 239.406C795.008 239.406 796.109 240.344 796.281 241.719H794.969ZM801.391 243.688C801.375 246.641 800.578 249.094 799.141 251.188H797.953C799.008 249.633 799.992 246.477 800 243.688C799.992 240.906 799.008 237.742 797.953 236.203H799.141C800.578 238.289 801.375 240.742 801.391 243.688Z" fill="white"/>
<rect x="978" y="126" width="222" height="70" rx="12" fill="#FFB724"/>
<path d="M1056.64 167V155.688H1060.89C1063.48 155.688 1064.87 157.141 1064.88 159.297C1064.87 160.836 1064.16 161.977 1062.84 162.516L1065.28 167H1063.02L1060.8 162.859H1058.67V167H1056.64ZM1058.67 161.156H1060.58C1062.11 161.164 1062.8 160.508 1062.8 159.297C1062.8 158.094 1062.11 157.391 1060.58 157.391H1058.67V161.156ZM1070.42 167.172C1067.87 167.172 1066.3 165.469 1066.3 162.812C1066.3 160.188 1067.89 158.406 1070.31 158.406C1072.39 158.406 1074.19 159.711 1074.19 162.688V163.312H1068.27C1068.3 164.758 1069.15 165.617 1070.44 165.609C1071.31 165.617 1071.9 165.242 1072.16 164.734H1074.11C1073.75 166.203 1072.39 167.172 1070.42 167.172ZM1068.27 161.953H1072.28C1072.27 160.797 1071.49 159.953 1070.34 159.953C1069.15 159.953 1068.34 160.875 1068.27 161.953ZM1080.22 158.516V160.047H1078.55V164.453C1078.55 165.266 1078.95 165.43 1079.45 165.438C1079.69 165.445 1080.08 165.422 1080.33 165.406V167.031C1080.09 167.07 1079.71 167.117 1079.2 167.109C1077.7 167.117 1076.55 166.375 1076.56 164.781V160.047H1075.34V158.516H1076.56V156.484H1078.55V158.516H1080.22ZM1081.61 164.609C1081.61 162.703 1083.2 162.148 1084.77 162.047C1085.36 162 1086.57 161.945 1086.95 161.93L1086.94 161.25C1086.94 160.406 1086.4 159.922 1085.41 159.922C1084.52 159.922 1083.97 160.328 1083.81 160.938H1081.89C1082.03 159.492 1083.33 158.406 1085.45 158.406C1087.06 158.406 1088.92 159.07 1088.92 161.328V167H1087.02V165.828H1086.95C1086.58 166.547 1085.79 167.172 1084.45 167.172C1082.84 167.172 1081.61 166.289 1081.61 164.609ZM1083.53 164.594C1083.53 165.328 1084.13 165.703 1084.97 165.703C1086.18 165.703 1086.95 164.906 1086.95 163.953L1086.95 163.258C1086.59 163.273 1085.48 163.344 1085.08 163.375C1084.13 163.453 1083.53 163.852 1083.53 164.594ZM1091.05 167V158.516H1093.05V167H1091.05ZM1090.91 156.219C1090.91 155.625 1091.43 155.141 1092.06 155.141C1092.7 155.141 1093.22 155.625 1093.22 156.219C1093.22 156.82 1092.7 157.305 1092.06 157.312C1091.43 157.305 1090.91 156.82 1090.91 156.219ZM1097.2 155.688V167H1095.2V155.688H1097.2ZM1103.12 167.172C1100.57 167.172 1099 165.469 1099 162.812C1099 160.188 1100.59 158.406 1103.02 158.406C1105.09 158.406 1106.89 159.711 1106.89 162.688V163.312H1100.97C1101 164.758 1101.85 165.617 1103.14 165.609C1104.02 165.617 1104.6 165.242 1104.86 164.734H1106.81C1106.45 166.203 1105.09 167.172 1103.12 167.172ZM1100.98 161.953H1104.98C1104.98 160.797 1104.2 159.953 1103.05 159.953C1101.85 159.953 1101.05 160.875 1100.98 161.953ZM1108.69 167V158.516H1110.62V159.922H1110.72C1111.02 158.945 1111.84 158.391 1112.81 158.391C1113.03 158.391 1113.34 158.414 1113.53 158.438V160.281C1113.35 160.219 1112.94 160.164 1112.61 160.156C1111.5 160.164 1110.69 160.93 1110.69 162V167H1108.69ZM1119.78 160.938C1119.66 160.297 1119.12 159.883 1118.28 159.891C1117.43 159.883 1116.8 160.312 1116.81 160.891C1116.8 161.328 1117.16 161.656 1118.02 161.859L1119.45 162.156C1121.05 162.508 1121.84 163.25 1121.84 164.469C1121.84 166.062 1120.44 167.172 1118.22 167.172C1116.06 167.172 1114.79 166.203 1114.58 164.578H1116.61C1116.73 165.305 1117.29 165.664 1118.22 165.656C1119.18 165.664 1119.8 165.273 1119.81 164.641C1119.8 164.148 1119.42 163.836 1118.58 163.656L1117.22 163.359C1115.64 163.039 1114.82 162.211 1114.83 161C1114.82 159.43 1116.18 158.406 1118.25 158.406C1120.27 158.406 1121.52 159.398 1121.67 160.938H1119.78Z" fill="white"/>
<rect x="978" y="236" width="222" height="70" rx="12" fill="#FFB724"/>
<path d="M1021.34 267V255.688H1023.37V265.281H1028.37V267H1021.34ZM1029.76 264.609C1029.76 262.703 1031.34 262.148 1032.91 262.047C1033.51 262 1034.72 261.945 1035.09 261.93L1035.09 261.25C1035.09 260.406 1034.55 259.922 1033.55 259.922C1032.66 259.922 1032.12 260.328 1031.96 260.938H1030.04C1030.18 259.492 1031.48 258.406 1033.6 258.406C1035.21 258.406 1037.07 259.07 1037.07 261.328V267H1035.16V265.828H1035.1C1034.73 266.547 1033.94 267.172 1032.6 267.172C1030.98 267.172 1029.76 266.289 1029.76 264.609ZM1031.68 264.594C1031.68 265.328 1032.28 265.703 1033.12 265.703C1034.33 265.703 1035.1 264.906 1035.1 263.953L1035.09 263.258C1034.73 263.273 1033.62 263.344 1033.23 263.375C1032.28 263.453 1031.68 263.852 1031.68 264.594ZM1039.2 267V258.516H1041.13V259.922H1041.23C1041.53 258.945 1042.34 258.391 1043.32 258.391C1043.54 258.391 1043.85 258.414 1044.04 258.438V260.281C1043.86 260.219 1043.45 260.164 1043.12 260.156C1042.01 260.164 1041.2 260.93 1041.2 262V267H1039.2ZM1048.9 270.359C1046.65 270.359 1045.22 269.359 1045.09 267.766H1047.07C1047.21 268.508 1047.91 268.852 1048.93 268.859C1050.12 268.852 1050.9 268.336 1050.9 267.094V265.469H1050.8C1050.49 266.094 1049.81 266.875 1048.35 266.875C1046.39 266.875 1044.85 265.453 1044.85 262.688C1044.85 259.898 1046.4 258.406 1048.37 258.406C1049.86 258.406 1050.49 259.305 1050.8 259.906H1050.9V258.516H1052.87V267.141C1052.87 269.312 1051.19 270.359 1048.9 270.359ZM1046.88 262.719C1046.88 264.281 1047.59 265.312 1048.9 265.312C1050.19 265.312 1050.91 264.344 1050.91 262.719C1050.91 261.102 1050.2 260.039 1048.9 260.031C1047.57 260.039 1046.88 261.172 1046.88 262.719ZM1058.79 267.172C1056.23 267.172 1054.66 265.469 1054.66 262.812C1054.66 260.188 1056.26 258.406 1058.68 258.406C1060.76 258.406 1062.55 259.711 1062.55 262.688V263.312H1056.63C1056.66 264.758 1057.52 265.617 1058.8 265.609C1059.68 265.617 1060.27 265.242 1060.52 264.734H1062.48C1062.12 266.203 1060.76 267.172 1058.79 267.172ZM1056.64 261.953H1060.65C1060.64 260.797 1059.86 259.953 1058.71 259.953C1057.52 259.953 1056.71 260.875 1056.64 261.953ZM1072.34 267H1068.49V255.688H1072.4C1075.77 255.688 1077.81 257.805 1077.82 261.328C1077.81 264.867 1075.77 267 1072.34 267ZM1070.52 265.234H1072.23C1074.59 265.242 1075.79 263.938 1075.79 261.328C1075.79 258.734 1074.59 257.445 1072.29 257.453H1070.52V265.234ZM1079.77 267V258.516H1081.77V267H1079.77ZM1079.63 256.219C1079.63 255.625 1080.16 255.141 1080.79 255.141C1081.42 255.141 1081.95 255.625 1081.95 256.219C1081.95 256.82 1081.42 257.305 1080.79 257.312C1080.16 257.305 1079.63 256.82 1079.63 256.219ZM1088.74 260.938C1088.62 260.297 1088.09 259.883 1087.24 259.891C1086.39 259.883 1085.77 260.312 1085.77 260.891C1085.77 261.328 1086.12 261.656 1086.98 261.859L1088.41 262.156C1090.02 262.508 1090.8 263.25 1090.8 264.469C1090.8 266.062 1089.4 267.172 1087.18 267.172C1085.02 267.172 1083.75 266.203 1083.54 264.578H1085.57C1085.69 265.305 1086.25 265.664 1087.18 265.656C1088.14 265.664 1088.77 265.273 1088.77 264.641C1088.77 264.148 1088.38 263.836 1087.54 263.656L1086.18 263.359C1084.6 263.039 1083.78 262.211 1083.79 261C1083.78 259.43 1085.14 258.406 1087.21 258.406C1089.23 258.406 1090.48 259.398 1090.63 260.938H1088.74ZM1096.8 258.516V260.047H1095.13V264.453C1095.13 265.266 1095.54 265.43 1096.04 265.438C1096.27 265.445 1096.66 265.422 1096.91 265.406V267.031C1096.68 267.07 1096.3 267.117 1095.79 267.109C1094.29 267.117 1093.13 266.375 1093.15 264.781V260.047H1091.93V258.516H1093.15V256.484H1095.13V258.516H1096.8ZM1098.59 267V258.516H1100.52V259.922H1100.62C1100.92 258.945 1101.73 258.391 1102.71 258.391C1102.93 258.391 1103.24 258.414 1103.43 258.438V260.281C1103.25 260.219 1102.84 260.164 1102.51 260.156C1101.4 260.164 1100.59 260.93 1100.59 262V267H1098.59ZM1104.87 267V258.516H1106.87V267H1104.87ZM1104.73 256.219C1104.73 255.625 1105.25 255.141 1105.88 255.141C1106.52 255.141 1107.04 255.625 1107.04 256.219C1107.04 256.82 1106.52 257.305 1105.88 257.312C1105.25 257.305 1104.73 256.82 1104.73 256.219ZM1109.12 267V255.688H1111.12V259.906H1111.2C1111.5 259.305 1112.12 258.406 1113.62 258.406C1115.58 258.406 1117.12 259.938 1117.13 262.766C1117.12 265.555 1115.62 267.148 1113.63 267.156C1112.16 267.148 1111.51 266.281 1111.2 265.656H1111.07V267H1109.12ZM1111.07 262.75C1111.07 264.406 1111.8 265.516 1113.07 265.516C1114.4 265.516 1115.09 264.352 1115.1 262.75C1115.09 261.172 1114.41 260.039 1113.07 260.031C1111.78 260.039 1111.07 261.102 1111.07 262.75ZM1124.37 263.438V258.516H1126.35V267H1124.43V265.5H1124.34C1123.95 266.445 1123.05 267.109 1121.79 267.109C1120.11 267.109 1118.95 265.953 1118.95 263.922V258.516H1120.95V263.609C1120.95 264.688 1121.59 265.375 1122.55 265.375C1123.43 265.375 1124.37 264.734 1124.37 263.438ZM1132.74 258.516V260.047H1131.07V264.453C1131.07 265.266 1131.48 265.43 1131.98 265.438C1132.21 265.445 1132.6 265.422 1132.85 265.406V267.031C1132.62 267.07 1132.23 267.117 1131.73 267.109C1130.23 267.117 1129.07 266.375 1129.09 264.781V260.047H1127.87V258.516H1129.09V256.484H1131.07V258.516H1132.74ZM1138.13 267.172C1135.66 267.172 1134.07 265.414 1134.07 262.797C1134.07 260.156 1135.66 258.406 1138.13 258.406C1140.62 258.406 1142.2 260.156 1142.2 262.797C1142.2 265.414 1140.62 267.172 1138.13 267.172ZM1136.09 262.781C1136.09 264.336 1136.77 265.578 1138.15 265.578C1139.51 265.578 1140.19 264.336 1140.18 262.781C1140.19 261.227 1139.51 259.977 1138.15 259.984C1136.77 259.977 1136.09 261.227 1136.09 262.781ZM1143.99 267V258.516H1145.93V259.922H1146.02C1146.33 258.945 1147.14 258.391 1148.12 258.391C1148.34 258.391 1148.65 258.414 1148.84 258.438V260.281C1148.66 260.219 1148.24 260.164 1147.91 260.156C1146.8 260.164 1145.99 260.93 1145.99 262V267H1143.99ZM1155.09 260.938C1154.96 260.297 1154.43 259.883 1153.59 259.891C1152.73 259.883 1152.11 260.312 1152.12 260.891C1152.11 261.328 1152.46 261.656 1153.32 261.859L1154.76 262.156C1156.36 262.508 1157.14 263.25 1157.15 264.469C1157.14 266.062 1155.74 267.172 1153.52 267.172C1151.37 267.172 1150.09 266.203 1149.88 264.578H1151.91C1152.03 265.305 1152.59 265.664 1153.52 265.656C1154.48 265.664 1155.11 265.273 1155.12 264.641C1155.11 264.148 1154.73 263.836 1153.88 263.656L1152.52 263.359C1150.95 263.039 1150.12 262.211 1150.13 261C1150.12 259.43 1151.48 258.406 1153.55 258.406C1155.58 258.406 1156.83 259.398 1156.98 260.938H1155.09ZM1002.21 275.156L998.57 288.703H996.82L1000.48 275.156H1002.21ZM1007.73 287V275.688H1011.98C1014.57 275.688 1015.95 277.266 1015.96 279.438C1015.95 281.602 1014.55 283.172 1011.95 283.172H1009.76V287H1007.73ZM1009.76 281.5H1011.66C1013.2 281.492 1013.88 280.633 1013.88 279.438C1013.88 278.227 1013.2 277.391 1011.66 277.391H1009.76V281.5ZM1017.76 287V278.516H1019.7V279.922H1019.79C1020.09 278.945 1020.91 278.391 1021.88 278.391C1022.1 278.391 1022.41 278.414 1022.6 278.438V280.281C1022.42 280.219 1022.01 280.164 1021.68 280.156C1020.57 280.164 1019.76 280.93 1019.76 282V287H1017.76ZM1027.46 287.172C1024.98 287.172 1023.4 285.414 1023.4 282.797C1023.4 280.156 1024.98 278.406 1027.46 278.406C1029.95 278.406 1031.53 280.156 1031.52 282.797C1031.53 285.414 1029.95 287.172 1027.46 287.172ZM1025.41 282.781C1025.41 284.336 1026.09 285.578 1027.48 285.578C1028.84 285.578 1029.52 284.336 1029.51 282.781C1029.52 281.227 1028.84 279.977 1027.48 279.984C1026.09 279.977 1025.41 281.227 1025.41 282.781ZM1037.02 287.172C1034.49 287.172 1032.96 285.359 1032.96 282.797C1032.96 280.195 1034.54 278.406 1037.02 278.406C1039.08 278.406 1040.52 279.609 1040.66 281.438H1038.76C1038.6 280.625 1038.01 280.008 1037.04 280C1035.8 280.008 1034.98 281.039 1034.98 282.75C1034.98 284.5 1035.79 285.539 1037.04 285.547C1037.92 285.539 1038.58 285.023 1038.76 284.109H1040.66C1040.52 285.898 1039.16 287.172 1037.02 287.172ZM1046.18 287.172C1043.62 287.172 1042.05 285.469 1042.05 282.812C1042.05 280.188 1043.65 278.406 1046.07 278.406C1048.15 278.406 1049.95 279.711 1049.95 282.688V283.312H1044.02C1044.05 284.758 1044.91 285.617 1046.2 285.609C1047.07 285.617 1047.66 285.242 1047.91 284.734H1049.87C1049.51 286.203 1048.15 287.172 1046.18 287.172ZM1044.03 281.953H1048.04C1048.03 280.797 1047.25 279.953 1046.1 279.953C1044.91 279.953 1044.1 280.875 1044.03 281.953ZM1056.55 280.938C1056.43 280.297 1055.9 279.883 1055.05 279.891C1054.2 279.883 1053.58 280.312 1053.59 280.891C1053.58 281.328 1053.93 281.656 1054.79 281.859L1056.23 282.156C1057.83 282.508 1058.61 283.25 1058.62 284.469C1058.61 286.062 1057.21 287.172 1054.99 287.172C1052.84 287.172 1051.56 286.203 1051.35 284.578H1053.38C1053.5 285.305 1054.06 285.664 1054.99 285.656C1055.95 285.664 1056.58 285.273 1056.59 284.641C1056.58 284.148 1056.2 283.836 1055.35 283.656L1053.99 283.359C1052.41 283.039 1051.59 282.211 1051.6 281C1051.59 279.43 1052.95 278.406 1055.02 278.406C1057.05 278.406 1058.3 279.398 1058.45 280.938H1056.55ZM1065.2 280.938C1065.07 280.297 1064.54 279.883 1063.7 279.891C1062.84 279.883 1062.22 280.312 1062.23 280.891C1062.22 281.328 1062.57 281.656 1063.43 281.859L1064.87 282.156C1066.47 282.508 1067.25 283.25 1067.26 284.469C1067.25 286.062 1065.85 287.172 1063.63 287.172C1061.48 287.172 1060.2 286.203 1059.99 284.578H1062.02C1062.14 285.305 1062.7 285.664 1063.63 285.656C1064.59 285.664 1065.22 285.273 1065.23 284.641C1065.22 284.148 1064.84 283.836 1063.99 283.656L1062.63 283.359C1061.05 283.039 1060.23 282.211 1060.24 281C1060.23 279.43 1061.59 278.406 1063.66 278.406C1065.69 278.406 1066.94 279.398 1067.09 280.938H1065.2ZM1069.02 287V278.516H1071.02V287H1069.02ZM1068.88 276.219C1068.88 275.625 1069.41 275.141 1070.04 275.141C1070.67 275.141 1071.2 275.625 1071.2 276.219C1071.2 276.82 1070.67 277.305 1070.04 277.312C1069.41 277.305 1068.88 276.82 1068.88 276.219ZM1075.18 282.031V287H1073.18V278.516H1075.09V279.953H1075.2C1075.58 279.008 1076.45 278.406 1077.71 278.406C1079.47 278.406 1080.62 279.562 1080.62 281.594V287H1078.63V281.906C1078.63 280.766 1078.02 280.086 1076.98 280.094C1075.92 280.086 1075.18 280.797 1075.18 282.031ZM1086.48 290.359C1084.23 290.359 1082.8 289.359 1082.66 287.766H1084.65C1084.79 288.508 1085.48 288.852 1086.51 288.859C1087.7 288.852 1088.48 288.336 1088.48 287.094V285.469H1088.38C1088.07 286.094 1087.39 286.875 1085.93 286.875C1083.97 286.875 1082.43 285.453 1082.43 282.688C1082.43 279.898 1083.98 278.406 1085.95 278.406C1087.44 278.406 1088.07 279.305 1088.38 279.906H1088.48V278.516H1090.45V287.141C1090.45 289.312 1088.77 290.359 1086.48 290.359ZM1084.46 282.719C1084.46 284.281 1085.16 285.312 1086.48 285.312C1087.77 285.312 1088.49 284.344 1088.49 282.719C1088.49 281.102 1087.77 280.039 1086.48 280.031C1085.15 280.039 1084.46 281.172 1084.46 282.719ZM1104.37 279.5C1104.12 278.141 1103.04 277.359 1101.66 277.359C1099.81 277.359 1098.5 278.781 1098.51 281.344C1098.5 283.945 1099.82 285.328 1101.66 285.328C1103.01 285.328 1104.09 284.578 1104.37 283.25H1106.41C1106.1 285.422 1104.31 287.156 1101.63 287.156C1098.65 287.156 1096.45 284.992 1096.46 281.344C1096.45 277.688 1098.67 275.531 1101.63 275.531C1104.13 275.531 1106.06 276.984 1106.41 279.5H1104.37ZM1112.02 287.172C1109.55 287.172 1107.96 285.414 1107.96 282.797C1107.96 280.156 1109.55 278.406 1112.02 278.406C1114.51 278.406 1116.09 280.156 1116.09 282.797C1116.09 285.414 1114.51 287.172 1112.02 287.172ZM1109.98 282.781C1109.98 284.336 1110.66 285.578 1112.04 285.578C1113.4 285.578 1114.08 284.336 1114.07 282.781C1114.08 281.227 1113.4 279.977 1112.04 279.984C1110.66 279.977 1109.98 281.227 1109.98 282.781ZM1117.88 287V278.516H1119.79V279.953H1119.9C1120.25 278.984 1121.1 278.406 1122.23 278.406C1123.38 278.406 1124.2 278.992 1124.52 279.953H1124.62C1124.98 279.016 1125.93 278.406 1127.16 278.406C1128.72 278.406 1129.81 279.406 1129.8 281.297V287H1127.82V281.609C1127.82 280.555 1127.18 280.078 1126.37 280.078C1125.39 280.078 1124.82 280.742 1124.82 281.703V287H1122.88V281.531C1122.88 280.648 1122.3 280.078 1121.45 280.078C1120.59 280.078 1119.88 280.789 1119.88 281.844V287H1117.88ZM1131.96 290.188V278.516H1133.91V279.906H1134.04C1134.34 279.305 1134.97 278.406 1136.48 278.406C1138.43 278.406 1139.97 279.938 1139.98 282.766C1139.97 285.555 1138.48 287.148 1136.48 287.156C1135.02 287.148 1134.35 286.281 1134.04 285.656H1133.96V290.188H1131.96ZM1133.91 282.75C1133.92 284.406 1134.64 285.516 1135.93 285.516C1137.25 285.516 1137.95 284.352 1137.95 282.75C1137.95 281.172 1137.27 280.039 1135.93 280.031C1134.62 280.039 1133.92 281.102 1133.91 282.75ZM1141.4 284.609C1141.4 282.703 1142.98 282.148 1144.55 282.047C1145.15 282 1146.36 281.945 1146.73 281.93L1146.73 281.25C1146.73 280.406 1146.19 279.922 1145.2 279.922C1144.3 279.922 1143.76 280.328 1143.6 280.938H1141.68C1141.82 279.492 1143.12 278.406 1145.24 278.406C1146.85 278.406 1148.71 279.07 1148.71 281.328V287H1146.8V285.828H1146.74C1146.37 286.547 1145.58 287.172 1144.24 287.172C1142.62 287.172 1141.4 286.289 1141.4 284.609ZM1143.32 284.594C1143.32 285.328 1143.92 285.703 1144.76 285.703C1145.97 285.703 1146.74 284.906 1146.74 283.953L1146.73 283.258C1146.38 283.273 1145.27 283.344 1144.87 283.375C1143.92 283.453 1143.32 283.852 1143.32 284.594ZM1152.84 282.031V287H1150.84V278.516H1152.74V279.953H1152.85C1153.23 279.008 1154.1 278.406 1155.37 278.406C1157.12 278.406 1158.28 279.562 1158.27 281.594V287H1156.29V281.906C1156.29 280.766 1155.67 280.086 1154.63 280.094C1153.58 280.086 1152.84 280.797 1152.84 282.031ZM1160.43 287V278.516H1162.43V287H1160.43ZM1160.29 276.219C1160.29 275.625 1160.81 275.141 1161.45 275.141C1162.08 275.141 1162.6 275.625 1162.6 276.219C1162.6 276.82 1162.08 277.305 1161.45 277.312C1160.81 277.305 1160.29 276.82 1160.29 276.219ZM1168.35 287.172C1165.8 287.172 1164.23 285.469 1164.23 282.812C1164.23 280.188 1165.82 278.406 1168.24 278.406C1170.32 278.406 1172.12 279.711 1172.12 282.688V283.312H1166.2C1166.23 284.758 1167.08 285.617 1168.37 285.609C1169.24 285.617 1169.83 285.242 1170.09 284.734H1172.04C1171.68 286.203 1170.32 287.172 1168.35 287.172ZM1166.2 281.953H1170.21C1170.2 280.797 1169.42 279.953 1168.27 279.953C1167.08 279.953 1166.27 280.875 1166.2 281.953ZM1178.73 280.938C1178.6 280.297 1178.07 279.883 1177.23 279.891C1176.38 279.883 1175.75 280.312 1175.76 280.891C1175.75 281.328 1176.1 281.656 1176.96 281.859L1178.4 282.156C1180 282.508 1180.78 283.25 1180.79 284.469C1180.78 286.062 1179.38 287.172 1177.16 287.172C1175.01 287.172 1173.73 286.203 1173.52 284.578H1175.55C1175.67 285.305 1176.23 285.664 1177.16 285.656C1178.12 285.664 1178.75 285.273 1178.76 284.641C1178.75 284.148 1178.37 283.836 1177.52 283.656L1176.16 283.359C1174.59 283.039 1173.77 282.211 1173.77 281C1173.77 279.43 1175.12 278.406 1177.2 278.406C1179.22 278.406 1180.47 279.398 1180.62 280.938H1178.73Z" fill="white"/>
<path d="M558.453 106V94.6875H565.703V96.3906H560.484V99.4844H565.203V101.188H560.484V106H558.453ZM567.578 106V97.5156H569.578V106H567.578ZM567.438 95.2188C567.438 94.625 567.961 94.1406 568.594 94.1406C569.227 94.1406 569.75 94.625 569.75 95.2188C569.75 95.8203 569.227 96.3047 568.594 96.3125C567.961 96.3047 567.438 95.8203 567.438 95.2188ZM573.359 97.5156L575.078 100.656L576.828 97.5156H578.938L576.375 101.75L578.984 106H576.891L575.078 102.938L573.312 106H571.188L573.781 101.75L571.25 97.5156H573.359ZM584.031 106.172C581.477 106.172 579.906 104.469 579.906 101.812C579.906 99.1875 581.5 97.4062 583.922 97.4062C586 97.4062 587.797 98.7109 587.797 101.688V102.312H581.875C581.906 103.758 582.758 104.617 584.047 104.609C584.922 104.617 585.508 104.242 585.766 103.734H587.719C587.359 105.203 586 106.172 584.031 106.172ZM581.883 100.953H585.891C585.883 99.7969 585.102 98.9531 583.953 98.9531C582.758 98.9531 581.953 99.875 581.883 100.953ZM592.75 106.156C590.758 106.148 589.25 104.555 589.25 101.766C589.25 98.9375 590.797 97.4062 592.766 97.4062C594.258 97.4062 594.883 98.3047 595.188 98.9062H595.266V94.6875H597.25V106H595.297V104.656H595.188C594.867 105.281 594.219 106.148 592.75 106.156ZM591.281 101.75C591.281 103.352 591.984 104.516 593.297 104.516C594.586 104.516 595.312 103.406 595.312 101.75C595.312 100.102 594.594 99.0391 593.297 99.0312C591.969 99.0391 591.281 100.172 591.281 101.75ZM603.656 106V94.6875H607.906C610.5 94.6875 611.883 96.2656 611.891 98.4375C611.883 100.602 610.484 102.172 607.875 102.172H605.688V106H603.656ZM605.688 100.5H607.594C609.125 100.492 609.812 99.6328 609.812 98.4375C609.812 97.2266 609.125 96.3906 607.594 96.3906H605.688V100.5ZM613.688 106V97.5156H615.625V98.9219H615.719C616.023 97.9453 616.836 97.3906 617.812 97.3906C618.031 97.3906 618.344 97.4141 618.531 97.4375V99.2812C618.352 99.2188 617.938 99.1641 617.609 99.1562C616.5 99.1641 615.688 99.9297 615.688 101V106H613.688ZM619.969 106V97.5156H621.969V106H619.969ZM619.828 95.2188C619.828 94.625 620.352 94.1406 620.984 94.1406C621.617 94.1406 622.141 94.625 622.141 95.2188C622.141 95.8203 621.617 96.3047 620.984 96.3125C620.352 96.3047 619.828 95.8203 619.828 95.2188ZM627.828 106.172C625.297 106.172 623.766 104.359 623.766 101.797C623.766 99.1953 625.344 97.4062 627.828 97.4062C629.883 97.4062 631.328 98.6094 631.469 100.438H629.562C629.406 99.625 628.812 99.0078 627.844 99C626.609 99.0078 625.781 100.039 625.781 101.75C625.781 103.5 626.594 104.539 627.844 104.547C628.727 104.539 629.383 104.023 629.562 103.109H631.469C631.32 104.898 629.961 106.172 627.828 106.172ZM636.984 106.172C634.43 106.172 632.859 104.469 632.859 101.812C632.859 99.1875 634.453 97.4062 636.875 97.4062C638.953 97.4062 640.75 98.7109 640.75 101.688V102.312H634.828C634.859 103.758 635.711 104.617 637 104.609C637.875 104.617 638.461 104.242 638.719 103.734H640.672C640.312 105.203 638.953 106.172 636.984 106.172ZM634.836 100.953H638.844C638.836 99.7969 638.055 98.9531 636.906 98.9531C635.711 98.9531 634.906 99.875 634.836 100.953ZM561.711 118.5C561.469 117.141 560.383 116.359 559.008 116.359C557.156 116.359 555.844 117.781 555.852 120.344C555.844 122.945 557.164 124.328 559.008 124.328C560.352 124.328 561.438 123.578 561.711 122.25H563.758C563.445 124.422 561.656 126.156 558.977 126.156C555.992 126.156 553.797 123.992 553.805 120.344C553.797 116.688 556.016 114.531 558.977 114.531C561.477 114.531 563.406 115.984 563.758 118.5H561.711ZM569.367 126.172C566.891 126.172 565.305 124.414 565.305 121.797C565.305 119.156 566.891 117.406 569.367 117.406C571.852 117.406 573.438 119.156 573.43 121.797C573.438 124.414 571.852 126.172 569.367 126.172ZM567.32 121.781C567.32 123.336 568 124.578 569.383 124.578C570.742 124.578 571.422 123.336 571.414 121.781C571.422 120.227 570.742 118.977 569.383 118.984C568 118.977 567.32 120.227 567.32 121.781ZM575.227 126V117.516H577.133V118.953H577.242C577.594 117.984 578.445 117.406 579.57 117.406C580.719 117.406 581.547 117.992 581.867 118.953H581.961C582.328 118.016 583.273 117.406 584.508 117.406C586.062 117.406 587.156 118.406 587.148 120.297V126H585.164V120.609C585.164 119.555 584.523 119.078 583.711 119.078C582.734 119.078 582.164 119.742 582.164 120.703V126H580.227V120.531C580.219 119.648 579.641 119.078 578.789 119.078C577.93 119.078 577.227 119.789 577.227 120.844V126H575.227ZM589.305 129.188V117.516H591.258V118.906H591.383C591.688 118.305 592.312 117.406 593.82 117.406C595.773 117.406 597.312 118.938 597.32 121.766C597.312 124.555 595.82 126.148 593.82 126.156C592.359 126.148 591.695 125.281 591.383 124.656H591.305V129.188H589.305ZM591.258 121.75C591.266 123.406 591.984 124.516 593.273 124.516C594.594 124.516 595.289 123.352 595.289 121.75C595.289 120.172 594.609 119.039 593.273 119.031C591.969 119.039 591.266 120.102 591.258 121.75ZM602.898 126.172C600.344 126.172 598.773 124.469 598.773 121.812C598.773 119.188 600.367 117.406 602.789 117.406C604.867 117.406 606.664 118.711 606.664 121.688V122.312H600.742C600.773 123.758 601.625 124.617 602.914 124.609C603.789 124.617 604.375 124.242 604.633 123.734H606.586C606.227 125.203 604.867 126.172 602.898 126.172ZM600.75 120.953H604.758C604.75 119.797 603.969 118.953 602.82 118.953C601.625 118.953 600.82 119.875 600.75 120.953ZM612.695 117.516V119.047H611.023V123.453C611.023 124.266 611.43 124.43 611.93 124.438C612.164 124.445 612.555 124.422 612.805 124.406V126.031C612.57 126.07 612.188 126.117 611.68 126.109C610.18 126.117 609.023 125.375 609.039 123.781V119.047H607.82V117.516H609.039V115.484H611.023V117.516H612.695ZM614.477 126V117.516H616.477V126H614.477ZM614.336 115.219C614.336 114.625 614.859 114.141 615.492 114.141C616.125 114.141 616.648 114.625 616.648 115.219C616.648 115.82 616.125 116.305 615.492 116.312C614.859 116.305 614.336 115.82 614.336 115.219ZM622.867 117.516V119.047H621.195V123.453C621.195 124.266 621.602 124.43 622.102 124.438C622.336 124.445 622.727 124.422 622.977 124.406V126.031C622.742 126.07 622.359 126.117 621.852 126.109C620.352 126.117 619.195 125.375 619.211 123.781V119.047H617.992V117.516H619.211V115.484H621.195V117.516H622.867ZM624.648 126V117.516H626.648V126H624.648ZM624.508 115.219C624.508 114.625 625.031 114.141 625.664 114.141C626.297 114.141 626.82 114.625 626.82 115.219C626.82 115.82 626.297 116.305 625.664 116.312C625.031 116.305 624.508 115.82 624.508 115.219ZM636.383 117.516L633.352 126H631.164L628.133 117.516H630.258L632.211 123.828H632.305L634.273 117.516H636.383ZM641.352 126.172C638.797 126.172 637.227 124.469 637.227 121.812C637.227 119.188 638.82 117.406 641.242 117.406C643.32 117.406 645.117 118.711 645.117 121.688V122.312H639.195C639.227 123.758 640.078 124.617 641.367 124.609C642.242 124.617 642.828 124.242 643.086 123.734H645.039C644.68 125.203 643.32 126.172 641.352 126.172ZM639.203 120.953H643.211C643.203 119.797 642.422 118.953 641.273 118.953C640.078 118.953 639.273 119.875 639.203 120.953ZM572.445 146H570.273L574.258 134.688H576.758L580.758 146H578.586L577.641 143.203H573.383L572.445 146ZM573.93 141.562H577.094L575.555 137H575.461L573.93 141.562ZM587.68 142.438V137.516H589.664V146H587.742V144.5H587.648C587.258 145.445 586.367 146.109 585.102 146.109C583.422 146.109 582.266 144.953 582.258 142.922V137.516H584.258V142.609C584.258 143.688 584.898 144.375 585.867 144.375C586.742 144.375 587.68 143.734 587.68 142.438ZM595.523 146.172C592.992 146.172 591.461 144.359 591.461 141.797C591.461 139.195 593.039 137.406 595.523 137.406C597.578 137.406 599.023 138.609 599.164 140.438H597.258C597.102 139.625 596.508 139.008 595.539 139C594.305 139.008 593.477 140.039 593.477 141.75C593.477 143.5 594.289 144.539 595.539 144.547C596.422 144.539 597.078 144.023 597.258 143.109H599.164C599.016 144.898 597.656 146.172 595.523 146.172ZM605.148 137.516V139.047H603.477V143.453C603.477 144.266 603.883 144.43 604.383 144.438C604.617 144.445 605.008 144.422 605.258 144.406V146.031C605.023 146.07 604.641 146.117 604.133 146.109C602.633 146.117 601.477 145.375 601.492 143.781V139.047H600.273V137.516H601.492V135.484H603.477V137.516H605.148ZM606.93 146V137.516H608.93V146H606.93ZM606.789 135.219C606.789 134.625 607.312 134.141 607.945 134.141C608.578 134.141 609.102 134.625 609.102 135.219C609.102 135.82 608.578 136.305 607.945 136.312C607.312 136.305 606.789 135.82 606.789 135.219ZM614.789 146.172C612.312 146.172 610.727 144.414 610.727 141.797C610.727 139.156 612.312 137.406 614.789 137.406C617.273 137.406 618.859 139.156 618.852 141.797C618.859 144.414 617.273 146.172 614.789 146.172ZM612.742 141.781C612.742 143.336 613.422 144.578 614.805 144.578C616.164 144.578 616.844 143.336 616.836 141.781C616.844 140.227 616.164 138.977 614.805 138.984C613.422 138.977 612.742 140.227 612.742 141.781ZM622.648 141.031V146H620.648V137.516H622.555V138.953H622.664C623.047 138.008 623.914 137.406 625.18 137.406C626.938 137.406 628.094 138.562 628.086 140.594V146H626.102V140.906C626.102 139.766 625.484 139.086 624.445 139.094C623.391 139.086 622.648 139.797 622.648 141.031Z" fill="black"/>
<path d="M194.266 134.5C194.023 133.141 192.938 132.359 191.562 132.359C189.711 132.359 188.398 133.781 188.406 136.344C188.398 138.945 189.719 140.328 191.562 140.328C192.906 140.328 193.992 139.578 194.266 138.25H196.312C196 140.422 194.211 142.156 191.531 142.156C188.547 142.156 186.352 139.992 186.359 136.344C186.352 132.688 188.57 130.531 191.531 130.531C194.031 130.531 195.961 131.984 196.312 134.5H194.266ZM201.922 142.172C199.445 142.172 197.859 140.414 197.859 137.797C197.859 135.156 199.445 133.406 201.922 133.406C204.406 133.406 205.992 135.156 205.984 137.797C205.992 140.414 204.406 142.172 201.922 142.172ZM199.875 137.781C199.875 139.336 200.555 140.578 201.938 140.578C203.297 140.578 203.977 139.336 203.969 137.781C203.977 136.227 203.297 134.977 201.938 134.984C200.555 134.977 199.875 136.227 199.875 137.781ZM209.781 137.031V142H207.781V133.516H209.688V134.953H209.797C210.18 134.008 211.047 133.406 212.312 133.406C214.07 133.406 215.227 134.562 215.219 136.594V142H213.234V136.906C213.234 135.766 212.617 135.086 211.578 135.094C210.523 135.086 209.781 135.797 209.781 137.031ZM222.188 135.938C222.062 135.297 221.531 134.883 220.688 134.891C219.836 134.883 219.211 135.312 219.219 135.891C219.211 136.328 219.562 136.656 220.422 136.859L221.859 137.156C223.461 137.508 224.242 138.25 224.25 139.469C224.242 141.062 222.844 142.172 220.625 142.172C218.469 142.172 217.195 141.203 216.984 139.578H219.016C219.133 140.305 219.695 140.664 220.625 140.656C221.586 140.664 222.211 140.273 222.219 139.641C222.211 139.148 221.828 138.836 220.984 138.656L219.625 138.359C218.047 138.039 217.227 137.211 217.234 136C217.227 134.43 218.586 133.406 220.656 133.406C222.68 133.406 223.93 134.398 224.078 135.938H222.188ZM226.016 142V133.516H228.016V142H226.016ZM225.875 131.219C225.875 130.625 226.398 130.141 227.031 130.141C227.664 130.141 228.188 130.625 228.188 131.219C228.188 131.82 227.664 132.305 227.031 132.312C226.398 132.305 225.875 131.82 225.875 131.219ZM233.875 145.359C231.625 145.359 230.195 144.359 230.062 142.766H232.047C232.188 143.508 232.883 143.852 233.906 143.859C235.102 143.852 235.875 143.336 235.875 142.094V140.469H235.781C235.469 141.094 234.789 141.875 233.328 141.875C231.367 141.875 229.828 140.453 229.828 137.688C229.828 134.898 231.375 133.406 233.344 133.406C234.836 133.406 235.469 134.305 235.781 134.906H235.875V133.516H237.844V142.141C237.844 144.312 236.164 145.359 233.875 145.359ZM231.859 137.719C231.859 139.281 232.562 140.312 233.875 140.312C235.164 140.312 235.891 139.344 235.891 137.719C235.891 136.102 235.172 135.039 233.875 135.031C232.547 135.039 231.859 136.172 231.859 137.719ZM242 137.031V142H240V133.516H241.906V134.953H242.016C242.398 134.008 243.266 133.406 244.531 133.406C246.289 133.406 247.445 134.562 247.438 136.594V142H245.453V136.906C245.453 135.766 244.836 135.086 243.797 135.094C242.742 135.086 242 135.797 242 137.031ZM249.594 142V133.516H251.5V134.953H251.609C251.961 133.984 252.812 133.406 253.938 133.406C255.086 133.406 255.914 133.992 256.234 134.953H256.328C256.695 134.016 257.641 133.406 258.875 133.406C260.43 133.406 261.523 134.406 261.516 136.297V142H259.531V136.609C259.531 135.555 258.891 135.078 258.078 135.078C257.102 135.078 256.531 135.742 256.531 136.703V142H254.594V136.531C254.586 135.648 254.008 135.078 253.156 135.078C252.297 135.078 251.594 135.789 251.594 136.844V142H249.594ZM267.438 142.172C264.883 142.172 263.312 140.469 263.312 137.812C263.312 135.188 264.906 133.406 267.328 133.406C269.406 133.406 271.203 134.711 271.203 137.688V138.312H265.281C265.312 139.758 266.164 140.617 267.453 140.609C268.328 140.617 268.914 140.242 269.172 139.734H271.125C270.766 141.203 269.406 142.172 267.438 142.172ZM265.289 136.953H269.297C269.289 135.797 268.508 134.953 267.359 134.953C266.164 134.953 265.359 135.875 265.289 136.953ZM275 137.031V142H273V133.516H274.906V134.953H275.016C275.398 134.008 276.266 133.406 277.531 133.406C279.289 133.406 280.445 134.562 280.438 136.594V142H278.453V136.906C278.453 135.766 277.836 135.086 276.797 135.094C275.742 135.086 275 135.797 275 137.031ZM286.828 133.516V135.047H285.156V139.453C285.156 140.266 285.562 140.43 286.062 140.438C286.297 140.445 286.688 140.422 286.938 140.406V142.031C286.703 142.07 286.32 142.117 285.812 142.109C284.312 142.117 283.156 141.375 283.172 139.781V135.047H281.953V133.516H283.172V131.484H285.156V133.516H286.828Z" fill="black"/>
<path d="M154.667 161C154.667 163.946 157.054 166.333 160 166.333C162.946 166.333 165.333 163.946 165.333 161C165.333 158.054 162.946 155.667 160 155.667C157.054 155.667 154.667 158.054 154.667 161ZM309 161L299 155.227L299 166.774L309 161ZM160 162L300 162L300 160L160 160L160 162Z" fill="#B2C0C9"/>
<path d="M154.667 272C154.667 274.946 157.054 277.333 160 277.333C162.946 277.333 165.333 274.946 165.333 272C165.333 269.054 162.946 266.667 160 266.667C157.054 266.667 154.667 269.054 154.667 272ZM309 272L299 266.227L299 277.774L309 272ZM160 273L300 273L300 271L160 271L160 273Z" fill="#B2C0C9"/>
<path d="M528.667 161C528.667 163.946 531.054 166.333 534 166.333C536.946 166.333 539.333 163.946 539.333 161C539.333 158.054 536.946 155.667 534 155.667C531.054 155.667 528.667 158.054 528.667 161ZM597 161H598V160H597V161ZM597 271.5V272.5H598V271.5H597ZM528.667 271.5C528.667 274.446 531.054 276.833 534 276.833C536.946 276.833 539.333 274.446 539.333 271.5C539.333 268.554 536.946 266.167 534 266.167C531.054 266.167 528.667 268.554 528.667 271.5ZM534 162H597V160H534V162ZM597 270.5H534V272.5H597V270.5ZM596 161V216.25H598V161H596ZM596 216.25V271.5H598V216.25H596Z" fill="#B2C0C9"/>
<path d="M974.5 162L964.5 167.774V156.226L974.5 162ZM911.5 162H910.5V161H911.5V162ZM911.5 272.5V273.5H910.5V272.5H911.5ZM974.5 272.5L964.5 278.274V266.726L974.5 272.5ZM965.5 163H911.5V161H965.5V163ZM911.5 271.5H965.5V273.5H911.5V271.5ZM912.5 162V217.25H910.5V162H912.5ZM912.5 217.25V272.5H910.5V217.25H912.5Z" fill="#B2C0C9"/>
<path d="M664.5 217L654.5 211.226V222.774L664.5 217ZM597 218H655.5V216H597V218Z" fill="#B2C0C9"/>
<path d="M849.333 218C849.333 220.946 846.946 223.333 844 223.333C841.054 223.333 838.667 220.946 838.667 218C838.667 215.054 841.054 212.667 844 212.667C846.946 212.667 849.333 215.054 849.333 218ZM911.5 219H844V217H911.5V219Z" fill="#B2C0C9"/>
</svg>
