<svg width="1515" height="120" viewBox="0 0 1515 120" fill="none" xmlns="http://www.w3.org/2000/svg">
<path d="M51.44 13.28H62.8C73.84 13.28 80.24 19.76 80.24 29.32C80.24 38.88 73.84 45.32 62.8 45.32H51.44V13.28ZM62.92 41.52C71.04 41.52 76 37.12 76 29.32C76 21.52 71.04 17.04 62.92 17.04H55.64V41.52H62.92ZM87.6159 11.88C89.2159 11.88 90.3759 13.04 90.3759 14.6C90.3759 16.16 89.2159 17.32 87.6159 17.32C86.0559 17.32 84.8959 16.16 84.8959 14.6C84.8959 13.04 86.0559 11.88 87.6159 11.88ZM89.6959 45.36H85.5759V22.44H89.6959V45.36ZM105.162 21.88C110.762 21.88 114.962 24.64 115.162 28.52H111.122C110.962 26.6 108.362 25.24 105.042 25.24C101.722 25.24 99.3219 26.56 99.3219 28.28C99.3219 30.16 100.762 31.32 106.362 32.08C113.242 33 115.682 35.24 115.682 38.8C115.682 43.24 111.002 45.88 105.322 45.88C99.2019 45.88 95.2819 42.92 95.0019 38.92H99.0419C99.2819 40.72 101.362 42.52 105.442 42.52C108.962 42.52 111.642 41.08 111.642 39.04C111.642 37.16 109.882 36.08 104.402 35.36C98.1619 34.52 95.2819 32.52 95.2819 28.52C95.2819 24.48 99.5619 21.88 105.162 21.88ZM132.654 22.44V26.08H127.574V45.32H123.454V26.08H118.374V22.44H123.454V15.48H127.574V22.44H132.654ZM136.904 22.44H141.024V25.96C142.024 24.24 144.784 21.88 149.264 21.88C150.664 21.88 151.584 22 152.384 22.28V26.2C151.504 25.8 150.384 25.56 148.984 25.56C144.304 25.56 141.024 29.32 141.024 33.48V45.32H136.904V22.44ZM158.514 11.88C160.114 11.88 161.274 13.04 161.274 14.6C161.274 16.16 160.114 17.32 158.514 17.32C156.954 17.32 155.794 16.16 155.794 14.6C155.794 13.04 156.954 11.88 158.514 11.88ZM160.594 45.36H156.474V22.44H160.594V45.36ZM179.3 45.88C175.14 45.88 172.34 43.88 171.18 41.92V45.32H167.06V12.28H171.18V25.84C172.34 23.88 175.14 21.88 179.3 21.88C185.78 21.88 190.62 27.04 190.62 33.88C190.62 40.72 185.78 45.88 179.3 45.88ZM178.94 42.24C183.54 42.24 186.58 38.64 186.58 33.88C186.58 29.12 183.54 25.52 178.94 25.52C174.3 25.52 171.1 29.12 171.1 33.88C171.1 38.64 174.3 42.24 178.94 42.24ZM216.448 45.32H212.328V41.84C211.368 43.52 208.768 45.88 204.568 45.88C199.168 45.88 195.368 42 195.368 35.84V22.44H199.488V35.12C199.488 39.76 201.728 42.28 205.448 42.28C209.448 42.28 212.328 38.52 212.328 34.28V22.44H216.448V45.32ZM234.92 22.44V26.08H229.84V45.32H225.72V26.08H220.64V22.44H225.72V15.48H229.84V22.44H234.92ZM241.21 11.88C242.81 11.88 243.97 13.04 243.97 14.6C243.97 16.16 242.81 17.32 241.21 17.32C239.65 17.32 238.49 16.16 238.49 14.6C238.49 13.04 239.65 11.88 241.21 11.88ZM243.29 45.36H239.17V22.44H243.29V45.36ZM260.276 21.88C267.036 21.88 271.956 27 271.956 33.88C271.956 40.76 267.036 45.88 260.276 45.88C253.476 45.88 248.556 40.76 248.556 33.88C248.556 27 253.476 21.88 260.276 21.88ZM260.276 25.52C255.716 25.52 252.596 29.12 252.596 33.88C252.596 38.64 255.716 42.24 260.276 42.24C264.796 42.24 267.916 38.64 267.916 33.88C267.916 29.12 264.796 25.52 260.276 25.52ZM277.217 22.44H281.337V25.92C282.297 24.24 284.897 21.88 289.097 21.88C294.497 21.88 298.297 25.76 298.297 31.92V45.32H294.177V32.64C294.177 28 291.937 25.48 288.217 25.48C284.217 25.48 281.337 29.24 281.337 33.48V45.32H277.217V22.44ZM319.742 13.28V45.32H315.542V13.28H319.742ZM326.435 22.44H330.555V25.92C331.515 24.24 334.115 21.88 338.315 21.88C343.715 21.88 347.515 25.76 347.515 31.92V45.32H343.395V32.64C343.395 28 341.155 25.48 337.435 25.48C333.435 25.48 330.555 29.24 330.555 33.48V45.32H326.435V22.44ZM353.349 22.44H357.469V25.92C358.429 24.24 361.029 21.88 365.229 21.88C370.629 21.88 374.429 25.76 374.429 31.92V45.32H370.309V32.64C370.309 28 368.069 25.48 364.349 25.48C360.349 25.48 357.469 29.24 357.469 33.48V45.32H353.349V22.44ZM390.783 21.88C397.543 21.88 402.463 27 402.463 33.88C402.463 40.76 397.543 45.88 390.783 45.88C383.983 45.88 379.063 40.76 379.063 33.88C379.063 27 383.983 21.88 390.783 21.88ZM390.783 25.52C386.223 25.52 383.103 29.12 383.103 33.88C383.103 38.64 386.223 42.24 390.783 42.24C395.303 42.24 398.423 38.64 398.423 33.88C398.423 29.12 395.303 25.52 390.783 25.52ZM423.752 22.44H427.992L418.312 45.32H413.952L404.312 22.44H408.792L416.272 40.64L423.752 22.44ZM440.774 45.88C434.294 45.88 429.454 40.72 429.454 33.88C429.454 27.04 434.294 21.88 440.774 21.88C444.934 21.88 447.734 23.88 448.894 25.84V22.44H453.014V45.32H448.894V41.92C447.734 43.88 444.934 45.88 440.774 45.88ZM441.134 42.24C445.774 42.24 448.974 38.64 448.974 33.88C448.974 29.12 445.774 25.52 441.134 25.52C436.534 25.52 433.494 29.12 433.494 33.88C433.494 38.64 436.534 42.24 441.134 42.24ZM471.482 22.44V26.08H466.402V45.32H462.282V26.08H457.202V22.44H462.282V15.48H466.402V22.44H471.482ZM477.772 11.88C479.372 11.88 480.532 13.04 480.532 14.6C480.532 16.16 479.372 17.32 477.772 17.32C476.212 17.32 475.052 16.16 475.052 14.6C475.052 13.04 476.212 11.88 477.772 11.88ZM479.852 45.36H475.732V22.44H479.852V45.36ZM496.838 21.88C503.598 21.88 508.518 27 508.518 33.88C508.518 40.76 503.598 45.88 496.838 45.88C490.038 45.88 485.118 40.76 485.118 33.88C485.118 27 490.038 21.88 496.838 21.88ZM496.838 25.52C492.278 25.52 489.158 29.12 489.158 33.88C489.158 38.64 492.278 42.24 496.838 42.24C501.358 42.24 504.478 38.64 504.478 33.88C504.478 29.12 501.358 25.52 496.838 25.52ZM513.779 22.44H517.899V25.92C518.859 24.24 521.459 21.88 525.659 21.88C531.059 21.88 534.859 25.76 534.859 31.92V45.32H530.739V32.64C530.739 28 528.499 25.48 524.779 25.48C520.779 25.48 517.899 29.24 517.899 33.48V45.32H513.779V22.44ZM562.424 21.88C569.184 21.88 574.104 27 574.104 33.88C574.104 40.76 569.184 45.88 562.424 45.88C555.624 45.88 550.704 40.76 550.704 33.88C550.704 27 555.624 21.88 562.424 21.88ZM562.424 25.52C557.864 25.52 554.744 29.12 554.744 33.88C554.744 38.64 557.864 42.24 562.424 42.24C566.944 42.24 570.064 38.64 570.064 33.88C570.064 29.12 566.944 25.52 562.424 25.52ZM590.143 22.44V26.08H585.063V45.32H580.943V26.08H576.423V22.44H580.943V18.56C580.943 14.76 583.143 12.12 587.063 12.12C588.063 12.12 589.023 12.2 589.743 12.36V15.84C589.183 15.72 588.383 15.72 587.783 15.72C586.103 15.72 585.063 16.8 585.063 18.68V22.44H590.143ZM617.342 22.44V26.08H612.262V45.32H608.142V26.08H603.062V22.44H608.142V15.48H612.262V22.44H617.342ZM621.592 12.28H625.712V25.92C626.672 24.24 629.272 21.88 633.472 21.88C638.872 21.88 642.672 25.76 642.672 31.92V45.32H638.552V32.64C638.552 28 636.312 25.48 632.592 25.48C628.592 25.48 625.712 29.24 625.712 33.48V45.32H621.592V12.28ZM658.903 45.88C652.223 45.88 647.423 40.76 647.423 33.88C647.423 27 652.223 21.88 658.903 21.88C665.583 21.88 670.343 27 670.343 33.88C670.343 34.4 670.343 35 670.263 35.56H651.543C651.983 39.48 654.823 42.4 658.903 42.4C662.023 42.4 664.463 40.96 665.303 39.08H669.503C668.263 43.04 664.143 45.88 658.903 45.88ZM666.303 32.2C665.823 28.2 663.023 25.36 658.903 25.36C654.783 25.36 651.983 28.24 651.543 32.2H666.303ZM710.587 45.32L707.387 37.4H691.987L688.787 45.32H684.387L697.587 13.28H702.027L715.187 45.32H710.587ZM693.467 33.68H705.907L699.707 18.2L693.467 33.68ZM729.432 55.6C722.872 55.6 719.392 51.8 718.592 47.48H722.792C723.272 49.92 725.312 52.04 729.432 52.04C733.592 52.04 736.472 49.24 736.472 44.76V41.6C735.312 43.56 732.512 45.56 728.352 45.56C721.872 45.56 717.032 40.48 717.032 33.76C717.032 27 721.872 21.88 728.352 21.88C732.512 21.88 735.312 23.88 736.472 25.84V22.44H740.592V44.8C740.592 51.12 735.992 55.6 729.432 55.6ZM728.712 42C733.352 42 736.552 38.44 736.552 33.76C736.552 29.08 733.352 25.52 728.712 25.52C724.112 25.52 721.072 29.08 721.072 33.76C721.072 38.44 724.112 42 728.712 42ZM747.06 22.44H751.18V25.96C752.18 24.24 754.94 21.88 759.42 21.88C760.82 21.88 761.74 22 762.54 22.28V26.2C761.66 25.8 760.54 25.56 759.14 25.56C754.46 25.56 751.18 29.32 751.18 33.48V45.32H747.06V22.44ZM775.94 21.88C782.7 21.88 787.62 27 787.62 33.88C787.62 40.76 782.7 45.88 775.94 45.88C769.14 45.88 764.22 40.76 764.22 33.88C764.22 27 769.14 21.88 775.94 21.88ZM775.94 25.52C771.38 25.52 768.26 29.12 768.26 33.88C768.26 38.64 771.38 42.24 775.94 42.24C780.46 42.24 783.58 38.64 783.58 33.88C783.58 29.12 780.46 25.52 775.94 25.52ZM805.881 28.16V31.76H791.881V28.16H805.881ZM811.557 13.28H833.957V17.04H815.757V27.96L832.197 27.92V31.68H815.757V45.32H811.557V13.28ZM840.272 11.88C841.872 11.88 843.032 13.04 843.032 14.6C843.032 16.16 841.872 17.32 840.272 17.32C838.712 17.32 837.552 16.16 837.552 14.6C837.552 13.04 838.712 11.88 840.272 11.88ZM842.352 45.36H838.232V22.44H842.352V45.36ZM857.818 21.88C863.418 21.88 867.618 24.64 867.818 28.52H863.778C863.618 26.6 861.018 25.24 857.698 25.24C854.378 25.24 851.978 26.56 851.978 28.28C851.978 30.16 853.418 31.32 859.018 32.08C865.898 33 868.338 35.24 868.338 38.8C868.338 43.24 863.658 45.88 857.978 45.88C851.858 45.88 847.938 42.92 847.658 38.92H851.698C851.938 40.72 854.018 42.52 858.098 42.52C861.618 42.52 864.298 41.08 864.298 39.04C864.298 37.16 862.538 36.08 857.058 35.36C850.818 34.52 847.938 32.52 847.938 28.52C847.938 24.48 852.218 21.88 857.818 21.88ZM873.545 12.28H877.665V25.92C878.625 24.24 881.225 21.88 885.425 21.88C890.825 21.88 894.625 25.76 894.625 31.92V45.32H890.505V32.64C890.505 28 888.265 25.48 884.545 25.48C880.545 25.48 877.665 29.24 877.665 33.48V45.32H873.545V12.28ZM910.856 45.88C904.176 45.88 899.376 40.76 899.376 33.88C899.376 27 904.176 21.88 910.856 21.88C917.536 21.88 922.296 27 922.296 33.88C922.296 34.4 922.296 35 922.216 35.56H903.496C903.936 39.48 906.776 42.4 910.856 42.4C913.976 42.4 916.416 40.96 917.256 39.08H921.456C920.216 43.04 916.096 45.88 910.856 45.88ZM918.256 32.2C917.776 28.2 914.976 25.36 910.856 25.36C906.736 25.36 903.936 28.24 903.496 32.2H918.256ZM927.529 22.44H931.649V25.96C932.649 24.24 935.409 21.88 939.889 21.88C941.289 21.88 942.209 22 943.009 22.28V26.2C942.129 25.8 941.009 25.56 939.609 25.56C934.929 25.56 931.649 29.32 931.649 33.48V45.32H927.529V22.44ZM949.139 11.88C950.739 11.88 951.899 13.04 951.899 14.6C951.899 16.16 950.739 17.32 949.139 17.32C947.579 17.32 946.419 16.16 946.419 14.6C946.419 13.04 947.579 11.88 949.139 11.88ZM951.219 45.36H947.099V22.44H951.219V45.36ZM967.965 45.88C961.285 45.88 956.485 40.76 956.485 33.88C956.485 27 961.285 21.88 967.965 21.88C974.645 21.88 979.405 27 979.405 33.88C979.405 34.4 979.405 35 979.325 35.56H960.605C961.045 39.48 963.885 42.4 967.965 42.4C971.085 42.4 973.525 40.96 974.365 39.08H978.565C977.325 43.04 973.205 45.88 967.965 45.88ZM975.365 32.2C974.885 28.2 972.085 25.36 967.965 25.36C963.845 25.36 961.045 28.24 960.605 32.2H975.365ZM993.638 21.88C999.238 21.88 1003.44 24.64 1003.64 28.52H999.598C999.438 26.6 996.838 25.24 993.518 25.24C990.198 25.24 987.798 26.56 987.798 28.28C987.798 30.16 989.238 31.32 994.838 32.08C1001.72 33 1004.16 35.24 1004.16 38.8C1004.16 43.24 999.478 45.88 993.798 45.88C987.678 45.88 983.758 42.92 983.478 38.92H987.518C987.758 40.72 989.838 42.52 993.918 42.52C997.438 42.52 1000.12 41.08 1000.12 39.04C1000.12 37.16 998.358 36.08 992.878 35.36C986.638 34.52 983.758 32.52 983.758 28.52C983.758 24.48 988.038 21.88 993.638 21.88ZM1048.18 45.36H1042.82L1040.38 42.72C1037.78 44.8 1034.5 46.04 1030.9 46.04C1023.74 46.04 1019.3 42.6 1019.3 37.56C1019.3 33.12 1022.86 30.48 1027.06 28.4C1024.86 25.96 1023.06 23.56 1023.06 20.56C1023.06 15.76 1027.18 12.48 1032.62 12.48C1038.18 12.48 1041.9 15.64 1041.9 19.92C1041.9 24.72 1037.98 27.16 1033.3 29.36L1040.54 37.16C1041.86 35.16 1042.66 32.8 1042.94 30.4H1046.78C1046.42 34.04 1045.1 37.32 1043.1 39.92L1048.18 45.36ZM1032.66 15.64C1029.58 15.64 1027.18 17.6 1027.18 20.36C1027.18 22.68 1028.58 24.36 1030.82 26.72C1034.78 24.92 1037.86 23.24 1037.86 20.12C1037.86 17.44 1035.7 15.64 1032.66 15.64ZM1031.14 42.56C1033.74 42.56 1036.06 41.6 1037.9 40.08L1029.58 31.12C1025.86 33 1023.46 34.64 1023.46 37.36C1023.46 40.48 1026.38 42.56 1031.14 42.56ZM1064.17 13.28H1086.57V17.04H1068.37V27.96L1084.81 27.92V31.68H1068.37V45.32H1064.17V13.28ZM1100.63 21.88C1107.39 21.88 1112.31 27 1112.31 33.88C1112.31 40.76 1107.39 45.88 1100.63 45.88C1093.83 45.88 1088.91 40.76 1088.91 33.88C1088.91 27 1093.83 21.88 1100.63 21.88ZM1100.63 25.52C1096.07 25.52 1092.95 29.12 1092.95 33.88C1092.95 38.64 1096.07 42.24 1100.63 42.24C1105.15 42.24 1108.27 38.64 1108.27 33.88C1108.27 29.12 1105.15 25.52 1100.63 25.52ZM1128.09 21.88C1134.85 21.88 1139.77 27 1139.77 33.88C1139.77 40.76 1134.85 45.88 1128.09 45.88C1121.29 45.88 1116.37 40.76 1116.37 33.88C1116.37 27 1121.29 21.88 1128.09 21.88ZM1128.09 25.52C1123.53 25.52 1120.41 29.12 1120.41 33.88C1120.41 38.64 1123.53 42.24 1128.09 42.24C1132.61 42.24 1135.73 38.64 1135.73 33.88C1135.73 29.12 1132.61 25.52 1128.09 25.52ZM1155.15 45.88C1148.67 45.88 1143.83 40.72 1143.83 33.88C1143.83 27.04 1148.67 21.88 1155.15 21.88C1159.31 21.88 1162.11 23.88 1163.27 25.84V12.28H1167.39V45.32H1163.27V41.92C1162.11 43.88 1159.31 45.88 1155.15 45.88ZM1155.51 42.24C1160.15 42.24 1163.35 38.64 1163.35 33.88C1163.35 29.12 1160.15 25.52 1155.51 25.52C1150.91 25.52 1147.87 29.12 1147.87 33.88C1147.87 38.64 1150.91 42.24 1155.51 42.24ZM1200.67 46.04C1190.99 46.04 1183.87 38.96 1183.87 29.28C1183.87 19.6 1190.99 12.52 1200.67 12.52C1208.95 12.52 1214.67 17.32 1216.35 24.04H1212.07C1210.71 19.52 1206.59 16.4 1200.75 16.4C1193.39 16.4 1188.07 21.76 1188.07 29.28C1188.07 36.76 1193.43 42.16 1200.75 42.16C1206.75 42.16 1211.23 38.64 1212.39 34.08H1216.67C1215.27 40.76 1209.15 46.04 1200.67 46.04ZM1232.35 21.88C1239.11 21.88 1244.03 27 1244.03 33.88C1244.03 40.76 1239.11 45.88 1232.35 45.88C1225.55 45.88 1220.63 40.76 1220.63 33.88C1220.63 27 1225.55 21.88 1232.35 21.88ZM1232.35 25.52C1227.79 25.52 1224.67 29.12 1224.67 33.88C1224.67 38.64 1227.79 42.24 1232.35 42.24C1236.87 42.24 1239.99 38.64 1239.99 33.88C1239.99 29.12 1236.87 25.52 1232.35 25.52ZM1249.29 22.44H1253.41V25.96C1254.41 24.24 1257.17 21.88 1261.65 21.88C1263.05 21.88 1263.97 22 1264.77 22.28V26.2C1263.89 25.8 1262.77 25.56 1261.37 25.56C1256.69 25.56 1253.41 29.32 1253.41 33.48V45.32H1249.29V22.44ZM1281.1 45.88C1276.94 45.88 1274.14 43.88 1272.98 41.92V55.04H1268.86V22.44H1272.98V25.84C1274.14 23.88 1276.94 21.88 1281.1 21.88C1287.58 21.88 1292.42 27.04 1292.42 33.88C1292.42 40.72 1287.58 45.88 1281.1 45.88ZM1280.74 42.24C1285.34 42.24 1288.38 38.64 1288.38 33.88C1288.38 29.12 1285.34 25.52 1280.74 25.52C1276.1 25.52 1272.9 29.12 1272.9 33.88C1272.9 38.64 1276.1 42.24 1280.74 42.24ZM1308.21 21.88C1314.97 21.88 1319.89 27 1319.89 33.88C1319.89 40.76 1314.97 45.88 1308.21 45.88C1301.41 45.88 1296.49 40.76 1296.49 33.88C1296.49 27 1301.41 21.88 1308.21 21.88ZM1308.21 25.52C1303.65 25.52 1300.53 29.12 1300.53 33.88C1300.53 38.64 1303.65 42.24 1308.21 42.24C1312.73 42.24 1315.85 38.64 1315.85 33.88C1315.85 29.12 1312.73 25.52 1308.21 25.52ZM1325.15 22.44H1329.27V25.96C1330.27 24.24 1333.03 21.88 1337.51 21.88C1338.91 21.88 1339.83 22 1340.63 22.28V26.2C1339.75 25.8 1338.63 25.56 1337.23 25.56C1332.55 25.56 1329.27 29.32 1329.27 33.48V45.32H1325.15V22.44ZM1353.63 45.88C1347.15 45.88 1342.31 40.72 1342.31 33.88C1342.31 27.04 1347.15 21.88 1353.63 21.88C1357.79 21.88 1360.59 23.88 1361.75 25.84V22.44H1365.87V45.32H1361.75V41.92C1360.59 43.88 1357.79 45.88 1353.63 45.88ZM1353.99 42.24C1358.63 42.24 1361.83 38.64 1361.83 33.88C1361.83 29.12 1358.63 25.52 1353.99 25.52C1349.39 25.52 1346.35 29.12 1346.35 33.88C1346.35 38.64 1349.39 42.24 1353.99 42.24ZM1384.33 22.44V26.08H1379.25V45.32H1375.13V26.08H1370.05V22.44H1375.13V15.48H1379.25V22.44H1384.33ZM1390.62 11.88C1392.22 11.88 1393.38 13.04 1393.38 14.6C1393.38 16.16 1392.22 17.32 1390.62 17.32C1389.06 17.32 1387.9 16.16 1387.9 14.6C1387.9 13.04 1389.06 11.88 1390.62 11.88ZM1392.7 45.36H1388.58V22.44H1392.7V45.36ZM1409.69 21.88C1416.45 21.88 1421.37 27 1421.37 33.88C1421.37 40.76 1416.45 45.88 1409.69 45.88C1402.89 45.88 1397.97 40.76 1397.97 33.88C1397.97 27 1402.89 21.88 1409.69 21.88ZM1409.69 25.52C1405.13 25.52 1402.01 29.12 1402.01 33.88C1402.01 38.64 1405.13 42.24 1409.69 42.24C1414.21 42.24 1417.33 38.64 1417.33 33.88C1417.33 29.12 1414.21 25.52 1409.69 25.52ZM1426.63 22.44H1430.75V25.92C1431.71 24.24 1434.31 21.88 1438.51 21.88C1443.91 21.88 1447.71 25.76 1447.71 31.92V45.32H1443.59V32.64C1443.59 28 1441.35 25.48 1437.63 25.48C1433.63 25.48 1430.75 29.24 1430.75 33.48V45.32H1426.63V22.44ZM50.88 73H58.16V99.16H74.44V105.6H50.88V73ZM88.7503 106.16C81.5903 106.16 76.5503 101.04 76.5503 93.88C76.5503 86.76 81.5903 81.6 88.7503 81.6C95.9103 81.6 100.95 86.72 100.95 93.88C100.95 94.56 100.91 95.32 100.79 96.16H83.6303C84.1903 98.88 86.0703 100.44 88.7503 100.44C90.7903 100.44 92.4703 99.72 93.0703 98.6H100.23C99.0303 103.08 94.4303 106.16 88.7503 106.16ZM83.5903 91.56H93.9903C93.3903 88.76 91.5503 87.24 88.7503 87.24C85.9503 87.24 84.1903 88.76 83.5903 91.56ZM115.333 106.16C108.613 106.16 103.933 101 103.933 93.88C103.933 86.76 108.613 81.6 115.333 81.6C118.413 81.6 120.653 82.68 122.053 84.56V82.16H129.173V105.6H122.053V103.2C120.653 105.08 118.413 106.16 115.333 106.16ZM116.453 100.08C119.933 100.08 122.173 97.48 122.173 93.88C122.173 90.28 119.933 87.68 116.453 87.68C113.053 87.68 110.893 90.28 110.893 93.88C110.893 97.48 113.053 100.08 116.453 100.08ZM144.747 106.16C138.027 106.16 133.347 101 133.347 93.88C133.347 86.76 138.027 81.6 144.747 81.6C147.827 81.6 150.067 82.68 151.467 84.56V72H158.587V105.6H151.467V103.2C150.067 105.08 147.827 106.16 144.747 106.16ZM145.867 100.08C149.347 100.08 151.587 97.48 151.587 93.88C151.587 90.28 149.347 87.68 145.867 87.68C142.467 87.68 140.307 90.28 140.307 93.88C140.307 97.48 142.467 100.08 145.867 100.08ZM167.521 70.84C170.041 70.84 171.881 72.68 171.881 75.2C171.881 77.72 170.041 79.56 167.521 79.56C165.001 79.56 163.161 77.72 163.161 75.2C163.161 72.68 165.001 70.84 167.521 70.84ZM171.081 82.16V105.68H163.961V82.16H171.081ZM176.422 105.6V82.16H183.542V84.56C184.942 82.68 187.102 81.6 190.102 81.6C195.542 81.6 199.262 85.56 199.262 92.04V105.6H192.142V93.24C192.142 89.68 190.702 87.72 188.022 87.72C185.222 87.72 183.542 89.92 183.542 93.56V105.6H176.422ZM216.038 115.92C209.078 115.92 205.238 111.96 204.478 107.44H211.678C212.038 108.96 213.398 109.92 216.038 109.92C218.998 109.92 220.998 108 220.998 105.08V102.6C219.598 104.48 217.358 105.56 214.278 105.56C207.558 105.56 202.878 100.56 202.878 93.68C202.878 86.68 207.558 81.6 214.278 81.6C217.358 81.6 219.598 82.68 220.998 84.56V82.16H228.118V105.16C228.118 111.52 223.038 115.92 216.038 115.92ZM215.398 99.68C218.878 99.68 221.118 97.16 221.118 93.68C221.118 90.2 218.878 87.68 215.398 87.68C211.998 87.68 209.838 90.2 209.838 93.68C209.838 97.16 211.998 99.68 215.398 99.68ZM244.903 73H252.183V105.6H244.903V73ZM257.75 105.6V82.16H264.87V84.56C266.27 82.68 268.43 81.6 271.43 81.6C276.87 81.6 280.59 85.56 280.59 92.04V105.6H273.47V93.24C273.47 89.68 272.03 87.72 269.35 87.72C266.55 87.72 264.87 89.92 264.87 93.56V105.6H257.75ZM295.207 81.6C301.047 81.6 305.647 84.56 305.927 89.2H299.047C298.807 87.76 297.167 86.88 295.087 86.88C292.927 86.88 291.367 87.64 291.367 88.68C291.367 89.84 292.927 90.4 296.927 91.04C303.847 92.08 306.327 94.36 306.327 98.4C306.327 103.2 301.287 106.16 295.327 106.16C289.207 106.16 284.567 103.12 284.327 98.2H291.207C291.447 99.72 293.207 100.72 295.447 100.72C297.727 100.72 299.407 99.88 299.407 98.8C299.407 97.68 297.807 96.96 293.767 96.36C288.167 95.52 284.487 93.8 284.487 89.04C284.487 84.48 289.247 81.6 295.207 81.6ZM324.649 82.16V88.28H320.009V105.6H312.889V88.28H308.249V82.16H312.889V75.2H320.009V82.16H324.649ZM331.545 70.84C334.065 70.84 335.905 72.68 335.905 75.2C335.905 77.72 334.065 79.56 331.545 79.56C329.025 79.56 327.185 77.72 327.185 75.2C327.185 72.68 329.025 70.84 331.545 70.84ZM335.105 82.16V105.68H327.985V82.16H335.105ZM354.806 82.16V88.28H350.166V105.6H343.046V88.28H338.406V82.16H343.046V75.2H350.166V82.16H354.806ZM366.941 106.16C361.501 106.16 357.781 102.2 357.781 95.72V82.16H364.901V94.52C364.901 98.08 366.341 100.04 369.021 100.04C371.821 100.04 373.501 97.84 373.501 94.2V82.16H380.621V105.6H373.501V103.2C372.101 105.08 369.941 106.16 366.941 106.16ZM400.353 82.16V88.28H395.713V105.6H388.592V88.28H383.953V82.16H388.592V75.2H395.713V82.16H400.353ZM407.248 70.84C409.768 70.84 411.608 72.68 411.608 75.2C411.608 77.72 409.768 79.56 407.248 79.56C404.728 79.56 402.888 77.72 402.888 75.2C402.888 72.68 404.728 70.84 407.248 70.84ZM410.808 82.16V105.68H403.688V82.16H410.808ZM427.389 81.6C434.629 81.6 439.829 86.76 439.829 93.88C439.829 101 434.629 106.16 427.389 106.16C420.149 106.16 414.949 101 414.949 93.88C414.949 86.76 420.149 81.6 427.389 81.6ZM427.389 87.68C424.029 87.68 421.829 90.28 421.829 93.88C421.829 97.48 424.029 100.08 427.389 100.08C430.749 100.08 432.949 97.48 432.949 93.88C432.949 90.28 430.749 87.68 427.389 87.68ZM444 105.6V82.16H451.12V84.56C452.52 82.68 454.68 81.6 457.68 81.6C463.12 81.6 466.84 85.56 466.84 92.04V105.6H459.72V93.24C459.72 89.68 458.28 87.72 455.6 87.72C452.8 87.72 451.12 89.92 451.12 93.56V105.6H444ZM496.508 82.16V88.28H492.028V105.6H484.908V88.28H480.988V82.16H484.908V79.84C484.908 75.24 487.788 71.84 492.868 71.84C494.068 71.84 495.228 71.92 496.108 72.08V78.04C495.588 77.96 494.788 77.96 494.268 77.96C492.868 77.96 492.028 78.84 492.028 80.24V82.16H496.508ZM510.631 81.6C517.871 81.6 523.071 86.76 523.071 93.88C523.071 101 517.871 106.16 510.631 106.16C503.391 106.16 498.191 101 498.191 93.88C498.191 86.76 503.391 81.6 510.631 81.6ZM510.631 87.68C507.271 87.68 505.071 90.28 505.071 93.88C505.071 97.48 507.271 100.08 510.631 100.08C513.991 100.08 516.191 97.48 516.191 93.88C516.191 90.28 513.991 87.68 510.631 87.68ZM527.243 105.6V82.16H534.363V84.56C535.763 82.68 537.923 81.6 540.923 81.6C542.243 81.6 543.083 81.68 544.003 82L544.083 88.68C543.083 88.16 541.843 87.88 540.443 87.88C536.643 87.88 534.363 90.04 534.363 93.6V105.6H527.243ZM558.888 105.6V73H582.808V79.4H566.168V86.8H580.968V93.12H566.168V105.6H558.888ZM595.418 106.16C589.978 106.16 586.258 102.2 586.258 95.72V82.16H593.378V94.52C593.378 98.08 594.818 100.04 597.498 100.04C600.298 100.04 601.978 97.84 601.978 94.2V82.16H609.098V105.6H601.978V103.2C600.578 105.08 598.418 106.16 595.418 106.16ZM628.829 82.16V88.28H624.189V105.6H617.069V88.28H612.429V82.16H617.069V75.2H624.189V82.16H628.829ZM640.964 106.16C635.524 106.16 631.804 102.2 631.804 95.72V82.16H638.924V94.52C638.924 98.08 640.364 100.04 643.044 100.04C645.844 100.04 647.524 97.84 647.524 94.2V82.16H654.644V105.6H647.524V103.2C646.124 105.08 643.964 106.16 640.964 106.16ZM660.016 105.6V82.16H667.136V84.56C668.536 82.68 670.696 81.6 673.696 81.6C675.016 81.6 675.856 81.68 676.776 82L676.856 88.68C675.856 88.16 674.616 87.88 673.216 87.88C669.416 87.88 667.136 90.04 667.136 93.6V105.6H660.016ZM690.391 106.16C683.231 106.16 678.191 101.04 678.191 93.88C678.191 86.76 683.231 81.6 690.391 81.6C697.551 81.6 702.591 86.72 702.591 93.88C702.591 94.56 702.551 95.32 702.431 96.16H685.271C685.831 98.88 687.711 100.44 690.391 100.44C692.431 100.44 694.111 99.72 694.711 98.6H701.871C700.671 103.08 696.071 106.16 690.391 106.16ZM685.231 91.56H695.631C695.031 88.76 693.191 87.24 690.391 87.24C687.591 87.24 685.831 88.76 685.231 91.56ZM705.894 86.96H721.214V92.96H705.894V86.96ZM742.04 106.4C731.92 106.4 724.44 99.16 724.44 89.28C724.44 79.4 731.92 72.16 742.04 72.16C752.16 72.16 759.64 79.4 759.64 89.28C759.64 99.16 752.16 106.4 742.04 106.4ZM742.04 99.84C747.96 99.84 752.36 95.4 752.36 89.28C752.36 83.12 747.96 78.72 742.04 78.72C736.12 78.72 731.72 83.12 731.72 89.28C731.72 95.4 736.12 99.84 742.04 99.84ZM763.766 105.6V82.16H770.886V84.56C772.286 82.68 774.446 81.6 777.446 81.6C778.766 81.6 779.606 81.68 780.526 82L780.606 88.68C779.606 88.16 778.366 87.88 776.966 87.88C773.166 87.88 770.886 90.04 770.886 93.6V105.6H763.766ZM787.56 70.84C790.08 70.84 791.92 72.68 791.92 75.2C791.92 77.72 790.08 79.56 787.56 79.56C785.04 79.56 783.2 77.72 783.2 75.2C783.2 72.68 785.04 70.84 787.56 70.84ZM791.12 82.16V105.68H784V82.16H791.12ZM807.461 106.16C800.301 106.16 795.261 101.04 795.261 93.88C795.261 86.76 800.301 81.6 807.461 81.6C814.621 81.6 819.661 86.72 819.661 93.88C819.661 94.56 819.621 95.32 819.501 96.16H802.341C802.901 98.88 804.781 100.44 807.461 100.44C809.501 100.44 811.181 99.72 811.781 98.6H818.941C817.741 103.08 813.141 106.16 807.461 106.16ZM802.301 91.56H812.701C812.101 88.76 810.261 87.24 807.461 87.24C804.661 87.24 802.901 88.76 802.301 91.56ZM823.844 105.6V82.16H830.964V84.56C832.364 82.68 834.524 81.6 837.524 81.6C842.964 81.6 846.684 85.56 846.684 92.04V105.6H839.564V93.24C839.564 89.68 838.124 87.72 835.444 87.72C832.644 87.72 830.964 89.92 830.964 93.56V105.6H823.844ZM865.509 82.16V88.28H860.869V105.6H853.749V88.28H849.109V82.16H853.749V75.2H860.869V82.16H865.509ZM879.336 106.16C872.176 106.16 867.136 101.04 867.136 93.88C867.136 86.76 872.176 81.6 879.336 81.6C886.496 81.6 891.536 86.72 891.536 93.88C891.536 94.56 891.496 95.32 891.376 96.16H874.216C874.776 98.88 876.656 100.44 879.336 100.44C881.376 100.44 883.056 99.72 883.656 98.6H890.816C889.616 103.08 885.016 106.16 879.336 106.16ZM874.176 91.56H884.576C883.976 88.76 882.136 87.24 879.336 87.24C876.536 87.24 874.776 88.76 874.176 91.56ZM905.919 106.16C899.199 106.16 894.519 101 894.519 93.88C894.519 86.76 899.199 81.6 905.919 81.6C908.999 81.6 911.239 82.68 912.639 84.56V72H919.759V105.6H912.639V103.2C911.239 105.08 908.999 106.16 905.919 106.16ZM907.039 100.08C910.519 100.08 912.759 97.48 912.759 93.88C912.759 90.28 910.519 87.68 907.039 87.68C903.639 87.68 901.479 90.28 901.479 93.88C901.479 97.48 903.639 100.08 907.039 100.08ZM936.544 105.6V73H949.064C957.544 73 962.504 77.72 962.504 84.92C962.504 92.2 957.544 96.92 949.064 96.92H943.824V105.6H936.544ZM943.824 90.48H948.744C952.784 90.48 955.224 88.56 955.224 84.92C955.224 81.32 952.784 79.44 948.744 79.44H943.824V90.48ZM975.027 106.16C969.587 106.16 965.867 102.2 965.867 95.72V82.16H972.987V94.52C972.987 98.08 974.427 100.04 977.107 100.04C979.907 100.04 981.587 97.84 981.587 94.2V82.16H988.707V105.6H981.587V103.2C980.187 105.08 978.027 106.16 975.027 106.16ZM1007.92 106.16C1004.84 106.16 1002.6 105.08 1001.2 103.2V105.6H994.078V72H1001.2V84.56C1002.6 82.68 1004.84 81.6 1007.92 81.6C1014.64 81.6 1019.32 86.76 1019.32 93.88C1019.32 101 1014.64 106.16 1007.92 106.16ZM1006.8 100.08C1010.2 100.08 1012.36 97.48 1012.36 93.88C1012.36 90.28 1010.2 87.68 1006.8 87.68C1003.32 87.68 1001.08 90.28 1001.08 93.88C1001.08 97.48 1003.32 100.08 1006.8 100.08ZM1030.61 72V105.6H1023.49V72H1030.61ZM1039.51 70.84C1042.03 70.84 1043.87 72.68 1043.87 75.2C1043.87 77.72 1042.03 79.56 1039.51 79.56C1036.99 79.56 1035.15 77.72 1035.15 75.2C1035.15 72.68 1036.99 70.84 1039.51 70.84ZM1043.07 82.16V105.68H1035.95V82.16H1043.07ZM1071.33 97.16C1070.13 102.6 1065.57 106.16 1059.65 106.16C1052.41 106.16 1047.21 101 1047.21 93.88C1047.21 86.76 1052.41 81.6 1059.65 81.6C1065.77 81.6 1070.37 85.52 1071.21 90.52H1064.01C1063.45 88.92 1061.89 87.8 1059.65 87.8C1056.33 87.8 1054.17 90.36 1054.17 93.88C1054.17 97.4 1056.33 99.96 1059.65 99.96C1061.85 99.96 1063.49 98.84 1064.13 97.16H1071.33ZM1122.02 73H1129.46L1120.06 105.6H1112.7L1106.86 85.16L1101.02 105.6H1093.66L1084.26 73H1092.06L1097.66 94.32L1103.26 73H1110.82L1116.38 94.24L1122.02 73ZM1132.71 105.6V72H1139.83V84.56C1141.23 82.68 1143.39 81.6 1146.39 81.6C1151.83 81.6 1155.55 85.56 1155.55 92.04V105.6H1148.43V93.24C1148.43 89.68 1146.99 87.72 1144.31 87.72C1141.51 87.72 1139.83 89.92 1139.83 93.56V105.6H1132.71ZM1171.61 81.6C1178.85 81.6 1184.05 86.76 1184.05 93.88C1184.05 101 1178.85 106.16 1171.61 106.16C1164.37 106.16 1159.17 101 1159.17 93.88C1159.17 86.76 1164.37 81.6 1171.61 81.6ZM1171.61 87.68C1168.25 87.68 1166.05 90.28 1166.05 93.88C1166.05 97.48 1168.25 100.08 1171.61 100.08C1174.97 100.08 1177.17 97.48 1177.17 93.88C1177.17 90.28 1174.97 87.68 1171.61 87.68ZM1195.34 72V105.6H1188.22V72H1195.34ZM1211.68 106.16C1204.52 106.16 1199.48 101.04 1199.48 93.88C1199.48 86.76 1204.52 81.6 1211.68 81.6C1218.84 81.6 1223.88 86.72 1223.88 93.88C1223.88 94.56 1223.84 95.32 1223.72 96.16H1206.56C1207.12 98.88 1209 100.44 1211.68 100.44C1213.72 100.44 1215.4 99.72 1216 98.6H1223.16C1221.96 103.08 1217.36 106.16 1211.68 106.16ZM1206.52 91.56H1216.92C1216.32 88.76 1214.48 87.24 1211.68 87.24C1208.88 87.24 1207.12 88.76 1206.52 91.56ZM1237.86 81.6C1243.7 81.6 1248.3 84.56 1248.58 89.2H1241.7C1241.46 87.76 1239.82 86.88 1237.74 86.88C1235.58 86.88 1234.02 87.64 1234.02 88.68C1234.02 89.84 1235.58 90.4 1239.58 91.04C1246.5 92.08 1248.98 94.36 1248.98 98.4C1248.98 103.2 1243.94 106.16 1237.98 106.16C1231.86 106.16 1227.22 103.12 1226.98 98.2H1233.86C1234.1 99.72 1235.86 100.72 1238.1 100.72C1240.38 100.72 1242.06 99.88 1242.06 98.8C1242.06 97.68 1240.46 96.96 1236.42 96.36C1230.82 95.52 1227.14 93.8 1227.14 89.04C1227.14 84.48 1231.9 81.6 1237.86 81.6ZM1263.38 106.16C1256.66 106.16 1251.98 101 1251.98 93.88C1251.98 86.76 1256.66 81.6 1263.38 81.6C1266.46 81.6 1268.7 82.68 1270.1 84.56V82.16H1277.22V105.6H1270.1V103.2C1268.7 105.08 1266.46 106.16 1263.38 106.16ZM1264.5 100.08C1267.98 100.08 1270.22 97.48 1270.22 93.88C1270.22 90.28 1267.98 87.68 1264.5 87.68C1261.1 87.68 1258.94 90.28 1258.94 93.88C1258.94 97.48 1261.1 100.08 1264.5 100.08ZM1289.71 72V105.6H1282.59V72H1289.71ZM1306.06 106.16C1298.9 106.16 1293.86 101.04 1293.86 93.88C1293.86 86.76 1298.9 81.6 1306.06 81.6C1313.22 81.6 1318.26 86.72 1318.26 93.88C1318.26 94.56 1318.22 95.32 1318.1 96.16H1300.94C1301.5 98.88 1303.38 100.44 1306.06 100.44C1308.1 100.44 1309.78 99.72 1310.38 98.6H1317.54C1316.34 103.08 1311.74 106.16 1306.06 106.16ZM1300.9 91.56H1311.3C1310.7 88.76 1308.86 87.24 1306.06 87.24C1303.26 87.24 1301.5 88.76 1300.9 91.56ZM1333.85 105.6V73H1339.65L1350.89 91.24L1362.13 73H1367.93V105.6H1360.65V87.72L1353.09 100.24H1348.69L1341.13 87.72V105.6H1333.85ZM1383.69 106.16C1376.97 106.16 1372.29 101 1372.29 93.88C1372.29 86.76 1376.97 81.6 1383.69 81.6C1386.77 81.6 1389.01 82.68 1390.41 84.56V82.16H1397.53V105.6H1390.41V103.2C1389.01 105.08 1386.77 106.16 1383.69 106.16ZM1384.81 100.08C1388.29 100.08 1390.53 97.48 1390.53 93.88C1390.53 90.28 1388.29 87.68 1384.81 87.68C1381.41 87.68 1379.25 90.28 1379.25 93.88C1379.25 97.48 1381.41 100.08 1384.81 100.08ZM1402.91 105.6V82.16H1410.03V84.56C1411.43 82.68 1413.59 81.6 1416.59 81.6C1417.91 81.6 1418.75 81.68 1419.67 82L1419.75 88.68C1418.75 88.16 1417.51 87.88 1416.11 87.88C1412.31 87.88 1410.03 90.04 1410.03 93.6V105.6H1402.91ZM1438.82 105.6L1433.1 97L1430.26 100.2V105.6H1423.14V72H1430.26V91.72L1438.54 82.16H1446.46L1437.46 92.16L1446.94 105.6H1438.82ZM1459.14 106.16C1451.98 106.16 1446.94 101.04 1446.94 93.88C1446.94 86.76 1451.98 81.6 1459.14 81.6C1466.3 81.6 1471.34 86.72 1471.34 93.88C1471.34 94.56 1471.3 95.32 1471.18 96.16H1454.02C1454.58 98.88 1456.46 100.44 1459.14 100.44C1461.18 100.44 1462.86 99.72 1463.46 98.6H1470.62C1469.42 103.08 1464.82 106.16 1459.14 106.16ZM1453.98 91.56H1464.38C1463.78 88.76 1461.94 87.24 1459.14 87.24C1456.34 87.24 1454.58 88.76 1453.98 91.56ZM1489.38 82.16V88.28H1484.74V105.6H1477.62V88.28H1472.98V82.16H1477.62V75.2H1484.74V82.16H1489.38ZM1502.28 81.6C1508.12 81.6 1512.72 84.56 1513 89.2H1506.12C1505.88 87.76 1504.24 86.88 1502.16 86.88C1500 86.88 1498.44 87.64 1498.44 88.68C1498.44 89.84 1500 90.4 1504 91.04C1510.92 92.08 1513.4 94.36 1513.4 98.4C1513.4 103.2 1508.36 106.16 1502.4 106.16C1496.28 106.16 1491.64 103.12 1491.4 98.2H1498.28C1498.52 99.72 1500.28 100.72 1502.52 100.72C1504.8 100.72 1506.48 99.88 1506.48 98.8C1506.48 97.68 1504.88 96.96 1500.84 96.36C1495.24 95.52 1491.56 93.8 1491.56 89.04C1491.56 84.48 1496.32 81.6 1502.28 81.6Z" fill="white"/>
<line x1="3" y1="11" x2="3" y2="102" stroke="white" stroke-width="6"/>
</svg>
