<svg width="840" height="240" viewBox="0 0 840 240" fill="none" xmlns="http://www.w3.org/2000/svg">
<path d="M51.44 13.28H62.8C73.84 13.28 80.24 19.76 80.24 29.32C80.24 38.88 73.84 45.32 62.8 45.32H51.44V13.28ZM62.92 41.52C71.04 41.52 76 37.12 76 29.32C76 21.52 71.04 17.04 62.92 17.04H55.64V41.52H62.92ZM87.6159 11.88C89.2159 11.88 90.3759 13.04 90.3759 14.6C90.3759 16.16 89.2159 17.32 87.6159 17.32C86.0559 17.32 84.8959 16.16 84.8959 14.6C84.8959 13.04 86.0559 11.88 87.6159 11.88ZM89.6959 45.36H85.5759V22.44H89.6959V45.36ZM105.162 21.88C110.762 21.88 114.962 24.64 115.162 28.52H111.122C110.962 26.6 108.362 25.24 105.042 25.24C101.722 25.24 99.3219 26.56 99.3219 28.28C99.3219 30.16 100.762 31.32 106.362 32.08C113.242 33 115.682 35.24 115.682 38.8C115.682 43.24 111.002 45.88 105.322 45.88C99.2019 45.88 95.2819 42.92 95.0019 38.92H99.0419C99.2819 40.72 101.362 42.52 105.442 42.52C108.962 42.52 111.642 41.08 111.642 39.04C111.642 37.16 109.882 36.08 104.402 35.36C98.1619 34.52 95.2819 32.52 95.2819 28.52C95.2819 24.48 99.5619 21.88 105.162 21.88ZM132.654 22.44V26.08H127.574V45.32H123.454V26.08H118.374V22.44H123.454V15.48H127.574V22.44H132.654ZM136.904 22.44H141.024V25.96C142.024 24.24 144.784 21.88 149.264 21.88C150.664 21.88 151.584 22 152.384 22.28V26.2C151.504 25.8 150.384 25.56 148.984 25.56C144.304 25.56 141.024 29.32 141.024 33.48V45.32H136.904V22.44ZM158.514 11.88C160.114 11.88 161.274 13.04 161.274 14.6C161.274 16.16 160.114 17.32 158.514 17.32C156.954 17.32 155.794 16.16 155.794 14.6C155.794 13.04 156.954 11.88 158.514 11.88ZM160.594 45.36H156.474V22.44H160.594V45.36ZM179.3 45.88C175.14 45.88 172.34 43.88 171.18 41.92V45.32H167.06V12.28H171.18V25.84C172.34 23.88 175.14 21.88 179.3 21.88C185.78 21.88 190.62 27.04 190.62 33.88C190.62 40.72 185.78 45.88 179.3 45.88ZM178.94 42.24C183.54 42.24 186.58 38.64 186.58 33.88C186.58 29.12 183.54 25.52 178.94 25.52C174.3 25.52 171.1 29.12 171.1 33.88C171.1 38.64 174.3 42.24 178.94 42.24ZM216.448 45.32H212.328V41.84C211.368 43.52 208.768 45.88 204.568 45.88C199.168 45.88 195.368 42 195.368 35.84V22.44H199.488V35.12C199.488 39.76 201.728 42.28 205.448 42.28C209.448 42.28 212.328 38.52 212.328 34.28V22.44H216.448V45.32ZM234.92 22.44V26.08H229.84V45.32H225.72V26.08H220.64V22.44H225.72V15.48H229.84V22.44H234.92ZM241.21 11.88C242.81 11.88 243.97 13.04 243.97 14.6C243.97 16.16 242.81 17.32 241.21 17.32C239.65 17.32 238.49 16.16 238.49 14.6C238.49 13.04 239.65 11.88 241.21 11.88ZM243.29 45.36H239.17V22.44H243.29V45.36ZM260.276 21.88C267.036 21.88 271.956 27 271.956 33.88C271.956 40.76 267.036 45.88 260.276 45.88C253.476 45.88 248.556 40.76 248.556 33.88C248.556 27 253.476 21.88 260.276 21.88ZM260.276 25.52C255.716 25.52 252.596 29.12 252.596 33.88C252.596 38.64 255.716 42.24 260.276 42.24C264.796 42.24 267.916 38.64 267.916 33.88C267.916 29.12 264.796 25.52 260.276 25.52ZM277.217 22.44H281.337V25.92C282.297 24.24 284.897 21.88 289.097 21.88C294.497 21.88 298.297 25.76 298.297 31.92V45.32H294.177V32.64C294.177 28 291.937 25.48 288.217 25.48C284.217 25.48 281.337 29.24 281.337 33.48V45.32H277.217V22.44ZM319.742 13.28V45.32H315.542V13.28H319.742ZM326.435 22.44H330.555V25.92C331.515 24.24 334.115 21.88 338.315 21.88C343.715 21.88 347.515 25.76 347.515 31.92V45.32H343.395V32.64C343.395 28 341.155 25.48 337.435 25.48C333.435 25.48 330.555 29.24 330.555 33.48V45.32H326.435V22.44ZM353.349 22.44H357.469V25.92C358.429 24.24 361.029 21.88 365.229 21.88C370.629 21.88 374.429 25.76 374.429 31.92V45.32H370.309V32.64C370.309 28 368.069 25.48 364.349 25.48C360.349 25.48 357.469 29.24 357.469 33.48V45.32H353.349V22.44ZM390.783 21.88C397.543 21.88 402.463 27 402.463 33.88C402.463 40.76 397.543 45.88 390.783 45.88C383.983 45.88 379.063 40.76 379.063 33.88C379.063 27 383.983 21.88 390.783 21.88ZM390.783 25.52C386.223 25.52 383.103 29.12 383.103 33.88C383.103 38.64 386.223 42.24 390.783 42.24C395.303 42.24 398.423 38.64 398.423 33.88C398.423 29.12 395.303 25.52 390.783 25.52ZM423.752 22.44H427.992L418.312 45.32H413.952L404.312 22.44H408.792L416.272 40.64L423.752 22.44ZM440.774 45.88C434.294 45.88 429.454 40.72 429.454 33.88C429.454 27.04 434.294 21.88 440.774 21.88C444.934 21.88 447.734 23.88 448.894 25.84V22.44H453.014V45.32H448.894V41.92C447.734 43.88 444.934 45.88 440.774 45.88ZM441.134 42.24C445.774 42.24 448.974 38.64 448.974 33.88C448.974 29.12 445.774 25.52 441.134 25.52C436.534 25.52 433.494 29.12 433.494 33.88C433.494 38.64 436.534 42.24 441.134 42.24ZM471.482 22.44V26.08H466.402V45.32H462.282V26.08H457.202V22.44H462.282V15.48H466.402V22.44H471.482ZM477.772 11.88C479.372 11.88 480.532 13.04 480.532 14.6C480.532 16.16 479.372 17.32 477.772 17.32C476.212 17.32 475.052 16.16 475.052 14.6C475.052 13.04 476.212 11.88 477.772 11.88ZM479.852 45.36H475.732V22.44H479.852V45.36ZM496.838 21.88C503.598 21.88 508.518 27 508.518 33.88C508.518 40.76 503.598 45.88 496.838 45.88C490.038 45.88 485.118 40.76 485.118 33.88C485.118 27 490.038 21.88 496.838 21.88ZM496.838 25.52C492.278 25.52 489.158 29.12 489.158 33.88C489.158 38.64 492.278 42.24 496.838 42.24C501.358 42.24 504.478 38.64 504.478 33.88C504.478 29.12 501.358 25.52 496.838 25.52ZM513.779 22.44H517.899V25.92C518.859 24.24 521.459 21.88 525.659 21.88C531.059 21.88 534.859 25.76 534.859 31.92V45.32H530.739V32.64C530.739 28 528.499 25.48 524.779 25.48C520.779 25.48 517.899 29.24 517.899 33.48V45.32H513.779V22.44ZM562.424 21.88C569.184 21.88 574.104 27 574.104 33.88C574.104 40.76 569.184 45.88 562.424 45.88C555.624 45.88 550.704 40.76 550.704 33.88C550.704 27 555.624 21.88 562.424 21.88ZM562.424 25.52C557.864 25.52 554.744 29.12 554.744 33.88C554.744 38.64 557.864 42.24 562.424 42.24C566.944 42.24 570.064 38.64 570.064 33.88C570.064 29.12 566.944 25.52 562.424 25.52ZM590.143 22.44V26.08H585.063V45.32H580.943V26.08H576.423V22.44H580.943V18.56C580.943 14.76 583.143 12.12 587.063 12.12C588.063 12.12 589.023 12.2 589.743 12.36V15.84C589.183 15.72 588.383 15.72 587.783 15.72C586.103 15.72 585.063 16.8 585.063 18.68V22.44H590.143ZM617.342 22.44V26.08H612.262V45.32H608.142V26.08H603.062V22.44H608.142V15.48H612.262V22.44H617.342ZM621.592 12.28H625.712V25.92C626.672 24.24 629.272 21.88 633.472 21.88C638.872 21.88 642.672 25.76 642.672 31.92V45.32H638.552V32.64C638.552 28 636.312 25.48 632.592 25.48C628.592 25.48 625.712 29.24 625.712 33.48V45.32H621.592V12.28ZM658.903 45.88C652.223 45.88 647.423 40.76 647.423 33.88C647.423 27 652.223 21.88 658.903 21.88C665.583 21.88 670.343 27 670.343 33.88C670.343 34.4 670.343 35 670.263 35.56H651.543C651.983 39.48 654.823 42.4 658.903 42.4C662.023 42.4 664.463 40.96 665.303 39.08H669.503C668.263 43.04 664.143 45.88 658.903 45.88ZM666.303 32.2C665.823 28.2 663.023 25.36 658.903 25.36C654.783 25.36 651.983 28.24 651.543 32.2H666.303ZM75.04 105.32L71.84 97.4H56.44L53.24 105.32H48.84L62.04 73.28H66.48L79.64 105.32H75.04ZM57.92 93.68H70.36L64.16 78.2L57.92 93.68ZM93.8853 115.6C87.3253 115.6 83.8453 111.8 83.0453 107.48H87.2453C87.7253 109.92 89.7653 112.04 93.8853 112.04C98.0453 112.04 100.925 109.24 100.925 104.76V101.6C99.7653 103.56 96.9653 105.56 92.8053 105.56C86.3253 105.56 81.4853 100.48 81.4853 93.76C81.4853 87 86.3253 81.88 92.8053 81.88C96.9653 81.88 99.7653 83.88 100.925 85.84V82.44H105.045V104.8C105.045 111.12 100.445 115.6 93.8853 115.6ZM93.1653 102C97.8053 102 101.005 98.44 101.005 93.76C101.005 89.08 97.8053 85.52 93.1653 85.52C88.5653 85.52 85.5253 89.08 85.5253 93.76C85.5253 98.44 88.5653 102 93.1653 102ZM111.513 82.44H115.633V85.96C116.633 84.24 119.393 81.88 123.873 81.88C125.273 81.88 126.193 82 126.993 82.28V86.2C126.113 85.8 124.993 85.56 123.593 85.56C118.913 85.56 115.633 89.32 115.633 93.48V105.32H111.513V82.44ZM140.393 81.88C147.153 81.88 152.073 87 152.073 93.88C152.073 100.76 147.153 105.88 140.393 105.88C133.593 105.88 128.673 100.76 128.673 93.88C128.673 87 133.593 81.88 140.393 81.88ZM140.393 85.52C135.833 85.52 132.713 89.12 132.713 93.88C132.713 98.64 135.833 102.24 140.393 102.24C144.913 102.24 148.033 98.64 148.033 93.88C148.033 89.12 144.913 85.52 140.393 85.52ZM170.334 88.16V91.76H156.334V88.16H170.334ZM176.01 73.28H198.41V77.04H180.21V87.96L196.65 87.92V91.68H180.21V105.32H176.01V73.28ZM204.725 71.88C206.325 71.88 207.485 73.04 207.485 74.6C207.485 76.16 206.325 77.32 204.725 77.32C203.165 77.32 202.005 76.16 202.005 74.6C202.005 73.04 203.165 71.88 204.725 71.88ZM206.805 105.36H202.685V82.44H206.805V105.36ZM222.271 81.88C227.871 81.88 232.071 84.64 232.271 88.52H228.231C228.071 86.6 225.471 85.24 222.151 85.24C218.831 85.24 216.431 86.56 216.431 88.28C216.431 90.16 217.871 91.32 223.471 92.08C230.351 93 232.791 95.24 232.791 98.8C232.791 103.24 228.111 105.88 222.431 105.88C216.311 105.88 212.391 102.92 212.111 98.92H216.151C216.391 100.72 218.471 102.52 222.551 102.52C226.071 102.52 228.751 101.08 228.751 99.04C228.751 97.16 226.991 96.08 221.511 95.36C215.271 94.52 212.391 92.52 212.391 88.52C212.391 84.48 216.671 81.88 222.271 81.88ZM237.998 72.28H242.118V85.92C243.078 84.24 245.678 81.88 249.878 81.88C255.278 81.88 259.078 85.76 259.078 91.92V105.32H254.958V92.64C254.958 88 252.718 85.48 248.998 85.48C244.998 85.48 242.118 89.24 242.118 93.48V105.32H237.998V72.28ZM275.309 105.88C268.629 105.88 263.829 100.76 263.829 93.88C263.829 87 268.629 81.88 275.309 81.88C281.989 81.88 286.749 87 286.749 93.88C286.749 94.4 286.749 95 286.669 95.56H267.949C268.389 99.48 271.229 102.4 275.309 102.4C278.429 102.4 280.869 100.96 281.709 99.08H285.909C284.669 103.04 280.549 105.88 275.309 105.88ZM282.709 92.2C282.229 88.2 279.429 85.36 275.309 85.36C271.189 85.36 268.389 88.24 267.949 92.2H282.709ZM291.982 82.44H296.102V85.96C297.102 84.24 299.862 81.88 304.342 81.88C305.742 81.88 306.662 82 307.462 82.28V86.2C306.582 85.8 305.462 85.56 304.062 85.56C299.382 85.56 296.102 89.32 296.102 93.48V105.32H291.982V82.44ZM313.592 71.88C315.193 71.88 316.353 73.04 316.353 74.6C316.353 76.16 315.193 77.32 313.592 77.32C312.033 77.32 310.873 76.16 310.873 74.6C310.873 73.04 312.033 71.88 313.592 71.88ZM315.673 105.36H311.553V82.44H315.673V105.36ZM332.418 105.88C325.738 105.88 320.938 100.76 320.938 93.88C320.938 87 325.738 81.88 332.418 81.88C339.098 81.88 343.858 87 343.858 93.88C343.858 94.4 343.858 95 343.778 95.56H325.058C325.498 99.48 328.338 102.4 332.418 102.4C335.538 102.4 337.978 100.96 338.818 99.08H343.018C341.778 103.04 337.658 105.88 332.418 105.88ZM339.818 92.2C339.338 88.2 336.538 85.36 332.418 85.36C328.298 85.36 325.498 88.24 325.058 92.2H339.818ZM358.092 81.88C363.692 81.88 367.892 84.64 368.092 88.52H364.052C363.892 86.6 361.292 85.24 357.972 85.24C354.652 85.24 352.252 86.56 352.252 88.28C352.252 90.16 353.692 91.32 359.292 92.08C366.172 93 368.612 95.24 368.612 98.8C368.612 103.24 363.932 105.88 358.252 105.88C352.132 105.88 348.212 102.92 347.932 98.92H351.972C352.212 100.72 354.292 102.52 358.372 102.52C361.892 102.52 364.572 101.08 364.572 99.04C364.572 97.16 362.812 96.08 357.332 95.36C351.092 94.52 348.212 92.52 348.212 88.52C348.212 84.48 352.492 81.88 358.092 81.88ZM412.629 105.36H407.269L404.829 102.72C402.229 104.8 398.949 106.04 395.349 106.04C388.189 106.04 383.749 102.6 383.749 97.56C383.749 93.12 387.309 90.48 391.509 88.4C389.309 85.96 387.509 83.56 387.509 80.56C387.509 75.76 391.629 72.48 397.069 72.48C402.629 72.48 406.349 75.64 406.349 79.92C406.349 84.72 402.429 87.16 397.749 89.36L404.989 97.16C406.309 95.16 407.109 92.8 407.389 90.4H411.229C410.869 94.04 409.549 97.32 407.549 99.92L412.629 105.36ZM397.109 75.64C394.029 75.64 391.629 77.6 391.629 80.36C391.629 82.68 393.029 84.36 395.269 86.72C399.229 84.92 402.309 83.24 402.309 80.12C402.309 77.44 400.149 75.64 397.109 75.64ZM395.589 102.56C398.189 102.56 400.509 101.6 402.349 100.08L394.029 91.12C390.309 93 387.909 94.64 387.909 97.36C387.909 100.48 390.829 102.56 395.589 102.56ZM428.628 73.28H451.028V77.04H432.828V87.96L449.268 87.92V91.68H432.828V105.32H428.628V73.28ZM465.08 81.88C471.84 81.88 476.76 87 476.76 93.88C476.76 100.76 471.84 105.88 465.08 105.88C458.28 105.88 453.36 100.76 453.36 93.88C453.36 87 458.28 81.88 465.08 81.88ZM465.08 85.52C460.52 85.52 457.4 89.12 457.4 93.88C457.4 98.64 460.52 102.24 465.08 102.24C469.6 102.24 472.72 98.64 472.72 93.88C472.72 89.12 469.6 85.52 465.08 85.52ZM492.541 81.88C499.301 81.88 504.221 87 504.221 93.88C504.221 100.76 499.301 105.88 492.541 105.88C485.741 105.88 480.821 100.76 480.821 93.88C480.821 87 485.741 81.88 492.541 81.88ZM492.541 85.52C487.981 85.52 484.861 89.12 484.861 93.88C484.861 98.64 487.981 102.24 492.541 102.24C497.061 102.24 500.181 98.64 500.181 93.88C500.181 89.12 497.061 85.52 492.541 85.52ZM519.602 105.88C513.122 105.88 508.282 100.72 508.282 93.88C508.282 87.04 513.122 81.88 519.602 81.88C523.762 81.88 526.562 83.88 527.722 85.84V72.28H531.842V105.32H527.722V101.92C526.562 103.88 523.762 105.88 519.602 105.88ZM519.962 102.24C524.602 102.24 527.802 98.64 527.802 93.88C527.802 89.12 524.602 85.52 519.962 85.52C515.362 85.52 512.322 89.12 512.322 93.88C512.322 98.64 515.362 102.24 519.962 102.24ZM565.121 106.04C555.441 106.04 548.321 98.96 548.321 89.28C548.321 79.6 555.441 72.52 565.121 72.52C573.401 72.52 579.121 77.32 580.801 84.04H576.521C575.161 79.52 571.041 76.4 565.201 76.4C557.841 76.4 552.521 81.76 552.521 89.28C552.521 96.76 557.881 102.16 565.201 102.16C571.201 102.16 575.681 98.64 576.841 94.08H581.121C579.721 100.76 573.601 106.04 565.121 106.04ZM596.799 81.88C603.559 81.88 608.479 87 608.479 93.88C608.479 100.76 603.559 105.88 596.799 105.88C589.999 105.88 585.079 100.76 585.079 93.88C585.079 87 589.999 81.88 596.799 81.88ZM596.799 85.52C592.239 85.52 589.119 89.12 589.119 93.88C589.119 98.64 592.239 102.24 596.799 102.24C601.319 102.24 604.439 98.64 604.439 93.88C604.439 89.12 601.319 85.52 596.799 85.52ZM613.74 82.44H617.86V85.96C618.86 84.24 621.62 81.88 626.1 81.88C627.5 81.88 628.42 82 629.22 82.28V86.2C628.34 85.8 627.22 85.56 625.82 85.56C621.14 85.56 617.86 89.32 617.86 93.48V105.32H613.74V82.44ZM645.55 105.88C641.39 105.88 638.59 103.88 637.43 101.92V115.04H633.31V82.44H637.43V85.84C638.59 83.88 641.39 81.88 645.55 81.88C652.03 81.88 656.87 87.04 656.87 93.88C656.87 100.72 652.03 105.88 645.55 105.88ZM645.19 102.24C649.79 102.24 652.83 98.64 652.83 93.88C652.83 89.12 649.79 85.52 645.19 85.52C640.55 85.52 637.35 89.12 637.35 93.88C637.35 98.64 640.55 102.24 645.19 102.24ZM672.658 81.88C679.418 81.88 684.338 87 684.338 93.88C684.338 100.76 679.418 105.88 672.658 105.88C665.858 105.88 660.938 100.76 660.938 93.88C660.938 87 665.858 81.88 672.658 81.88ZM672.658 85.52C668.098 85.52 664.978 89.12 664.978 93.88C664.978 98.64 668.098 102.24 672.658 102.24C677.178 102.24 680.298 98.64 680.298 93.88C680.298 89.12 677.178 85.52 672.658 85.52ZM689.599 82.44H693.719V85.96C694.719 84.24 697.479 81.88 701.959 81.88C703.359 81.88 704.279 82 705.079 82.28V86.2C704.199 85.8 703.079 85.56 701.679 85.56C696.999 85.56 693.719 89.32 693.719 93.48V105.32H689.599V82.44ZM718.079 105.88C711.599 105.88 706.759 100.72 706.759 93.88C706.759 87.04 711.599 81.88 718.079 81.88C722.239 81.88 725.039 83.88 726.199 85.84V82.44H730.319V105.32H726.199V101.92C725.039 103.88 722.239 105.88 718.079 105.88ZM718.439 102.24C723.079 102.24 726.279 98.64 726.279 93.88C726.279 89.12 723.079 85.52 718.439 85.52C713.839 85.52 710.799 89.12 710.799 93.88C710.799 98.64 713.839 102.24 718.439 102.24ZM748.787 82.44V86.08H743.707V105.32H739.587V86.08H734.507V82.44H739.587V75.48H743.707V82.44H748.787ZM755.077 71.88C756.677 71.88 757.837 73.04 757.837 74.6C757.837 76.16 756.677 77.32 755.077 77.32C753.517 77.32 752.357 76.16 752.357 74.6C752.357 73.04 753.517 71.88 755.077 71.88ZM757.157 105.36H753.037V82.44H757.157V105.36ZM774.143 81.88C780.903 81.88 785.823 87 785.823 93.88C785.823 100.76 780.903 105.88 774.143 105.88C767.343 105.88 762.423 100.76 762.423 93.88C762.423 87 767.343 81.88 774.143 81.88ZM774.143 85.52C769.583 85.52 766.463 89.12 766.463 93.88C766.463 98.64 769.583 102.24 774.143 102.24C778.663 102.24 781.783 98.64 781.783 93.88C781.783 89.12 778.663 85.52 774.143 85.52ZM791.084 82.44H795.204V85.92C796.164 84.24 798.764 81.88 802.964 81.88C808.364 81.88 812.164 85.76 812.164 91.92V105.32H808.044V92.64C808.044 88 805.804 85.48 802.084 85.48C798.084 85.48 795.204 89.24 795.204 93.48V105.32H791.084V82.44ZM50.88 133H58.16V159.16H74.44V165.6H50.88V133ZM88.7503 166.16C81.5903 166.16 76.5503 161.04 76.5503 153.88C76.5503 146.76 81.5903 141.6 88.7503 141.6C95.9103 141.6 100.95 146.72 100.95 153.88C100.95 154.56 100.91 155.32 100.79 156.16H83.6303C84.1903 158.88 86.0703 160.44 88.7503 160.44C90.7903 160.44 92.4703 159.72 93.0703 158.6H100.23C99.0303 163.08 94.4303 166.16 88.7503 166.16ZM83.5903 151.56H93.9903C93.3903 148.76 91.5503 147.24 88.7503 147.24C85.9503 147.24 84.1903 148.76 83.5903 151.56ZM115.333 166.16C108.613 166.16 103.933 161 103.933 153.88C103.933 146.76 108.613 141.6 115.333 141.6C118.413 141.6 120.653 142.68 122.053 144.56V142.16H129.173V165.6H122.053V163.2C120.653 165.08 118.413 166.16 115.333 166.16ZM116.453 160.08C119.933 160.08 122.173 157.48 122.173 153.88C122.173 150.28 119.933 147.68 116.453 147.68C113.053 147.68 110.893 150.28 110.893 153.88C110.893 157.48 113.053 160.08 116.453 160.08ZM144.747 166.16C138.027 166.16 133.347 161 133.347 153.88C133.347 146.76 138.027 141.6 144.747 141.6C147.827 141.6 150.067 142.68 151.467 144.56V132H158.587V165.6H151.467V163.2C150.067 165.08 147.827 166.16 144.747 166.16ZM145.867 160.08C149.347 160.08 151.587 157.48 151.587 153.88C151.587 150.28 149.347 147.68 145.867 147.68C142.467 147.68 140.307 150.28 140.307 153.88C140.307 157.48 142.467 160.08 145.867 160.08ZM167.521 130.84C170.041 130.84 171.881 132.68 171.881 135.2C171.881 137.72 170.041 139.56 167.521 139.56C165.001 139.56 163.161 137.72 163.161 135.2C163.161 132.68 165.001 130.84 167.521 130.84ZM171.081 142.16V165.68H163.961V142.16H171.081ZM176.422 165.6V142.16H183.542V144.56C184.942 142.68 187.102 141.6 190.102 141.6C195.542 141.6 199.262 145.56 199.262 152.04V165.6H192.142V153.24C192.142 149.68 190.702 147.72 188.022 147.72C185.222 147.72 183.542 149.92 183.542 153.56V165.6H176.422ZM216.038 175.92C209.078 175.92 205.238 171.96 204.478 167.44H211.678C212.038 168.96 213.398 169.92 216.038 169.92C218.998 169.92 220.998 168 220.998 165.08V162.6C219.598 164.48 217.358 165.56 214.278 165.56C207.558 165.56 202.878 160.56 202.878 153.68C202.878 146.68 207.558 141.6 214.278 141.6C217.358 141.6 219.598 142.68 220.998 144.56V142.16H228.118V165.16C228.118 171.52 223.038 175.92 216.038 175.92ZM215.398 159.68C218.878 159.68 221.118 157.16 221.118 153.68C221.118 150.2 218.878 147.68 215.398 147.68C211.998 147.68 209.838 150.2 209.838 153.68C209.838 157.16 211.998 159.68 215.398 159.68ZM244.903 133H252.183V165.6H244.903V133ZM257.75 165.6V142.16H264.87V144.56C266.27 142.68 268.43 141.6 271.43 141.6C276.87 141.6 280.59 145.56 280.59 152.04V165.6H273.47V153.24C273.47 149.68 272.03 147.72 269.35 147.72C266.55 147.72 264.87 149.92 264.87 153.56V165.6H257.75ZM295.207 141.6C301.047 141.6 305.647 144.56 305.927 149.2H299.047C298.807 147.76 297.167 146.88 295.087 146.88C292.927 146.88 291.367 147.64 291.367 148.68C291.367 149.84 292.927 150.4 296.927 151.04C303.847 152.08 306.327 154.36 306.327 158.4C306.327 163.2 301.287 166.16 295.327 166.16C289.207 166.16 284.567 163.12 284.327 158.2H291.207C291.447 159.72 293.207 160.72 295.447 160.72C297.727 160.72 299.407 159.88 299.407 158.8C299.407 157.68 297.807 156.96 293.767 156.36C288.167 155.52 284.487 153.8 284.487 149.04C284.487 144.48 289.247 141.6 295.207 141.6ZM324.649 142.16V148.28H320.009V165.6H312.889V148.28H308.249V142.16H312.889V135.2H320.009V142.16H324.649ZM331.545 130.84C334.065 130.84 335.905 132.68 335.905 135.2C335.905 137.72 334.065 139.56 331.545 139.56C329.025 139.56 327.185 137.72 327.185 135.2C327.185 132.68 329.025 130.84 331.545 130.84ZM335.105 142.16V165.68H327.985V142.16H335.105ZM354.806 142.16V148.28H350.166V165.6H343.046V148.28H338.406V142.16H343.046V135.2H350.166V142.16H354.806ZM366.941 166.16C361.501 166.16 357.781 162.2 357.781 155.72V142.16H364.901V154.52C364.901 158.08 366.341 160.04 369.021 160.04C371.821 160.04 373.501 157.84 373.501 154.2V142.16H380.621V165.6H373.501V163.2C372.101 165.08 369.941 166.16 366.941 166.16ZM400.353 142.16V148.28H395.713V165.6H388.592V148.28H383.953V142.16H388.592V135.2H395.713V142.16H400.353ZM407.248 130.84C409.768 130.84 411.608 132.68 411.608 135.2C411.608 137.72 409.768 139.56 407.248 139.56C404.728 139.56 402.888 137.72 402.888 135.2C402.888 132.68 404.728 130.84 407.248 130.84ZM410.808 142.16V165.68H403.688V142.16H410.808ZM427.389 141.6C434.629 141.6 439.829 146.76 439.829 153.88C439.829 161 434.629 166.16 427.389 166.16C420.149 166.16 414.949 161 414.949 153.88C414.949 146.76 420.149 141.6 427.389 141.6ZM427.389 147.68C424.029 147.68 421.829 150.28 421.829 153.88C421.829 157.48 424.029 160.08 427.389 160.08C430.749 160.08 432.949 157.48 432.949 153.88C432.949 150.28 430.749 147.68 427.389 147.68ZM444 165.6V142.16H451.12V144.56C452.52 142.68 454.68 141.6 457.68 141.6C463.12 141.6 466.84 145.56 466.84 152.04V165.6H459.72V153.24C459.72 149.68 458.28 147.72 455.6 147.72C452.8 147.72 451.12 149.92 451.12 153.56V165.6H444ZM496.508 142.16V148.28H492.028V165.6H484.908V148.28H480.988V142.16H484.908V139.84C484.908 135.24 487.788 131.84 492.868 131.84C494.068 131.84 495.228 131.92 496.108 132.08V138.04C495.588 137.96 494.788 137.96 494.268 137.96C492.868 137.96 492.028 138.84 492.028 140.24V142.16H496.508ZM510.631 141.6C517.871 141.6 523.071 146.76 523.071 153.88C523.071 161 517.871 166.16 510.631 166.16C503.391 166.16 498.191 161 498.191 153.88C498.191 146.76 503.391 141.6 510.631 141.6ZM510.631 147.68C507.271 147.68 505.071 150.28 505.071 153.88C505.071 157.48 507.271 160.08 510.631 160.08C513.991 160.08 516.191 157.48 516.191 153.88C516.191 150.28 513.991 147.68 510.631 147.68ZM527.243 165.6V142.16H534.363V144.56C535.763 142.68 537.923 141.6 540.923 141.6C542.243 141.6 543.083 141.68 544.003 142L544.083 148.68C543.083 148.16 541.843 147.88 540.443 147.88C536.643 147.88 534.363 150.04 534.363 153.6V165.6H527.243ZM558.888 165.6V133H582.808V139.4H566.168V146.8H580.968V153.12H566.168V165.6H558.888ZM595.418 166.16C589.978 166.16 586.258 162.2 586.258 155.72V142.16H593.378V154.52C593.378 158.08 594.818 160.04 597.498 160.04C600.298 160.04 601.978 157.84 601.978 154.2V142.16H609.098V165.6H601.978V163.2C600.578 165.08 598.418 166.16 595.418 166.16ZM628.829 142.16V148.28H624.189V165.6H617.069V148.28H612.429V142.16H617.069V135.2H624.189V142.16H628.829ZM640.964 166.16C635.524 166.16 631.804 162.2 631.804 155.72V142.16H638.924V154.52C638.924 158.08 640.364 160.04 643.044 160.04C645.844 160.04 647.524 157.84 647.524 154.2V142.16H654.644V165.6H647.524V163.2C646.124 165.08 643.964 166.16 640.964 166.16ZM660.016 165.6V142.16H667.136V144.56C668.536 142.68 670.696 141.6 673.696 141.6C675.016 141.6 675.856 141.68 676.776 142L676.856 148.68C675.856 148.16 674.616 147.88 673.216 147.88C669.416 147.88 667.136 150.04 667.136 153.6V165.6H660.016ZM690.391 166.16C683.231 166.16 678.191 161.04 678.191 153.88C678.191 146.76 683.231 141.6 690.391 141.6C697.551 141.6 702.591 146.72 702.591 153.88C702.591 154.56 702.551 155.32 702.431 156.16H685.271C685.831 158.88 687.711 160.44 690.391 160.44C692.431 160.44 694.111 159.72 694.711 158.6H701.871C700.671 163.08 696.071 166.16 690.391 166.16ZM685.231 151.56H695.631C695.031 148.76 693.191 147.24 690.391 147.24C687.591 147.24 685.831 148.76 685.231 151.56ZM705.894 146.96H721.214V152.96H705.894V146.96ZM67.04 226.4C56.92 226.4 49.44 219.16 49.44 209.28C49.44 199.4 56.92 192.16 67.04 192.16C77.16 192.16 84.64 199.4 84.64 209.28C84.64 219.16 77.16 226.4 67.04 226.4ZM67.04 219.84C72.96 219.84 77.36 215.4 77.36 209.28C77.36 203.12 72.96 198.72 67.04 198.72C61.12 198.72 56.72 203.12 56.72 209.28C56.72 215.4 61.12 219.84 67.04 219.84ZM88.7659 225.6V202.16H95.8859V204.56C97.2859 202.68 99.4459 201.6 102.446 201.6C103.766 201.6 104.606 201.68 105.526 202L105.606 208.68C104.606 208.16 103.366 207.88 101.966 207.88C98.1659 207.88 95.8859 210.04 95.8859 213.6V225.6H88.7659ZM112.56 190.84C115.08 190.84 116.92 192.68 116.92 195.2C116.92 197.72 115.08 199.56 112.56 199.56C110.04 199.56 108.2 197.72 108.2 195.2C108.2 192.68 110.04 190.84 112.56 190.84ZM116.12 202.16V225.68H109V202.16H116.12ZM132.461 226.16C125.301 226.16 120.261 221.04 120.261 213.88C120.261 206.76 125.301 201.6 132.461 201.6C139.621 201.6 144.661 206.72 144.661 213.88C144.661 214.56 144.621 215.32 144.501 216.16H127.341C127.901 218.88 129.781 220.44 132.461 220.44C134.501 220.44 136.181 219.72 136.781 218.6H143.941C142.741 223.08 138.141 226.16 132.461 226.16ZM127.301 211.56H137.701C137.101 208.76 135.261 207.24 132.461 207.24C129.661 207.24 127.901 208.76 127.301 211.56ZM148.844 225.6V202.16H155.964V204.56C157.364 202.68 159.524 201.6 162.524 201.6C167.964 201.6 171.684 205.56 171.684 212.04V225.6H164.564V213.24C164.564 209.68 163.124 207.72 160.444 207.72C157.644 207.72 155.964 209.92 155.964 213.56V225.6H148.844ZM190.509 202.16V208.28H185.869V225.6H178.749V208.28H174.109V202.16H178.749V195.2H185.869V202.16H190.509ZM204.336 226.16C197.176 226.16 192.136 221.04 192.136 213.88C192.136 206.76 197.176 201.6 204.336 201.6C211.496 201.6 216.536 206.72 216.536 213.88C216.536 214.56 216.496 215.32 216.376 216.16H199.216C199.776 218.88 201.656 220.44 204.336 220.44C206.376 220.44 208.056 219.72 208.656 218.6H215.816C214.616 223.08 210.016 226.16 204.336 226.16ZM199.176 211.56H209.576C208.976 208.76 207.136 207.24 204.336 207.24C201.536 207.24 199.776 208.76 199.176 211.56ZM230.919 226.16C224.199 226.16 219.519 221 219.519 213.88C219.519 206.76 224.199 201.6 230.919 201.6C233.999 201.6 236.239 202.68 237.639 204.56V192H244.759V225.6H237.639V223.2C236.239 225.08 233.999 226.16 230.919 226.16ZM232.039 220.08C235.519 220.08 237.759 217.48 237.759 213.88C237.759 210.28 235.519 207.68 232.039 207.68C228.639 207.68 226.479 210.28 226.479 213.88C226.479 217.48 228.639 220.08 232.039 220.08ZM261.544 225.6V193H274.064C282.544 193 287.504 197.72 287.504 204.92C287.504 212.2 282.544 216.92 274.064 216.92H268.824V225.6H261.544ZM268.824 210.48H273.744C277.784 210.48 280.224 208.56 280.224 204.92C280.224 201.32 277.784 199.44 273.744 199.44H268.824V210.48ZM300.027 226.16C294.587 226.16 290.867 222.2 290.867 215.72V202.16H297.987V214.52C297.987 218.08 299.427 220.04 302.107 220.04C304.907 220.04 306.587 217.84 306.587 214.2V202.16H313.707V225.6H306.587V223.2C305.187 225.08 303.027 226.16 300.027 226.16ZM332.918 226.16C329.838 226.16 327.598 225.08 326.198 223.2V225.6H319.078V192H326.198V204.56C327.598 202.68 329.838 201.6 332.918 201.6C339.638 201.6 344.318 206.76 344.318 213.88C344.318 221 339.638 226.16 332.918 226.16ZM331.798 220.08C335.198 220.08 337.358 217.48 337.358 213.88C337.358 210.28 335.198 207.68 331.798 207.68C328.318 207.68 326.078 210.28 326.078 213.88C326.078 217.48 328.318 220.08 331.798 220.08ZM355.613 192V225.6H348.493V192H355.613ZM364.513 190.84C367.033 190.84 368.873 192.68 368.873 195.2C368.873 197.72 367.033 199.56 364.513 199.56C361.993 199.56 360.153 197.72 360.153 195.2C360.153 192.68 361.993 190.84 364.513 190.84ZM368.073 202.16V225.68H360.953V202.16H368.073ZM396.334 217.16C395.134 222.6 390.574 226.16 384.654 226.16C377.414 226.16 372.214 221 372.214 213.88C372.214 206.76 377.414 201.6 384.654 201.6C390.774 201.6 395.374 205.52 396.214 210.52H389.014C388.454 208.92 386.894 207.8 384.654 207.8C381.334 207.8 379.174 210.36 379.174 213.88C379.174 217.4 381.334 219.96 384.654 219.96C386.854 219.96 388.494 218.84 389.134 217.16H396.334ZM447.023 193H454.463L445.063 225.6H437.703L431.863 205.16L426.023 225.6H418.663L409.263 193H417.063L422.663 214.32L428.263 193H435.823L441.383 214.24L447.023 193ZM457.711 225.6V192H464.831V204.56C466.231 202.68 468.391 201.6 471.391 201.6C476.831 201.6 480.551 205.56 480.551 212.04V225.6H473.431V213.24C473.431 209.68 471.991 207.72 469.311 207.72C466.511 207.72 464.831 209.92 464.831 213.56V225.6H457.711ZM496.608 201.6C503.848 201.6 509.048 206.76 509.048 213.88C509.048 221 503.848 226.16 496.608 226.16C489.368 226.16 484.168 221 484.168 213.88C484.168 206.76 489.368 201.6 496.608 201.6ZM496.608 207.68C493.247 207.68 491.048 210.28 491.048 213.88C491.048 217.48 493.247 220.08 496.608 220.08C499.968 220.08 502.168 217.48 502.168 213.88C502.168 210.28 499.968 207.68 496.608 207.68ZM520.339 192V225.6H513.219V192H520.339ZM536.68 226.16C529.52 226.16 524.48 221.04 524.48 213.88C524.48 206.76 529.52 201.6 536.68 201.6C543.84 201.6 548.88 206.72 548.88 213.88C548.88 214.56 548.84 215.32 548.72 216.16H531.56C532.12 218.88 534 220.44 536.68 220.44C538.72 220.44 540.4 219.72 541 218.6H548.16C546.96 223.08 542.36 226.16 536.68 226.16ZM531.52 211.56H541.92C541.32 208.76 539.48 207.24 536.68 207.24C533.88 207.24 532.12 208.76 531.52 211.56ZM562.863 201.6C568.703 201.6 573.303 204.56 573.583 209.2H566.703C566.463 207.76 564.823 206.88 562.743 206.88C560.583 206.88 559.023 207.64 559.023 208.68C559.023 209.84 560.583 210.4 564.583 211.04C571.503 212.08 573.983 214.36 573.983 218.4C573.983 223.2 568.943 226.16 562.983 226.16C556.863 226.16 552.223 223.12 551.983 218.2H558.863C559.103 219.72 560.863 220.72 563.103 220.72C565.383 220.72 567.063 219.88 567.063 218.8C567.063 217.68 565.463 216.96 561.423 216.36C555.823 215.52 552.143 213.8 552.143 209.04C552.143 204.48 556.903 201.6 562.863 201.6ZM588.38 226.16C581.66 226.16 576.98 221 576.98 213.88C576.98 206.76 581.66 201.6 588.38 201.6C591.46 201.6 593.7 202.68 595.1 204.56V202.16H602.22V225.6H595.1V223.2C593.7 225.08 591.46 226.16 588.38 226.16ZM589.5 220.08C592.98 220.08 595.22 217.48 595.22 213.88C595.22 210.28 592.98 207.68 589.5 207.68C586.1 207.68 583.94 210.28 583.94 213.88C583.94 217.48 586.1 220.08 589.5 220.08ZM614.714 192V225.6H607.594V192H614.714ZM631.055 226.16C623.895 226.16 618.855 221.04 618.855 213.88C618.855 206.76 623.895 201.6 631.055 201.6C638.215 201.6 643.255 206.72 643.255 213.88C643.255 214.56 643.215 215.32 643.095 216.16H625.935C626.495 218.88 628.375 220.44 631.055 220.44C633.095 220.44 634.775 219.72 635.375 218.6H642.535C641.335 223.08 636.735 226.16 631.055 226.16ZM625.895 211.56H636.295C635.695 208.76 633.855 207.24 631.055 207.24C628.255 207.24 626.495 208.76 625.895 211.56ZM658.849 225.6V193H664.649L675.889 211.24L687.129 193H692.929V225.6H685.649V207.72L678.089 220.24H673.689L666.129 207.72V225.6H658.849ZM708.693 226.16C701.973 226.16 697.293 221 697.293 213.88C697.293 206.76 701.973 201.6 708.693 201.6C711.773 201.6 714.013 202.68 715.413 204.56V202.16H722.533V225.6H715.413V223.2C714.013 225.08 711.773 226.16 708.693 226.16ZM709.813 220.08C713.293 220.08 715.533 217.48 715.533 213.88C715.533 210.28 713.293 207.68 709.813 207.68C706.413 207.68 704.253 210.28 704.253 213.88C704.253 217.48 706.413 220.08 709.813 220.08ZM727.907 225.6V202.16H735.027V204.56C736.427 202.68 738.587 201.6 741.587 201.6C742.907 201.6 743.747 201.68 744.667 202L744.747 208.68C743.747 208.16 742.507 207.88 741.107 207.88C737.307 207.88 735.027 210.04 735.027 213.6V225.6H727.907ZM763.821 225.6L758.101 217L755.261 220.2V225.6H748.141V192H755.261V211.72L763.541 202.16H771.461L762.461 212.16L771.941 225.6H763.821ZM784.141 226.16C776.981 226.16 771.941 221.04 771.941 213.88C771.941 206.76 776.981 201.6 784.141 201.6C791.301 201.6 796.341 206.72 796.341 213.88C796.341 214.56 796.301 215.32 796.181 216.16H779.021C779.581 218.88 781.461 220.44 784.141 220.44C786.181 220.44 787.861 219.72 788.461 218.6H795.621C794.421 223.08 789.821 226.16 784.141 226.16ZM778.981 211.56H789.381C788.781 208.76 786.941 207.24 784.141 207.24C781.341 207.24 779.581 208.76 778.981 211.56ZM814.376 202.16V208.28H809.736V225.6H802.616V208.28H797.976V202.16H802.616V195.2H809.736V202.16H814.376ZM827.277 201.6C833.117 201.6 837.717 204.56 837.997 209.2H831.117C830.877 207.76 829.237 206.88 827.157 206.88C824.997 206.88 823.437 207.64 823.437 208.68C823.437 209.84 824.997 210.4 828.997 211.04C835.917 212.08 838.397 214.36 838.397 218.4C838.397 223.2 833.357 226.16 827.397 226.16C821.277 226.16 816.637 223.12 816.397 218.2H823.277C823.517 219.72 825.277 220.72 827.517 220.72C829.797 220.72 831.477 219.88 831.477 218.8C831.477 217.68 829.877 216.96 825.837 216.36C820.237 215.52 816.557 213.8 816.557 209.04C816.557 204.48 821.317 201.6 827.277 201.6Z" fill="white"/>
<line x1="3" y1="8" x2="2.99999" y2="230" stroke="white" stroke-width="6"/>
</svg>
