<svg width="1200" height="285" viewBox="0 0 1200 285" fill="none" xmlns="http://www.w3.org/2000/svg">
<rect x="404" y="28" width="392" height="257" fill="#F4F4F4"/>
<rect x="471.5" y="0.5" width="256" height="55" fill="#E0E0E0"/>
<rect x="471.5" y="0.5" width="256" height="55" stroke="#D9D9D9"/>
<path d="M518.777 35L514.793 20.8594H517.527L520.086 31.2695H520.223L522.938 20.8594H525.438L528.172 31.2891H528.289L530.848 20.8594H533.582L529.598 35H527.078L524.246 25.0586H524.148L521.297 35H518.777ZM537.836 28.7891V35H535.336V20.8594H537.777V26.1914H537.914C538.393 24.9902 539.428 24.2578 541.059 24.2578C543.256 24.2578 544.711 25.6836 544.711 28.2422V35H542.23V28.6328C542.221 27.1875 541.449 26.3574 540.141 26.3672C538.793 26.3574 537.836 27.2461 537.836 28.7891ZM551.953 35.2148C548.857 35.2148 546.875 33.0176 546.875 29.7461C546.875 26.4453 548.857 24.2578 551.953 24.2578C555.059 24.2578 557.041 26.4453 557.031 29.7461C557.041 33.0176 555.059 35.2148 551.953 35.2148ZM549.395 29.7266C549.395 31.6699 550.244 33.2227 551.973 33.2227C553.672 33.2227 554.521 31.6699 554.512 29.7266C554.521 27.7832 553.672 26.2207 551.973 26.2305C550.244 26.2207 549.395 27.7832 549.395 29.7266ZM561.715 20.8594V35H559.215V20.8594H561.715ZM569.055 35.2148C565.861 35.2148 563.898 33.0859 563.898 29.7656C563.898 26.4844 565.891 24.2578 568.918 24.2578C571.516 24.2578 573.762 25.8887 573.762 29.6094V30.3906H566.359C566.398 32.1973 567.463 33.2715 569.074 33.2617C570.168 33.2715 570.9 32.8027 571.223 32.168H573.664C573.215 34.0039 571.516 35.2148 569.055 35.2148ZM566.369 28.6914H571.379C571.369 27.2461 570.393 26.1914 568.957 26.1914C567.463 26.1914 566.457 27.3438 566.369 28.6914ZM581.961 27.4219C581.805 26.6211 581.141 26.1035 580.086 26.1133C579.021 26.1035 578.24 26.6406 578.25 27.3633C578.24 27.9102 578.68 28.3203 579.754 28.5742L581.551 28.9453C583.553 29.3848 584.529 30.3125 584.539 31.8359C584.529 33.8281 582.781 35.2148 580.008 35.2148C577.312 35.2148 575.721 34.0039 575.457 31.9727H577.996C578.143 32.8809 578.846 33.3301 580.008 33.3203C581.209 33.3301 581.99 32.8418 582 32.0508C581.99 31.4355 581.512 31.0449 580.457 30.8203L578.758 30.4492C576.785 30.0488 575.76 29.0137 575.77 27.5C575.76 25.5371 577.459 24.2578 580.047 24.2578C582.576 24.2578 584.139 25.498 584.324 27.4219H581.961ZM586.195 32.0117C586.195 29.6289 588.178 28.9355 590.141 28.8086C590.883 28.75 592.396 28.6816 592.865 28.6621L592.855 27.8125C592.855 26.7578 592.182 26.1523 590.941 26.1523C589.828 26.1523 589.145 26.6602 588.949 27.4219H586.547C586.723 25.6152 588.344 24.2578 591 24.2578C593.012 24.2578 595.336 25.0879 595.336 27.9102V35H592.953V33.5352H592.875C592.406 34.4336 591.42 35.2148 589.75 35.2148C587.729 35.2148 586.195 34.1113 586.195 32.0117ZM588.598 31.9922C588.598 32.9102 589.35 33.3789 590.395 33.3789C591.908 33.3789 592.875 32.3828 592.875 31.1914L592.865 30.3223C592.416 30.3418 591.029 30.4297 590.531 30.4688C589.35 30.5664 588.598 31.0645 588.598 31.9922ZM600.43 20.8594V35H597.93V20.8594H600.43ZM607.77 35.2148C604.576 35.2148 602.613 33.0859 602.613 29.7656C602.613 26.4844 604.605 24.2578 607.633 24.2578C610.23 24.2578 612.477 25.8887 612.477 29.6094V30.3906H605.074C605.113 32.1973 606.178 33.2715 607.789 33.2617C608.883 33.2715 609.615 32.8027 609.938 32.168H612.379C611.93 34.0039 610.23 35.2148 607.77 35.2148ZM605.084 28.6914H610.094C610.084 27.2461 609.107 26.1914 607.672 26.1914C606.178 26.1914 605.172 27.3438 605.084 28.6914ZM619.656 35V24.3945H622.039V26.1914H622.176C622.615 24.9805 623.68 24.2578 625.086 24.2578C626.521 24.2578 627.557 24.9902 627.957 26.1914H628.074C628.533 25.0195 629.715 24.2578 631.258 24.2578C633.201 24.2578 634.568 25.5078 634.559 27.8711V35H632.078V28.2617C632.078 26.9434 631.277 26.3477 630.262 26.3477C629.041 26.3477 628.328 27.1777 628.328 28.3789V35H625.906V28.1641C625.896 27.0605 625.174 26.3477 624.109 26.3477C623.035 26.3477 622.156 27.2363 622.156 28.5547V35H619.656ZM636.703 32.0117C636.703 29.6289 638.686 28.9355 640.648 28.8086C641.391 28.75 642.904 28.6816 643.373 28.6621L643.363 27.8125C643.363 26.7578 642.689 26.1523 641.449 26.1523C640.336 26.1523 639.652 26.6602 639.457 27.4219H637.055C637.23 25.6152 638.852 24.2578 641.508 24.2578C643.52 24.2578 645.844 25.0879 645.844 27.9102V35H643.461V33.5352H643.383C642.914 34.4336 641.928 35.2148 640.258 35.2148C638.236 35.2148 636.703 34.1113 636.703 32.0117ZM639.105 31.9922C639.105 32.9102 639.857 33.3789 640.902 33.3789C642.416 33.3789 643.383 32.3828 643.383 31.1914L643.373 30.3223C642.924 30.3418 641.537 30.4297 641.039 30.4688C639.857 30.5664 639.105 31.0645 639.105 31.9922ZM648.438 35V24.3945H650.859V26.1523H650.977C651.357 24.9316 652.373 24.2383 653.594 24.2383C653.867 24.2383 654.258 24.2676 654.492 24.2969V26.6016C654.268 26.5234 653.75 26.4551 653.34 26.4453C651.953 26.4551 650.938 27.4121 650.938 28.75V35H648.438ZM656.227 35V20.8594H658.727V28.6523H658.902L662.711 24.3945H665.621L661.51 28.9648L665.875 35H662.906L659.645 30.4492L658.727 31.4258V35H656.227ZM671.613 35.2148C668.42 35.2148 666.457 33.0859 666.457 29.7656C666.457 26.4844 668.449 24.2578 671.477 24.2578C674.074 24.2578 676.32 25.8887 676.32 29.6094V30.3906H668.918C668.957 32.1973 670.021 33.2715 671.633 33.2617C672.727 33.2715 673.459 32.8027 673.781 32.168H676.223C675.773 34.0039 674.074 35.2148 671.613 35.2148ZM668.928 28.6914H673.938C673.928 27.2461 672.951 26.1914 671.516 26.1914C670.021 26.1914 669.016 27.3438 668.928 28.6914ZM683.797 24.3945V26.3086H681.707V31.8164C681.707 32.832 682.215 33.0371 682.84 33.0469C683.133 33.0566 683.621 33.0273 683.934 33.0078V35.0391C683.641 35.0879 683.162 35.1465 682.527 35.1367C680.652 35.1465 679.207 34.2188 679.227 32.2266V26.3086H677.703V24.3945H679.227V21.8555H681.707V24.3945H683.797Z" fill="black"/>
<rect x="1" y="82" width="180" height="180" rx="90" fill="#EEEEEE"/>
<path d="M43.6426 167V152.859H48.9551C52.1973 152.859 53.9258 154.832 53.9355 157.547C53.9258 160.252 52.1777 162.215 48.916 162.215H46.1816V167H43.6426ZM46.1816 160.125H48.5645C50.4785 160.115 51.3379 159.041 51.3379 157.547C51.3379 156.033 50.4785 154.988 48.5645 154.988H46.1816V160.125ZM56.1191 167V156.395H58.541V158.152H58.6582C59.0391 156.932 60.0547 156.238 61.2754 156.238C61.5488 156.238 61.9395 156.268 62.1738 156.297V158.602C61.9492 158.523 61.4316 158.455 61.0215 158.445C59.6348 158.455 58.6191 159.412 58.6191 160.75V167H56.1191ZM68.1855 167.215C65.0898 167.215 63.1074 165.018 63.1074 161.746C63.1074 158.445 65.0898 156.258 68.1855 156.258C71.291 156.258 73.2734 158.445 73.2637 161.746C73.2734 165.018 71.291 167.215 68.1855 167.215ZM65.627 161.727C65.627 163.67 66.4766 165.223 68.2051 165.223C69.9043 165.223 70.7539 163.67 70.7441 161.727C70.7539 159.783 69.9043 158.221 68.2051 158.23C66.4766 158.221 65.627 159.783 65.627 161.727ZM79.3926 167.195C76.9023 167.186 75.0176 165.193 75.0176 161.707C75.0176 158.172 76.9512 156.258 79.4121 156.258C81.2773 156.258 82.0586 157.381 82.4395 158.133H82.5371V152.859H85.0176V167H82.5762V165.32H82.4395C82.0391 166.102 81.2285 167.186 79.3926 167.195ZM77.5566 161.688C77.5566 163.689 78.4355 165.145 80.0762 165.145C81.6875 165.145 82.5957 163.758 82.5957 161.688C82.5957 159.627 81.6973 158.299 80.0762 158.289C78.416 158.299 77.5566 159.715 77.5566 161.688ZM94.5645 162.547V156.395H97.0449V167H94.6426V165.125H94.5254C94.0371 166.307 92.9238 167.137 91.3418 167.137C89.2422 167.137 87.7969 165.691 87.7871 163.152V156.395H90.2871V162.762C90.2871 164.109 91.0879 164.969 92.2988 164.969C93.3926 164.969 94.5645 164.168 94.5645 162.547ZM104.307 167.215C101.143 167.215 99.2285 164.949 99.2285 161.746C99.2285 158.494 101.201 156.258 104.307 156.258C106.875 156.258 108.682 157.762 108.857 160.047H106.475C106.279 159.031 105.537 158.26 104.326 158.25C102.783 158.26 101.748 159.549 101.748 161.688C101.748 163.875 102.764 165.174 104.326 165.184C105.43 165.174 106.25 164.529 106.475 163.387H108.857C108.672 165.623 106.973 167.215 104.307 167.215ZM115.689 167.215C112.496 167.215 110.533 165.086 110.533 161.766C110.533 158.484 112.525 156.258 115.553 156.258C118.15 156.258 120.396 157.889 120.396 161.609V162.391H112.994C113.033 164.197 114.098 165.271 115.709 165.262C116.803 165.271 117.535 164.803 117.857 164.168H120.299C119.85 166.004 118.15 167.215 115.689 167.215ZM113.004 160.691H118.014C118.004 159.246 117.027 158.191 115.592 158.191C114.098 158.191 113.092 159.344 113.004 160.691ZM122.58 167V156.395H125.002V158.152H125.119C125.5 156.932 126.516 156.238 127.736 156.238C128.01 156.238 128.4 156.268 128.635 156.297V158.602C128.41 158.523 127.893 158.455 127.482 158.445C126.096 158.455 125.08 159.412 125.08 160.75V167H122.58ZM136.385 159.422C136.229 158.621 135.564 158.104 134.51 158.113C133.445 158.104 132.664 158.641 132.674 159.363C132.664 159.91 133.104 160.32 134.178 160.574L135.975 160.945C137.977 161.385 138.953 162.312 138.963 163.836C138.953 165.828 137.205 167.215 134.432 167.215C131.736 167.215 130.145 166.004 129.881 163.973H132.42C132.566 164.881 133.27 165.33 134.432 165.32C135.633 165.33 136.414 164.842 136.424 164.051C136.414 163.436 135.936 163.045 134.881 162.82L133.182 162.449C131.209 162.049 130.184 161.014 130.193 159.5C130.184 157.537 131.883 156.258 134.471 156.258C137 156.258 138.562 157.498 138.748 159.422H136.385ZM52.1777 176.195L47.627 193.129H45.4395L50.0098 176.195H52.1777ZM61.6465 180.746C61.5195 179.525 60.4941 178.822 58.9707 178.832C57.3594 178.822 56.4023 179.604 56.3926 180.668C56.3828 181.859 57.6426 182.348 58.8145 182.621L60.1426 182.973C62.252 183.461 64.2832 184.574 64.2832 187.035C64.2832 189.516 62.3203 191.215 58.9316 191.215C55.6406 191.215 53.5508 189.633 53.4434 186.84H55.9434C56.0605 188.314 57.3008 189.037 58.9121 189.047C60.582 189.037 61.7344 188.227 61.7441 187.016C61.7344 185.902 60.7188 185.434 59.1855 185.043L57.584 184.633C55.2598 184.027 53.8145 182.855 53.8145 180.824C53.8145 178.324 56.0312 176.664 59.0098 176.664C62.0078 176.664 64.0488 178.354 64.0879 180.746H61.6465ZM69.0254 184.789V191H66.5254V176.859H68.9668V182.191H69.1035C69.582 180.99 70.6172 180.258 72.248 180.258C74.4453 180.258 75.9004 181.684 75.9004 184.242V191H73.4199V184.633C73.4102 183.188 72.6387 182.357 71.3301 182.367C69.9824 182.357 69.0254 183.246 69.0254 184.789ZM78.5137 191V180.395H81.0137V191H78.5137ZM78.3379 177.523C78.3379 176.781 78.9922 176.176 79.7832 176.176C80.5742 176.176 81.2285 176.781 81.2285 177.523C81.2285 178.275 80.5742 178.881 79.7832 178.891C78.9922 178.881 78.3379 178.275 78.3379 177.523ZM83.6465 194.984V180.395H86.0879V182.133H86.2441C86.625 181.381 87.4062 180.258 89.291 180.258C91.7324 180.258 93.6562 182.172 93.666 185.707C93.6562 189.193 91.791 191.186 89.291 191.195C87.4648 191.186 86.6348 190.102 86.2441 189.32H86.1465V194.984H83.6465ZM86.0879 185.688C86.0977 187.758 86.9961 189.145 88.6074 189.145C90.2578 189.145 91.127 187.689 91.127 185.688C91.127 183.715 90.2773 182.299 88.6074 182.289C86.9766 182.299 86.0977 183.627 86.0879 185.688ZM95.8691 194.984V180.395H98.3105V182.133H98.4668C98.8477 181.381 99.6289 180.258 101.514 180.258C103.955 180.258 105.879 182.172 105.889 185.707C105.879 189.193 104.014 191.186 101.514 191.195C99.6875 191.186 98.8574 190.102 98.4668 189.32H98.3691V194.984H95.8691ZM98.3105 185.688C98.3203 187.758 99.2188 189.145 100.83 189.145C102.48 189.145 103.35 187.689 103.35 185.688C103.35 183.715 102.5 182.299 100.83 182.289C99.1992 182.299 98.3203 183.627 98.3105 185.688ZM112.799 191.215C109.605 191.215 107.643 189.086 107.643 185.766C107.643 182.484 109.635 180.258 112.662 180.258C115.26 180.258 117.506 181.889 117.506 185.609V186.391H110.104C110.143 188.197 111.207 189.271 112.818 189.262C113.912 189.271 114.645 188.803 114.967 188.168H117.408C116.959 190.004 115.26 191.215 112.799 191.215ZM110.113 184.691H115.123C115.113 183.246 114.137 182.191 112.701 182.191C111.207 182.191 110.201 183.344 110.113 184.691ZM119.689 191V180.395H122.111V182.152H122.229C122.609 180.932 123.625 180.238 124.846 180.238C125.119 180.238 125.51 180.268 125.744 180.297V182.602C125.52 182.523 125.002 182.455 124.592 182.445C123.205 182.455 122.189 183.412 122.189 184.75V191H119.689ZM133.494 183.422C133.338 182.621 132.674 182.104 131.619 182.113C130.555 182.104 129.773 182.641 129.783 183.363C129.773 183.91 130.213 184.32 131.287 184.574L133.084 184.945C135.086 185.385 136.062 186.312 136.072 187.836C136.062 189.828 134.314 191.215 131.541 191.215C128.846 191.215 127.254 190.004 126.99 187.973H129.529C129.676 188.881 130.379 189.33 131.541 189.32C132.742 189.33 133.523 188.842 133.533 188.051C133.523 187.436 133.045 187.045 131.99 186.82L130.291 186.449C128.318 186.049 127.293 185.014 127.303 183.5C127.293 181.537 128.992 180.258 131.58 180.258C134.109 180.258 135.672 181.498 135.857 183.422H133.494Z" fill="black"/>
<rect x="490" y="72" width="200" height="200" rx="100" fill="#FFB724"/>
<path d="M558.203 152.859H561.328L565.527 163.133H565.703L569.902 152.859H573.027V167H570.586V157.273H570.449L566.523 166.961H564.707L560.781 157.234H560.664V167H558.203V152.859ZM575.289 164.012C575.289 161.629 577.271 160.936 579.234 160.809C579.977 160.75 581.49 160.682 581.959 160.662L581.949 159.812C581.949 158.758 581.275 158.152 580.035 158.152C578.922 158.152 578.238 158.66 578.043 159.422H575.641C575.816 157.615 577.438 156.258 580.094 156.258C582.105 156.258 584.43 157.088 584.43 159.91V167H582.047V165.535H581.969C581.5 166.434 580.514 167.215 578.844 167.215C576.822 167.215 575.289 166.111 575.289 164.012ZM577.691 163.992C577.691 164.91 578.443 165.379 579.488 165.379C581.002 165.379 581.969 164.383 581.969 163.191L581.959 162.322C581.51 162.342 580.123 162.43 579.625 162.469C578.443 162.566 577.691 163.064 577.691 163.992ZM587.023 167V156.395H589.445V158.152H589.562C589.943 156.932 590.959 156.238 592.18 156.238C592.453 156.238 592.844 156.268 593.078 156.297V158.602C592.854 158.523 592.336 158.455 591.926 158.445C590.539 158.455 589.523 159.412 589.523 160.75V167H587.023ZM594.812 167V152.859H597.312V160.652H597.488L601.297 156.395H604.207L600.096 160.965L604.461 167H601.492L598.23 162.449L597.312 163.426V167H594.812ZM610.199 167.215C607.006 167.215 605.043 165.086 605.043 161.766C605.043 158.484 607.035 156.258 610.062 156.258C612.66 156.258 614.906 157.889 614.906 161.609V162.391H607.504C607.543 164.197 608.607 165.271 610.219 165.262C611.312 165.271 612.045 164.803 612.367 164.168H614.809C614.359 166.004 612.66 167.215 610.199 167.215ZM607.514 160.691H612.523C612.514 159.246 611.537 158.191 610.102 158.191C608.607 158.191 607.602 159.344 607.514 160.691ZM622.383 156.395V158.309H620.293V163.816C620.293 164.832 620.801 165.037 621.426 165.047C621.719 165.057 622.207 165.027 622.52 165.008V167.039C622.227 167.088 621.748 167.146 621.113 167.137C619.238 167.146 617.793 166.219 617.812 164.227V158.309H616.289V156.395H617.812V153.855H620.293V156.395H622.383ZM541.033 191L537.049 176.859H539.783L542.342 187.27H542.479L545.193 176.859H547.693L550.428 187.289H550.545L553.104 176.859H555.838L551.854 191H549.334L546.502 181.059H546.404L543.553 191H541.033ZM560.092 184.789V191H557.592V176.859H560.033V182.191H560.17C560.648 180.99 561.684 180.258 563.314 180.258C565.512 180.258 566.967 181.684 566.967 184.242V191H564.486V184.633C564.477 183.188 563.705 182.357 562.396 182.367C561.049 182.357 560.092 183.246 560.092 184.789ZM574.209 191.215C571.113 191.215 569.131 189.018 569.131 185.746C569.131 182.445 571.113 180.258 574.209 180.258C577.314 180.258 579.297 182.445 579.287 185.746C579.297 189.018 577.314 191.215 574.209 191.215ZM571.65 185.727C571.65 187.67 572.5 189.223 574.229 189.223C575.928 189.223 576.777 187.67 576.768 185.727C576.777 183.783 575.928 182.221 574.229 182.23C572.5 182.221 571.65 183.783 571.65 185.727ZM583.971 176.859V191H581.471V176.859H583.971ZM591.311 191.215C588.117 191.215 586.154 189.086 586.154 185.766C586.154 182.484 588.146 180.258 591.174 180.258C593.771 180.258 596.018 181.889 596.018 185.609V186.391H588.615C588.654 188.197 589.719 189.271 591.33 189.262C592.424 189.271 593.156 188.803 593.479 188.168H595.92C595.471 190.004 593.771 191.215 591.311 191.215ZM588.625 184.691H593.635C593.625 183.246 592.648 182.191 591.213 182.191C589.719 182.191 588.713 183.344 588.625 184.691ZM604.217 183.422C604.061 182.621 603.396 182.104 602.342 182.113C601.277 182.104 600.496 182.641 600.506 183.363C600.496 183.91 600.936 184.32 602.01 184.574L603.807 184.945C605.809 185.385 606.785 186.312 606.795 187.836C606.785 189.828 605.037 191.215 602.264 191.215C599.568 191.215 597.977 190.004 597.713 187.973H600.252C600.398 188.881 601.102 189.33 602.264 189.32C603.465 189.33 604.246 188.842 604.256 188.051C604.246 187.436 603.768 187.045 602.713 186.82L601.014 186.449C599.041 186.049 598.016 185.014 598.025 183.5C598.016 181.537 599.715 180.258 602.303 180.258C604.832 180.258 606.395 181.498 606.58 183.422H604.217ZM608.451 188.012C608.451 185.629 610.434 184.936 612.396 184.809C613.139 184.75 614.652 184.682 615.121 184.662L615.111 183.812C615.111 182.758 614.438 182.152 613.197 182.152C612.084 182.152 611.4 182.66 611.205 183.422H608.803C608.979 181.615 610.6 180.258 613.256 180.258C615.268 180.258 617.592 181.088 617.592 183.91V191H615.209V189.535H615.131C614.662 190.434 613.676 191.215 612.006 191.215C609.984 191.215 608.451 190.111 608.451 188.012ZM610.854 187.992C610.854 188.91 611.605 189.379 612.65 189.379C614.164 189.379 615.131 188.383 615.131 187.191L615.121 186.322C614.672 186.342 613.285 186.43 612.787 186.469C611.605 186.566 610.854 187.064 610.854 187.992ZM622.686 176.859V191H620.186V176.859H622.686ZM630.025 191.215C626.832 191.215 624.869 189.086 624.869 185.766C624.869 182.484 626.861 180.258 629.889 180.258C632.486 180.258 634.732 181.889 634.732 185.609V186.391H627.33C627.369 188.197 628.434 189.271 630.045 189.262C631.139 189.271 631.871 188.803 632.193 188.168H634.635C634.186 190.004 632.486 191.215 630.025 191.215ZM627.34 184.691H632.35C632.34 183.246 631.363 182.191 629.928 182.191C628.434 182.191 627.428 183.344 627.34 184.691ZM636.916 191V180.395H639.338V182.152H639.455C639.836 180.932 640.852 180.238 642.072 180.238C642.346 180.238 642.736 180.268 642.971 180.297V182.602C642.746 182.523 642.229 182.455 641.818 182.445C640.432 182.455 639.416 183.412 639.416 184.75V191H636.916Z" fill="white"/>
<rect x="999" y="72" width="200" height="77.7778" rx="12" fill="#FFB724"/>
<path d="M1066.64 116.889V105.576H1070.89C1073.48 105.576 1074.87 107.029 1074.88 109.186C1074.87 110.725 1074.16 111.865 1072.84 112.404L1075.28 116.889H1073.02L1070.8 112.748H1068.67V116.889H1066.64ZM1068.67 111.045H1070.58C1072.11 111.053 1072.8 110.396 1072.8 109.186C1072.8 107.982 1072.11 107.279 1070.58 107.279H1068.67V111.045ZM1080.42 117.061C1077.87 117.061 1076.3 115.357 1076.3 112.701C1076.3 110.076 1077.89 108.295 1080.31 108.295C1082.39 108.295 1084.19 109.6 1084.19 112.576V113.201H1078.27C1078.3 114.646 1079.15 115.506 1080.44 115.498C1081.31 115.506 1081.9 115.131 1082.16 114.623H1084.11C1083.75 116.092 1082.39 117.061 1080.42 117.061ZM1078.27 111.842H1082.28C1082.27 110.686 1081.49 109.842 1080.34 109.842C1079.15 109.842 1078.34 110.764 1078.27 111.842ZM1090.22 108.404V109.936H1088.55V114.342C1088.55 115.154 1088.95 115.318 1089.45 115.326C1089.69 115.334 1090.08 115.311 1090.33 115.295V116.92C1090.09 116.959 1089.71 117.006 1089.2 116.998C1087.7 117.006 1086.55 116.264 1086.56 114.67V109.936H1085.34V108.404H1086.56V106.373H1088.55V108.404H1090.22ZM1091.61 114.498C1091.61 112.592 1093.2 112.037 1094.77 111.936C1095.36 111.889 1096.57 111.834 1096.95 111.818L1096.94 111.139C1096.94 110.295 1096.4 109.811 1095.41 109.811C1094.52 109.811 1093.97 110.217 1093.81 110.826H1091.89C1092.03 109.381 1093.33 108.295 1095.45 108.295C1097.06 108.295 1098.92 108.959 1098.92 111.217V116.889H1097.02V115.717H1096.95C1096.58 116.436 1095.79 117.061 1094.45 117.061C1092.84 117.061 1091.61 116.178 1091.61 114.498ZM1093.53 114.482C1093.53 115.217 1094.13 115.592 1094.97 115.592C1096.18 115.592 1096.95 114.795 1096.95 113.842L1096.95 113.146C1096.59 113.162 1095.48 113.232 1095.08 113.264C1094.13 113.342 1093.53 113.74 1093.53 114.482ZM1101.05 116.889V108.404H1103.05V116.889H1101.05ZM1100.91 106.107C1100.91 105.514 1101.43 105.029 1102.06 105.029C1102.7 105.029 1103.22 105.514 1103.22 106.107C1103.22 106.709 1102.7 107.193 1102.06 107.201C1101.43 107.193 1100.91 106.709 1100.91 106.107ZM1107.2 105.576V116.889H1105.2V105.576H1107.2ZM1113.12 117.061C1110.57 117.061 1109 115.357 1109 112.701C1109 110.076 1110.59 108.295 1113.02 108.295C1115.09 108.295 1116.89 109.6 1116.89 112.576V113.201H1110.97C1111 114.646 1111.85 115.506 1113.14 115.498C1114.02 115.506 1114.6 115.131 1114.86 114.623H1116.81C1116.45 116.092 1115.09 117.061 1113.12 117.061ZM1110.98 111.842H1114.98C1114.98 110.686 1114.2 109.842 1113.05 109.842C1111.85 109.842 1111.05 110.764 1110.98 111.842ZM1118.69 116.889V108.404H1120.62V109.811H1120.72C1121.02 108.834 1121.84 108.279 1122.81 108.279C1123.03 108.279 1123.34 108.303 1123.53 108.326V110.17C1123.35 110.107 1122.94 110.053 1122.61 110.045C1121.5 110.053 1120.69 110.818 1120.69 111.889V116.889H1118.69ZM1129.78 110.826C1129.66 110.186 1129.12 109.771 1128.28 109.779C1127.43 109.771 1126.8 110.201 1126.81 110.779C1126.8 111.217 1127.16 111.545 1128.02 111.748L1129.45 112.045C1131.05 112.396 1131.84 113.139 1131.84 114.357C1131.84 115.951 1130.44 117.061 1128.22 117.061C1126.06 117.061 1124.79 116.092 1124.58 114.467H1126.61C1126.73 115.193 1127.29 115.553 1128.22 115.545C1129.18 115.553 1129.8 115.162 1129.81 114.529C1129.8 114.037 1129.42 113.725 1128.58 113.545L1127.22 113.248C1125.64 112.928 1124.82 112.1 1124.83 110.889C1124.82 109.318 1126.18 108.295 1128.25 108.295C1130.27 108.295 1131.52 109.287 1131.67 110.826H1129.78Z" fill="white"/>
<rect x="999" y="194.223" width="200" height="77.7778" rx="12" fill="#FFB724"/>
<path d="M1031.34 229.111V217.799H1033.37V227.393H1038.37V229.111H1031.34ZM1039.76 226.721C1039.76 224.814 1041.34 224.26 1042.91 224.158C1043.51 224.111 1044.72 224.057 1045.09 224.041L1045.09 223.361C1045.09 222.518 1044.55 222.033 1043.55 222.033C1042.66 222.033 1042.12 222.439 1041.96 223.049H1040.04C1040.18 221.604 1041.48 220.518 1043.6 220.518C1045.21 220.518 1047.07 221.182 1047.07 223.439V229.111H1045.16V227.939H1045.1C1044.73 228.658 1043.94 229.283 1042.6 229.283C1040.98 229.283 1039.76 228.4 1039.76 226.721ZM1041.68 226.705C1041.68 227.439 1042.28 227.814 1043.12 227.814C1044.33 227.814 1045.1 227.018 1045.1 226.064L1045.09 225.369C1044.73 225.385 1043.62 225.455 1043.23 225.486C1042.28 225.564 1041.68 225.963 1041.68 226.705ZM1049.2 229.111V220.627H1051.13V222.033H1051.23C1051.53 221.057 1052.34 220.502 1053.32 220.502C1053.54 220.502 1053.85 220.525 1054.04 220.549V222.393C1053.86 222.33 1053.45 222.275 1053.12 222.268C1052.01 222.275 1051.2 223.041 1051.2 224.111V229.111H1049.2ZM1058.9 232.471C1056.65 232.471 1055.22 231.471 1055.09 229.877H1057.07C1057.21 230.619 1057.91 230.963 1058.93 230.971C1060.12 230.963 1060.9 230.447 1060.9 229.205V227.58H1060.8C1060.49 228.205 1059.81 228.986 1058.35 228.986C1056.39 228.986 1054.85 227.564 1054.85 224.799C1054.85 222.01 1056.4 220.518 1058.37 220.518C1059.86 220.518 1060.49 221.416 1060.8 222.018H1060.9V220.627H1062.87V229.252C1062.87 231.424 1061.19 232.471 1058.9 232.471ZM1056.88 224.83C1056.88 226.393 1057.59 227.424 1058.9 227.424C1060.19 227.424 1060.91 226.455 1060.91 224.83C1060.91 223.213 1060.2 222.15 1058.9 222.143C1057.57 222.15 1056.88 223.283 1056.88 224.83ZM1068.79 229.283C1066.23 229.283 1064.66 227.58 1064.66 224.924C1064.66 222.299 1066.26 220.518 1068.68 220.518C1070.76 220.518 1072.55 221.822 1072.55 224.799V225.424H1066.63C1066.66 226.869 1067.52 227.729 1068.8 227.721C1069.68 227.729 1070.27 227.354 1070.52 226.846H1072.48C1072.12 228.314 1070.76 229.283 1068.79 229.283ZM1066.64 224.064H1070.65C1070.64 222.908 1069.86 222.064 1068.71 222.064C1067.52 222.064 1066.71 222.986 1066.64 224.064ZM1082.34 229.111H1078.49V217.799H1082.4C1085.77 217.799 1087.81 219.916 1087.82 223.439C1087.81 226.979 1085.77 229.111 1082.34 229.111ZM1080.52 227.346H1082.23C1084.59 227.354 1085.79 226.049 1085.79 223.439C1085.79 220.846 1084.59 219.557 1082.29 219.564H1080.52V227.346ZM1089.77 229.111V220.627H1091.77V229.111H1089.77ZM1089.63 218.33C1089.63 217.736 1090.16 217.252 1090.79 217.252C1091.42 217.252 1091.95 217.736 1091.95 218.33C1091.95 218.932 1091.42 219.416 1090.79 219.424C1090.16 219.416 1089.63 218.932 1089.63 218.33ZM1098.74 223.049C1098.62 222.408 1098.09 221.994 1097.24 222.002C1096.39 221.994 1095.77 222.424 1095.77 223.002C1095.77 223.439 1096.12 223.768 1096.98 223.971L1098.41 224.268C1100.02 224.619 1100.8 225.361 1100.8 226.58C1100.8 228.174 1099.4 229.283 1097.18 229.283C1095.02 229.283 1093.75 228.314 1093.54 226.689H1095.57C1095.69 227.416 1096.25 227.775 1097.18 227.768C1098.14 227.775 1098.77 227.385 1098.77 226.752C1098.77 226.26 1098.38 225.947 1097.54 225.768L1096.18 225.471C1094.6 225.15 1093.78 224.322 1093.79 223.111C1093.78 221.541 1095.14 220.518 1097.21 220.518C1099.23 220.518 1100.48 221.51 1100.63 223.049H1098.74ZM1106.8 220.627V222.158H1105.13V226.564C1105.13 227.377 1105.54 227.541 1106.04 227.549C1106.27 227.557 1106.66 227.533 1106.91 227.518V229.143C1106.68 229.182 1106.3 229.229 1105.79 229.221C1104.29 229.229 1103.13 228.486 1103.15 226.893V222.158H1101.93V220.627H1103.15V218.596H1105.13V220.627H1106.8ZM1108.59 229.111V220.627H1110.52V222.033H1110.62C1110.92 221.057 1111.73 220.502 1112.71 220.502C1112.93 220.502 1113.24 220.525 1113.43 220.549V222.393C1113.25 222.33 1112.84 222.275 1112.51 222.268C1111.4 222.275 1110.59 223.041 1110.59 224.111V229.111H1108.59ZM1114.87 229.111V220.627H1116.87V229.111H1114.87ZM1114.73 218.33C1114.73 217.736 1115.25 217.252 1115.88 217.252C1116.52 217.252 1117.04 217.736 1117.04 218.33C1117.04 218.932 1116.52 219.416 1115.88 219.424C1115.25 219.416 1114.73 218.932 1114.73 218.33ZM1119.12 229.111V217.799H1121.12V222.018H1121.2C1121.5 221.416 1122.12 220.518 1123.62 220.518C1125.58 220.518 1127.12 222.049 1127.13 224.877C1127.12 227.666 1125.62 229.26 1123.63 229.268C1122.16 229.26 1121.51 228.393 1121.2 227.768H1121.07V229.111H1119.12ZM1121.07 224.861C1121.07 226.518 1121.8 227.627 1123.07 227.627C1124.4 227.627 1125.09 226.463 1125.1 224.861C1125.09 223.283 1124.41 222.15 1123.07 222.143C1121.78 222.15 1121.07 223.213 1121.07 224.861ZM1134.37 225.549V220.627H1136.35V229.111H1134.43V227.611H1134.34C1133.95 228.557 1133.05 229.221 1131.79 229.221C1130.11 229.221 1128.95 228.064 1128.95 226.033V220.627H1130.95V225.721C1130.95 226.799 1131.59 227.486 1132.55 227.486C1133.43 227.486 1134.37 226.846 1134.37 225.549ZM1142.74 220.627V222.158H1141.07V226.564C1141.07 227.377 1141.48 227.541 1141.98 227.549C1142.21 227.557 1142.6 227.533 1142.85 227.518V229.143C1142.62 229.182 1142.23 229.229 1141.73 229.221C1140.23 229.229 1139.07 228.486 1139.09 226.893V222.158H1137.87V220.627H1139.09V218.596H1141.07V220.627H1142.74ZM1148.13 229.283C1145.66 229.283 1144.07 227.525 1144.07 224.908C1144.07 222.268 1145.66 220.518 1148.13 220.518C1150.62 220.518 1152.2 222.268 1152.2 224.908C1152.2 227.525 1150.62 229.283 1148.13 229.283ZM1146.09 224.893C1146.09 226.447 1146.77 227.689 1148.15 227.689C1149.51 227.689 1150.19 226.447 1150.18 224.893C1150.19 223.338 1149.51 222.088 1148.15 222.096C1146.77 222.088 1146.09 223.338 1146.09 224.893ZM1153.99 229.111V220.627H1155.93V222.033H1156.02C1156.33 221.057 1157.14 220.502 1158.12 220.502C1158.34 220.502 1158.65 220.525 1158.84 220.549V222.393C1158.66 222.33 1158.24 222.275 1157.91 222.268C1156.8 222.275 1155.99 223.041 1155.99 224.111V229.111H1153.99ZM1165.09 223.049C1164.96 222.408 1164.43 221.994 1163.59 222.002C1162.73 221.994 1162.11 222.424 1162.12 223.002C1162.11 223.439 1162.46 223.768 1163.32 223.971L1164.76 224.268C1166.36 224.619 1167.14 225.361 1167.15 226.58C1167.14 228.174 1165.74 229.283 1163.52 229.283C1161.37 229.283 1160.09 228.314 1159.88 226.689H1161.91C1162.03 227.416 1162.59 227.775 1163.52 227.768C1164.48 227.775 1165.11 227.385 1165.12 226.752C1165.11 226.26 1164.73 225.947 1163.88 225.768L1162.52 225.471C1160.95 225.15 1160.12 224.322 1160.13 223.111C1160.12 221.541 1161.48 220.518 1163.55 220.518C1165.58 220.518 1166.83 221.51 1166.98 223.049H1165.09ZM1012.21 237.268L1008.57 250.814H1006.82L1010.48 237.268H1012.21ZM1017.73 249.111V237.799H1021.98C1024.57 237.799 1025.95 239.377 1025.96 241.549C1025.95 243.713 1024.55 245.283 1021.95 245.283H1019.76V249.111H1017.73ZM1019.76 243.611H1021.66C1023.2 243.604 1023.88 242.744 1023.88 241.549C1023.88 240.338 1023.2 239.502 1021.66 239.502H1019.76V243.611ZM1027.76 249.111V240.627H1029.7V242.033H1029.79C1030.09 241.057 1030.91 240.502 1031.88 240.502C1032.1 240.502 1032.41 240.525 1032.6 240.549V242.393C1032.42 242.33 1032.01 242.275 1031.68 242.268C1030.57 242.275 1029.76 243.041 1029.76 244.111V249.111H1027.76ZM1037.46 249.283C1034.98 249.283 1033.4 247.525 1033.4 244.908C1033.4 242.268 1034.98 240.518 1037.46 240.518C1039.95 240.518 1041.53 242.268 1041.52 244.908C1041.53 247.525 1039.95 249.283 1037.46 249.283ZM1035.41 244.893C1035.41 246.447 1036.09 247.689 1037.48 247.689C1038.84 247.689 1039.52 246.447 1039.51 244.893C1039.52 243.338 1038.84 242.088 1037.48 242.096C1036.09 242.088 1035.41 243.338 1035.41 244.893ZM1047.02 249.283C1044.49 249.283 1042.96 247.471 1042.96 244.908C1042.96 242.307 1044.54 240.518 1047.02 240.518C1049.08 240.518 1050.52 241.721 1050.66 243.549H1048.76C1048.6 242.736 1048.01 242.119 1047.04 242.111C1045.8 242.119 1044.98 243.15 1044.98 244.861C1044.98 246.611 1045.79 247.65 1047.04 247.658C1047.92 247.65 1048.58 247.135 1048.76 246.221H1050.66C1050.52 248.01 1049.16 249.283 1047.02 249.283ZM1056.18 249.283C1053.62 249.283 1052.05 247.58 1052.05 244.924C1052.05 242.299 1053.65 240.518 1056.07 240.518C1058.15 240.518 1059.95 241.822 1059.95 244.799V245.424H1054.02C1054.05 246.869 1054.91 247.729 1056.2 247.721C1057.07 247.729 1057.66 247.354 1057.91 246.846H1059.87C1059.51 248.314 1058.15 249.283 1056.18 249.283ZM1054.03 244.064H1058.04C1058.03 242.908 1057.25 242.064 1056.1 242.064C1054.91 242.064 1054.1 242.986 1054.03 244.064ZM1066.55 243.049C1066.43 242.408 1065.9 241.994 1065.05 242.002C1064.2 241.994 1063.58 242.424 1063.59 243.002C1063.58 243.439 1063.93 243.768 1064.79 243.971L1066.23 244.268C1067.83 244.619 1068.61 245.361 1068.62 246.58C1068.61 248.174 1067.21 249.283 1064.99 249.283C1062.84 249.283 1061.56 248.314 1061.35 246.689H1063.38C1063.5 247.416 1064.06 247.775 1064.99 247.768C1065.95 247.775 1066.58 247.385 1066.59 246.752C1066.58 246.26 1066.2 245.947 1065.35 245.768L1063.99 245.471C1062.41 245.15 1061.59 244.322 1061.6 243.111C1061.59 241.541 1062.95 240.518 1065.02 240.518C1067.05 240.518 1068.3 241.51 1068.45 243.049H1066.55ZM1075.2 243.049C1075.07 242.408 1074.54 241.994 1073.7 242.002C1072.84 241.994 1072.22 242.424 1072.23 243.002C1072.22 243.439 1072.57 243.768 1073.43 243.971L1074.87 244.268C1076.47 244.619 1077.25 245.361 1077.26 246.58C1077.25 248.174 1075.85 249.283 1073.63 249.283C1071.48 249.283 1070.2 248.314 1069.99 246.689H1072.02C1072.14 247.416 1072.7 247.775 1073.63 247.768C1074.59 247.775 1075.22 247.385 1075.23 246.752C1075.22 246.26 1074.84 245.947 1073.99 245.768L1072.63 245.471C1071.05 245.15 1070.23 244.322 1070.24 243.111C1070.23 241.541 1071.59 240.518 1073.66 240.518C1075.69 240.518 1076.94 241.51 1077.09 243.049H1075.2ZM1079.02 249.111V240.627H1081.02V249.111H1079.02ZM1078.88 238.33C1078.88 237.736 1079.41 237.252 1080.04 237.252C1080.67 237.252 1081.2 237.736 1081.2 238.33C1081.2 238.932 1080.67 239.416 1080.04 239.424C1079.41 239.416 1078.88 238.932 1078.88 238.33ZM1085.18 244.143V249.111H1083.18V240.627H1085.09V242.064H1085.2C1085.58 241.119 1086.45 240.518 1087.71 240.518C1089.47 240.518 1090.62 241.674 1090.62 243.705V249.111H1088.63V244.018C1088.63 242.877 1088.02 242.197 1086.98 242.205C1085.92 242.197 1085.18 242.908 1085.18 244.143ZM1096.48 252.471C1094.23 252.471 1092.8 251.471 1092.66 249.877H1094.65C1094.79 250.619 1095.48 250.963 1096.51 250.971C1097.7 250.963 1098.48 250.447 1098.48 249.205V247.58H1098.38C1098.07 248.205 1097.39 248.986 1095.93 248.986C1093.97 248.986 1092.43 247.564 1092.43 244.799C1092.43 242.01 1093.98 240.518 1095.95 240.518C1097.44 240.518 1098.07 241.416 1098.38 242.018H1098.48V240.627H1100.45V249.252C1100.45 251.424 1098.77 252.471 1096.48 252.471ZM1094.46 244.83C1094.46 246.393 1095.16 247.424 1096.48 247.424C1097.77 247.424 1098.49 246.455 1098.49 244.83C1098.49 243.213 1097.77 242.15 1096.48 242.143C1095.15 242.15 1094.46 243.283 1094.46 244.83ZM1114.37 241.611C1114.12 240.252 1113.04 239.471 1111.66 239.471C1109.81 239.471 1108.5 240.893 1108.51 243.455C1108.5 246.057 1109.82 247.439 1111.66 247.439C1113.01 247.439 1114.09 246.689 1114.37 245.361H1116.41C1116.1 247.533 1114.31 249.268 1111.63 249.268C1108.65 249.268 1106.45 247.104 1106.46 243.455C1106.45 239.799 1108.67 237.643 1111.63 237.643C1114.13 237.643 1116.06 239.096 1116.41 241.611H1114.37ZM1122.02 249.283C1119.55 249.283 1117.96 247.525 1117.96 244.908C1117.96 242.268 1119.55 240.518 1122.02 240.518C1124.51 240.518 1126.09 242.268 1126.09 244.908C1126.09 247.525 1124.51 249.283 1122.02 249.283ZM1119.98 244.893C1119.98 246.447 1120.66 247.689 1122.04 247.689C1123.4 247.689 1124.08 246.447 1124.07 244.893C1124.08 243.338 1123.4 242.088 1122.04 242.096C1120.66 242.088 1119.98 243.338 1119.98 244.893ZM1127.88 249.111V240.627H1129.79V242.064H1129.9C1130.25 241.096 1131.1 240.518 1132.23 240.518C1133.38 240.518 1134.2 241.104 1134.52 242.064H1134.62C1134.98 241.127 1135.93 240.518 1137.16 240.518C1138.72 240.518 1139.81 241.518 1139.8 243.408V249.111H1137.82V243.721C1137.82 242.666 1137.18 242.189 1136.37 242.189C1135.39 242.189 1134.82 242.854 1134.82 243.814V249.111H1132.88V243.643C1132.88 242.76 1132.3 242.189 1131.45 242.189C1130.59 242.189 1129.88 242.9 1129.88 243.955V249.111H1127.88ZM1141.96 252.299V240.627H1143.91V242.018H1144.04C1144.34 241.416 1144.97 240.518 1146.48 240.518C1148.43 240.518 1149.97 242.049 1149.98 244.877C1149.97 247.666 1148.48 249.26 1146.48 249.268C1145.02 249.26 1144.35 248.393 1144.04 247.768H1143.96V252.299H1141.96ZM1143.91 244.861C1143.92 246.518 1144.64 247.627 1145.93 247.627C1147.25 247.627 1147.95 246.463 1147.95 244.861C1147.95 243.283 1147.27 242.15 1145.93 242.143C1144.62 242.15 1143.92 243.213 1143.91 244.861ZM1151.4 246.721C1151.4 244.814 1152.98 244.26 1154.55 244.158C1155.15 244.111 1156.36 244.057 1156.73 244.041L1156.73 243.361C1156.73 242.518 1156.19 242.033 1155.2 242.033C1154.3 242.033 1153.76 242.439 1153.6 243.049H1151.68C1151.82 241.604 1153.12 240.518 1155.24 240.518C1156.85 240.518 1158.71 241.182 1158.71 243.439V249.111H1156.8V247.939H1156.74C1156.37 248.658 1155.58 249.283 1154.24 249.283C1152.62 249.283 1151.4 248.4 1151.4 246.721ZM1153.32 246.705C1153.32 247.439 1153.92 247.814 1154.76 247.814C1155.97 247.814 1156.74 247.018 1156.74 246.064L1156.73 245.369C1156.38 245.385 1155.27 245.455 1154.87 245.486C1153.92 245.564 1153.32 245.963 1153.32 246.705ZM1162.84 244.143V249.111H1160.84V240.627H1162.74V242.064H1162.85C1163.23 241.119 1164.1 240.518 1165.37 240.518C1167.12 240.518 1168.28 241.674 1168.27 243.705V249.111H1166.29V244.018C1166.29 242.877 1165.67 242.197 1164.63 242.205C1163.58 242.197 1162.84 242.908 1162.84 244.143ZM1170.43 249.111V240.627H1172.43V249.111H1170.43ZM1170.29 238.33C1170.29 237.736 1170.81 237.252 1171.45 237.252C1172.08 237.252 1172.6 237.736 1172.6 238.33C1172.6 238.932 1172.08 239.416 1171.45 239.424C1170.81 239.416 1170.29 238.932 1170.29 238.33ZM1178.35 249.283C1175.8 249.283 1174.23 247.58 1174.23 244.924C1174.23 242.299 1175.82 240.518 1178.24 240.518C1180.32 240.518 1182.12 241.822 1182.12 244.799V245.424H1176.2C1176.23 246.869 1177.08 247.729 1178.37 247.721C1179.24 247.729 1179.83 247.354 1180.09 246.846H1182.04C1181.68 248.314 1180.32 249.283 1178.35 249.283ZM1176.2 244.064H1180.21C1180.2 242.908 1179.42 242.064 1178.27 242.064C1177.08 242.064 1176.27 242.986 1176.2 244.064ZM1188.73 243.049C1188.6 242.408 1188.07 241.994 1187.23 242.002C1186.38 241.994 1185.75 242.424 1185.76 243.002C1185.75 243.439 1186.1 243.768 1186.96 243.971L1188.4 244.268C1190 244.619 1190.78 245.361 1190.79 246.58C1190.78 248.174 1189.38 249.283 1187.16 249.283C1185.01 249.283 1183.73 248.314 1183.52 246.689H1185.55C1185.67 247.416 1186.23 247.775 1187.16 247.768C1188.12 247.775 1188.75 247.385 1188.76 246.752C1188.75 246.26 1188.37 245.947 1187.52 245.768L1186.16 245.471C1184.59 245.15 1183.77 244.322 1183.77 243.111C1183.77 241.541 1185.12 240.518 1187.2 240.518C1189.22 240.518 1190.47 241.51 1190.62 243.049H1188.73Z" fill="white"/>
<path d="M247.93 154V142.688H252.18C254.773 142.688 256.156 144.266 256.164 146.438C256.156 148.602 254.758 150.172 252.148 150.172H249.961V154H247.93ZM249.961 148.5H251.867C253.398 148.492 254.086 147.633 254.086 146.438C254.086 145.227 253.398 144.391 251.867 144.391H249.961V148.5ZM263.383 150.438V145.516H265.367V154H263.445V152.5H263.352C262.961 153.445 262.07 154.109 260.805 154.109C259.125 154.109 257.969 152.953 257.961 150.922V145.516H259.961V150.609C259.961 151.688 260.602 152.375 261.57 152.375C262.445 152.375 263.383 151.734 263.383 150.438ZM267.523 154V145.516H269.461V146.922H269.555C269.859 145.945 270.672 145.391 271.648 145.391C271.867 145.391 272.18 145.414 272.367 145.438V147.281C272.188 147.219 271.773 147.164 271.445 147.156C270.336 147.164 269.523 147.93 269.523 149V154H267.523ZM277.227 154.172C274.695 154.172 273.164 152.359 273.164 149.797C273.164 147.195 274.742 145.406 277.227 145.406C279.281 145.406 280.727 146.609 280.867 148.438H278.961C278.805 147.625 278.211 147.008 277.242 147C276.008 147.008 275.18 148.039 275.18 149.75C275.18 151.5 275.992 152.539 277.242 152.547C278.125 152.539 278.781 152.023 278.961 151.109H280.867C280.719 152.898 279.359 154.172 277.227 154.172ZM284.617 149.031V154H282.617V142.688H284.57V146.953H284.68C285.062 145.992 285.891 145.406 287.195 145.406C288.953 145.406 290.117 146.547 290.117 148.594V154H288.133V148.906C288.125 147.75 287.508 147.086 286.461 147.094C285.383 147.086 284.617 147.797 284.617 149.031ZM291.867 151.609C291.867 149.703 293.453 149.148 295.023 149.047C295.617 149 296.828 148.945 297.203 148.93L297.195 148.25C297.195 147.406 296.656 146.922 295.664 146.922C294.773 146.922 294.227 147.328 294.07 147.938H292.148C292.289 146.492 293.586 145.406 295.711 145.406C297.32 145.406 299.18 146.07 299.18 148.328V154H297.273V152.828H297.211C296.836 153.547 296.047 154.172 294.711 154.172C293.094 154.172 291.867 153.289 291.867 151.609ZM293.789 151.594C293.789 152.328 294.391 152.703 295.227 152.703C296.438 152.703 297.211 151.906 297.211 150.953L297.203 150.258C296.844 150.273 295.734 150.344 295.336 150.375C294.391 150.453 293.789 150.852 293.789 151.594ZM306.117 147.938C305.992 147.297 305.461 146.883 304.617 146.891C303.766 146.883 303.141 147.312 303.148 147.891C303.141 148.328 303.492 148.656 304.352 148.859L305.789 149.156C307.391 149.508 308.172 150.25 308.18 151.469C308.172 153.062 306.773 154.172 304.555 154.172C302.398 154.172 301.125 153.203 300.914 151.578H302.945C303.062 152.305 303.625 152.664 304.555 152.656C305.516 152.664 306.141 152.273 306.148 151.641C306.141 151.148 305.758 150.836 304.914 150.656L303.555 150.359C301.977 150.039 301.156 149.211 301.164 148C301.156 146.43 302.516 145.406 304.586 145.406C306.609 145.406 307.859 146.398 308.008 147.938H306.117ZM313.711 154.172C311.156 154.172 309.586 152.469 309.586 149.812C309.586 147.188 311.18 145.406 313.602 145.406C315.68 145.406 317.477 146.711 317.477 149.688V150.312H311.555C311.586 151.758 312.438 152.617 313.727 152.609C314.602 152.617 315.188 152.242 315.445 151.734H317.398C317.039 153.203 315.68 154.172 313.711 154.172ZM311.562 148.953H315.57C315.562 147.797 314.781 146.953 313.633 146.953C312.438 146.953 311.633 147.875 311.562 148.953ZM323.883 142.156L320.242 155.703H318.492L322.148 142.156H323.883ZM332.977 146.5C332.734 145.141 331.648 144.359 330.273 144.359C328.422 144.359 327.109 145.781 327.117 148.344C327.109 150.945 328.43 152.328 330.273 152.328C331.617 152.328 332.703 151.578 332.977 150.25H335.023C334.711 152.422 332.922 154.156 330.242 154.156C327.258 154.156 325.062 151.992 325.07 148.344C325.062 144.688 327.281 142.531 330.242 142.531C332.742 142.531 334.672 143.984 335.023 146.5H332.977ZM340.633 154.172C338.156 154.172 336.57 152.414 336.57 149.797C336.57 147.156 338.156 145.406 340.633 145.406C343.117 145.406 344.703 147.156 344.695 149.797C344.703 152.414 343.117 154.172 340.633 154.172ZM338.586 149.781C338.586 151.336 339.266 152.578 340.648 152.578C342.008 152.578 342.688 151.336 342.68 149.781C342.688 148.227 342.008 146.977 340.648 146.984C339.266 146.977 338.586 148.227 338.586 149.781ZM348.492 149.031V154H346.492V145.516H348.398V146.953H348.508C348.891 146.008 349.758 145.406 351.023 145.406C352.781 145.406 353.938 146.562 353.93 148.594V154H351.945V148.906C351.945 147.766 351.328 147.086 350.289 147.094C349.234 147.086 348.492 147.797 348.492 149.031ZM360.898 147.938C360.773 147.297 360.242 146.883 359.398 146.891C358.547 146.883 357.922 147.312 357.93 147.891C357.922 148.328 358.273 148.656 359.133 148.859L360.57 149.156C362.172 149.508 362.953 150.25 362.961 151.469C362.953 153.062 361.555 154.172 359.336 154.172C357.18 154.172 355.906 153.203 355.695 151.578H357.727C357.844 152.305 358.406 152.664 359.336 152.656C360.297 152.664 360.922 152.273 360.93 151.641C360.922 151.148 360.539 150.836 359.695 150.656L358.336 150.359C356.758 150.039 355.938 149.211 355.945 148C355.938 146.43 357.297 145.406 359.367 145.406C361.391 145.406 362.641 146.398 362.789 147.938H360.898ZM364.727 154V145.516H366.727V154H364.727ZM364.586 143.219C364.586 142.625 365.109 142.141 365.742 142.141C366.375 142.141 366.898 142.625 366.898 143.219C366.898 143.82 366.375 144.305 365.742 144.312C365.109 144.305 364.586 143.82 364.586 143.219ZM372.586 157.359C370.336 157.359 368.906 156.359 368.773 154.766H370.758C370.898 155.508 371.594 155.852 372.617 155.859C373.812 155.852 374.586 155.336 374.586 154.094V152.469H374.492C374.18 153.094 373.5 153.875 372.039 153.875C370.078 153.875 368.539 152.453 368.539 149.688C368.539 146.898 370.086 145.406 372.055 145.406C373.547 145.406 374.18 146.305 374.492 146.906H374.586V145.516H376.555V154.141C376.555 156.312 374.875 157.359 372.586 157.359ZM370.57 149.719C370.57 151.281 371.273 152.312 372.586 152.312C373.875 152.312 374.602 151.344 374.602 149.719C374.602 148.102 373.883 147.039 372.586 147.031C371.258 147.039 370.57 148.172 370.57 149.719ZM380.711 149.031V154H378.711V145.516H380.617V146.953H380.727C381.109 146.008 381.977 145.406 383.242 145.406C385 145.406 386.156 146.562 386.148 148.594V154H384.164V148.906C384.164 147.766 383.547 147.086 382.508 147.094C381.453 147.086 380.711 147.797 380.711 149.031ZM388.305 154V145.516H390.211V146.953H390.32C390.672 145.984 391.523 145.406 392.648 145.406C393.797 145.406 394.625 145.992 394.945 146.953H395.039C395.406 146.016 396.352 145.406 397.586 145.406C399.141 145.406 400.234 146.406 400.227 148.297V154H398.242V148.609C398.242 147.555 397.602 147.078 396.789 147.078C395.812 147.078 395.242 147.742 395.242 148.703V154H393.305V148.531C393.297 147.648 392.719 147.078 391.867 147.078C391.008 147.078 390.305 147.789 390.305 148.844V154H388.305ZM406.148 154.172C403.594 154.172 402.023 152.469 402.023 149.812C402.023 147.188 403.617 145.406 406.039 145.406C408.117 145.406 409.914 146.711 409.914 149.688V150.312H403.992C404.023 151.758 404.875 152.617 406.164 152.609C407.039 152.617 407.625 152.242 407.883 151.734H409.836C409.477 153.203 408.117 154.172 406.148 154.172ZM404 148.953H408.008C408 147.797 407.219 146.953 406.07 146.953C404.875 146.953 404.07 147.875 404 148.953ZM413.711 149.031V154H411.711V145.516H413.617V146.953H413.727C414.109 146.008 414.977 145.406 416.242 145.406C418 145.406 419.156 146.562 419.148 148.594V154H417.164V148.906C417.164 147.766 416.547 147.086 415.508 147.094C414.453 147.086 413.711 147.797 413.711 149.031ZM425.539 145.516V147.047H423.867V151.453C423.867 152.266 424.273 152.43 424.773 152.438C425.008 152.445 425.398 152.422 425.648 152.406V154.031C425.414 154.07 425.031 154.117 424.523 154.109C423.023 154.117 421.867 153.375 421.883 151.781V147.047H420.664V145.516H421.883V143.484H423.867V145.516H425.539Z" fill="black"/>
<path d="M761.641 145.797C761.539 144.82 760.719 144.258 759.5 144.266C758.211 144.258 757.445 144.883 757.438 145.734C757.43 146.688 758.438 147.078 759.375 147.297L760.438 147.578C762.125 147.969 763.75 148.859 763.75 150.828C763.75 152.812 762.18 154.172 759.469 154.172C756.836 154.172 755.164 152.906 755.078 150.672H757.078C757.172 151.852 758.164 152.43 759.453 152.438C760.789 152.43 761.711 151.781 761.719 150.812C761.711 149.922 760.898 149.547 759.672 149.234L758.391 148.906C756.531 148.422 755.375 147.484 755.375 145.859C755.375 143.859 757.148 142.531 759.531 142.531C761.93 142.531 763.562 143.883 763.594 145.797H761.641ZM765.203 151.609C765.203 149.703 766.789 149.148 768.359 149.047C768.953 149 770.164 148.945 770.539 148.93L770.531 148.25C770.531 147.406 769.992 146.922 769 146.922C768.109 146.922 767.562 147.328 767.406 147.938H765.484C765.625 146.492 766.922 145.406 769.047 145.406C770.656 145.406 772.516 146.07 772.516 148.328V154H770.609V152.828H770.547C770.172 153.547 769.383 154.172 768.047 154.172C766.43 154.172 765.203 153.289 765.203 151.609ZM767.125 151.594C767.125 152.328 767.727 152.703 768.562 152.703C769.773 152.703 770.547 151.906 770.547 150.953L770.539 150.258C770.18 150.273 769.07 150.344 768.672 150.375C767.727 150.453 767.125 150.852 767.125 151.594ZM776.641 142.688V154H774.641V142.688H776.641ZM782.562 154.172C780.008 154.172 778.438 152.469 778.438 149.812C778.438 147.188 780.031 145.406 782.453 145.406C784.531 145.406 786.328 146.711 786.328 149.688V150.312H780.406C780.438 151.758 781.289 152.617 782.578 152.609C783.453 152.617 784.039 152.242 784.297 151.734H786.25C785.891 153.203 784.531 154.172 782.562 154.172ZM780.414 148.953H784.422C784.414 147.797 783.633 146.953 782.484 146.953C781.289 146.953 780.484 147.875 780.414 148.953ZM792.938 147.938C792.812 147.297 792.281 146.883 791.438 146.891C790.586 146.883 789.961 147.312 789.969 147.891C789.961 148.328 790.312 148.656 791.172 148.859L792.609 149.156C794.211 149.508 794.992 150.25 795 151.469C794.992 153.062 793.594 154.172 791.375 154.172C789.219 154.172 787.945 153.203 787.734 151.578H789.766C789.883 152.305 790.445 152.664 791.375 152.656C792.336 152.664 792.961 152.273 792.969 151.641C792.961 151.148 792.578 150.836 791.734 150.656L790.375 150.359C788.797 150.039 787.977 149.211 787.984 148C787.977 146.43 789.336 145.406 791.406 145.406C793.43 145.406 794.68 146.398 794.828 147.938H792.938Z" fill="black"/>
<path d="M178.667 172C178.667 174.946 181.054 177.333 184 177.333C186.946 177.333 189.333 174.946 189.333 172C189.333 169.054 186.946 166.667 184 166.667C181.054 166.667 178.667 169.054 178.667 172ZM489 172L479 166.227L479 177.774L489 172ZM184 173L480 173L480 171L184 171L184 173Z" fill="#B2C0C9"/>
<path d="M999 117L989 122.774V111.226L999 117ZM851 117H850V116H851V117ZM851 227V228H850V227H851ZM999 227L989 232.774V221.226L999 227ZM990 118H851V116H990V118ZM851 226H990V228H851V226ZM852 117V172H850V117H852ZM852 172V227H850V172H852Z" fill="#B2C0C9"/>
<path d="M698.333 173C698.333 175.946 695.946 178.333 693 178.333C690.054 178.333 687.667 175.946 687.667 173C687.667 170.054 690.054 167.667 693 167.667C695.946 167.667 698.333 170.054 698.333 173ZM851 174H693V172H851V174Z" fill="#B2C0C9"/>
</svg>
