<svg width="1100" height="463" viewBox="0 0 1100 463" fill="none" xmlns="http://www.w3.org/2000/svg">
<mask id="path-1-inside-1_496_6862" fill="white">
<path d="M256 144.539H689V447.539H256V144.539Z"/>
</mask>
<path d="M689 447.539V451.539H693V447.539H689ZM256 447.539H252V451.539H256V447.539ZM685 144.539V447.539H693V144.539H685ZM689 443.539H256V451.539H689V443.539ZM260 447.539V144.539H252V447.539H260Z" fill="#E0E0E0" mask="url(#path-1-inside-1_496_6862)"/>
<rect width="433" height="64" transform="translate(256 84.5391)" fill="#E0E0E0"/>
<path d="M391.777 123.539L387.793 109.398H390.527L393.086 119.809H393.223L395.938 109.398H398.438L401.172 119.828H401.289L403.848 109.398H406.582L402.598 123.539H400.078L397.246 113.598H397.148L394.297 123.539H391.777ZM410.836 117.328V123.539H408.336V109.398H410.777V114.73H410.914C411.393 113.529 412.428 112.797 414.059 112.797C416.256 112.797 417.711 114.223 417.711 116.781V123.539H415.23V117.172C415.221 115.727 414.449 114.896 413.141 114.906C411.793 114.896 410.836 115.785 410.836 117.328ZM424.953 123.754C421.857 123.754 419.875 121.557 419.875 118.285C419.875 114.984 421.857 112.797 424.953 112.797C428.059 112.797 430.041 114.984 430.031 118.285C430.041 121.557 428.059 123.754 424.953 123.754ZM422.395 118.266C422.395 120.209 423.244 121.762 424.973 121.762C426.672 121.762 427.521 120.209 427.512 118.266C427.521 116.322 426.672 114.76 424.973 114.77C423.244 114.76 422.395 116.322 422.395 118.266ZM434.715 109.398V123.539H432.215V109.398H434.715ZM442.055 123.754C438.861 123.754 436.898 121.625 436.898 118.305C436.898 115.023 438.891 112.797 441.918 112.797C444.516 112.797 446.762 114.428 446.762 118.148V118.93H439.359C439.398 120.736 440.463 121.811 442.074 121.801C443.168 121.811 443.9 121.342 444.223 120.707H446.664C446.215 122.543 444.516 123.754 442.055 123.754ZM439.369 117.23H444.379C444.369 115.785 443.393 114.73 441.957 114.73C440.463 114.73 439.457 115.883 439.369 117.23ZM454.961 115.961C454.805 115.16 454.141 114.643 453.086 114.652C452.021 114.643 451.24 115.18 451.25 115.902C451.24 116.449 451.68 116.859 452.754 117.113L454.551 117.484C456.553 117.924 457.529 118.852 457.539 120.375C457.529 122.367 455.781 123.754 453.008 123.754C450.312 123.754 448.721 122.543 448.457 120.512H450.996C451.143 121.42 451.846 121.869 453.008 121.859C454.209 121.869 454.99 121.381 455 120.59C454.99 119.975 454.512 119.584 453.457 119.359L451.758 118.988C449.785 118.588 448.76 117.553 448.77 116.039C448.76 114.076 450.459 112.797 453.047 112.797C455.576 112.797 457.139 114.037 457.324 115.961H454.961ZM459.195 120.551C459.195 118.168 461.178 117.475 463.141 117.348C463.883 117.289 465.396 117.221 465.865 117.201L465.855 116.352C465.855 115.297 465.182 114.691 463.941 114.691C462.828 114.691 462.145 115.199 461.949 115.961H459.547C459.723 114.154 461.344 112.797 464 112.797C466.012 112.797 468.336 113.627 468.336 116.449V123.539H465.953V122.074H465.875C465.406 122.973 464.42 123.754 462.75 123.754C460.729 123.754 459.195 122.65 459.195 120.551ZM461.598 120.531C461.598 121.449 462.35 121.918 463.395 121.918C464.908 121.918 465.875 120.922 465.875 119.73L465.865 118.861C465.416 118.881 464.029 118.969 463.531 119.008C462.35 119.105 461.598 119.604 461.598 120.531ZM473.43 109.398V123.539H470.93V109.398H473.43ZM480.77 123.754C477.576 123.754 475.613 121.625 475.613 118.305C475.613 115.023 477.605 112.797 480.633 112.797C483.23 112.797 485.477 114.428 485.477 118.148V118.93H478.074C478.113 120.736 479.178 121.811 480.789 121.801C481.883 121.811 482.615 121.342 482.938 120.707H485.379C484.93 122.543 483.23 123.754 480.77 123.754ZM478.084 117.23H483.094C483.084 115.785 482.107 114.73 480.672 114.73C479.178 114.73 478.172 115.883 478.084 117.23ZM492.656 123.539V112.934H495.039V114.73H495.176C495.615 113.52 496.68 112.797 498.086 112.797C499.521 112.797 500.557 113.529 500.957 114.73H501.074C501.533 113.559 502.715 112.797 504.258 112.797C506.201 112.797 507.568 114.047 507.559 116.41V123.539H505.078V116.801C505.078 115.482 504.277 114.887 503.262 114.887C502.041 114.887 501.328 115.717 501.328 116.918V123.539H498.906V116.703C498.896 115.6 498.174 114.887 497.109 114.887C496.035 114.887 495.156 115.775 495.156 117.094V123.539H492.656ZM509.703 120.551C509.703 118.168 511.686 117.475 513.648 117.348C514.391 117.289 515.904 117.221 516.373 117.201L516.363 116.352C516.363 115.297 515.689 114.691 514.449 114.691C513.336 114.691 512.652 115.199 512.457 115.961H510.055C510.23 114.154 511.852 112.797 514.508 112.797C516.52 112.797 518.844 113.627 518.844 116.449V123.539H516.461V122.074H516.383C515.914 122.973 514.928 123.754 513.258 123.754C511.236 123.754 509.703 122.65 509.703 120.551ZM512.105 120.531C512.105 121.449 512.857 121.918 513.902 121.918C515.416 121.918 516.383 120.922 516.383 119.73L516.373 118.861C515.924 118.881 514.537 118.969 514.039 119.008C512.857 119.105 512.105 119.604 512.105 120.531ZM521.438 123.539V112.934H523.859V114.691H523.977C524.357 113.471 525.373 112.777 526.594 112.777C526.867 112.777 527.258 112.807 527.492 112.836V115.141C527.268 115.062 526.75 114.994 526.34 114.984C524.953 114.994 523.938 115.951 523.938 117.289V123.539H521.438ZM529.227 123.539V109.398H531.727V117.191H531.902L535.711 112.934H538.621L534.51 117.504L538.875 123.539H535.906L532.645 118.988L531.727 119.965V123.539H529.227ZM544.613 123.754C541.42 123.754 539.457 121.625 539.457 118.305C539.457 115.023 541.449 112.797 544.477 112.797C547.074 112.797 549.32 114.428 549.32 118.148V118.93H541.918C541.957 120.736 543.021 121.811 544.633 121.801C545.727 121.811 546.459 121.342 546.781 120.707H549.223C548.773 122.543 547.074 123.754 544.613 123.754ZM541.928 117.23H546.938C546.928 115.785 545.951 114.73 544.516 114.73C543.021 114.73 542.016 115.883 541.928 117.23ZM556.797 112.934V114.848H554.707V120.355C554.707 121.371 555.215 121.576 555.84 121.586C556.133 121.596 556.621 121.566 556.934 121.547V123.578C556.641 123.627 556.162 123.686 555.527 123.676C553.652 123.686 552.207 122.758 552.227 120.766V114.848H550.703V112.934H552.227V110.395H554.707V112.934H556.797Z" fill="black"/>
<rect x="0.5" y="197.039" width="179" height="69" rx="34.5" fill="white"/>
<rect x="0.5" y="197.039" width="179" height="69" rx="34.5" stroke="#ABBBC5"/>
<path d="M46.3828 227.539V216.227H50.6328C53.2266 216.227 54.6094 217.805 54.6172 219.977C54.6094 222.141 53.2109 223.711 50.6016 223.711H48.4141V227.539H46.3828ZM48.4141 222.039H50.3203C51.8516 222.031 52.5391 221.172 52.5391 219.977C52.5391 218.766 51.8516 217.93 50.3203 217.93H48.4141V222.039ZM56.4141 227.539V219.055H58.3516V220.461H58.4453C58.75 219.484 59.5625 218.93 60.5391 218.93C60.7578 218.93 61.0703 218.953 61.2578 218.977V220.82C61.0781 220.758 60.6641 220.703 60.3359 220.695C59.2266 220.703 58.4141 221.469 58.4141 222.539V227.539H56.4141ZM66.1172 227.711C63.6406 227.711 62.0547 225.953 62.0547 223.336C62.0547 220.695 63.6406 218.945 66.1172 218.945C68.6016 218.945 70.1875 220.695 70.1797 223.336C70.1875 225.953 68.6016 227.711 66.1172 227.711ZM64.0703 223.32C64.0703 224.875 64.75 226.117 66.1328 226.117C67.4922 226.117 68.1719 224.875 68.1641 223.32C68.1719 221.766 67.4922 220.516 66.1328 220.523C64.75 220.516 64.0703 221.766 64.0703 223.32ZM75.1328 227.695C73.1406 227.688 71.6328 226.094 71.6328 223.305C71.6328 220.477 73.1797 218.945 75.1484 218.945C76.6406 218.945 77.2656 219.844 77.5703 220.445H77.6484V216.227H79.6328V227.539H77.6797V226.195H77.5703C77.25 226.82 76.6016 227.688 75.1328 227.695ZM73.6641 223.289C73.6641 224.891 74.3672 226.055 75.6797 226.055C76.9688 226.055 77.6953 224.945 77.6953 223.289C77.6953 221.641 76.9766 220.578 75.6797 220.57C74.3516 220.578 73.6641 221.711 73.6641 223.289ZM87.3203 223.977V219.055H89.3047V227.539H87.3828V226.039H87.2891C86.8984 226.984 86.0078 227.648 84.7422 227.648C83.0625 227.648 81.9062 226.492 81.8984 224.461V219.055H83.8984V224.148C83.8984 225.227 84.5391 225.914 85.5078 225.914C86.3828 225.914 87.3203 225.273 87.3203 223.977ZM95.1641 227.711C92.6328 227.711 91.1016 225.898 91.1016 223.336C91.1016 220.734 92.6797 218.945 95.1641 218.945C97.2188 218.945 98.6641 220.148 98.8047 221.977H96.8984C96.7422 221.164 96.1484 220.547 95.1797 220.539C93.9453 220.547 93.1172 221.578 93.1172 223.289C93.1172 225.039 93.9297 226.078 95.1797 226.086C96.0625 226.078 96.7188 225.562 96.8984 224.648H98.8047C98.6562 226.438 97.2969 227.711 95.1641 227.711ZM104.789 219.055V220.586H103.117V224.992C103.117 225.805 103.523 225.969 104.023 225.977C104.258 225.984 104.648 225.961 104.898 225.945V227.57C104.664 227.609 104.281 227.656 103.773 227.648C102.273 227.656 101.117 226.914 101.133 225.32V220.586H99.9141V219.055H101.133V217.023H103.117V219.055H104.789ZM106.57 227.539V219.055H108.57V227.539H106.57ZM106.43 216.758C106.43 216.164 106.953 215.68 107.586 215.68C108.219 215.68 108.742 216.164 108.742 216.758C108.742 217.359 108.219 217.844 107.586 217.852C106.953 217.844 106.43 217.359 106.43 216.758ZM114.43 227.711C111.953 227.711 110.367 225.953 110.367 223.336C110.367 220.695 111.953 218.945 114.43 218.945C116.914 218.945 118.5 220.695 118.492 223.336C118.5 225.953 116.914 227.711 114.43 227.711ZM112.383 223.32C112.383 224.875 113.062 226.117 114.445 226.117C115.805 226.117 116.484 224.875 116.477 223.32C116.484 221.766 115.805 220.516 114.445 220.523C113.062 220.516 112.383 221.766 112.383 223.32ZM122.289 222.57V227.539H120.289V219.055H122.195V220.492H122.305C122.688 219.547 123.555 218.945 124.82 218.945C126.578 218.945 127.734 220.102 127.727 222.133V227.539H125.742V222.445C125.742 221.305 125.125 220.625 124.086 220.633C123.031 220.625 122.289 221.336 122.289 222.57ZM134.492 215.695L130.852 229.242H129.102L132.758 215.695H134.492ZM30.9844 241.477C30.8594 240.836 30.3281 240.422 29.4844 240.43C28.6328 240.422 28.0078 240.852 28.0156 241.43C28.0078 241.867 28.3594 242.195 29.2188 242.398L30.6562 242.695C32.2578 243.047 33.0391 243.789 33.0469 245.008C33.0391 246.602 31.6406 247.711 29.4219 247.711C27.2656 247.711 25.9922 246.742 25.7812 245.117H27.8125C27.9297 245.844 28.4922 246.203 29.4219 246.195C30.3828 246.203 31.0078 245.812 31.0156 245.18C31.0078 244.688 30.625 244.375 29.7812 244.195L28.4219 243.898C26.8438 243.578 26.0234 242.75 26.0312 241.539C26.0234 239.969 27.3828 238.945 29.4531 238.945C31.4766 238.945 32.7266 239.938 32.875 241.477H30.9844ZM36.8125 242.57V247.539H34.8125V236.227H36.7656V240.492H36.875C37.2578 239.531 38.0859 238.945 39.3906 238.945C41.1484 238.945 42.3125 240.086 42.3125 242.133V247.539H40.3281V242.445C40.3203 241.289 39.7031 240.625 38.6562 240.633C37.5781 240.625 36.8125 241.336 36.8125 242.57ZM44.4531 247.539V239.055H46.4531V247.539H44.4531ZM44.3125 236.758C44.3125 236.164 44.8359 235.68 45.4688 235.68C46.1016 235.68 46.625 236.164 46.625 236.758C46.625 237.359 46.1016 237.844 45.4688 237.852C44.8359 237.844 44.3125 237.359 44.3125 236.758ZM48.6094 250.727V239.055H50.5625V240.445H50.6875C50.9922 239.844 51.6172 238.945 53.125 238.945C55.0781 238.945 56.6172 240.477 56.625 243.305C56.6172 246.094 55.125 247.688 53.125 247.695C51.6641 247.688 51 246.82 50.6875 246.195H50.6094V250.727H48.6094ZM50.5625 243.289C50.5703 244.945 51.2891 246.055 52.5781 246.055C53.8984 246.055 54.5938 244.891 54.5938 243.289C54.5938 241.711 53.9141 240.578 52.5781 240.57C51.2734 240.578 50.5703 241.641 50.5625 243.289ZM58.4375 247.539V239.055H60.3438V240.492H60.4531C60.8047 239.523 61.6562 238.945 62.7812 238.945C63.9297 238.945 64.7578 239.531 65.0781 240.492H65.1719C65.5391 239.555 66.4844 238.945 67.7188 238.945C69.2734 238.945 70.3672 239.945 70.3594 241.836V247.539H68.375V242.148C68.375 241.094 67.7344 240.617 66.9219 240.617C65.9453 240.617 65.375 241.281 65.375 242.242V247.539H63.4375V242.07C63.4297 241.188 62.8516 240.617 62 240.617C61.1406 240.617 60.4375 241.328 60.4375 242.383V247.539H58.4375ZM76.2812 247.711C73.7266 247.711 72.1562 246.008 72.1562 243.352C72.1562 240.727 73.75 238.945 76.1719 238.945C78.25 238.945 80.0469 240.25 80.0469 243.227V243.852H74.125C74.1562 245.297 75.0078 246.156 76.2969 246.148C77.1719 246.156 77.7578 245.781 78.0156 245.273H79.9688C79.6094 246.742 78.25 247.711 76.2812 247.711ZM74.1328 242.492H78.1406C78.1328 241.336 77.3516 240.492 76.2031 240.492C75.0078 240.492 74.2031 241.414 74.1328 242.492ZM83.8438 242.57V247.539H81.8438V239.055H83.75V240.492H83.8594C84.2422 239.547 85.1094 238.945 86.375 238.945C88.1328 238.945 89.2891 240.102 89.2812 242.133V247.539H87.2969V242.445C87.2969 241.305 86.6797 240.625 85.6406 240.633C84.5859 240.625 83.8438 241.336 83.8438 242.57ZM95.6719 239.055V240.586H94V244.992C94 245.805 94.4062 245.969 94.9062 245.977C95.1406 245.984 95.5312 245.961 95.7812 245.945V247.57C95.5469 247.609 95.1641 247.656 94.6562 247.648C93.1562 247.656 92 246.914 92.0156 245.32V240.586H90.7969V239.055H92.0156V237.023H94V239.055H95.6719ZM109.078 239.055L106.047 247.539H103.859L100.828 239.055H102.953L104.906 245.367H105L106.969 239.055H109.078ZM114.047 247.711C111.492 247.711 109.922 246.008 109.922 243.352C109.922 240.727 111.516 238.945 113.938 238.945C116.016 238.945 117.812 240.25 117.812 243.227V243.852H111.891C111.922 245.297 112.773 246.156 114.062 246.148C114.938 246.156 115.523 245.781 115.781 245.273H117.734C117.375 246.742 116.016 247.711 114.047 247.711ZM111.898 242.492H115.906C115.898 241.336 115.117 240.492 113.969 240.492C112.773 240.492 111.969 241.414 111.898 242.492ZM121.609 242.57V247.539H119.609V236.227H121.562V240.492H121.672C122.055 239.531 122.883 238.945 124.188 238.945C125.945 238.945 127.109 240.086 127.109 242.133V247.539H125.125V242.445C125.117 241.289 124.5 240.625 123.453 240.633C122.375 240.625 121.609 241.336 121.609 242.57ZM129.25 247.539V239.055H131.25V247.539H129.25ZM129.109 236.758C129.109 236.164 129.633 235.68 130.266 235.68C130.898 235.68 131.422 236.164 131.422 236.758C131.422 237.359 130.898 237.844 130.266 237.852C129.633 237.844 129.109 237.359 129.109 236.758ZM137.109 247.711C134.578 247.711 133.047 245.898 133.047 243.336C133.047 240.734 134.625 238.945 137.109 238.945C139.164 238.945 140.609 240.148 140.75 241.977H138.844C138.688 241.164 138.094 240.547 137.125 240.539C135.891 240.547 135.062 241.578 135.062 243.289C135.062 245.039 135.875 246.078 137.125 246.086C138.008 246.078 138.664 245.562 138.844 244.648H140.75C140.602 246.438 139.242 247.711 137.109 247.711ZM144.5 236.227V247.539H142.5V236.227H144.5ZM150.422 247.711C147.867 247.711 146.297 246.008 146.297 243.352C146.297 240.727 147.891 238.945 150.312 238.945C152.391 238.945 154.188 240.25 154.188 243.227V243.852H148.266C148.297 245.297 149.148 246.156 150.438 246.148C151.312 246.156 151.898 245.781 152.156 245.273H154.109C153.75 246.742 152.391 247.711 150.422 247.711ZM148.273 242.492H152.281C152.273 241.336 151.492 240.492 150.344 240.492C149.148 240.492 148.344 241.414 148.273 242.492Z" fill="black"/>
<rect x="310.5" y="197.039" width="179" height="69" rx="34.5" fill="white"/>
<rect x="310.5" y="197.039" width="179" height="69" rx="34.5" stroke="#ABBBC5"/>
<path d="M334.859 227.539L331.672 216.227H333.859L335.906 224.555H336.016L338.188 216.227H340.188L342.375 224.57H342.469L344.516 216.227H346.703L343.516 227.539H341.5L339.234 219.586H339.156L336.875 227.539H334.859ZM350.156 222.57V227.539H348.156V216.227H350.109V220.492H350.219C350.602 219.531 351.43 218.945 352.734 218.945C354.492 218.945 355.656 220.086 355.656 222.133V227.539H353.672V222.445C353.664 221.289 353.047 220.625 352 220.633C350.922 220.625 350.156 221.336 350.156 222.57ZM361.5 227.711C359.023 227.711 357.438 225.953 357.438 223.336C357.438 220.695 359.023 218.945 361.5 218.945C363.984 218.945 365.57 220.695 365.562 223.336C365.57 225.953 363.984 227.711 361.5 227.711ZM359.453 223.32C359.453 224.875 360.133 226.117 361.516 226.117C362.875 226.117 363.555 224.875 363.547 223.32C363.555 221.766 362.875 220.516 361.516 220.523C360.133 220.516 359.453 221.766 359.453 223.32ZM369.359 216.227V227.539H367.359V216.227H369.359ZM375.281 227.711C372.727 227.711 371.156 226.008 371.156 223.352C371.156 220.727 372.75 218.945 375.172 218.945C377.25 218.945 379.047 220.25 379.047 223.227V223.852H373.125C373.156 225.297 374.008 226.156 375.297 226.148C376.172 226.156 376.758 225.781 377.016 225.273H378.969C378.609 226.742 377.25 227.711 375.281 227.711ZM373.133 222.492H377.141C377.133 221.336 376.352 220.492 375.203 220.492C374.008 220.492 373.203 221.414 373.133 222.492ZM385.656 221.477C385.531 220.836 385 220.422 384.156 220.43C383.305 220.422 382.68 220.852 382.688 221.43C382.68 221.867 383.031 222.195 383.891 222.398L385.328 222.695C386.93 223.047 387.711 223.789 387.719 225.008C387.711 226.602 386.312 227.711 384.094 227.711C381.938 227.711 380.664 226.742 380.453 225.117H382.484C382.602 225.844 383.164 226.203 384.094 226.195C385.055 226.203 385.68 225.812 385.688 225.18C385.68 224.688 385.297 224.375 384.453 224.195L383.094 223.898C381.516 223.578 380.695 222.75 380.703 221.539C380.695 219.969 382.055 218.945 384.125 218.945C386.148 218.945 387.398 219.938 387.547 221.477H385.656ZM389.094 225.148C389.094 223.242 390.68 222.688 392.25 222.586C392.844 222.539 394.055 222.484 394.43 222.469L394.422 221.789C394.422 220.945 393.883 220.461 392.891 220.461C392 220.461 391.453 220.867 391.297 221.477H389.375C389.516 220.031 390.812 218.945 392.938 218.945C394.547 218.945 396.406 219.609 396.406 221.867V227.539H394.5V226.367H394.438C394.062 227.086 393.273 227.711 391.938 227.711C390.32 227.711 389.094 226.828 389.094 225.148ZM391.016 225.133C391.016 225.867 391.617 226.242 392.453 226.242C393.664 226.242 394.438 225.445 394.438 224.492L394.43 223.797C394.07 223.812 392.961 223.883 392.562 223.914C391.617 223.992 391.016 224.391 391.016 225.133ZM400.531 216.227V227.539H398.531V216.227H400.531ZM406.453 227.711C403.898 227.711 402.328 226.008 402.328 223.352C402.328 220.727 403.922 218.945 406.344 218.945C408.422 218.945 410.219 220.25 410.219 223.227V223.852H404.297C404.328 225.297 405.18 226.156 406.469 226.148C407.344 226.156 407.93 225.781 408.188 225.273H410.141C409.781 226.742 408.422 227.711 406.453 227.711ZM404.305 222.492H408.312C408.305 221.336 407.523 220.492 406.375 220.492C405.18 220.492 404.375 221.414 404.305 222.492ZM416.156 216.227H418.656L422.016 224.445H422.156L425.516 216.227H428.016V227.539H426.062V219.758H425.953L422.812 227.508H421.359L418.219 219.727H418.125V227.539H416.156V216.227ZM429.875 225.148C429.875 223.242 431.461 222.688 433.031 222.586C433.625 222.539 434.836 222.484 435.211 222.469L435.203 221.789C435.203 220.945 434.664 220.461 433.672 220.461C432.781 220.461 432.234 220.867 432.078 221.477H430.156C430.297 220.031 431.594 218.945 433.719 218.945C435.328 218.945 437.188 219.609 437.188 221.867V227.539H435.281V226.367H435.219C434.844 227.086 434.055 227.711 432.719 227.711C431.102 227.711 429.875 226.828 429.875 225.148ZM431.797 225.133C431.797 225.867 432.398 226.242 433.234 226.242C434.445 226.242 435.219 225.445 435.219 224.492L435.211 223.797C434.852 223.812 433.742 223.883 433.344 223.914C432.398 223.992 431.797 224.391 431.797 225.133ZM439.312 227.539V219.055H441.25V220.461H441.344C441.648 219.484 442.461 218.93 443.438 218.93C443.656 218.93 443.969 218.953 444.156 218.977V220.82C443.977 220.758 443.562 220.703 443.234 220.695C442.125 220.703 441.312 221.469 441.312 222.539V227.539H439.312ZM445.594 227.539V216.227H447.594V222.461H447.734L450.781 219.055H453.109L449.82 222.711L453.312 227.539H450.938L448.328 223.898L447.594 224.68V227.539H445.594ZM457.953 227.711C455.398 227.711 453.828 226.008 453.828 223.352C453.828 220.727 455.422 218.945 457.844 218.945C459.922 218.945 461.719 220.25 461.719 223.227V223.852H455.797C455.828 225.297 456.68 226.156 457.969 226.148C458.844 226.156 459.43 225.781 459.688 225.273H461.641C461.281 226.742 459.922 227.711 457.953 227.711ZM455.805 222.492H459.812C459.805 221.336 459.023 220.492 457.875 220.492C456.68 220.492 455.875 221.414 455.805 222.492ZM467.75 219.055V220.586H466.078V224.992C466.078 225.805 466.484 225.969 466.984 225.977C467.219 225.984 467.609 225.961 467.859 225.945V227.57C467.625 227.609 467.242 227.656 466.734 227.648C465.234 227.656 464.078 226.914 464.094 225.32V220.586H462.875V219.055H464.094V217.023H466.078V219.055H467.75ZM363.094 240.039C362.852 238.68 361.766 237.898 360.391 237.898C358.539 237.898 357.227 239.32 357.234 241.883C357.227 244.484 358.547 245.867 360.391 245.867C361.734 245.867 362.82 245.117 363.094 243.789H365.141C364.828 245.961 363.039 247.695 360.359 247.695C357.375 247.695 355.18 245.531 355.188 241.883C355.18 238.227 357.398 236.07 360.359 236.07C362.859 236.07 364.789 237.523 365.141 240.039H363.094ZM370.75 247.711C368.273 247.711 366.688 245.953 366.688 243.336C366.688 240.695 368.273 238.945 370.75 238.945C373.234 238.945 374.82 240.695 374.812 243.336C374.82 245.953 373.234 247.711 370.75 247.711ZM368.703 243.32C368.703 244.875 369.383 246.117 370.766 246.117C372.125 246.117 372.805 244.875 372.797 243.32C372.805 241.766 372.125 240.516 370.766 240.523C369.383 240.516 368.703 241.766 368.703 243.32ZM376.609 247.539V239.055H378.547V240.461H378.641C378.945 239.484 379.758 238.93 380.734 238.93C380.953 238.93 381.266 238.953 381.453 238.977V240.82C381.273 240.758 380.859 240.703 380.531 240.695C379.422 240.703 378.609 241.469 378.609 242.539V247.539H376.609ZM382.891 250.727V239.055H384.844V240.445H384.969C385.273 239.844 385.898 238.945 387.406 238.945C389.359 238.945 390.898 240.477 390.906 243.305C390.898 246.094 389.406 247.688 387.406 247.695C385.945 247.688 385.281 246.82 384.969 246.195H384.891V250.727H382.891ZM384.844 243.289C384.852 244.945 385.57 246.055 386.859 246.055C388.18 246.055 388.875 244.891 388.875 243.289C388.875 241.711 388.195 240.578 386.859 240.57C385.555 240.578 384.852 241.641 384.844 243.289ZM396.422 247.711C393.945 247.711 392.359 245.953 392.359 243.336C392.359 240.695 393.945 238.945 396.422 238.945C398.906 238.945 400.492 240.695 400.484 243.336C400.492 245.953 398.906 247.711 396.422 247.711ZM394.375 243.32C394.375 244.875 395.055 246.117 396.438 246.117C397.797 246.117 398.477 244.875 398.469 243.32C398.477 241.766 397.797 240.516 396.438 240.523C395.055 240.516 394.375 241.766 394.375 243.32ZM402.281 247.539V239.055H404.219V240.461H404.312C404.617 239.484 405.43 238.93 406.406 238.93C406.625 238.93 406.938 238.953 407.125 238.977V240.82C406.945 240.758 406.531 240.703 406.203 240.695C405.094 240.703 404.281 241.469 404.281 242.539V247.539H402.281ZM408.016 245.148C408.016 243.242 409.602 242.688 411.172 242.586C411.766 242.539 412.977 242.484 413.352 242.469L413.344 241.789C413.344 240.945 412.805 240.461 411.812 240.461C410.922 240.461 410.375 240.867 410.219 241.477H408.297C408.438 240.031 409.734 238.945 411.859 238.945C413.469 238.945 415.328 239.609 415.328 241.867V247.539H413.422V246.367H413.359C412.984 247.086 412.195 247.711 410.859 247.711C409.242 247.711 408.016 246.828 408.016 245.148ZM409.938 245.133C409.938 245.867 410.539 246.242 411.375 246.242C412.586 246.242 413.359 245.445 413.359 244.492L413.352 243.797C412.992 243.812 411.883 243.883 411.484 243.914C410.539 243.992 409.938 244.391 409.938 245.133ZM421.688 239.055V240.586H420.016V244.992C420.016 245.805 420.422 245.969 420.922 245.977C421.156 245.984 421.547 245.961 421.797 245.945V247.57C421.562 247.609 421.18 247.656 420.672 247.648C419.172 247.656 418.016 246.914 418.031 245.32V240.586H416.812V239.055H418.031V237.023H420.016V239.055H421.688ZM423.469 247.539V239.055H425.469V247.539H423.469ZM423.328 236.758C423.328 236.164 423.852 235.68 424.484 235.68C425.117 235.68 425.641 236.164 425.641 236.758C425.641 237.359 425.117 237.844 424.484 237.852C423.852 237.844 423.328 237.359 423.328 236.758ZM431.328 247.711C428.852 247.711 427.266 245.953 427.266 243.336C427.266 240.695 428.852 238.945 431.328 238.945C433.812 238.945 435.398 240.695 435.391 243.336C435.398 245.953 433.812 247.711 431.328 247.711ZM429.281 243.32C429.281 244.875 429.961 246.117 431.344 246.117C432.703 246.117 433.383 244.875 433.375 243.32C433.383 241.766 432.703 240.516 431.344 240.523C429.961 240.516 429.281 241.766 429.281 243.32ZM439.188 242.57V247.539H437.188V239.055H439.094V240.492H439.203C439.586 239.547 440.453 238.945 441.719 238.945C443.477 238.945 444.633 240.102 444.625 242.133V247.539H442.641V242.445C442.641 241.305 442.023 240.625 440.984 240.633C439.93 240.625 439.188 241.336 439.188 242.57Z" fill="black"/>
<rect x="620.5" y="197.039" width="179" height="69" rx="34.5" fill="white"/>
<rect x="620.5" y="197.039" width="179" height="69" rx="34.5" stroke="#ABBBC5"/>
<path d="M669 227.539L666.594 219.055H668.625L670.125 225.023H670.203L671.719 219.055H673.734L675.266 224.992H675.344L676.828 219.055H678.859L676.453 227.539H674.375L672.781 221.789H672.672L671.078 227.539H669ZM682.375 222.57V227.539H680.375V216.227H682.328V220.492H682.438C682.82 219.531 683.648 218.945 684.953 218.945C686.711 218.945 687.875 220.086 687.875 222.133V227.539H685.891V222.445C685.883 221.289 685.266 220.625 684.219 220.633C683.141 220.625 682.375 221.336 682.375 222.57ZM693.719 227.711C691.242 227.711 689.656 225.953 689.656 223.336C689.656 220.695 691.242 218.945 693.719 218.945C696.203 218.945 697.789 220.695 697.781 223.336C697.789 225.953 696.203 227.711 693.719 227.711ZM691.672 223.32C691.672 224.875 692.352 226.117 693.734 226.117C695.094 226.117 695.773 224.875 695.766 223.32C695.773 221.766 695.094 220.516 693.734 220.523C692.352 220.516 691.672 221.766 691.672 223.32ZM701.578 216.227V227.539H699.578V216.227H701.578ZM707.5 227.711C704.945 227.711 703.375 226.008 703.375 223.352C703.375 220.727 704.969 218.945 707.391 218.945C709.469 218.945 711.266 220.25 711.266 223.227V223.852H705.344C705.375 225.297 706.227 226.156 707.516 226.148C708.391 226.156 708.977 225.781 709.234 225.273H711.188C710.828 226.742 709.469 227.711 707.5 227.711ZM705.352 222.492H709.359C709.352 221.336 708.57 220.492 707.422 220.492C706.227 220.492 705.422 221.414 705.352 222.492ZM717.875 221.477C717.75 220.836 717.219 220.422 716.375 220.43C715.523 220.422 714.898 220.852 714.906 221.43C714.898 221.867 715.25 222.195 716.109 222.398L717.547 222.695C719.148 223.047 719.93 223.789 719.938 225.008C719.93 226.602 718.531 227.711 716.312 227.711C714.156 227.711 712.883 226.742 712.672 225.117H714.703C714.82 225.844 715.383 226.203 716.312 226.195C717.273 226.203 717.898 225.812 717.906 225.18C717.898 224.688 717.516 224.375 716.672 224.195L715.312 223.898C713.734 223.578 712.914 222.75 712.922 221.539C712.914 219.969 714.273 218.945 716.344 218.945C718.367 218.945 719.617 219.938 719.766 221.477H717.875ZM721.312 225.148C721.312 223.242 722.898 222.688 724.469 222.586C725.062 222.539 726.273 222.484 726.648 222.469L726.641 221.789C726.641 220.945 726.102 220.461 725.109 220.461C724.219 220.461 723.672 220.867 723.516 221.477H721.594C721.734 220.031 723.031 218.945 725.156 218.945C726.766 218.945 728.625 219.609 728.625 221.867V227.539H726.719V226.367H726.656C726.281 227.086 725.492 227.711 724.156 227.711C722.539 227.711 721.312 226.828 721.312 225.148ZM723.234 225.133C723.234 225.867 723.836 226.242 724.672 226.242C725.883 226.242 726.656 225.445 726.656 224.492L726.648 223.797C726.289 223.812 725.18 223.883 724.781 223.914C723.836 223.992 723.234 224.391 723.234 225.133ZM732.75 216.227V227.539H730.75V216.227H732.75ZM738.672 227.711C736.117 227.711 734.547 226.008 734.547 223.352C734.547 220.727 736.141 218.945 738.562 218.945C740.641 218.945 742.438 220.25 742.438 223.227V223.852H736.516C736.547 225.297 737.398 226.156 738.688 226.148C739.562 226.156 740.148 225.781 740.406 225.273H742.359C742 226.742 740.641 227.711 738.672 227.711ZM736.523 222.492H740.531C740.523 221.336 739.742 220.492 738.594 220.492C737.398 220.492 736.594 221.414 736.523 222.492ZM744.234 227.539V219.055H746.172V220.461H746.266C746.57 219.484 747.383 218.93 748.359 218.93C748.578 218.93 748.891 218.953 749.078 218.977V220.82C748.898 220.758 748.484 220.703 748.156 220.695C747.047 220.703 746.234 221.469 746.234 222.539V227.539H744.234ZM634.07 243.227C634.07 240.289 634.945 237.836 636.414 235.742H638.289C637.211 237.297 636.133 240.43 636.133 243.227C636.133 246.023 637.211 249.164 638.289 250.727H636.414C634.945 248.617 634.07 246.172 634.07 243.227ZM644.18 239.055V240.586H642.508V244.992C642.508 245.805 642.914 245.969 643.414 245.977C643.648 245.984 644.039 245.961 644.289 245.945V247.57C644.055 247.609 643.672 247.656 643.164 247.648C641.664 247.656 640.508 246.914 640.523 245.32V240.586H639.305V239.055H640.523V237.023H642.508V239.055H644.18ZM645.961 247.539V239.055H647.898V240.461H647.992C648.297 239.484 649.109 238.93 650.086 238.93C650.305 238.93 650.617 238.953 650.805 238.977V240.82C650.625 240.758 650.211 240.703 649.883 240.695C648.773 240.703 647.961 241.469 647.961 242.539V247.539H645.961ZM651.695 245.148C651.695 243.242 653.281 242.688 654.852 242.586C655.445 242.539 656.656 242.484 657.031 242.469L657.023 241.789C657.023 240.945 656.484 240.461 655.492 240.461C654.602 240.461 654.055 240.867 653.898 241.477H651.977C652.117 240.031 653.414 238.945 655.539 238.945C657.148 238.945 659.008 239.609 659.008 241.867V247.539H657.102V246.367H657.039C656.664 247.086 655.875 247.711 654.539 247.711C652.922 247.711 651.695 246.828 651.695 245.148ZM653.617 245.133C653.617 245.867 654.219 246.242 655.055 246.242C656.266 246.242 657.039 245.445 657.039 244.492L657.031 243.797C656.672 243.812 655.562 243.883 655.164 243.914C654.219 243.992 653.617 244.391 653.617 245.133ZM664.289 247.695C662.297 247.688 660.789 246.094 660.789 243.305C660.789 240.477 662.336 238.945 664.305 238.945C665.797 238.945 666.422 239.844 666.727 240.445H666.805V236.227H668.789V247.539H666.836V246.195H666.727C666.406 246.82 665.758 247.688 664.289 247.695ZM662.82 243.289C662.82 244.891 663.523 246.055 664.836 246.055C666.125 246.055 666.852 244.945 666.852 243.289C666.852 241.641 666.133 240.578 664.836 240.57C663.508 240.578 662.82 241.711 662.82 243.289ZM671.055 247.539V239.055H673.055V247.539H671.055ZM670.914 236.758C670.914 236.164 671.438 235.68 672.07 235.68C672.703 235.68 673.227 236.164 673.227 236.758C673.227 237.359 672.703 237.844 672.07 237.852C671.438 237.844 670.914 237.359 670.914 236.758ZM677.211 242.57V247.539H675.211V239.055H677.117V240.492H677.227C677.609 239.547 678.477 238.945 679.742 238.945C681.5 238.945 682.656 240.102 682.648 242.133V247.539H680.664V242.445C680.664 241.305 680.047 240.625 679.008 240.633C677.953 240.625 677.211 241.336 677.211 242.57ZM688.508 250.898C686.258 250.898 684.828 249.898 684.695 248.305H686.68C686.82 249.047 687.516 249.391 688.539 249.398C689.734 249.391 690.508 248.875 690.508 247.633V246.008H690.414C690.102 246.633 689.422 247.414 687.961 247.414C686 247.414 684.461 245.992 684.461 243.227C684.461 240.438 686.008 238.945 687.977 238.945C689.469 238.945 690.102 239.844 690.414 240.445H690.508V239.055H692.477V247.68C692.477 249.852 690.797 250.898 688.508 250.898ZM686.492 243.258C686.492 244.82 687.195 245.852 688.508 245.852C689.797 245.852 690.523 244.883 690.523 243.258C690.523 241.641 689.805 240.578 688.508 240.57C687.18 240.578 686.492 241.711 686.492 243.258ZM698.68 250.727V239.055H700.633V240.445H700.758C701.062 239.844 701.688 238.945 703.195 238.945C705.148 238.945 706.688 240.477 706.695 243.305C706.688 246.094 705.195 247.688 703.195 247.695C701.734 247.688 701.07 246.82 700.758 246.195H700.68V250.727H698.68ZM700.633 243.289C700.641 244.945 701.359 246.055 702.648 246.055C703.969 246.055 704.664 244.891 704.664 243.289C704.664 241.711 703.984 240.578 702.648 240.57C701.344 240.578 700.641 241.641 700.633 243.289ZM708.117 245.148C708.117 243.242 709.703 242.688 711.273 242.586C711.867 242.539 713.078 242.484 713.453 242.469L713.445 241.789C713.445 240.945 712.906 240.461 711.914 240.461C711.023 240.461 710.477 240.867 710.32 241.477H708.398C708.539 240.031 709.836 238.945 711.961 238.945C713.57 238.945 715.43 239.609 715.43 241.867V247.539H713.523V246.367H713.461C713.086 247.086 712.297 247.711 710.961 247.711C709.344 247.711 708.117 246.828 708.117 245.148ZM710.039 245.133C710.039 245.867 710.641 246.242 711.477 246.242C712.688 246.242 713.461 245.445 713.461 244.492L713.453 243.797C713.094 243.812 711.984 243.883 711.586 243.914C710.641 243.992 710.039 244.391 710.039 245.133ZM717.555 247.539V239.055H719.492V240.461H719.586C719.891 239.484 720.703 238.93 721.68 238.93C721.898 238.93 722.211 238.953 722.398 238.977V240.82C722.219 240.758 721.805 240.703 721.477 240.695C720.367 240.703 719.555 241.469 719.555 242.539V247.539H717.555ZM728.539 239.055V240.586H726.867V244.992C726.867 245.805 727.273 245.969 727.773 245.977C728.008 245.984 728.398 245.961 728.648 245.945V247.57C728.414 247.609 728.031 247.656 727.523 247.648C726.023 247.656 724.867 246.914 724.883 245.32V240.586H723.664V239.055H724.883V237.023H726.867V239.055H728.539ZM730.32 247.539V239.055H732.32V247.539H730.32ZM730.18 236.758C730.18 236.164 730.703 235.68 731.336 235.68C731.969 235.68 732.492 236.164 732.492 236.758C732.492 237.359 731.969 237.844 731.336 237.852C730.703 237.844 730.18 237.359 730.18 236.758ZM738.18 247.711C735.648 247.711 734.117 245.898 734.117 243.336C734.117 240.734 735.695 238.945 738.18 238.945C740.234 238.945 741.68 240.148 741.82 241.977H739.914C739.758 241.164 739.164 240.547 738.195 240.539C736.961 240.547 736.133 241.578 736.133 243.289C736.133 245.039 736.945 246.078 738.195 246.086C739.078 246.078 739.734 245.562 739.914 244.648H741.82C741.672 246.438 740.312 247.711 738.18 247.711ZM743.57 247.539V239.055H745.57V247.539H743.57ZM743.43 236.758C743.43 236.164 743.953 235.68 744.586 235.68C745.219 235.68 745.742 236.164 745.742 236.758C745.742 237.359 745.219 237.844 744.586 237.852C743.953 237.844 743.43 237.359 743.43 236.758ZM747.727 250.727V239.055H749.68V240.445H749.805C750.109 239.844 750.734 238.945 752.242 238.945C754.195 238.945 755.734 240.477 755.742 243.305C755.734 246.094 754.242 247.688 752.242 247.695C750.781 247.688 750.117 246.82 749.805 246.195H749.727V250.727H747.727ZM749.68 243.289C749.688 244.945 750.406 246.055 751.695 246.055C753.016 246.055 753.711 244.891 753.711 243.289C753.711 241.711 753.031 240.578 751.695 240.57C750.391 240.578 749.688 241.641 749.68 243.289ZM757.164 245.148C757.164 243.242 758.75 242.688 760.32 242.586C760.914 242.539 762.125 242.484 762.5 242.469L762.492 241.789C762.492 240.945 761.953 240.461 760.961 240.461C760.07 240.461 759.523 240.867 759.367 241.477H757.445C757.586 240.031 758.883 238.945 761.008 238.945C762.617 238.945 764.477 239.609 764.477 241.867V247.539H762.57V246.367H762.508C762.133 247.086 761.344 247.711 760.008 247.711C758.391 247.711 757.164 246.828 757.164 245.148ZM759.086 245.133C759.086 245.867 759.688 246.242 760.523 246.242C761.734 246.242 762.508 245.445 762.508 244.492L762.5 243.797C762.141 243.812 761.031 243.883 760.633 243.914C759.688 243.992 759.086 244.391 759.086 245.133ZM768.602 242.57V247.539H766.602V239.055H768.508V240.492H768.617C769 239.547 769.867 238.945 771.133 238.945C772.891 238.945 774.047 240.102 774.039 242.133V247.539H772.055V242.445C772.055 241.305 771.438 240.625 770.398 240.633C769.344 240.625 768.602 241.336 768.602 242.57ZM780.43 239.055V240.586H778.758V244.992C778.758 245.805 779.164 245.969 779.664 245.977C779.898 245.984 780.289 245.961 780.539 245.945V247.57C780.305 247.609 779.922 247.656 779.414 247.648C777.914 247.656 776.758 246.914 776.773 245.32V240.586H775.555V239.055H776.773V237.023H778.758V239.055H780.43ZM785.93 243.227C785.93 246.172 785.055 248.617 783.586 250.727H781.711C782.789 249.164 783.867 246.023 783.867 243.227C783.867 240.43 782.789 237.297 781.711 235.742H783.586C785.055 237.836 785.93 240.289 785.93 243.227Z" fill="black"/>
<path d="M522.672 220.148C522.672 218.242 524.258 217.688 525.828 217.586C526.422 217.539 527.633 217.484 528.008 217.469L528 216.789C528 215.945 527.461 215.461 526.469 215.461C525.578 215.461 525.031 215.867 524.875 216.477H522.953C523.094 215.031 524.391 213.945 526.516 213.945C528.125 213.945 529.984 214.609 529.984 216.867V222.539H528.078V221.367H528.016C527.641 222.086 526.852 222.711 525.516 222.711C523.898 222.711 522.672 221.828 522.672 220.148ZM524.594 220.133C524.594 220.867 525.195 221.242 526.031 221.242C527.242 221.242 528.016 220.445 528.016 219.492L528.008 218.797C527.648 218.812 526.539 218.883 526.141 218.914C525.195 218.992 524.594 219.391 524.594 220.133ZM537.531 218.977V214.055H539.516V222.539H537.594V221.039H537.5C537.109 221.984 536.219 222.648 534.953 222.648C533.273 222.648 532.117 221.492 532.109 219.461V214.055H534.109V219.148C534.109 220.227 534.75 220.914 535.719 220.914C536.594 220.914 537.531 220.273 537.531 218.977ZM545.375 222.711C542.844 222.711 541.312 220.898 541.312 218.336C541.312 215.734 542.891 213.945 545.375 213.945C547.43 213.945 548.875 215.148 549.016 216.977H547.109C546.953 216.164 546.359 215.547 545.391 215.539C544.156 215.547 543.328 216.578 543.328 218.289C543.328 220.039 544.141 221.078 545.391 221.086C546.273 221.078 546.93 220.562 547.109 219.648H549.016C548.867 221.438 547.508 222.711 545.375 222.711ZM555 214.055V215.586H553.328V219.992C553.328 220.805 553.734 220.969 554.234 220.977C554.469 220.984 554.859 220.961 555.109 220.945V222.57C554.875 222.609 554.492 222.656 553.984 222.648C552.484 222.656 551.328 221.914 551.344 220.32V215.586H550.125V214.055H551.344V212.023H553.328V214.055H555ZM556.781 222.539V214.055H558.781V222.539H556.781ZM556.641 211.758C556.641 211.164 557.164 210.68 557.797 210.68C558.43 210.68 558.953 211.164 558.953 211.758C558.953 212.359 558.43 212.844 557.797 212.852C557.164 212.844 556.641 212.359 556.641 211.758ZM564.641 222.711C562.164 222.711 560.578 220.953 560.578 218.336C560.578 215.695 562.164 213.945 564.641 213.945C567.125 213.945 568.711 215.695 568.703 218.336C568.711 220.953 567.125 222.711 564.641 222.711ZM562.594 218.32C562.594 219.875 563.273 221.117 564.656 221.117C566.016 221.117 566.695 219.875 566.688 218.32C566.695 216.766 566.016 215.516 564.656 215.523C563.273 215.516 562.594 216.766 562.594 218.32ZM572.5 217.57V222.539H570.5V214.055H572.406V215.492H572.516C572.898 214.547 573.766 213.945 575.031 213.945C576.789 213.945 577.945 215.102 577.938 217.133V222.539H575.953V217.445C575.953 216.305 575.336 215.625 574.297 215.633C573.242 215.625 572.5 216.336 572.5 217.57Z" fill="black"/>
<path d="M179.039 222.711C176.508 222.711 174.977 220.898 174.977 218.336C174.977 215.734 176.555 213.945 179.039 213.945C181.094 213.945 182.539 215.148 182.68 216.977H180.773C180.617 216.164 180.023 215.547 179.055 215.539C177.82 215.547 176.992 216.578 176.992 218.289C176.992 220.039 177.805 221.078 179.055 221.086C179.938 221.078 180.594 220.562 180.773 219.648H182.68C182.531 221.438 181.172 222.711 179.039 222.711ZM188.133 222.711C185.656 222.711 184.07 220.953 184.07 218.336C184.07 215.695 185.656 213.945 188.133 213.945C190.617 213.945 192.203 215.695 192.195 218.336C192.203 220.953 190.617 222.711 188.133 222.711ZM186.086 218.32C186.086 219.875 186.766 221.117 188.148 221.117C189.508 221.117 190.188 219.875 190.18 218.32C190.188 216.766 189.508 215.516 188.148 215.523C186.766 215.516 186.086 216.766 186.086 218.32ZM195.992 217.57V222.539H193.992V214.055H195.898V215.492H196.008C196.391 214.547 197.258 213.945 198.523 213.945C200.281 213.945 201.438 215.102 201.43 217.133V222.539H199.445V217.445C199.445 216.305 198.828 215.625 197.789 215.633C196.734 215.625 195.992 216.336 195.992 217.57ZM208.398 216.477C208.273 215.836 207.742 215.422 206.898 215.43C206.047 215.422 205.422 215.852 205.43 216.43C205.422 216.867 205.773 217.195 206.633 217.398L208.07 217.695C209.672 218.047 210.453 218.789 210.461 220.008C210.453 221.602 209.055 222.711 206.836 222.711C204.68 222.711 203.406 221.742 203.195 220.117H205.227C205.344 220.844 205.906 221.203 206.836 221.195C207.797 221.203 208.422 220.812 208.43 220.18C208.422 219.688 208.039 219.375 207.195 219.195L205.836 218.898C204.258 218.578 203.438 217.75 203.445 216.539C203.438 214.969 204.797 213.945 206.867 213.945C208.891 213.945 210.141 214.938 210.289 216.477H208.398ZM212.227 222.539V214.055H214.227V222.539H212.227ZM212.086 211.758C212.086 211.164 212.609 210.68 213.242 210.68C213.875 210.68 214.398 211.164 214.398 211.758C214.398 212.359 213.875 212.844 213.242 212.852C212.609 212.844 212.086 212.359 212.086 211.758ZM220.086 225.898C217.836 225.898 216.406 224.898 216.273 223.305H218.258C218.398 224.047 219.094 224.391 220.117 224.398C221.312 224.391 222.086 223.875 222.086 222.633V221.008H221.992C221.68 221.633 221 222.414 219.539 222.414C217.578 222.414 216.039 220.992 216.039 218.227C216.039 215.438 217.586 213.945 219.555 213.945C221.047 213.945 221.68 214.844 221.992 215.445H222.086V214.055H224.055V222.68C224.055 224.852 222.375 225.898 220.086 225.898ZM218.07 218.258C218.07 219.82 218.773 220.852 220.086 220.852C221.375 220.852 222.102 219.883 222.102 218.258C222.102 216.641 221.383 215.578 220.086 215.57C218.758 215.578 218.07 216.711 218.07 218.258ZM228.211 217.57V222.539H226.211V214.055H228.117V215.492H228.227C228.609 214.547 229.477 213.945 230.742 213.945C232.5 213.945 233.656 215.102 233.648 217.133V222.539H231.664V217.445C231.664 216.305 231.047 215.625 230.008 215.633C228.953 215.625 228.211 216.336 228.211 217.57ZM235.805 222.539V214.055H237.711V215.492H237.82C238.172 214.523 239.023 213.945 240.148 213.945C241.297 213.945 242.125 214.531 242.445 215.492H242.539C242.906 214.555 243.852 213.945 245.086 213.945C246.641 213.945 247.734 214.945 247.727 216.836V222.539H245.742V217.148C245.742 216.094 245.102 215.617 244.289 215.617C243.312 215.617 242.742 216.281 242.742 217.242V222.539H240.805V217.07C240.797 216.188 240.219 215.617 239.367 215.617C238.508 215.617 237.805 216.328 237.805 217.383V222.539H235.805ZM253.648 222.711C251.094 222.711 249.523 221.008 249.523 218.352C249.523 215.727 251.117 213.945 253.539 213.945C255.617 213.945 257.414 215.25 257.414 218.227V218.852H251.492C251.523 220.297 252.375 221.156 253.664 221.148C254.539 221.156 255.125 220.781 255.383 220.273H257.336C256.977 221.742 255.617 222.711 253.648 222.711ZM251.5 217.492H255.508C255.5 216.336 254.719 215.492 253.57 215.492C252.375 215.492 251.57 216.414 251.5 217.492ZM261.211 217.57V222.539H259.211V214.055H261.117V215.492H261.227C261.609 214.547 262.477 213.945 263.742 213.945C265.5 213.945 266.656 215.102 266.648 217.133V222.539H264.664V217.445C264.664 216.305 264.047 215.625 263.008 215.633C261.953 215.625 261.211 216.336 261.211 217.57ZM273.039 214.055V215.586H271.367V219.992C271.367 220.805 271.773 220.969 272.273 220.977C272.508 220.984 272.898 220.961 273.148 220.945V222.57C272.914 222.609 272.531 222.656 272.023 222.648C270.523 222.656 269.367 221.914 269.383 220.32V215.586H268.164V214.055H269.383V212.023H271.367V214.055H273.039Z" fill="black"/>
<path d="M829.805 216.477C829.68 215.836 829.148 215.422 828.305 215.43C827.453 215.422 826.828 215.852 826.836 216.43C826.828 216.867 827.18 217.195 828.039 217.398L829.477 217.695C831.078 218.047 831.859 218.789 831.867 220.008C831.859 221.602 830.461 222.711 828.242 222.711C826.086 222.711 824.812 221.742 824.602 220.117H826.633C826.75 220.844 827.312 221.203 828.242 221.195C829.203 221.203 829.828 220.812 829.836 220.18C829.828 219.688 829.445 219.375 828.602 219.195L827.242 218.898C825.664 218.578 824.844 217.75 824.852 216.539C824.844 214.969 826.203 213.945 828.273 213.945C830.297 213.945 831.547 214.938 831.695 216.477H829.805ZM833.242 220.148C833.242 218.242 834.828 217.688 836.398 217.586C836.992 217.539 838.203 217.484 838.578 217.469L838.57 216.789C838.57 215.945 838.031 215.461 837.039 215.461C836.148 215.461 835.602 215.867 835.445 216.477H833.523C833.664 215.031 834.961 213.945 837.086 213.945C838.695 213.945 840.555 214.609 840.555 216.867V222.539H838.648V221.367H838.586C838.211 222.086 837.422 222.711 836.086 222.711C834.469 222.711 833.242 221.828 833.242 220.148ZM835.164 220.133C835.164 220.867 835.766 221.242 836.602 221.242C837.812 221.242 838.586 220.445 838.586 219.492L838.578 218.797C838.219 218.812 837.109 218.883 836.711 218.914C835.766 218.992 835.164 219.391 835.164 220.133ZM844.68 211.227V222.539H842.68V211.227H844.68ZM850.602 222.711C848.047 222.711 846.477 221.008 846.477 218.352C846.477 215.727 848.07 213.945 850.492 213.945C852.57 213.945 854.367 215.25 854.367 218.227V218.852H848.445C848.477 220.297 849.328 221.156 850.617 221.148C851.492 221.156 852.078 220.781 852.336 220.273H854.289C853.93 221.742 852.57 222.711 850.602 222.711ZM848.453 217.492H852.461C852.453 216.336 851.672 215.492 850.523 215.492C849.328 215.492 848.523 216.414 848.453 217.492Z" fill="black"/>
<path d="M498.156 253V241.688H502.406C505 241.688 506.383 243.141 506.391 245.297C506.383 246.836 505.68 247.977 504.352 248.516L506.797 253H504.531L502.312 248.859H500.188V253H498.156ZM500.188 247.156H502.094C503.625 247.164 504.312 246.508 504.312 245.297C504.312 244.094 503.625 243.391 502.094 243.391H500.188V247.156ZM511.938 253.172C509.383 253.172 507.812 251.469 507.812 248.812C507.812 246.188 509.406 244.406 511.828 244.406C513.906 244.406 515.703 245.711 515.703 248.688V249.312H509.781C509.812 250.758 510.664 251.617 511.953 251.609C512.828 251.617 513.414 251.242 513.672 250.734H515.625C515.266 252.203 513.906 253.172 511.938 253.172ZM509.789 247.953H513.797C513.789 246.797 513.008 245.953 511.859 245.953C510.664 245.953 509.859 246.875 509.789 247.953ZM521.203 256.359C518.953 256.359 517.523 255.359 517.391 253.766H519.375C519.516 254.508 520.211 254.852 521.234 254.859C522.43 254.852 523.203 254.336 523.203 253.094V251.469H523.109C522.797 252.094 522.117 252.875 520.656 252.875C518.695 252.875 517.156 251.453 517.156 248.688C517.156 245.898 518.703 244.406 520.672 244.406C522.164 244.406 522.797 245.305 523.109 245.906H523.203V244.516H525.172V253.141C525.172 255.312 523.492 256.359 521.203 256.359ZM519.188 248.719C519.188 250.281 519.891 251.312 521.203 251.312C522.492 251.312 523.219 250.344 523.219 248.719C523.219 247.102 522.5 246.039 521.203 246.031C519.875 246.039 519.188 247.172 519.188 248.719ZM532.75 249.438V244.516H534.734V253H532.812V251.5H532.719C532.328 252.445 531.438 253.109 530.172 253.109C528.492 253.109 527.336 251.953 527.328 249.922V244.516H529.328V249.609C529.328 250.688 529.969 251.375 530.938 251.375C531.812 251.375 532.75 250.734 532.75 249.438ZM538.891 241.688V253H536.891V241.688H538.891ZM540.656 250.609C540.656 248.703 542.242 248.148 543.812 248.047C544.406 248 545.617 247.945 545.992 247.93L545.984 247.25C545.984 246.406 545.445 245.922 544.453 245.922C543.562 245.922 543.016 246.328 542.859 246.938H540.938C541.078 245.492 542.375 244.406 544.5 244.406C546.109 244.406 547.969 245.07 547.969 247.328V253H546.062V251.828H546C545.625 252.547 544.836 253.172 543.5 253.172C541.883 253.172 540.656 252.289 540.656 250.609ZM542.578 250.594C542.578 251.328 543.18 251.703 544.016 251.703C545.227 251.703 546 250.906 546 249.953L545.992 249.258C545.633 249.273 544.523 249.344 544.125 249.375C543.18 249.453 542.578 249.852 542.578 250.594ZM550.094 253V244.516H552.031V245.922H552.125C552.43 244.945 553.242 244.391 554.219 244.391C554.438 244.391 554.75 244.414 554.938 244.438V246.281C554.758 246.219 554.344 246.164 554.016 246.156C552.906 246.164 552.094 246.93 552.094 248V253H550.094ZM560.422 256.188V244.516H562.375V245.906H562.5C562.805 245.305 563.43 244.406 564.938 244.406C566.891 244.406 568.43 245.938 568.438 248.766C568.43 251.555 566.938 253.148 564.938 253.156C563.477 253.148 562.812 252.281 562.5 251.656H562.422V256.188H560.422ZM562.375 248.75C562.383 250.406 563.102 251.516 564.391 251.516C565.711 251.516 566.406 250.352 566.406 248.75C566.406 247.172 565.727 246.039 564.391 246.031C563.086 246.039 562.383 247.102 562.375 248.75ZM570.25 253V244.516H572.188V245.922H572.281C572.586 244.945 573.398 244.391 574.375 244.391C574.594 244.391 574.906 244.414 575.094 244.438V246.281C574.914 246.219 574.5 246.164 574.172 246.156C573.062 246.164 572.25 246.93 572.25 248V253H570.25ZM576.531 253V244.516H578.531V253H576.531ZM576.391 242.219C576.391 241.625 576.914 241.141 577.547 241.141C578.18 241.141 578.703 241.625 578.703 242.219C578.703 242.82 578.18 243.305 577.547 243.312C576.914 243.305 576.391 242.82 576.391 242.219ZM584.391 253.172C581.859 253.172 580.328 251.359 580.328 248.797C580.328 246.195 581.906 244.406 584.391 244.406C586.445 244.406 587.891 245.609 588.031 247.438H586.125C585.969 246.625 585.375 246.008 584.406 246C583.172 246.008 582.344 247.039 582.344 248.75C582.344 250.5 583.156 251.539 584.406 251.547C585.289 251.539 585.945 251.023 586.125 250.109H588.031C587.883 251.898 586.523 253.172 584.391 253.172ZM593.547 253.172C590.992 253.172 589.422 251.469 589.422 248.812C589.422 246.188 591.016 244.406 593.438 244.406C595.516 244.406 597.312 245.711 597.312 248.688V249.312H591.391C591.422 250.758 592.273 251.617 593.562 251.609C594.438 251.617 595.023 251.242 595.281 250.734H597.234C596.875 252.203 595.516 253.172 593.547 253.172ZM591.398 247.953H595.406C595.398 246.797 594.617 245.953 593.469 245.953C592.273 245.953 591.469 246.875 591.398 247.953ZM603.719 241.156L600.078 254.703H598.328L601.984 241.156H603.719ZM529.727 270.938C529.602 270.297 529.07 269.883 528.227 269.891C527.375 269.883 526.75 270.312 526.758 270.891C526.75 271.328 527.102 271.656 527.961 271.859L529.398 272.156C531 272.508 531.781 273.25 531.789 274.469C531.781 276.062 530.383 277.172 528.164 277.172C526.008 277.172 524.734 276.203 524.523 274.578H526.555C526.672 275.305 527.234 275.664 528.164 275.656C529.125 275.664 529.75 275.273 529.758 274.641C529.75 274.148 529.367 273.836 528.523 273.656L527.164 273.359C525.586 273.039 524.766 272.211 524.773 271C524.766 269.43 526.125 268.406 528.195 268.406C530.219 268.406 531.469 269.398 531.617 270.938H529.727ZM535.555 272.031V277H533.555V265.688H535.508V269.953H535.617C536 268.992 536.828 268.406 538.133 268.406C539.891 268.406 541.055 269.547 541.055 271.594V277H539.07V271.906C539.062 270.75 538.445 270.086 537.398 270.094C536.32 270.086 535.555 270.797 535.555 272.031ZM543.195 277V268.516H545.133V269.922H545.227C545.531 268.945 546.344 268.391 547.32 268.391C547.539 268.391 547.852 268.414 548.039 268.438V270.281C547.859 270.219 547.445 270.164 547.117 270.156C546.008 270.164 545.195 270.93 545.195 272V277H543.195ZM552.898 277.172C550.422 277.172 548.836 275.414 548.836 272.797C548.836 270.156 550.422 268.406 552.898 268.406C555.383 268.406 556.969 270.156 556.961 272.797C556.969 275.414 555.383 277.172 552.898 277.172ZM550.852 272.781C550.852 274.336 551.531 275.578 552.914 275.578C554.273 275.578 554.953 274.336 554.945 272.781C554.953 271.227 554.273 269.977 552.914 269.984C551.531 269.977 550.852 271.227 550.852 272.781ZM564.18 273.438V268.516H566.164V277H564.242V275.5H564.148C563.758 276.445 562.867 277.109 561.602 277.109C559.922 277.109 558.766 275.953 558.758 273.922V268.516H560.758V273.609C560.758 274.688 561.398 275.375 562.367 275.375C563.242 275.375 564.18 274.734 564.18 273.438ZM571.477 277.156C569.484 277.148 567.977 275.555 567.977 272.766C567.977 269.938 569.523 268.406 571.492 268.406C572.984 268.406 573.609 269.305 573.914 269.906H573.992V265.688H575.977V277H574.023V275.656H573.914C573.594 276.281 572.945 277.148 571.477 277.156ZM570.008 272.75C570.008 274.352 570.711 275.516 572.023 275.516C573.312 275.516 574.039 274.406 574.039 272.75C574.039 271.102 573.32 270.039 572.023 270.031C570.695 270.039 570.008 271.172 570.008 272.75Z" fill="black"/>
<path d="M519.234 331V319.688H526.484V321.391H521.266V324.484H525.984V326.188H521.266V331H519.234ZM528.359 331V322.516H530.359V331H528.359ZM528.219 320.219C528.219 319.625 528.742 319.141 529.375 319.141C530.008 319.141 530.531 319.625 530.531 320.219C530.531 320.82 530.008 321.305 529.375 321.312C528.742 321.305 528.219 320.82 528.219 320.219ZM534.141 322.516L535.859 325.656L537.609 322.516H539.719L537.156 326.75L539.766 331H537.672L535.859 327.938L534.094 331H531.969L534.562 326.75L532.031 322.516H534.141ZM544.812 331.172C542.258 331.172 540.688 329.469 540.688 326.812C540.688 324.188 542.281 322.406 544.703 322.406C546.781 322.406 548.578 323.711 548.578 326.688V327.312H542.656C542.688 328.758 543.539 329.617 544.828 329.609C545.703 329.617 546.289 329.242 546.547 328.734H548.5C548.141 330.203 546.781 331.172 544.812 331.172ZM542.664 325.953H546.672C546.664 324.797 545.883 323.953 544.734 323.953C543.539 323.953 542.734 324.875 542.664 325.953ZM553.531 331.156C551.539 331.148 550.031 329.555 550.031 326.766C550.031 323.938 551.578 322.406 553.547 322.406C555.039 322.406 555.664 323.305 555.969 323.906H556.047V319.688H558.031V331H556.078V329.656H555.969C555.648 330.281 555 331.148 553.531 331.156ZM552.062 326.75C552.062 328.352 552.766 329.516 554.078 329.516C555.367 329.516 556.094 328.406 556.094 326.75C556.094 325.102 555.375 324.039 554.078 324.031C552.75 324.039 552.062 325.172 552.062 326.75ZM564.344 334.188V322.516H566.297V323.906H566.422C566.727 323.305 567.352 322.406 568.859 322.406C570.812 322.406 572.352 323.938 572.359 326.766C572.352 329.555 570.859 331.148 568.859 331.156C567.398 331.148 566.734 330.281 566.422 329.656H566.344V334.188H564.344ZM566.297 326.75C566.305 328.406 567.023 329.516 568.312 329.516C569.633 329.516 570.328 328.352 570.328 326.75C570.328 325.172 569.648 324.039 568.312 324.031C567.008 324.039 566.305 325.102 566.297 326.75ZM574.172 331V322.516H576.109V323.922H576.203C576.508 322.945 577.32 322.391 578.297 322.391C578.516 322.391 578.828 322.414 579.016 322.438V324.281C578.836 324.219 578.422 324.164 578.094 324.156C576.984 324.164 576.172 324.93 576.172 326V331H574.172ZM580.453 331V322.516H582.453V331H580.453ZM580.312 320.219C580.312 319.625 580.836 319.141 581.469 319.141C582.102 319.141 582.625 319.625 582.625 320.219C582.625 320.82 582.102 321.305 581.469 321.312C580.836 321.305 580.312 320.82 580.312 320.219ZM588.312 331.172C585.781 331.172 584.25 329.359 584.25 326.797C584.25 324.195 585.828 322.406 588.312 322.406C590.367 322.406 591.812 323.609 591.953 325.438H590.047C589.891 324.625 589.297 324.008 588.328 324C587.094 324.008 586.266 325.039 586.266 326.75C586.266 328.5 587.078 329.539 588.328 329.547C589.211 329.539 589.867 329.023 590.047 328.109H591.953C591.805 329.898 590.445 331.172 588.312 331.172ZM597.469 331.172C594.914 331.172 593.344 329.469 593.344 326.812C593.344 324.188 594.938 322.406 597.359 322.406C599.438 322.406 601.234 323.711 601.234 326.688V327.312H595.312C595.344 328.758 596.195 329.617 597.484 329.609C598.359 329.617 598.945 329.242 599.203 328.734H601.156C600.797 330.203 599.438 331.172 597.469 331.172ZM595.32 325.953H599.328C599.32 324.797 598.539 323.953 597.391 323.953C596.195 323.953 595.391 324.875 595.32 325.953ZM607.641 319.156L604 332.703H602.25L605.906 319.156H607.641ZM518.039 355.172C515.508 355.172 513.977 353.359 513.977 350.797C513.977 348.195 515.555 346.406 518.039 346.406C520.094 346.406 521.539 347.609 521.68 349.438H519.773C519.617 348.625 519.023 348.008 518.055 348C516.82 348.008 515.992 349.039 515.992 350.75C515.992 352.5 516.805 353.539 518.055 353.547C518.938 353.539 519.594 353.023 519.773 352.109H521.68C521.531 353.898 520.172 355.172 518.039 355.172ZM527.133 355.172C524.656 355.172 523.07 353.414 523.07 350.797C523.07 348.156 524.656 346.406 527.133 346.406C529.617 346.406 531.203 348.156 531.195 350.797C531.203 353.414 529.617 355.172 527.133 355.172ZM525.086 350.781C525.086 352.336 525.766 353.578 527.148 353.578C528.508 353.578 529.188 352.336 529.18 350.781C529.188 349.227 528.508 347.977 527.148 347.984C525.766 347.977 525.086 349.227 525.086 350.781ZM534.992 350.031V355H532.992V346.516H534.898V347.953H535.008C535.391 347.008 536.258 346.406 537.523 346.406C539.281 346.406 540.438 347.562 540.43 349.594V355H538.445V349.906C538.445 348.766 537.828 348.086 536.789 348.094C535.734 348.086 534.992 348.797 534.992 350.031ZM547.398 348.938C547.273 348.297 546.742 347.883 545.898 347.891C545.047 347.883 544.422 348.312 544.43 348.891C544.422 349.328 544.773 349.656 545.633 349.859L547.07 350.156C548.672 350.508 549.453 351.25 549.461 352.469C549.453 354.062 548.055 355.172 545.836 355.172C543.68 355.172 542.406 354.203 542.195 352.578H544.227C544.344 353.305 544.906 353.664 545.836 353.656C546.797 353.664 547.422 353.273 547.43 352.641C547.422 352.148 547.039 351.836 546.195 351.656L544.836 351.359C543.258 351.039 542.438 350.211 542.445 349C542.438 347.43 543.797 346.406 545.867 346.406C547.891 346.406 549.141 347.398 549.289 348.938H547.398ZM551.227 355V346.516H553.227V355H551.227ZM551.086 344.219C551.086 343.625 551.609 343.141 552.242 343.141C552.875 343.141 553.398 343.625 553.398 344.219C553.398 344.82 552.875 345.305 552.242 345.312C551.609 345.305 551.086 344.82 551.086 344.219ZM559.086 358.359C556.836 358.359 555.406 357.359 555.273 355.766H557.258C557.398 356.508 558.094 356.852 559.117 356.859C560.312 356.852 561.086 356.336 561.086 355.094V353.469H560.992C560.68 354.094 560 354.875 558.539 354.875C556.578 354.875 555.039 353.453 555.039 350.688C555.039 347.898 556.586 346.406 558.555 346.406C560.047 346.406 560.68 347.305 560.992 347.906H561.086V346.516H563.055V355.141C563.055 357.312 561.375 358.359 559.086 358.359ZM557.07 350.719C557.07 352.281 557.773 353.312 559.086 353.312C560.375 353.312 561.102 352.344 561.102 350.719C561.102 349.102 560.383 348.039 559.086 348.031C557.758 348.039 557.07 349.172 557.07 350.719ZM567.211 350.031V355H565.211V346.516H567.117V347.953H567.227C567.609 347.008 568.477 346.406 569.742 346.406C571.5 346.406 572.656 347.562 572.648 349.594V355H570.664V349.906C570.664 348.766 570.047 348.086 569.008 348.094C567.953 348.086 567.211 348.797 567.211 350.031ZM574.805 355V346.516H576.711V347.953H576.82C577.172 346.984 578.023 346.406 579.148 346.406C580.297 346.406 581.125 346.992 581.445 347.953H581.539C581.906 347.016 582.852 346.406 584.086 346.406C585.641 346.406 586.734 347.406 586.727 349.297V355H584.742V349.609C584.742 348.555 584.102 348.078 583.289 348.078C582.312 348.078 581.742 348.742 581.742 349.703V355H579.805V349.531C579.797 348.648 579.219 348.078 578.367 348.078C577.508 348.078 576.805 348.789 576.805 349.844V355H574.805ZM592.648 355.172C590.094 355.172 588.523 353.469 588.523 350.812C588.523 348.188 590.117 346.406 592.539 346.406C594.617 346.406 596.414 347.711 596.414 350.688V351.312H590.492C590.523 352.758 591.375 353.617 592.664 353.609C593.539 353.617 594.125 353.242 594.383 352.734H596.336C595.977 354.203 594.617 355.172 592.648 355.172ZM590.5 349.953H594.508C594.5 348.797 593.719 347.953 592.57 347.953C591.375 347.953 590.57 348.875 590.5 349.953ZM600.211 350.031V355H598.211V346.516H600.117V347.953H600.227C600.609 347.008 601.477 346.406 602.742 346.406C604.5 346.406 605.656 347.562 605.648 349.594V355H603.664V349.906C603.664 348.766 603.047 348.086 602.008 348.094C600.953 348.086 600.211 348.797 600.211 350.031ZM612.039 346.516V348.047H610.367V352.453C610.367 353.266 610.773 353.43 611.273 353.438C611.508 353.445 611.898 353.422 612.148 353.406V355.031C611.914 355.07 611.531 355.117 611.023 355.109C609.523 355.117 608.367 354.375 608.383 352.781V348.047H607.164V346.516H608.383V344.484H610.367V346.516H612.039Z" fill="black"/>
<rect x="310.5" y="330.039" width="179" height="69" rx="34.5" fill="white"/>
<rect x="310.5" y="330.039" width="179" height="69" rx="34.5" stroke="#ABBBC5"/>
<path d="M345.039 349.227V360.539H343.008V349.227H345.039ZM351.539 352.055V353.586H349.867V357.992C349.867 358.805 350.273 358.969 350.773 358.977C351.008 358.984 351.398 358.961 351.648 358.945V360.57C351.414 360.609 351.031 360.656 350.523 360.648C349.023 360.656 347.867 359.914 347.883 358.32V353.586H346.664V352.055H347.883V350.023H349.867V352.055H351.539ZM356.992 360.711C354.438 360.711 352.867 359.008 352.867 356.352C352.867 353.727 354.461 351.945 356.883 351.945C358.961 351.945 360.758 353.25 360.758 356.227V356.852H354.836C354.867 358.297 355.719 359.156 357.008 359.148C357.883 359.156 358.469 358.781 358.727 358.273H360.68C360.32 359.742 358.961 360.711 356.992 360.711ZM354.844 355.492H358.852C358.844 354.336 358.062 353.492 356.914 353.492C355.719 353.492 354.914 354.414 354.844 355.492ZM362.555 360.539V352.055H364.461V353.492H364.57C364.922 352.523 365.773 351.945 366.898 351.945C368.047 351.945 368.875 352.531 369.195 353.492H369.289C369.656 352.555 370.602 351.945 371.836 351.945C373.391 351.945 374.484 352.945 374.477 354.836V360.539H372.492V355.148C372.492 354.094 371.852 353.617 371.039 353.617C370.062 353.617 369.492 354.281 369.492 355.242V360.539H367.555V355.07C367.547 354.188 366.969 353.617 366.117 353.617C365.258 353.617 364.555 354.328 364.555 355.383V360.539H362.555ZM381.445 354.477C381.32 353.836 380.789 353.422 379.945 353.43C379.094 353.422 378.469 353.852 378.477 354.43C378.469 354.867 378.82 355.195 379.68 355.398L381.117 355.695C382.719 356.047 383.5 356.789 383.508 358.008C383.5 359.602 382.102 360.711 379.883 360.711C377.727 360.711 376.453 359.742 376.242 358.117H378.273C378.391 358.844 378.953 359.203 379.883 359.195C380.844 359.203 381.469 358.812 381.477 358.18C381.469 357.688 381.086 357.375 380.242 357.195L378.883 356.898C377.305 356.578 376.484 355.75 376.492 354.539C376.484 352.969 377.844 351.945 379.914 351.945C381.938 351.945 383.188 352.938 383.336 354.477H381.445ZM393.086 360.711C390.531 360.711 388.961 359.008 388.961 356.352C388.961 353.727 390.555 351.945 392.977 351.945C395.055 351.945 396.852 353.25 396.852 356.227V356.852H390.93C390.961 358.297 391.812 359.156 393.102 359.148C393.977 359.156 394.562 358.781 394.82 358.273H396.773C396.414 359.742 395.055 360.711 393.086 360.711ZM390.938 355.492H394.945C394.938 354.336 394.156 353.492 393.008 353.492C391.812 353.492 391.008 354.414 390.938 355.492ZM400.102 352.055L401.82 355.195L403.57 352.055H405.68L403.117 356.289L405.727 360.539H403.633L401.82 357.477L400.055 360.539H397.93L400.523 356.289L397.992 352.055H400.102ZM410.711 360.711C408.18 360.711 406.648 358.898 406.648 356.336C406.648 353.734 408.227 351.945 410.711 351.945C412.766 351.945 414.211 353.148 414.352 354.977H412.445C412.289 354.164 411.695 353.547 410.727 353.539C409.492 353.547 408.664 354.578 408.664 356.289C408.664 358.039 409.477 359.078 410.727 359.086C411.609 359.078 412.266 358.562 412.445 357.648H414.352C414.203 359.438 412.844 360.711 410.711 360.711ZM418.102 349.227V360.539H416.102V349.227H418.102ZM425.68 356.977V352.055H427.664V360.539H425.742V359.039H425.648C425.258 359.984 424.367 360.648 423.102 360.648C421.422 360.648 420.266 359.492 420.258 357.461V352.055H422.258V357.148C422.258 358.227 422.898 358.914 423.867 358.914C424.742 358.914 425.68 358.273 425.68 356.977ZM432.977 360.695C430.984 360.688 429.477 359.094 429.477 356.305C429.477 353.477 431.023 351.945 432.992 351.945C434.484 351.945 435.109 352.844 435.414 353.445H435.492V349.227H437.477V360.539H435.523V359.195H435.414C435.094 359.82 434.445 360.688 432.977 360.695ZM431.508 356.289C431.508 357.891 432.211 359.055 433.523 359.055C434.812 359.055 435.539 357.945 435.539 356.289C435.539 354.641 434.82 353.578 433.523 353.57C432.195 353.578 431.508 354.711 431.508 356.289ZM443.508 360.711C440.953 360.711 439.383 359.008 439.383 356.352C439.383 353.727 440.977 351.945 443.398 351.945C445.477 351.945 447.273 353.25 447.273 356.227V356.852H441.352C441.383 358.297 442.234 359.156 443.523 359.148C444.398 359.156 444.984 358.781 445.242 358.273H447.195C446.836 359.742 445.477 360.711 443.508 360.711ZM441.359 355.492H445.367C445.359 354.336 444.578 353.492 443.43 353.492C442.234 353.492 441.43 354.414 441.359 355.492ZM452.227 360.695C450.234 360.688 448.727 359.094 448.727 356.305C448.727 353.477 450.273 351.945 452.242 351.945C453.734 351.945 454.359 352.844 454.664 353.445H454.742V349.227H456.727V360.539H454.773V359.195H454.664C454.344 359.82 453.695 360.688 452.227 360.695ZM450.758 356.289C450.758 357.891 451.461 359.055 452.773 359.055C454.062 359.055 454.789 357.945 454.789 356.289C454.789 354.641 454.07 353.578 452.773 353.57C451.445 353.578 450.758 354.711 450.758 356.289ZM362.273 372.055V373.586H360.523V380.539H358.523V373.586H357.258V372.055H358.523V371.242C358.523 369.594 359.547 368.695 361.18 368.695C361.641 368.695 362.07 368.742 362.445 368.82V370.398C362.117 370.352 361.875 370.344 361.727 370.336C360.922 370.344 360.516 370.656 360.523 371.43V372.055H362.273ZM363.945 380.539V372.055H365.883V373.461H365.977C366.281 372.484 367.094 371.93 368.07 371.93C368.289 371.93 368.602 371.953 368.789 371.977V373.82C368.609 373.758 368.195 373.703 367.867 373.695C366.758 373.703 365.945 374.469 365.945 375.539V380.539H363.945ZM373.648 380.711C371.172 380.711 369.586 378.953 369.586 376.336C369.586 373.695 371.172 371.945 373.648 371.945C376.133 371.945 377.719 373.695 377.711 376.336C377.719 378.953 376.133 380.711 373.648 380.711ZM371.602 376.32C371.602 377.875 372.281 379.117 373.664 379.117C375.023 379.117 375.703 377.875 375.695 376.32C375.703 374.766 375.023 373.516 373.664 373.523C372.281 373.516 371.602 374.766 371.602 376.32ZM379.508 380.539V372.055H381.414V373.492H381.523C381.875 372.523 382.727 371.945 383.852 371.945C385 371.945 385.828 372.531 386.148 373.492H386.242C386.609 372.555 387.555 371.945 388.789 371.945C390.344 371.945 391.438 372.945 391.43 374.836V380.539H389.445V375.148C389.445 374.094 388.805 373.617 387.992 373.617C387.016 373.617 386.445 374.281 386.445 375.242V380.539H384.508V375.07C384.5 374.188 383.922 373.617 383.07 373.617C382.211 373.617 381.508 374.328 381.508 375.383V380.539H379.508ZM399.633 369.227V380.539H397.633V369.227H399.633ZM401.789 380.539V372.055H403.789V380.539H401.789ZM401.648 369.758C401.648 369.164 402.172 368.68 402.805 368.68C403.438 368.68 403.961 369.164 403.961 369.758C403.961 370.359 403.438 370.844 402.805 370.852C402.172 370.844 401.648 370.359 401.648 369.758ZM410.758 374.477C410.633 373.836 410.102 373.422 409.258 373.43C408.406 373.422 407.781 373.852 407.789 374.43C407.781 374.867 408.133 375.195 408.992 375.398L410.43 375.695C412.031 376.047 412.812 376.789 412.82 378.008C412.812 379.602 411.414 380.711 409.195 380.711C407.039 380.711 405.766 379.742 405.555 378.117H407.586C407.703 378.844 408.266 379.203 409.195 379.195C410.156 379.203 410.781 378.812 410.789 378.18C410.781 377.688 410.398 377.375 409.555 377.195L408.195 376.898C406.617 376.578 405.797 375.75 405.805 374.539C405.797 372.969 407.156 371.945 409.227 371.945C411.25 371.945 412.5 372.938 412.648 374.477H410.758ZM418.82 372.055V373.586H417.148V377.992C417.148 378.805 417.555 378.969 418.055 378.977C418.289 378.984 418.68 378.961 418.93 378.945V380.57C418.695 380.609 418.312 380.656 417.805 380.648C416.305 380.656 415.148 379.914 415.164 378.32V373.586H413.945V372.055H415.164V370.023H417.148V372.055H418.82ZM420.602 380.539V372.055H422.602V380.539H420.602ZM420.461 369.758C420.461 369.164 420.984 368.68 421.617 368.68C422.25 368.68 422.773 369.164 422.773 369.758C422.773 370.359 422.25 370.844 421.617 370.852C420.984 370.844 420.461 370.359 420.461 369.758ZM426.758 375.57V380.539H424.758V372.055H426.664V373.492H426.773C427.156 372.547 428.023 371.945 429.289 371.945C431.047 371.945 432.203 373.102 432.195 375.133V380.539H430.211V375.445C430.211 374.305 429.594 373.625 428.555 373.633C427.5 373.625 426.758 374.336 426.758 375.57ZM438.055 383.898C435.805 383.898 434.375 382.898 434.242 381.305H436.227C436.367 382.047 437.062 382.391 438.086 382.398C439.281 382.391 440.055 381.875 440.055 380.633V379.008H439.961C439.648 379.633 438.969 380.414 437.508 380.414C435.547 380.414 434.008 378.992 434.008 376.227C434.008 373.438 435.555 371.945 437.523 371.945C439.016 371.945 439.648 372.844 439.961 373.445H440.055V372.055H442.023V380.68C442.023 382.852 440.344 383.898 438.055 383.898ZM436.039 376.258C436.039 377.82 436.742 378.852 438.055 378.852C439.344 378.852 440.07 377.883 440.07 376.258C440.07 374.641 439.352 373.578 438.055 373.57C436.727 373.578 436.039 374.711 436.039 376.258Z" fill="black"/>
<path d="M293 231.539L283 225.766L283 237.313L293 231.539ZM196 232.539L198.021 232.539L198.021 230.539L196 230.539L196 232.539ZM202.062 232.539L206.104 232.539L206.104 230.539L202.063 230.539L202.062 232.539ZM210.146 232.539L214.187 232.539L214.187 230.539L210.146 230.539L210.146 232.539ZM218.229 232.539L222.271 232.539L222.271 230.539L218.229 230.539L218.229 232.539ZM226.312 232.539L230.354 232.539L230.354 230.539L226.312 230.539L226.312 232.539ZM234.396 232.539L238.437 232.539L238.438 230.539L234.396 230.539L234.396 232.539ZM242.479 232.539L246.521 232.539L246.521 230.539L242.479 230.539L242.479 232.539ZM250.563 232.539L254.604 232.539L254.604 230.539L250.563 230.539L250.563 232.539ZM258.646 232.539L262.688 232.539L262.688 230.539L258.646 230.539L258.646 232.539ZM266.729 232.539L270.771 232.539L270.771 230.539L266.729 230.539L266.729 232.539ZM274.812 232.539L278.854 232.539L278.854 230.539L274.813 230.539L274.812 232.539ZM282.896 232.539L286.937 232.539L286.937 230.539L282.896 230.539L282.896 232.539ZM293 231.539L283 225.766L283 237.313L293 231.539ZM196 232.539L198.021 232.539L198.021 230.539L196 230.539L196 232.539ZM202.062 232.539L206.104 232.539L206.104 230.539L202.063 230.539L202.062 232.539ZM210.146 232.539L214.187 232.539L214.187 230.539L210.146 230.539L210.146 232.539ZM218.229 232.539L222.271 232.539L222.271 230.539L218.229 230.539L218.229 232.539ZM226.312 232.539L230.354 232.539L230.354 230.539L226.312 230.539L226.312 232.539ZM234.396 232.539L238.437 232.539L238.438 230.539L234.396 230.539L234.396 232.539ZM242.479 232.539L246.521 232.539L246.521 230.539L242.479 230.539L242.479 232.539ZM250.563 232.539L254.604 232.539L254.604 230.539L250.563 230.539L250.563 232.539ZM258.646 232.539L262.688 232.539L262.688 230.539L258.646 230.539L258.646 232.539ZM266.729 232.539L270.771 232.539L270.771 230.539L266.729 230.539L266.729 232.539ZM274.812 232.539L278.854 232.539L278.854 230.539L274.813 230.539L274.812 232.539ZM282.896 232.539L286.937 232.539L286.937 230.539L282.896 230.539L282.896 232.539Z" fill="black"/>
<path d="M605 231.539L595 225.766L595 237.313L605 231.539ZM508 232.539L510.021 232.539L510.021 230.539L508 230.539L508 232.539ZM514.062 232.539L518.104 232.539L518.104 230.539L514.063 230.539L514.062 232.539ZM522.146 232.539L526.187 232.539L526.187 230.539L522.146 230.539L522.146 232.539ZM530.229 232.539L534.271 232.539L534.271 230.539L530.229 230.539L530.229 232.539ZM538.312 232.539L542.354 232.539L542.354 230.539L538.312 230.539L538.312 232.539ZM546.396 232.539L550.437 232.539L550.438 230.539L546.396 230.539L546.396 232.539ZM554.479 232.539L558.521 232.539L558.521 230.539L554.479 230.539L554.479 232.539ZM562.563 232.539L566.604 232.539L566.604 230.539L562.563 230.539L562.563 232.539ZM570.646 232.539L574.688 232.539L574.688 230.539L570.646 230.539L570.646 232.539ZM578.729 232.539L582.771 232.539L582.771 230.539L578.729 230.539L578.729 232.539ZM586.812 232.539L590.854 232.539L590.854 230.539L586.813 230.539L586.812 232.539ZM594.896 232.539L598.937 232.539L598.937 230.539L594.896 230.539L594.896 232.539ZM605 231.539L595 225.766L595 237.313L605 231.539ZM508 232.539L510.021 232.539L510.021 230.539L508 230.539L508 232.539ZM514.062 232.539L518.104 232.539L518.104 230.539L514.063 230.539L514.062 232.539ZM522.146 232.539L526.187 232.539L526.187 230.539L522.146 230.539L522.146 232.539ZM530.229 232.539L534.271 232.539L534.271 230.539L530.229 230.539L530.229 232.539ZM538.312 232.539L542.354 232.539L542.354 230.539L538.312 230.539L538.312 232.539ZM546.396 232.539L550.437 232.539L550.438 230.539L546.396 230.539L546.396 232.539ZM554.479 232.539L558.521 232.539L558.521 230.539L554.479 230.539L554.479 232.539ZM562.563 232.539L566.604 232.539L566.604 230.539L562.563 230.539L562.563 232.539ZM570.646 232.539L574.688 232.539L574.688 230.539L570.646 230.539L570.646 232.539ZM578.729 232.539L582.771 232.539L582.771 230.539L578.729 230.539L578.729 232.539ZM586.812 232.539L590.854 232.539L590.854 230.539L586.813 230.539L586.812 232.539ZM594.896 232.539L598.937 232.539L598.937 230.539L594.896 230.539L594.896 232.539Z" fill="black"/>
<path d="M713 365.539V366.539H714V365.539H713ZM713 284.539L707.226 294.539H718.774L713 284.539ZM508 366.539H509.971V364.539H508V366.539ZM513.913 366.539H517.856V364.539H513.913V366.539ZM521.798 366.539H525.74V364.539H521.798V366.539ZM529.683 366.539H533.625V364.539H529.683V366.539ZM537.567 366.539H541.51V364.539H537.567V366.539ZM545.452 366.539H549.394V364.539H545.452V366.539ZM553.337 366.539H557.279V364.539H553.337V366.539ZM561.221 366.539H565.163V364.539H561.221V366.539ZM569.106 366.539H573.048V364.539H569.106V366.539ZM576.99 366.539H580.933V364.539H576.99V366.539ZM584.875 366.539H588.817V364.539H584.875V366.539ZM592.76 366.539H596.702V364.539H592.76V366.539ZM600.644 366.539H604.587V364.539H600.644V366.539ZM608.529 366.539H612.471V364.539H608.529V366.539ZM616.413 366.539H620.356V364.539H616.413V366.539ZM624.298 366.539H628.24V364.539H624.298V366.539ZM632.183 366.539H636.125V364.539H632.183V366.539ZM640.067 366.539H644.01V364.539H640.067V366.539ZM647.952 366.539H651.894V364.539H647.952V366.539ZM655.837 366.539H659.779V364.539H655.837V366.539ZM663.721 366.539H667.663V364.539H663.721V366.539ZM671.606 366.539H675.548V364.539H671.606V366.539ZM679.49 366.539H683.433V364.539H679.49V366.539ZM687.375 366.539H691.317V364.539H687.375V366.539ZM695.26 366.539H699.202V364.539H695.26V366.539ZM703.144 366.539H707.087V364.539H703.144V366.539ZM711.029 366.539H713V364.539H711.029V366.539ZM714 365.539V363.514H712V365.539H714ZM714 359.464V355.414H712V359.464H714ZM714 351.364V347.314H712V351.364H714ZM714 343.264V339.214H712V343.264H714ZM714 335.164V331.114H712V335.164H714ZM714 327.064V323.014H712V327.064H714ZM714 318.964V314.914H712V318.964H714ZM714 310.864V306.814H712V310.864H714ZM714 302.764V298.714H712V302.764H714ZM714 294.664V290.614H712V294.664H714Z" fill="black"/>
<path d="M90 365.539L89 365.539L89 366.539L90 366.539L90 365.539ZM292 365.539L282 359.766L282 371.313L292 365.539ZM89 276.539L89 278.562L91 278.562L91 276.539L89 276.539ZM89 282.607L89 286.653L91 286.653L91 282.607L89 282.607ZM89 290.698L89 294.744L91 294.744L91 290.698L89 290.698ZM89 298.789L89 302.835L91 302.835L91 298.789L89 298.789ZM89 306.88L89 310.925L91 310.925L91 306.88L89 306.88ZM89 314.971L89 319.016L91 319.016L91 314.971L89 314.971ZM89 323.062L89 327.107L91 327.107L91 323.062L89 323.062ZM89 331.153L89 335.198L91 335.198L91 331.153L89 331.153ZM89 339.244L89 343.289L91 343.289L91 339.244L89 339.244ZM89 347.335L89 351.38L91 351.38L91 347.335L89 347.335ZM89 355.425L89 359.471L91 359.471L91 355.425L89 355.425ZM89 363.516L89 365.539L91 365.539L91 363.516L89 363.516ZM90 366.539L92.02 366.539L92.02 364.539L90 364.539L90 366.539ZM96.06 366.539L100.1 366.539L100.1 364.539L96.06 364.539L96.06 366.539ZM104.14 366.539L108.18 366.539L108.18 364.539L104.14 364.539L104.14 366.539ZM112.22 366.539L116.26 366.539L116.26 364.539L112.22 364.539L112.22 366.539ZM120.3 366.539L124.34 366.539L124.34 364.539L120.3 364.539L120.3 366.539ZM128.38 366.539L132.42 366.539L132.42 364.539L128.38 364.539L128.38 366.539ZM136.46 366.539L140.5 366.539L140.5 364.539L136.46 364.539L136.46 366.539ZM144.54 366.539L148.58 366.539L148.58 364.539L144.54 364.539L144.54 366.539ZM152.62 366.539L156.66 366.539L156.66 364.539L152.62 364.539L152.62 366.539ZM160.7 366.539L164.74 366.539L164.74 364.539L160.7 364.539L160.7 366.539ZM168.78 366.539L172.82 366.539L172.82 364.539L168.78 364.539L168.78 366.539ZM176.86 366.539L180.9 366.539L180.9 364.539L176.86 364.539L176.86 366.539ZM184.94 366.539L188.98 366.539L188.98 364.539L184.94 364.539L184.94 366.539ZM193.02 366.539L197.06 366.539L197.06 364.539L193.02 364.539L193.02 366.539ZM201.1 366.539L205.14 366.539L205.14 364.539L201.1 364.539L201.1 366.539ZM209.18 366.539L213.22 366.539L213.22 364.539L209.18 364.539L209.18 366.539ZM217.26 366.539L221.3 366.539L221.3 364.539L217.26 364.539L217.26 366.539ZM225.34 366.539L229.38 366.539L229.38 364.539L225.34 364.539L225.34 366.539ZM233.42 366.539L237.46 366.539L237.46 364.539L233.42 364.539L233.42 366.539ZM241.5 366.539L245.54 366.539L245.54 364.539L241.5 364.539L241.5 366.539ZM249.58 366.539L253.62 366.539L253.62 364.539L249.58 364.539L249.58 366.539ZM257.66 366.539L261.7 366.539L261.7 364.539L257.66 364.539L257.66 366.539ZM265.74 366.539L269.78 366.539L269.78 364.539L265.74 364.539L265.74 366.539ZM273.82 366.539L277.86 366.539L277.86 364.539L273.82 364.539L273.82 366.539ZM281.9 366.539L285.94 366.539L285.94 364.539L281.9 364.539L281.9 366.539Z" fill="black"/>
<path d="M874 231.539L864 225.766L864 237.313L874 231.539ZM811 232.539L812.969 232.539L812.969 230.539L811 230.539L811 232.539ZM816.906 232.539L820.844 232.539L820.844 230.539L816.906 230.539L816.906 232.539ZM824.781 232.539L828.719 232.539L828.719 230.539L824.781 230.539L824.781 232.539ZM832.656 232.539L836.594 232.539L836.594 230.539L832.656 230.539L832.656 232.539ZM840.531 232.539L844.469 232.539L844.469 230.539L840.531 230.539L840.531 232.539ZM848.406 232.539L852.344 232.539L852.344 230.539L848.406 230.539L848.406 232.539ZM856.281 232.539L860.219 232.539L860.219 230.539L856.281 230.539L856.281 232.539ZM864.156 232.539L868.094 232.539L868.094 230.539L864.156 230.539L864.156 232.539ZM874 231.539L864 225.766L864 237.313L874 231.539ZM811 232.539L812.969 232.539L812.969 230.539L811 230.539L811 232.539ZM816.906 232.539L820.844 232.539L820.844 230.539L816.906 230.539L816.906 232.539ZM824.781 232.539L828.719 232.539L828.719 230.539L824.781 230.539L824.781 232.539ZM832.656 232.539L836.594 232.539L836.594 230.539L832.656 230.539L832.656 232.539ZM840.531 232.539L844.469 232.539L844.469 230.539L840.531 230.539L840.531 232.539ZM848.406 232.539L852.344 232.539L852.344 230.539L848.406 230.539L848.406 232.539ZM856.281 232.539L860.219 232.539L860.219 230.539L856.281 230.539L856.281 232.539ZM864.156 232.539L868.094 232.539L868.094 230.539L864.156 230.539L864.156 232.539Z" fill="black"/>
<rect x="920" y="0.539062" width="180" height="180" rx="90" fill="#FFB724"/>
<path d="M971.32 99.5391V86.8125H974.227V88.9219H974.367C974.824 87.457 976.043 86.625 977.508 86.625C977.836 86.625 978.305 86.6602 978.586 86.6953V89.4609C978.316 89.3672 977.695 89.2852 977.203 89.2734C975.539 89.2852 974.32 90.4336 974.32 92.0391V99.5391H971.32ZM985.844 99.7969C982.012 99.7969 979.656 97.2422 979.656 93.2578C979.656 89.3203 982.047 86.6484 985.68 86.6484C988.797 86.6484 991.492 88.6055 991.492 93.0703V94.0078H982.609C982.656 96.1758 983.934 97.4648 985.867 97.4531C987.18 97.4648 988.059 96.9023 988.445 96.1406H991.375C990.836 98.3438 988.797 99.7969 985.844 99.7969ZM982.621 91.9688H988.633C988.621 90.2344 987.449 88.9688 985.727 88.9688C983.934 88.9688 982.727 90.3516 982.621 91.9688ZM1000.41 86.8125V89.1094H997.906V95.7188C997.906 96.9375 998.516 97.1836 999.266 97.1953C999.617 97.207 1000.2 97.1719 1000.58 97.1484V99.5859C1000.23 99.6445 999.652 99.7148 998.891 99.7031C996.641 99.7148 994.906 98.6016 994.93 96.2109V89.1094H993.102V86.8125H994.93V83.7656H997.906V86.8125H1000.41ZM1002.38 95.9531C1002.38 93.0938 1004.75 92.2617 1007.11 92.1094C1008 92.0391 1009.82 91.957 1010.38 91.9336L1010.37 90.9141C1010.37 89.6484 1009.56 88.9219 1008.07 88.9219C1006.73 88.9219 1005.91 89.5312 1005.68 90.4453H1002.8C1003.01 88.2773 1004.95 86.6484 1008.14 86.6484C1010.55 86.6484 1013.34 87.6445 1013.34 91.0312V99.5391H1010.48V97.7812H1010.39C1009.83 98.8594 1008.64 99.7969 1006.64 99.7969C1004.21 99.7969 1002.38 98.4727 1002.38 95.9531ZM1005.26 95.9297C1005.26 97.0312 1006.16 97.5938 1007.41 97.5938C1009.23 97.5938 1010.39 96.3984 1010.39 94.9688L1010.38 93.9258C1009.84 93.9492 1008.18 94.0547 1007.58 94.1016C1006.16 94.2188 1005.26 94.8164 1005.26 95.9297ZM1016.41 99.5391V86.8125H1019.41V99.5391H1016.41ZM1016.2 83.3672C1016.2 82.4766 1016.98 81.75 1017.93 81.75C1018.88 81.75 1019.66 82.4766 1019.66 83.3672C1019.66 84.2695 1018.88 84.9961 1017.93 85.0078C1016.98 84.9961 1016.2 84.2695 1016.2 83.3672ZM1025.52 82.5703V99.5391H1022.52V82.5703H1025.52ZM1034.27 99.7969C1030.44 99.7969 1028.09 97.2422 1028.09 93.2578C1028.09 89.3203 1030.48 86.6484 1034.11 86.6484C1037.23 86.6484 1039.92 88.6055 1039.92 93.0703V94.0078H1031.04C1031.09 96.1758 1032.36 97.4648 1034.3 97.4531C1035.61 97.4648 1036.49 96.9023 1036.88 96.1406H1039.8C1039.27 98.3438 1037.23 99.7969 1034.27 99.7969ZM1031.05 91.9688H1037.06C1037.05 90.2344 1035.88 88.9688 1034.16 88.9688C1032.36 88.9688 1031.16 90.3516 1031.05 91.9688ZM1042.49 99.5391V86.8125H1045.4V88.9219H1045.54C1046 87.457 1047.21 86.625 1048.68 86.625C1049.01 86.625 1049.48 86.6602 1049.76 86.6953V89.4609C1049.49 89.3672 1048.87 89.2852 1048.38 89.2734C1046.71 89.2852 1045.49 90.4336 1045.49 92.0391V99.5391H1042.49Z" fill="white"/>
<rect x="920" y="282.539" width="180" height="180" rx="90" fill="#FFB724"/>
<path d="M968.035 320.934V322.848H965.848V331.539H963.348V322.848H961.766V320.934H963.348V319.918C963.348 317.857 964.627 316.734 966.668 316.734C967.244 316.734 967.781 316.793 968.25 316.891V318.863C967.84 318.805 967.537 318.795 967.352 318.785C966.346 318.795 965.838 319.186 965.848 320.152V320.934H968.035ZM974.281 331.754C971.186 331.754 969.203 329.557 969.203 326.285C969.203 322.984 971.186 320.797 974.281 320.797C977.387 320.797 979.369 322.984 979.359 326.285C979.369 329.557 977.387 331.754 974.281 331.754ZM971.723 326.266C971.723 328.209 972.572 329.762 974.301 329.762C976 329.762 976.85 328.209 976.84 326.266C976.85 324.322 976 322.76 974.301 322.77C972.572 322.76 971.723 324.322 971.723 326.266ZM981.543 331.539V320.934H983.965V322.691H984.082C984.463 321.471 985.479 320.777 986.699 320.777C986.973 320.777 987.363 320.807 987.598 320.836V323.141C987.373 323.062 986.855 322.994 986.445 322.984C985.059 322.994 984.043 323.951 984.043 325.289V331.539H981.543ZM989.332 331.539V320.934H991.715V322.73H991.852C992.291 321.52 993.355 320.797 994.762 320.797C996.197 320.797 997.232 321.529 997.633 322.73H997.75C998.209 321.559 999.391 320.797 1000.93 320.797C1002.88 320.797 1004.24 322.047 1004.23 324.41V331.539H1001.75V324.801C1001.75 323.482 1000.95 322.887 999.938 322.887C998.717 322.887 998.004 323.717 998.004 324.918V331.539H995.582V324.703C995.572 323.6 994.85 322.887 993.785 322.887C992.711 322.887 991.832 323.775 991.832 325.094V331.539H989.332ZM1006.38 328.551C1006.38 326.168 1008.36 325.475 1010.32 325.348C1011.07 325.289 1012.58 325.221 1013.05 325.201L1013.04 324.352C1013.04 323.297 1012.37 322.691 1011.12 322.691C1010.01 322.691 1009.33 323.199 1009.13 323.961H1006.73C1006.91 322.154 1008.53 320.797 1011.18 320.797C1013.2 320.797 1015.52 321.627 1015.52 324.449V331.539H1013.14V330.074H1013.06C1012.59 330.973 1011.6 331.754 1009.93 331.754C1007.91 331.754 1006.38 330.65 1006.38 328.551ZM1008.78 328.531C1008.78 329.449 1009.53 329.918 1010.58 329.918C1012.09 329.918 1013.06 328.922 1013.06 327.73L1013.05 326.861C1012.6 326.881 1011.21 326.969 1010.71 327.008C1009.53 327.105 1008.78 327.604 1008.78 328.531ZM1023.41 320.934V322.848H1021.32V328.355C1021.32 329.371 1021.82 329.576 1022.45 329.586C1022.74 329.596 1023.23 329.566 1023.54 329.547V331.578C1023.25 331.627 1022.77 331.686 1022.14 331.676C1020.26 331.686 1018.82 330.758 1018.84 328.766V322.848H1017.31V320.934H1018.84V318.395H1021.32V320.934H1023.41ZM1025.57 331.539V320.934H1028.07V331.539H1025.57ZM1025.39 318.062C1025.39 317.32 1026.05 316.715 1026.84 316.715C1027.63 316.715 1028.29 317.32 1028.29 318.062C1028.29 318.814 1027.63 319.42 1026.84 319.43C1026.05 319.42 1025.39 318.814 1025.39 318.062ZM1035.33 331.754C1032.24 331.754 1030.25 329.557 1030.25 326.285C1030.25 322.984 1032.24 320.797 1035.33 320.797C1038.44 320.797 1040.42 322.984 1040.41 326.285C1040.42 329.557 1038.44 331.754 1035.33 331.754ZM1032.77 326.266C1032.77 328.209 1033.62 329.762 1035.35 329.762C1037.05 329.762 1037.9 328.209 1037.89 326.266C1037.9 324.322 1037.05 322.76 1035.35 322.77C1033.62 322.76 1032.77 324.322 1032.77 326.266ZM1045.09 325.328V331.539H1042.59V320.934H1044.98V322.73H1045.11C1045.59 321.549 1046.68 320.797 1048.26 320.797C1050.46 320.797 1051.9 322.242 1051.89 324.781V331.539H1049.41V325.172C1049.41 323.746 1048.64 322.896 1047.34 322.906C1046.02 322.896 1045.09 323.785 1045.09 325.328ZM962.619 363.734C960.129 363.725 958.244 361.732 958.244 358.246C958.244 354.711 960.178 352.797 962.639 352.797C964.504 352.797 965.285 353.92 965.666 354.672H965.764V349.398H968.244V363.539H965.803V361.859H965.666C965.266 362.641 964.455 363.725 962.619 363.734ZM960.783 358.227C960.783 360.229 961.662 361.684 963.303 361.684C964.914 361.684 965.822 360.297 965.822 358.227C965.822 356.166 964.924 354.838 963.303 354.828C961.643 354.838 960.783 356.254 960.783 358.227ZM971.014 363.539V352.934H973.514V363.539H971.014ZM970.838 350.062C970.838 349.32 971.492 348.715 972.283 348.715C973.074 348.715 973.729 349.32 973.729 350.062C973.729 350.814 973.074 351.42 972.283 351.43C971.492 351.42 970.838 350.814 970.838 350.062ZM982.162 355.961C982.006 355.16 981.342 354.643 980.287 354.652C979.223 354.643 978.441 355.18 978.451 355.902C978.441 356.449 978.881 356.859 979.955 357.113L981.752 357.484C983.754 357.924 984.73 358.852 984.74 360.375C984.73 362.367 982.982 363.754 980.209 363.754C977.514 363.754 975.922 362.543 975.658 360.512H978.197C978.344 361.42 979.047 361.869 980.209 361.859C981.41 361.869 982.191 361.381 982.201 360.59C982.191 359.975 981.713 359.584 980.658 359.359L978.959 358.988C976.986 358.588 975.961 357.553 975.971 356.039C975.961 354.076 977.66 352.797 980.248 352.797C982.777 352.797 984.34 354.037 984.525 355.961H982.162ZM992.178 352.934V354.848H990.088V360.355C990.088 361.371 990.596 361.576 991.221 361.586C991.514 361.596 992.002 361.566 992.314 361.547V363.578C992.021 363.627 991.543 363.686 990.908 363.676C989.033 363.686 987.588 362.758 987.607 360.766V354.848H986.084V352.934H987.607V350.395H990.088V352.934H992.178ZM994.342 363.539V352.934H996.764V354.691H996.881C997.262 353.471 998.277 352.777 999.498 352.777C999.771 352.777 1000.16 352.807 1000.4 352.836V355.141C1000.17 355.062 999.654 354.994 999.244 354.984C997.857 354.994 996.842 355.951 996.842 357.289V363.539H994.342ZM1002.13 363.539V352.934H1004.63V363.539H1002.13ZM1001.96 350.062C1001.96 349.32 1002.61 348.715 1003.4 348.715C1004.19 348.715 1004.85 349.32 1004.85 350.062C1004.85 350.814 1004.19 351.42 1003.4 351.43C1002.61 351.42 1001.96 350.814 1001.96 350.062ZM1007.38 363.539V349.398H1009.88V354.672H1009.98C1010.36 353.92 1011.13 352.797 1013.01 352.797C1015.46 352.797 1017.39 354.711 1017.4 358.246C1017.39 361.732 1015.52 363.725 1013.03 363.734C1011.19 363.725 1010.37 362.641 1009.98 361.859H1009.82V363.539H1007.38ZM1009.82 358.227C1009.82 360.297 1010.73 361.684 1012.32 361.684C1013.98 361.684 1014.85 360.229 1014.86 358.227C1014.85 356.254 1014 354.838 1012.32 354.828C1010.71 354.838 1009.82 356.166 1009.82 358.227ZM1026.38 359.086V352.934H1028.86V363.539H1026.46V361.664H1026.34C1025.85 362.846 1024.74 363.676 1023.16 363.676C1021.06 363.676 1019.61 362.23 1019.6 359.691V352.934H1022.1V359.301C1022.1 360.648 1022.9 361.508 1024.12 361.508C1025.21 361.508 1026.38 360.707 1026.38 359.086ZM1036.79 352.934V354.848H1034.7V360.355C1034.7 361.371 1035.21 361.576 1035.83 361.586C1036.12 361.596 1036.61 361.566 1036.92 361.547V363.578C1036.63 363.627 1036.15 363.686 1035.52 363.676C1033.64 363.686 1032.2 362.758 1032.22 360.766V354.848H1030.69V352.934H1032.22V350.395H1034.7V352.934H1036.79ZM1043.46 363.754C1040.37 363.754 1038.38 361.557 1038.38 358.285C1038.38 354.984 1040.37 352.797 1043.46 352.797C1046.57 352.797 1048.55 354.984 1048.54 358.285C1048.55 361.557 1046.57 363.754 1043.46 363.754ZM1040.9 358.266C1040.9 360.209 1041.75 361.762 1043.48 361.762C1045.18 361.762 1046.03 360.209 1046.02 358.266C1046.03 356.322 1045.18 354.76 1043.48 354.77C1041.75 354.76 1040.9 356.322 1040.9 358.266ZM1050.72 363.539V352.934H1053.15V354.691H1053.26C1053.64 353.471 1054.66 352.777 1055.88 352.777C1056.15 352.777 1056.54 352.807 1056.78 352.836V355.141C1056.55 355.062 1056.04 354.994 1055.63 354.984C1054.24 354.994 1053.22 355.951 1053.22 357.289V363.539H1050.72ZM958.584 399.523V384.934H961.025V386.672H961.182C961.562 385.92 962.344 384.797 964.229 384.797C966.67 384.797 968.594 386.711 968.604 390.246C968.594 393.732 966.729 395.725 964.229 395.734C962.402 395.725 961.572 394.641 961.182 393.859H961.084V399.523H958.584ZM961.025 390.227C961.035 392.297 961.934 393.684 963.545 393.684C965.195 393.684 966.064 392.229 966.064 390.227C966.064 388.254 965.215 386.838 963.545 386.828C961.914 386.838 961.035 388.166 961.025 390.227ZM970.807 395.539V384.934H973.229V386.691H973.346C973.727 385.471 974.742 384.777 975.963 384.777C976.236 384.777 976.627 384.807 976.861 384.836V387.141C976.637 387.062 976.119 386.994 975.709 386.984C974.322 386.994 973.307 387.951 973.307 389.289V395.539H970.807ZM982.873 395.754C979.777 395.754 977.795 393.557 977.795 390.285C977.795 386.984 979.777 384.797 982.873 384.797C985.979 384.797 987.961 386.984 987.951 390.285C987.961 393.557 985.979 395.754 982.873 395.754ZM980.314 390.266C980.314 392.209 981.164 393.762 982.893 393.762C984.592 393.762 985.441 392.209 985.432 390.266C985.441 388.322 984.592 386.76 982.893 386.77C981.164 386.76 980.314 388.322 980.314 390.266ZM994.764 395.754C991.6 395.754 989.686 393.488 989.686 390.285C989.686 387.033 991.658 384.797 994.764 384.797C997.332 384.797 999.139 386.301 999.314 388.586H996.932C996.736 387.57 995.994 386.799 994.783 386.789C993.24 386.799 992.205 388.088 992.205 390.227C992.205 392.414 993.221 393.713 994.783 393.723C995.887 393.713 996.707 393.068 996.932 391.926H999.314C999.129 394.162 997.43 395.754 994.764 395.754ZM1006.15 395.754C1002.95 395.754 1000.99 393.625 1000.99 390.305C1000.99 387.023 1002.98 384.797 1006.01 384.797C1008.61 384.797 1010.85 386.428 1010.85 390.148V390.93H1003.45C1003.49 392.736 1004.55 393.811 1006.17 393.801C1007.26 393.811 1007.99 393.342 1008.31 392.707H1010.76C1010.31 394.543 1008.61 395.754 1006.15 395.754ZM1003.46 389.23H1008.47C1008.46 387.785 1007.48 386.73 1006.05 386.73C1004.55 386.73 1003.55 387.883 1003.46 389.23ZM1019.05 387.961C1018.9 387.16 1018.23 386.643 1017.18 386.652C1016.11 386.643 1015.33 387.18 1015.34 387.902C1015.33 388.449 1015.77 388.859 1016.85 389.113L1018.64 389.484C1020.64 389.924 1021.62 390.852 1021.63 392.375C1021.62 394.367 1019.87 395.754 1017.1 395.754C1014.4 395.754 1012.81 394.543 1012.55 392.512H1015.09C1015.23 393.42 1015.94 393.869 1017.1 393.859C1018.3 393.869 1019.08 393.381 1019.09 392.59C1019.08 391.975 1018.6 391.584 1017.55 391.359L1015.85 390.988C1013.88 390.588 1012.85 389.553 1012.86 388.039C1012.85 386.076 1014.55 384.797 1017.14 384.797C1019.67 384.797 1021.23 386.037 1021.42 387.961H1019.05ZM1029.79 387.961C1029.63 387.16 1028.97 386.643 1027.92 386.652C1026.85 386.643 1026.07 387.18 1026.08 387.902C1026.07 388.449 1026.51 388.859 1027.58 389.113L1029.38 389.484C1031.38 389.924 1032.36 390.852 1032.37 392.375C1032.36 394.367 1030.61 395.754 1027.84 395.754C1025.14 395.754 1023.55 394.543 1023.29 392.512H1025.83C1025.97 393.42 1026.68 393.869 1027.84 393.859C1029.04 393.869 1029.82 393.381 1029.83 392.59C1029.82 391.975 1029.34 391.584 1028.29 391.359L1026.59 390.988C1024.62 390.588 1023.59 389.553 1023.6 388.039C1023.59 386.076 1025.29 384.797 1027.88 384.797C1030.41 384.797 1031.97 386.037 1032.15 387.961H1029.79ZM1034.51 395.539V384.934H1037.01V395.539H1034.51ZM1034.34 382.062C1034.34 381.32 1034.99 380.715 1035.78 380.715C1036.57 380.715 1037.23 381.32 1037.23 382.062C1037.23 382.814 1036.57 383.42 1035.78 383.43C1034.99 383.42 1034.34 382.814 1034.34 382.062ZM1042.15 389.328V395.539H1039.65V384.934H1042.03V386.73H1042.17C1042.64 385.549 1043.73 384.797 1045.31 384.797C1047.51 384.797 1048.95 386.242 1048.94 388.781V395.539H1046.46V389.172C1046.46 387.746 1045.69 386.896 1044.39 386.906C1043.07 386.896 1042.15 387.785 1042.15 389.328ZM1056.21 399.738C1053.39 399.738 1051.61 398.488 1051.44 396.496H1053.92C1054.1 397.424 1054.96 397.854 1056.24 397.863C1057.74 397.854 1058.71 397.209 1058.71 395.656V393.625H1058.59C1058.2 394.406 1057.35 395.383 1055.52 395.383C1053.07 395.383 1051.15 393.605 1051.15 390.148C1051.15 386.662 1053.08 384.797 1055.54 384.797C1057.41 384.797 1058.2 385.92 1058.59 386.672H1058.71V384.934H1061.17V395.715C1061.17 398.43 1059.07 399.738 1056.21 399.738ZM1053.69 390.188C1053.69 392.141 1054.56 393.43 1056.21 393.43C1057.82 393.43 1058.72 392.219 1058.72 390.188C1058.72 388.166 1057.83 386.838 1056.21 386.828C1054.54 386.838 1053.69 388.254 1053.69 390.188ZM972.434 427.754C969.27 427.754 967.355 425.488 967.355 422.285C967.355 419.033 969.328 416.797 972.434 416.797C975.002 416.797 976.809 418.301 976.984 420.586H974.602C974.406 419.57 973.664 418.799 972.453 418.789C970.91 418.799 969.875 420.088 969.875 422.227C969.875 424.414 970.891 425.713 972.453 425.723C973.557 425.713 974.377 425.068 974.602 423.926H976.984C976.799 426.162 975.1 427.754 972.434 427.754ZM983.738 427.754C980.643 427.754 978.66 425.557 978.66 422.285C978.66 418.984 980.643 416.797 983.738 416.797C986.844 416.797 988.826 418.984 988.816 422.285C988.826 425.557 986.844 427.754 983.738 427.754ZM981.18 422.266C981.18 424.209 982.029 425.762 983.758 425.762C985.457 425.762 986.307 424.209 986.297 422.266C986.307 420.322 985.457 418.76 983.758 418.77C982.029 418.76 981.18 420.322 981.18 422.266ZM991 427.539V416.934H993.383V418.73H993.52C993.959 417.52 995.023 416.797 996.43 416.797C997.865 416.797 998.9 417.529 999.301 418.73H999.418C999.877 417.559 1001.06 416.797 1002.6 416.797C1004.54 416.797 1005.91 418.047 1005.9 420.41V427.539H1003.42V420.801C1003.42 419.482 1002.62 418.887 1001.61 418.887C1000.38 418.887 999.672 419.717 999.672 420.918V427.539H997.25V420.703C997.24 419.6 996.518 418.887 995.453 418.887C994.379 418.887 993.5 419.775 993.5 421.094V427.539H991ZM1008.54 431.523V416.934H1010.98V418.672H1011.13C1011.51 417.92 1012.29 416.797 1014.18 416.797C1016.62 416.797 1018.54 418.711 1018.55 422.246C1018.54 425.732 1016.68 427.725 1014.18 427.734C1012.35 427.725 1011.52 426.641 1011.13 425.859H1011.04V431.523H1008.54ZM1010.98 422.227C1010.99 424.297 1011.88 425.684 1013.5 425.684C1015.15 425.684 1016.02 424.229 1016.02 422.227C1016.02 420.254 1015.17 418.838 1013.5 418.828C1011.87 418.838 1010.99 420.166 1010.98 422.227ZM1020.27 424.551C1020.27 422.168 1022.25 421.475 1024.21 421.348C1024.96 421.289 1026.47 421.221 1026.94 421.201L1026.93 420.352C1026.93 419.297 1026.26 418.691 1025.02 418.691C1023.9 418.691 1023.22 419.199 1023.02 419.961H1020.62C1020.8 418.154 1022.42 416.797 1025.07 416.797C1027.09 416.797 1029.41 417.627 1029.41 420.449V427.539H1027.03V426.074H1026.95C1026.48 426.973 1025.49 427.754 1023.82 427.754C1021.8 427.754 1020.27 426.65 1020.27 424.551ZM1022.67 424.531C1022.67 425.449 1023.42 425.918 1024.47 425.918C1025.98 425.918 1026.95 424.922 1026.95 423.73L1026.94 422.861C1026.49 422.881 1025.1 422.969 1024.61 423.008C1023.42 423.105 1022.67 423.604 1022.67 424.531ZM1034.5 421.328V427.539H1032V416.934H1034.39V418.73H1034.52C1035 417.549 1036.09 416.797 1037.67 416.797C1039.87 416.797 1041.31 418.242 1041.3 420.781V427.539H1038.82V421.172C1038.82 419.746 1038.05 418.896 1036.75 418.906C1035.43 418.896 1034.5 419.785 1034.5 421.328ZM1045.05 431.523C1044.55 431.514 1044.08 431.504 1043.76 431.465V429.473C1044.06 429.502 1044.48 429.502 1044.81 429.512C1045.42 429.502 1045.93 429.463 1046.36 428.32L1046.57 427.754L1042.7 416.934H1045.34L1047.8 424.941H1047.92L1050.38 416.934H1053.02L1048.76 428.828C1048.15 430.518 1047.04 431.514 1045.05 431.523Z" fill="white"/>
<path d="M917 86.5391L907 80.7656V92.3126L917 86.5391ZM880 86.5391V85.5391H879V86.5391H880ZM880 376.539H879V377.539H880V376.539ZM917 376.539L907 370.766V382.313L917 376.539ZM911.45 85.5391H907.75V87.5391H911.45V85.5391ZM904.05 85.5391H900.35V87.5391H904.05V85.5391ZM896.65 85.5391H892.95V87.5391H896.65V85.5391ZM889.25 85.5391H885.55V87.5391H889.25V85.5391ZM881.85 85.5391H880V87.5391H881.85V85.5391ZM879 86.5391V88.553H881V86.5391H879ZM879 92.5807V96.6085H881V92.5807H879ZM879 100.636V104.664H881V100.636H879ZM879 108.692V112.72H881V108.692H879ZM879 116.747V120.775H881V116.747H879ZM879 124.803V128.831H881V124.803H879ZM879 132.859V136.886H881V132.859H879ZM879 140.914V144.942H881V140.914H879ZM879 148.97V152.997H881V148.97H879ZM879 157.025V161.053H881V157.025H879ZM879 165.081V169.109H881V165.081H879ZM879 173.136V177.164H881V173.136H879ZM879 181.192V185.22H881V181.192H879ZM879 189.247V193.275H881V189.247H879ZM879 197.303V201.331H881V197.303H879ZM879 205.359V209.386H881V205.359H879ZM879 213.414V217.442H881V213.414H879ZM879 221.47V225.497H881V221.47H879ZM879 229.525V233.553H881V229.525H879ZM879 237.581V241.608H881V237.581H879ZM879 245.636V249.664H881V245.636H879ZM879 253.692V257.72H881V253.692H879ZM879 261.747V265.775H881V261.747H879ZM879 269.803V273.831H881V269.803H879ZM879 277.858V281.886H881V277.858H879ZM879 285.914V289.942H881V285.914H879ZM879 293.97V297.997H881V293.97H879ZM879 302.025V306.053H881V302.025H879ZM879 310.081V314.108H881V310.081H879ZM879 318.136V322.164H881V318.136H879ZM879 326.192V330.219H881V326.192H879ZM879 334.247V338.275H881V334.247H879ZM879 342.303V346.331H881V342.303H879ZM879 350.358V354.386H881V350.358H879ZM879 358.414V362.442H881V358.414H879ZM879 366.469V370.497H881V366.469H879ZM879 374.525V376.539H881V374.525H879ZM880 377.539H881.85V375.539H880V377.539ZM885.55 377.539H889.25V375.539H885.55V377.539ZM892.95 377.539H896.65V375.539H892.95V377.539ZM900.35 377.539H904.05V375.539H900.35V377.539ZM907.75 377.539H911.45V375.539H907.75V377.539Z" fill="black"/>
</svg>
