<svg width="392" height="71" viewBox="0 0 392 71" fill="none" xmlns="http://www.w3.org/2000/svg">
<path d="M38.2705 38.8177C38.2705 41.9777 34.5805 44.5377 30.0205 44.5377C25.4605 44.5377 21.7705 41.9777 21.7705 38.8177C21.7705 35.6577 25.4705 33.0977 30.0205 33.0977C34.5705 33.0977 38.2705 35.6577 38.2705 38.8177Z" fill="white"/>
<path d="M36.7499 32.419C36.7499 32.419 49.2799 31.629 49.8499 39.219C49.8499 39.219 49.8299 53.769 19.1699 56.309L36.2599 70.239C36.2599 70.239 64.7899 58.009 58.1099 39.899C58.1099 39.899 54.6699 30.939 36.7499 32.419Z" fill="white"/>
<path d="M23.3602 45.6681C23.3602 45.6681 6.49016 46.0081 9.21016 36.6181C9.21016 36.6181 10.9102 23.7081 35.5902 21.7881C35.5902 21.7881 52.6802 19.4081 67.5102 25.1881L88.7902 3.67806C88.7902 3.67806 58.0102 -6.06194 24.0402 6.15806C24.0402 6.15806 1.51016 12.8381 0.0401575 30.4981C0.0401575 30.4981 -1.99984 46.8081 23.3602 45.6681Z" fill="white"/>
<path d="M118.477 25.3203C118.477 27.5078 117.793 29.1289 116.426 30.1836C115.078 31.2188 113.262 31.7363 110.977 31.7363C110.117 31.7363 109.248 31.6387 108.369 31.4434C107.49 31.248 106.66 31.0234 105.879 30.7695V27.4297C106.777 27.8203 107.588 28.1328 108.311 28.3672C108.701 28.4844 109.16 28.6016 109.688 28.7188C110.215 28.8164 110.723 28.8652 111.211 28.8652C111.738 28.8652 112.227 28.8164 112.676 28.7188C113.145 28.6211 113.564 28.4355 113.936 28.1621C114.287 27.9277 114.59 27.6152 114.844 27.2246C115.098 26.8145 115.225 26.3066 115.225 25.7012C115.225 25.1152 115.107 24.6172 114.873 24.207C114.639 23.7969 114.355 23.4551 114.023 23.1816C113.301 22.5566 112.529 22.0293 111.709 21.5996C111.143 21.2871 110.508 20.9355 109.805 20.5449C109.121 20.1348 108.467 19.6758 107.842 19.168C107.217 18.6602 106.699 18.0645 106.289 17.3809C105.898 16.6777 105.703 15.8867 105.703 15.0078C105.703 12.9961 106.309 11.5215 107.52 10.584C108.73 9.62695 110.293 9.14844 112.207 9.14844C112.695 9.14844 113.184 9.19727 113.672 9.29492C114.16 9.37305 114.6 9.46094 114.99 9.55859C115.732 9.73438 116.484 9.94922 117.246 10.2031V13.3672C116.504 12.957 115.664 12.625 114.727 12.3711C113.789 12.0977 112.891 11.9609 112.031 11.9609C111.133 11.9609 110.381 12.2148 109.775 12.7227C109.17 13.2109 108.867 13.9043 108.867 14.8027C108.867 15.1738 108.955 15.5059 109.131 15.7988C109.326 16.0723 109.551 16.3359 109.805 16.5898C110.078 16.8828 110.391 17.1562 110.742 17.4102C111.094 17.6445 111.484 17.8691 111.914 18.084C113.281 18.8262 114.316 19.4316 115.02 19.9004C115.723 20.3496 116.299 20.7891 116.748 21.2188C117.275 21.707 117.686 22.2734 117.979 22.918C118.271 23.543 118.438 24.3438 118.477 25.3203ZM132.393 31.4141H120.615V9.55859H132.158V12.459H123.809V18.5527H131.777V21.4531H123.809V28.5137H132.393V31.4141ZM148.916 20.457C148.916 19.2852 148.77 18.1426 148.477 17.0293C148.203 15.916 147.793 14.9785 147.246 14.2168C146.738 13.4551 146.123 12.8887 145.4 12.5176C144.678 12.1465 143.936 11.9609 143.174 11.9609C142.412 11.9609 141.66 12.1465 140.918 12.5176C140.195 12.8887 139.59 13.4551 139.102 14.2168C138.555 14.9785 138.135 15.916 137.842 17.0293C137.549 18.1426 137.402 19.2852 137.402 20.457C137.402 21.6484 137.549 22.791 137.842 23.8848C138.135 24.9785 138.555 25.9062 139.102 26.668C139.59 27.4297 140.195 28.0059 140.918 28.3965C141.66 28.7676 142.412 28.9531 143.174 28.9531C143.936 28.9531 144.678 28.7676 145.4 28.3965C146.123 28.0059 146.738 27.4297 147.246 26.668C147.793 25.9062 148.203 24.9785 148.477 23.8848C148.77 22.791 148.916 21.6484 148.916 20.457ZM152.139 20.457C152.139 22 151.924 23.4844 151.494 24.9102C151.084 26.3359 150.479 27.5566 149.678 28.5723C148.877 29.6074 147.9 30.3984 146.748 30.9453C145.596 31.4727 144.404 31.7363 143.174 31.7363C141.924 31.7363 140.723 31.4727 139.57 30.9453C138.438 30.3984 137.471 29.6074 136.67 28.5723C135.869 27.5566 135.254 26.3359 134.824 24.9102C134.414 23.4844 134.209 22 134.209 20.457C134.209 18.9336 134.414 17.459 134.824 16.0332C135.254 14.6074 135.869 13.377 136.67 12.3418C137.471 11.3262 138.438 10.5449 139.57 9.99805C140.723 9.43164 141.924 9.14844 143.174 9.14844C144.404 9.14844 145.596 9.43164 146.748 9.99805C147.9 10.5449 148.877 11.3262 149.678 12.3418C150.479 13.377 151.084 14.6074 151.494 16.0332C151.924 17.459 152.139 18.9336 152.139 20.457ZM161.836 28.8359C162.578 28.875 163.213 28.7285 163.74 28.3965C164.287 28.0645 164.717 27.6543 165.029 27.166C165.322 26.5605 165.537 25.916 165.674 25.2324C165.83 24.5293 165.908 23.7773 165.908 22.9766V9.55859H169.102V23.1523C169.102 24.0703 169.014 25.0273 168.838 26.0234C168.662 27.0195 168.311 27.9375 167.783 28.7773C167.236 29.6367 166.475 30.3496 165.498 30.916C164.541 31.4629 163.32 31.7363 161.836 31.7363C160.352 31.7363 159.121 31.4629 158.145 30.916C157.188 30.3496 156.436 29.6367 155.889 28.7773C155.361 27.9375 155.01 27.0195 154.834 26.0234C154.678 25.0078 154.6 24.0508 154.6 23.1523V9.55859H157.793V22.9766C157.793 23.7773 157.861 24.5293 157.998 25.2324C158.135 25.916 158.359 26.5605 158.672 27.166C158.965 27.6543 159.375 28.0547 159.902 28.3672C160.43 28.6797 161.074 28.8359 161.836 28.8359ZM184.131 31.4141H172.324V9.55859H175.518V28.5137H184.131V31.4141ZM210.293 31.4141H206.953L204.932 24.8516H198.516L196.553 31.4141H193.213L200.186 9.55859H203.32L210.293 31.4141ZM204.082 21.9512L201.768 14.2168L199.424 21.9512H204.082ZM226.875 16.1504H223.564C223.564 15.2129 223.447 14.5195 223.213 14.0703C222.998 13.6016 222.734 13.2109 222.422 12.8984C222.07 12.625 221.67 12.4199 221.221 12.2832C220.791 12.127 220.371 12.0391 219.961 12.0195C219.219 12.0195 218.506 12.1758 217.822 12.4883C217.139 12.8008 216.533 13.3086 216.006 14.0117C215.459 14.7344 215.029 15.6523 214.717 16.7656C214.404 17.8789 214.248 18.9922 214.248 20.1055C214.248 20.8281 214.336 21.6973 214.512 22.7129C214.707 23.7285 215.029 24.7246 215.479 25.7012C215.928 26.5801 216.572 27.332 217.412 27.957C218.252 28.582 219.316 28.8945 220.605 28.8945C221.309 28.8945 221.943 28.8262 222.51 28.6895C223.096 28.5527 223.438 28.4551 223.535 28.3965V22.3027H218.936V19.3438H226.699V30.0664C225.605 30.6719 224.551 31.1016 223.535 31.3555C222.539 31.6094 221.367 31.7363 220.02 31.7363C218.457 31.7363 217.1 31.3945 215.947 30.7109C214.795 30.0078 213.838 29.0898 213.076 27.957C212.334 26.8438 211.807 25.6133 211.494 24.2656C211.182 22.918 211.025 21.5312 211.025 20.1055C211.025 18.6797 211.191 17.3223 211.523 16.0332C211.855 14.7246 212.402 13.5723 213.164 12.5762C213.906 11.5996 214.844 10.7891 215.977 10.1445C217.109 9.48047 218.438 9.14844 219.961 9.14844C220.879 9.14844 221.758 9.31445 222.598 9.64648C223.438 9.95898 224.17 10.3984 224.795 10.9648C225.42 11.5312 225.918 12.2148 226.289 13.0156C226.68 13.7969 226.875 14.8418 226.875 16.1504ZM243.076 15.9746C243.076 16.9902 242.852 17.918 242.402 18.7578C241.953 19.5781 241.367 20.2324 240.645 20.7207C240.215 20.9746 239.863 21.1602 239.59 21.2773C240.605 21.8633 241.387 22.9082 241.934 24.4121C242.637 26.3262 243.203 28.6602 243.633 31.4141H240.322C239.775 27.8008 239.111 25.4277 238.33 24.2949C237.49 23.0645 236.484 22.4492 235.312 22.4492H233.73V19.4609H235.43C236.094 19.4609 236.68 19.4023 237.188 19.2852C237.695 19.168 238.135 18.9629 238.506 18.6699C238.896 18.416 239.219 18.0547 239.473 17.5859C239.746 17.0977 239.883 16.5605 239.883 15.9746C239.883 15.3105 239.746 14.7539 239.473 14.3047C239.219 13.8555 238.896 13.5039 238.506 13.25C238.096 12.957 237.627 12.752 237.1 12.6348C236.592 12.498 236.104 12.4297 235.635 12.4297H233.086V31.4141H229.893V9.55859H235.576C236.514 9.55859 237.412 9.67578 238.271 9.91016C239.131 10.1445 239.912 10.4863 240.615 10.9355C241.357 11.4434 241.953 12.1074 242.402 12.9277C242.852 13.7285 243.076 14.7441 243.076 15.9746ZM259.453 20.457C259.453 19.2852 259.307 18.1426 259.014 17.0293C258.74 15.916 258.33 14.9785 257.783 14.2168C257.275 13.4551 256.66 12.8887 255.938 12.5176C255.215 12.1465 254.473 11.9609 253.711 11.9609C252.949 11.9609 252.197 12.1465 251.455 12.5176C250.732 12.8887 250.127 13.4551 249.639 14.2168C249.092 14.9785 248.672 15.916 248.379 17.0293C248.086 18.1426 247.939 19.2852 247.939 20.457C247.939 21.6484 248.086 22.791 248.379 23.8848C248.672 24.9785 249.092 25.9062 249.639 26.668C250.127 27.4297 250.732 28.0059 251.455 28.3965C252.197 28.7676 252.949 28.9531 253.711 28.9531C254.473 28.9531 255.215 28.7676 255.938 28.3965C256.66 28.0059 257.275 27.4297 257.783 26.668C258.33 25.9062 258.74 24.9785 259.014 23.8848C259.307 22.791 259.453 21.6484 259.453 20.457ZM262.676 20.457C262.676 22 262.461 23.4844 262.031 24.9102C261.621 26.3359 261.016 27.5566 260.215 28.5723C259.414 29.6074 258.438 30.3984 257.285 30.9453C256.133 31.4727 254.941 31.7363 253.711 31.7363C252.461 31.7363 251.26 31.4727 250.107 30.9453C248.975 30.3984 248.008 29.6074 247.207 28.5723C246.406 27.5566 245.791 26.3359 245.361 24.9102C244.951 23.4844 244.746 22 244.746 20.457C244.746 18.9336 244.951 17.459 245.361 16.0332C245.791 14.6074 246.406 13.377 247.207 12.3418C248.008 11.3262 248.975 10.5449 250.107 9.99805C251.26 9.43164 252.461 9.14844 253.711 9.14844C254.941 9.14844 256.133 9.43164 257.285 9.99805C258.438 10.5449 259.414 11.3262 260.215 12.3418C261.016 13.377 261.621 14.6074 262.031 16.0332C262.461 17.459 262.676 18.9336 262.676 20.457ZM273.984 21.834H264.375V18.8457H273.984V21.834ZM288.047 12.459H279.697V18.5527H287.725V21.4531H279.697V31.4141H276.504V9.55859H288.047V12.459ZM293.525 31.4141H290.332V9.55859H293.525V31.4141ZM308.73 25.3203C308.73 27.5078 308.047 29.1289 306.68 30.1836C305.332 31.2188 303.516 31.7363 301.23 31.7363C300.371 31.7363 299.502 31.6387 298.623 31.4434C297.744 31.248 296.914 31.0234 296.133 30.7695V27.4297C297.031 27.8203 297.842 28.1328 298.564 28.3672C298.955 28.4844 299.414 28.6016 299.941 28.7188C300.469 28.8164 300.977 28.8652 301.465 28.8652C301.992 28.8652 302.48 28.8164 302.93 28.7188C303.398 28.6211 303.818 28.4355 304.189 28.1621C304.541 27.9277 304.844 27.6152 305.098 27.2246C305.352 26.8145 305.479 26.3066 305.479 25.7012C305.479 25.1152 305.361 24.6172 305.127 24.207C304.893 23.7969 304.609 23.4551 304.277 23.1816C303.555 22.5566 302.783 22.0293 301.963 21.5996C301.396 21.2871 300.762 20.9355 300.059 20.5449C299.375 20.1348 298.721 19.6758 298.096 19.168C297.471 18.6602 296.953 18.0645 296.543 17.3809C296.152 16.6777 295.957 15.8867 295.957 15.0078C295.957 12.9961 296.562 11.5215 297.773 10.584C298.984 9.62695 300.547 9.14844 302.461 9.14844C302.949 9.14844 303.438 9.19727 303.926 9.29492C304.414 9.37305 304.854 9.46094 305.244 9.55859C305.986 9.73438 306.738 9.94922 307.5 10.2031V13.3672C306.758 12.957 305.918 12.625 304.98 12.3711C304.043 12.0977 303.145 11.9609 302.285 11.9609C301.387 11.9609 300.635 12.2148 300.029 12.7227C299.424 13.2109 299.121 13.9043 299.121 14.8027C299.121 15.1738 299.209 15.5059 299.385 15.7988C299.58 16.0723 299.805 16.3359 300.059 16.5898C300.332 16.8828 300.645 17.1562 300.996 17.4102C301.348 17.6445 301.738 17.8691 302.168 18.084C303.535 18.8262 304.57 19.4316 305.273 19.9004C305.977 20.3496 306.553 20.7891 307.002 21.2188C307.529 21.707 307.939 22.2734 308.232 22.918C308.525 23.543 308.691 24.3438 308.73 25.3203ZM325.02 31.4141H321.826V21.5117H314.062V31.4141H310.869V9.55859H314.062V18.6113H321.826V9.55859H325.02V31.4141ZM340.02 31.4141H328.242V9.55859H339.785V12.459H331.436V18.5527H339.404V21.4531H331.436V28.5137H340.02V31.4141ZM355.84 15.9746C355.84 16.9902 355.615 17.918 355.166 18.7578C354.717 19.5781 354.131 20.2324 353.408 20.7207C352.979 20.9746 352.627 21.1602 352.354 21.2773C353.369 21.8633 354.15 22.9082 354.697 24.4121C355.4 26.3262 355.967 28.6602 356.396 31.4141H353.086C352.539 27.8008 351.875 25.4277 351.094 24.2949C350.254 23.0645 349.248 22.4492 348.076 22.4492H346.494V19.4609H348.193C348.857 19.4609 349.443 19.4023 349.951 19.2852C350.459 19.168 350.898 18.9629 351.27 18.6699C351.66 18.416 351.982 18.0547 352.236 17.5859C352.51 17.0977 352.646 16.5605 352.646 15.9746C352.646 15.3105 352.51 14.7539 352.236 14.3047C351.982 13.8555 351.66 13.5039 351.27 13.25C350.859 12.957 350.391 12.752 349.863 12.6348C349.355 12.498 348.867 12.4297 348.398 12.4297H345.85V31.4141H342.656V9.55859H348.34C349.277 9.55859 350.176 9.67578 351.035 9.91016C351.895 10.1445 352.676 10.4863 353.379 10.9355C354.121 11.4434 354.717 12.1074 355.166 12.9277C355.615 13.7285 355.84 14.7441 355.84 15.9746ZM361.641 31.4141H358.447V9.55859H361.641V31.4141ZM376.758 31.4141H364.98V9.55859H376.523V12.459H368.174V18.5527H376.143V21.4531H368.174V28.5137H376.758V31.4141ZM391.26 25.3203C391.26 27.5078 390.576 29.1289 389.209 30.1836C387.861 31.2188 386.045 31.7363 383.76 31.7363C382.9 31.7363 382.031 31.6387 381.152 31.4434C380.273 31.248 379.443 31.0234 378.662 30.7695V27.4297C379.561 27.8203 380.371 28.1328 381.094 28.3672C381.484 28.4844 381.943 28.6016 382.471 28.7188C382.998 28.8164 383.506 28.8652 383.994 28.8652C384.521 28.8652 385.01 28.8164 385.459 28.7188C385.928 28.6211 386.348 28.4355 386.719 28.1621C387.07 27.9277 387.373 27.6152 387.627 27.2246C387.881 26.8145 388.008 26.3066 388.008 25.7012C388.008 25.1152 387.891 24.6172 387.656 24.207C387.422 23.7969 387.139 23.4551 386.807 23.1816C386.084 22.5566 385.312 22.0293 384.492 21.5996C383.926 21.2871 383.291 20.9355 382.588 20.5449C381.904 20.1348 381.25 19.6758 380.625 19.168C380 18.6602 379.482 18.0645 379.072 17.3809C378.682 16.6777 378.486 15.8867 378.486 15.0078C378.486 12.9961 379.092 11.5215 380.303 10.584C381.514 9.62695 383.076 9.14844 384.99 9.14844C385.479 9.14844 385.967 9.19727 386.455 9.29492C386.943 9.37305 387.383 9.46094 387.773 9.55859C388.516 9.73438 389.268 9.94922 390.029 10.2031V13.3672C389.287 12.957 388.447 12.625 387.51 12.3711C386.572 12.0977 385.674 11.9609 384.814 11.9609C383.916 11.9609 383.164 12.2148 382.559 12.7227C381.953 13.2109 381.65 13.9043 381.65 14.8027C381.65 15.1738 381.738 15.5059 381.914 15.7988C382.109 16.0723 382.334 16.3359 382.588 16.5898C382.861 16.8828 383.174 17.1562 383.525 17.4102C383.877 17.6445 384.268 17.8691 384.697 18.084C386.064 18.8262 387.1 19.4316 387.803 19.9004C388.506 20.3496 389.082 20.7891 389.531 21.2188C390.059 21.707 390.469 22.2734 390.762 22.918C391.055 23.543 391.221 24.3438 391.26 25.3203ZM125.654 61.3848H121.758L119.678 58.6016C119.072 59.2266 118.232 59.8613 117.158 60.5059C116.553 60.8379 115.908 61.1211 115.225 61.3555C114.541 61.5703 113.828 61.6875 113.086 61.707C111.895 61.7656 110.732 61.4922 109.6 60.8867C108.467 60.2617 107.627 59.334 107.08 58.1035C106.592 57.0488 106.445 55.8867 106.641 54.6172C106.836 53.3477 107.373 52.2637 108.252 51.3652C109.131 50.4277 109.912 49.7148 110.596 49.2266C111.299 48.7383 111.699 48.4551 111.797 48.377C111.172 47.5762 110.674 46.834 110.303 46.1504C109.932 45.4473 109.717 44.7539 109.658 44.0703C109.6 43.3867 109.678 42.752 109.893 42.166C110.127 41.5801 110.459 41.0527 110.889 40.584C111.338 40.1543 111.875 39.8027 112.5 39.5293C113.125 39.2559 113.828 39.1191 114.609 39.1191C115.176 39.1191 115.762 39.2168 116.367 39.4121C116.992 39.5879 117.549 39.8418 118.037 40.1738C118.525 40.5449 118.926 41.0234 119.238 41.6094C119.57 42.1758 119.746 42.8398 119.766 43.6016C119.785 44.3242 119.561 45.0762 119.092 45.8574C118.623 46.6387 118.027 47.3125 117.305 47.8789C116.973 48.1523 116.68 48.377 116.426 48.5527C116.191 48.7285 116.064 48.8262 116.045 48.8457L119.971 54.002L122.139 51.4531L124.395 53.4453L121.787 56.3164L125.654 61.3848ZM116.602 43.4258C116.602 42.918 116.406 42.4785 116.016 42.1074C115.625 41.7168 115.166 41.5215 114.639 41.5215C114.17 41.5215 113.75 41.7266 113.379 42.1367C113.027 42.5469 112.852 43.0352 112.852 43.6016C112.852 44.1875 113.047 44.8125 113.438 45.4766C113.848 46.1211 114.121 46.5312 114.258 46.707L115.078 46.0332C115.391 45.7207 115.723 45.3301 116.074 44.8613C116.426 44.3926 116.602 43.9141 116.602 43.4258ZM117.949 56.375L113.525 50.6035C112.646 51.1504 111.738 51.9609 110.801 53.0352C110.371 53.5234 110.068 54.1387 109.893 54.8809C109.717 55.6035 109.775 56.3359 110.068 57.0781C110.283 57.5859 110.684 58.0449 111.27 58.4551C111.855 58.8457 112.432 59.0508 112.998 59.0703C113.74 59.0898 114.609 58.8164 115.605 58.25C116.602 57.6836 117.383 57.0586 117.949 56.375ZM147.803 42.459H139.453V48.5527H147.48V51.4531H139.453V61.4141H136.26V39.5586H147.803V42.459ZM163.857 50.457C163.857 49.2852 163.711 48.1426 163.418 47.0293C163.145 45.916 162.734 44.9785 162.188 44.2168C161.68 43.4551 161.064 42.8887 160.342 42.5176C159.619 42.1465 158.877 41.9609 158.115 41.9609C157.354 41.9609 156.602 42.1465 155.859 42.5176C155.137 42.8887 154.531 43.4551 154.043 44.2168C153.496 44.9785 153.076 45.916 152.783 47.0293C152.49 48.1426 152.344 49.2852 152.344 50.457C152.344 51.6484 152.49 52.791 152.783 53.8848C153.076 54.9785 153.496 55.9062 154.043 56.668C154.531 57.4297 155.137 58.0059 155.859 58.3965C156.602 58.7676 157.354 58.9531 158.115 58.9531C158.877 58.9531 159.619 58.7676 160.342 58.3965C161.064 58.0059 161.68 57.4297 162.188 56.668C162.734 55.9062 163.145 54.9785 163.418 53.8848C163.711 52.791 163.857 51.6484 163.857 50.457ZM167.08 50.457C167.08 52 166.865 53.4844 166.436 54.9102C166.025 56.3359 165.42 57.5566 164.619 58.5723C163.818 59.6074 162.842 60.3984 161.689 60.9453C160.537 61.4727 159.346 61.7363 158.115 61.7363C156.865 61.7363 155.664 61.4727 154.512 60.9453C153.379 60.3984 152.412 59.6074 151.611 58.5723C150.811 57.5566 150.195 56.3359 149.766 54.9102C149.355 53.4844 149.15 52 149.15 50.457C149.15 48.9336 149.355 47.459 149.766 46.0332C150.195 44.6074 150.811 43.377 151.611 42.3418C152.412 41.3262 153.379 40.5449 154.512 39.998C155.664 39.4316 156.865 39.1484 158.115 39.1484C159.346 39.1484 160.537 39.4316 161.689 39.998C162.842 40.5449 163.818 41.3262 164.619 42.3418C165.42 43.377 166.025 44.6074 166.436 46.0332C166.865 47.459 167.08 48.9336 167.08 50.457ZM183.428 50.457C183.428 49.2852 183.281 48.1426 182.988 47.0293C182.715 45.916 182.305 44.9785 181.758 44.2168C181.25 43.4551 180.635 42.8887 179.912 42.5176C179.189 42.1465 178.447 41.9609 177.686 41.9609C176.924 41.9609 176.172 42.1465 175.43 42.5176C174.707 42.8887 174.102 43.4551 173.613 44.2168C173.066 44.9785 172.646 45.916 172.354 47.0293C172.061 48.1426 171.914 49.2852 171.914 50.457C171.914 51.6484 172.061 52.791 172.354 53.8848C172.646 54.9785 173.066 55.9062 173.613 56.668C174.102 57.4297 174.707 58.0059 175.43 58.3965C176.172 58.7676 176.924 58.9531 177.686 58.9531C178.447 58.9531 179.189 58.7676 179.912 58.3965C180.635 58.0059 181.25 57.4297 181.758 56.668C182.305 55.9062 182.715 54.9785 182.988 53.8848C183.281 52.791 183.428 51.6484 183.428 50.457ZM186.65 50.457C186.65 52 186.436 53.4844 186.006 54.9102C185.596 56.3359 184.99 57.5566 184.189 58.5723C183.389 59.6074 182.412 60.3984 181.26 60.9453C180.107 61.4727 178.916 61.7363 177.686 61.7363C176.436 61.7363 175.234 61.4727 174.082 60.9453C172.949 60.3984 171.982 59.6074 171.182 58.5723C170.381 57.5566 169.766 56.3359 169.336 54.9102C168.926 53.4844 168.721 52 168.721 50.457C168.721 48.9336 168.926 47.459 169.336 46.0332C169.766 44.6074 170.381 43.377 171.182 42.3418C171.982 41.3262 172.949 40.5449 174.082 39.998C175.234 39.4316 176.436 39.1484 177.686 39.1484C178.916 39.1484 180.107 39.4316 181.26 39.998C182.412 40.5449 183.389 41.3262 184.189 42.3418C184.99 43.377 185.596 44.6074 186.006 46.0332C186.436 47.459 186.65 48.9336 186.65 50.457ZM192.275 42.459V58.5137H194.033C194.385 58.5137 194.834 58.4941 195.381 58.4551C195.947 58.416 196.387 58.3477 196.699 58.25C197.109 58.1328 197.549 57.8984 198.018 57.5469C198.486 57.1953 198.926 56.707 199.336 56.082C199.766 55.457 200.117 54.6953 200.391 53.7969C200.664 52.8789 200.801 51.7754 200.801 50.4863C200.801 49.1777 200.664 48.0742 200.391 47.1758C200.117 46.2773 199.766 45.5156 199.336 44.8906C198.926 44.2656 198.486 43.7773 198.018 43.4258C197.549 43.0547 197.109 42.8203 196.699 42.7227C196.387 42.625 195.947 42.5566 195.381 42.5176C194.834 42.4785 194.385 42.459 194.033 42.459H192.275ZM189.111 39.5586H193.887C194.492 39.5586 195.137 39.5977 195.82 39.6758C196.504 39.7344 197.119 39.8223 197.666 39.9395C198.545 40.1738 199.355 40.584 200.098 41.1699C200.84 41.7363 201.504 42.4492 202.09 43.3086C202.637 44.1484 203.086 45.1738 203.438 46.3848C203.789 47.5762 203.965 48.9434 203.965 50.4863C203.965 52.0098 203.789 53.377 203.438 54.5879C203.086 55.7988 202.637 56.8242 202.09 57.6641C201.504 58.5234 200.84 59.2461 200.098 59.832C199.355 60.3984 198.545 60.7988 197.666 61.0332C197.119 61.1504 196.504 61.248 195.82 61.3262C195.137 61.3848 194.492 61.4141 193.887 61.4141H189.111V39.5586ZM230.391 46.1504H227.08C227.08 45.2129 226.963 44.5195 226.729 44.0703C226.514 43.6016 226.25 43.2109 225.938 42.8984C225.586 42.625 225.186 42.4199 224.736 42.2832C224.307 42.127 223.887 42.0391 223.477 42.0195C222.734 42.0195 222.021 42.1758 221.338 42.4883C220.674 42.8008 220.068 43.3086 219.521 44.0117C218.975 44.7344 218.545 45.6621 218.232 46.7949C217.92 47.9082 217.764 49.0215 217.764 50.1348C217.764 50.8574 217.852 51.7266 218.027 52.7422C218.203 53.7578 218.525 54.7539 218.994 55.7305C219.482 56.6289 220.137 57.3906 220.957 58.0156C221.777 58.6211 222.832 58.9238 224.121 58.9238C225.059 58.9238 225.947 58.7676 226.787 58.4551C227.627 58.123 228.604 57.6152 229.717 56.9316V60.3008C229.385 60.4766 229.062 60.6426 228.75 60.7988C228.457 60.9551 228.057 61.1113 227.549 61.2676C226.377 61.5996 225.039 61.7656 223.535 61.7656C221.973 61.7656 220.615 61.4238 219.463 60.7402C218.33 60.0566 217.373 59.1484 216.592 58.0156C215.83 56.8828 215.293 55.6426 214.98 54.2949C214.688 52.9473 214.541 51.5605 214.541 50.1348C214.541 48.709 214.707 47.3418 215.039 46.0332C215.371 44.7246 215.918 43.5723 216.68 42.5762C217.422 41.5996 218.359 40.7891 219.492 40.1445C220.625 39.4805 221.953 39.1484 223.477 39.1484C224.395 39.1484 225.273 39.3145 226.113 39.6465C226.953 39.959 227.686 40.3984 228.311 40.9648C228.936 41.5312 229.434 42.2148 229.805 43.0156C230.195 43.7969 230.391 44.8418 230.391 46.1504ZM246.533 50.457C246.533 49.2852 246.387 48.1426 246.094 47.0293C245.82 45.916 245.41 44.9785 244.863 44.2168C244.355 43.4551 243.74 42.8887 243.018 42.5176C242.295 42.1465 241.553 41.9609 240.791 41.9609C240.029 41.9609 239.277 42.1465 238.535 42.5176C237.812 42.8887 237.207 43.4551 236.719 44.2168C236.172 44.9785 235.752 45.916 235.459 47.0293C235.166 48.1426 235.02 49.2852 235.02 50.457C235.02 51.6484 235.166 52.791 235.459 53.8848C235.752 54.9785 236.172 55.9062 236.719 56.668C237.207 57.4297 237.812 58.0059 238.535 58.3965C239.277 58.7676 240.029 58.9531 240.791 58.9531C241.553 58.9531 242.295 58.7676 243.018 58.3965C243.74 58.0059 244.355 57.4297 244.863 56.668C245.41 55.9062 245.82 54.9785 246.094 53.8848C246.387 52.791 246.533 51.6484 246.533 50.457ZM249.756 50.457C249.756 52 249.541 53.4844 249.111 54.9102C248.701 56.3359 248.096 57.5566 247.295 58.5723C246.494 59.6074 245.518 60.3984 244.365 60.9453C243.213 61.4727 242.021 61.7363 240.791 61.7363C239.541 61.7363 238.34 61.4727 237.188 60.9453C236.055 60.3984 235.088 59.6074 234.287 58.5723C233.486 57.5566 232.871 56.3359 232.441 54.9102C232.031 53.4844 231.826 52 231.826 50.457C231.826 48.9336 232.031 47.459 232.441 46.0332C232.871 44.6074 233.486 43.377 234.287 42.3418C235.088 41.3262 236.055 40.5449 237.188 39.998C238.34 39.4316 239.541 39.1484 240.791 39.1484C242.021 39.1484 243.213 39.4316 244.365 39.998C245.518 40.5449 246.494 41.3262 247.295 42.3418C248.096 43.377 248.701 44.6074 249.111 46.0332C249.541 47.459 249.756 48.9336 249.756 50.457ZM265.4 45.9746C265.4 46.9902 265.176 47.918 264.727 48.7578C264.277 49.5781 263.691 50.2324 262.969 50.7207C262.539 50.9746 262.188 51.1602 261.914 51.2773C262.93 51.8633 263.711 52.9082 264.258 54.4121C264.961 56.3262 265.527 58.6602 265.957 61.4141H262.646C262.1 57.8008 261.436 55.4277 260.654 54.2949C259.814 53.0645 258.809 52.4492 257.637 52.4492H256.055V49.4609H257.754C258.418 49.4609 259.004 49.4023 259.512 49.2852C260.02 49.168 260.459 48.9629 260.83 48.6699C261.221 48.416 261.543 48.0547 261.797 47.5859C262.07 47.0977 262.207 46.5605 262.207 45.9746C262.207 45.3105 262.07 44.7539 261.797 44.3047C261.543 43.8555 261.221 43.5039 260.83 43.25C260.42 42.957 259.951 42.752 259.424 42.6348C258.916 42.498 258.428 42.4297 257.959 42.4297H255.41V61.4141H252.217V39.5586H257.9C258.838 39.5586 259.736 39.6758 260.596 39.9102C261.455 40.1445 262.236 40.4863 262.939 40.9355C263.682 41.4434 264.277 42.1074 264.727 42.9277C265.176 43.7285 265.4 44.7441 265.4 45.9746ZM281.074 46.1504C281.074 47.2832 280.85 48.2988 280.4 49.1973C279.951 50.0762 279.375 50.7793 278.672 51.3066C277.949 51.8145 277.148 52.1855 276.27 52.4199C275.41 52.6348 274.482 52.7422 273.486 52.7422H271.729V49.7539H273.428C274.092 49.7539 274.678 49.7051 275.186 49.6074C275.713 49.5098 276.143 49.3145 276.475 49.0215C276.885 48.7285 277.217 48.3379 277.471 47.8496C277.744 47.3418 277.881 46.7754 277.881 46.1504C277.881 45.3887 277.744 44.7832 277.471 44.334C277.197 43.8848 276.865 43.5332 276.475 43.2793C276.084 42.9473 275.625 42.7227 275.098 42.6055C274.59 42.4883 274.102 42.4297 273.633 42.4297H271.084V61.4141H267.891V39.5586H273.574C274.512 39.5586 275.4 39.6758 276.24 39.9102C277.1 40.1445 277.881 40.4863 278.584 40.9355C279.346 41.4238 279.951 42.1074 280.4 42.9863C280.85 43.8652 281.074 44.9199 281.074 46.1504ZM297.129 50.457C297.129 49.2852 296.982 48.1426 296.689 47.0293C296.416 45.916 296.006 44.9785 295.459 44.2168C294.951 43.4551 294.336 42.8887 293.613 42.5176C292.891 42.1465 292.148 41.9609 291.387 41.9609C290.625 41.9609 289.873 42.1465 289.131 42.5176C288.408 42.8887 287.803 43.4551 287.314 44.2168C286.768 44.9785 286.348 45.916 286.055 47.0293C285.762 48.1426 285.615 49.2852 285.615 50.457C285.615 51.6484 285.762 52.791 286.055 53.8848C286.348 54.9785 286.768 55.9062 287.314 56.668C287.803 57.4297 288.408 58.0059 289.131 58.3965C289.873 58.7676 290.625 58.9531 291.387 58.9531C292.148 58.9531 292.891 58.7676 293.613 58.3965C294.336 58.0059 294.951 57.4297 295.459 56.668C296.006 55.9062 296.416 54.9785 296.689 53.8848C296.982 52.791 297.129 51.6484 297.129 50.457ZM300.352 50.457C300.352 52 300.137 53.4844 299.707 54.9102C299.297 56.3359 298.691 57.5566 297.891 58.5723C297.09 59.6074 296.113 60.3984 294.961 60.9453C293.809 61.4727 292.617 61.7363 291.387 61.7363C290.137 61.7363 288.936 61.4727 287.783 60.9453C286.65 60.3984 285.684 59.6074 284.883 58.5723C284.082 57.5566 283.467 56.3359 283.037 54.9102C282.627 53.4844 282.422 52 282.422 50.457C282.422 48.9336 282.627 47.459 283.037 46.0332C283.467 44.6074 284.082 43.377 284.883 42.3418C285.684 41.3262 286.65 40.5449 287.783 39.998C288.936 39.4316 290.137 39.1484 291.387 39.1484C292.617 39.1484 293.809 39.4316 294.961 39.998C296.113 40.5449 297.09 41.3262 297.891 42.3418C298.691 43.377 299.297 44.6074 299.707 46.0332C300.137 47.459 300.352 48.9336 300.352 50.457ZM315.996 45.9746C315.996 46.9902 315.771 47.918 315.322 48.7578C314.873 49.5781 314.287 50.2324 313.564 50.7207C313.135 50.9746 312.783 51.1602 312.51 51.2773C313.525 51.8633 314.307 52.9082 314.854 54.4121C315.557 56.3262 316.123 58.6602 316.553 61.4141H313.242C312.695 57.8008 312.031 55.4277 311.25 54.2949C310.41 53.0645 309.404 52.4492 308.232 52.4492H306.65V49.4609H308.35C309.014 49.4609 309.6 49.4023 310.107 49.2852C310.615 49.168 311.055 48.9629 311.426 48.6699C311.816 48.416 312.139 48.0547 312.393 47.5859C312.666 47.0977 312.803 46.5605 312.803 45.9746C312.803 45.3105 312.666 44.7539 312.393 44.3047C312.139 43.8555 311.816 43.5039 311.426 43.25C311.016 42.957 310.547 42.752 310.02 42.6348C309.512 42.498 309.023 42.4297 308.555 42.4297H306.006V61.4141H302.812V39.5586H308.496C309.434 39.5586 310.332 39.6758 311.191 39.9102C312.051 40.1445 312.832 40.4863 313.535 40.9355C314.277 41.4434 314.873 42.1074 315.322 42.9277C315.771 43.7285 315.996 44.7441 315.996 45.9746ZM333.955 61.4141H330.615L328.594 54.8516H322.178L320.215 61.4141H316.875L323.848 39.5586H326.982L333.955 61.4141ZM327.744 51.9512L325.43 44.2168L323.086 51.9512H327.744ZM347.08 42.459H341.104V61.4141H337.91V42.459H331.904V39.5586H347.08V42.459ZM352.383 61.4141H349.189V39.5586H352.383V61.4141ZM369.609 50.457C369.609 49.2852 369.463 48.1426 369.17 47.0293C368.896 45.916 368.486 44.9785 367.939 44.2168C367.432 43.4551 366.816 42.8887 366.094 42.5176C365.371 42.1465 364.629 41.9609 363.867 41.9609C363.105 41.9609 362.354 42.1465 361.611 42.5176C360.889 42.8887 360.283 43.4551 359.795 44.2168C359.248 44.9785 358.828 45.916 358.535 47.0293C358.242 48.1426 358.096 49.2852 358.096 50.457C358.096 51.6484 358.242 52.791 358.535 53.8848C358.828 54.9785 359.248 55.9062 359.795 56.668C360.283 57.4297 360.889 58.0059 361.611 58.3965C362.354 58.7676 363.105 58.9531 363.867 58.9531C364.629 58.9531 365.371 58.7676 366.094 58.3965C366.816 58.0059 367.432 57.4297 367.939 56.668C368.486 55.9062 368.896 54.9785 369.17 53.8848C369.463 52.791 369.609 51.6484 369.609 50.457ZM372.832 50.457C372.832 52 372.617 53.4844 372.188 54.9102C371.777 56.3359 371.172 57.5566 370.371 58.5723C369.57 59.6074 368.594 60.3984 367.441 60.9453C366.289 61.4727 365.098 61.7363 363.867 61.7363C362.617 61.7363 361.416 61.4727 360.264 60.9453C359.131 60.3984 358.164 59.6074 357.363 58.5723C356.562 57.5566 355.947 56.3359 355.518 54.9102C355.107 53.4844 354.902 52 354.902 50.457C354.902 48.9336 355.107 47.459 355.518 46.0332C355.947 44.6074 356.562 43.377 357.363 42.3418C358.164 41.3262 359.131 40.5449 360.264 39.998C361.416 39.4316 362.617 39.1484 363.867 39.1484C365.098 39.1484 366.289 39.4316 367.441 39.998C368.594 40.5449 369.57 41.3262 370.371 42.3418C371.172 43.377 371.777 44.6074 372.188 46.0332C372.617 47.459 372.832 48.9336 372.832 50.457ZM389.443 61.4141H386.016L378.369 45.1543V61.4141H375.293V39.5586H378.691L386.367 55.8477V39.5586H389.443V61.4141Z" fill="white"/>
</svg>
